<?xml version="1.0" encoding="UTF-8" standalone="no"?>
<svg
   height="100"
   version="1.1"
   viewBox="0 0 100 100"
   id="svg2464"
   sodipodi:docname="blackhole-template.svg"
   inkscape:version="1.2.2 (b0a8486541, 2022-12-01)"
   xmlns:inkscape="http://www.inkscape.org/namespaces/inkscape"
   xmlns:sodipodi="http://sodipodi.sourceforge.net/DTD/sodipodi-0.dtd"
   xmlns="http://www.w3.org/2000/svg"
   xmlns:svg="http://www.w3.org/2000/svg">
  <sodipodi:namedview
     id="namedview2466"
     pagecolor="#ffffff"
     bordercolor="#000000"
     borderopacity="0.25"
     inkscape:showpageshadow="2"
     inkscape:pageopacity="0.0"
     inkscape:pagecheckerboard="0"
     inkscape:deskcolor="#d1d1d1"
     inkscape:document-units="pt"
     showgrid="false"
     inkscape:zoom="0.96857143"
     inkscape:cx="212.16814"
     inkscape:cy="94.985251"
     inkscape:window-width="1896"
     inkscape:window-height="1012"
     inkscape:window-x="0"
     inkscape:window-y="0"
     inkscape:window-maximized="1"
     inkscape:current-layer="svg2464" />
  <defs
     id="defs2382">
    <symbol
       id="u"
       overflow="visible">
      <path
         d="m3.6562-0.21875c-0.1875 0.09375-0.38672 0.16797-0.59375 0.21875-0.19922 0.050781-0.40625 0.078125-0.625 0.078125-0.66797 0-1.1992-0.17969-1.5938-0.54688-0.38672-0.375-0.57812-0.87891-0.57812-1.5156 0-0.64453 0.19141-1.1484 0.57812-1.5156 0.39453-0.375 0.92578-0.5625 1.5938-0.5625 0.21875 0 0.42578 0.027344 0.625 0.078125 0.20703 0.054687 0.40625 0.125 0.59375 0.21875v0.82812c-0.1875-0.125-0.375-0.21875-0.5625-0.28125-0.17969-0.0625-0.37109-0.09375-0.57812-0.09375-0.36719 0-0.65625 0.12109-0.875 0.35938-0.21094 0.23047-0.3125 0.55469-0.3125 0.96875 0 0.40625 0.10156 0.73047 0.3125 0.96875 0.21875 0.23047 0.50781 0.34375 0.875 0.34375 0.20703 0 0.39844-0.023437 0.57812-0.078125 0.1875-0.0625 0.375-0.16016 0.5625-0.29688z"
         id="path2319" />
    </symbol>
    <symbol
       id="d"
       overflow="visible">
      <path
         d="m2.6875-2.1719c-0.085938-0.039063-0.16797-0.070313-0.25-0.09375-0.085938-0.019531-0.16797-0.03125-0.25-0.03125-0.25 0-0.44531 0.085937-0.57812 0.25-0.125 0.15625-0.1875 0.38281-0.1875 0.67188v1.375h-0.96875v-2.9844h0.96875v0.48438c0.11328-0.19531 0.25-0.33594 0.40625-0.42188 0.16406-0.09375 0.35938-0.14062 0.57812-0.14062h0.10938c0.039063 0 0.09375 0.007812 0.15625 0.015625z"
         id="path2322" />
    </symbol>
    <symbol
       id="c"
       overflow="visible">
      <path
         d="m3.4375-1.5v0.26562h-2.2344c0.03125 0.23047 0.11328 0.40234 0.25 0.51562 0.13281 0.10547 0.32812 0.15625 0.57812 0.15625 0.20703 0 0.41406-0.023438 0.625-0.078125 0.20703-0.0625 0.42188-0.15625 0.64062-0.28125v0.73438c-0.21875 0.09375-0.44531 0.16406-0.67188 0.20312-0.23047 0.039062-0.45312 0.0625-0.67188 0.0625-0.54297 0-0.96484-0.13281-1.2656-0.40625-0.30469-0.28125-0.45312-0.67188-0.45312-1.1719 0-0.47656 0.14453-0.85938 0.4375-1.1406 0.30078-0.28125 0.70703-0.42188 1.2188-0.42188 0.46875 0 0.84375 0.14062 1.125 0.42188s0.42188 0.66406 0.42188 1.1406zm-0.96875-0.32812c0-0.17578-0.058594-0.31641-0.17188-0.42188-0.10547-0.11328-0.24219-0.17188-0.40625-0.17188-0.1875 0-0.33984 0.054687-0.45312 0.15625-0.11719 0.10547-0.1875 0.25-0.21875 0.4375z"
         id="path2325" />
    </symbol>
    <symbol
       id="b"
       overflow="visible">
      <path
         d="m1.7969-1.3438c-0.19922 0-0.35156 0.039062-0.45312 0.10938-0.09375 0.0625-0.14062 0.16406-0.14062 0.29688 0 0.11719 0.035156 0.21094 0.10938 0.28125 0.082031 0.0625 0.19531 0.09375 0.34375 0.09375 0.17578 0 0.32812-0.0625 0.45312-0.1875s0.1875-0.28516 0.1875-0.48438v-0.10938zm1.4688-0.35938v1.7031h-0.96875v-0.4375c-0.125 0.17969-0.27344 0.30859-0.4375 0.39062-0.15625 0.082031-0.35156 0.125-0.57812 0.125-0.3125 0-0.57031-0.085938-0.76562-0.26562-0.1875-0.1875-0.28125-0.42188-0.28125-0.70312 0-0.35156 0.11719-0.61328 0.35938-0.78125 0.23828-0.16406 0.61719-0.25 1.1406-0.25h0.5625v-0.0625c0-0.15625-0.0625-0.26562-0.1875-0.32812-0.11719-0.070312-0.29688-0.10938-0.54688-0.10938-0.21094 0-0.40234 0.023437-0.57812 0.0625-0.17969 0.042969-0.33984 0.10156-0.48438 0.17188v-0.71875c0.19531-0.050781 0.39844-0.085938 0.60938-0.10938 0.20703-0.03125 0.41406-0.046875 0.625-0.046875 0.53906 0 0.92969 0.10938 1.1719 0.32812 0.23828 0.21094 0.35938 0.55469 0.35938 1.0312z"
         id="path2328" />
    </symbol>
    <symbol
       id="e"
       overflow="visible">
      <path
         d="m1.5-3.8438v0.85938h0.98438v0.67188h-0.98438v1.2812c0 0.13672 0.023438 0.23047 0.078125 0.28125 0.0625 0.042969 0.17578 0.0625 0.34375 0.0625h0.48438v0.6875h-0.8125c-0.38672 0-0.65625-0.078125-0.8125-0.23438s-0.23438-0.42188-0.23438-0.79688v-1.2812h-0.46875v-0.67188h0.46875v-0.85938z"
         id="path2331" />
    </symbol>
    <symbol
       id="j"
       overflow="visible">
      <path
         d="m2.5-2.5469v-1.6094h0.95312v4.1562h-0.95312v-0.4375c-0.13672 0.17969-0.28125 0.30859-0.4375 0.39062-0.15625 0.082031-0.33984 0.125-0.54688 0.125-0.375 0-0.68359-0.14453-0.92188-0.4375-0.23047-0.28906-0.34375-0.67188-0.34375-1.1406 0-0.45703 0.11328-0.83203 0.34375-1.125 0.23828-0.28906 0.54688-0.4375 0.92188-0.4375 0.19531 0 0.375 0.042969 0.53125 0.125 0.16406 0.085938 0.31641 0.21484 0.45312 0.39062zm-0.64062 1.9375c0.20703 0 0.36328-0.070313 0.46875-0.21875 0.11328-0.15625 0.17188-0.37891 0.17188-0.67188 0-0.28125-0.058594-0.49219-0.17188-0.64062-0.10547-0.15625-0.26172-0.23438-0.46875-0.23438-0.19922 0-0.35547 0.078125-0.46875 0.23438-0.10547 0.14844-0.15625 0.35938-0.15625 0.64062 0 0.29297 0.050781 0.51562 0.15625 0.67188 0.11328 0.14844 0.26953 0.21875 0.46875 0.21875z"
         id="path2334" />
    </symbol>
    <symbol
       id="f"
       overflow="visible">
      <path
         d="m2.0469-0.60938c0.20703 0 0.36328-0.070313 0.46875-0.21875 0.11328-0.15625 0.17188-0.37891 0.17188-0.67188 0-0.28125-0.058594-0.49219-0.17188-0.64062-0.10547-0.15625-0.26172-0.23438-0.46875-0.23438-0.19922 0-0.35547 0.078125-0.46875 0.23438-0.10547 0.14844-0.15625 0.35938-0.15625 0.64062 0 0.29297 0.050781 0.51562 0.15625 0.67188 0.11328 0.14844 0.26953 0.21875 0.46875 0.21875zm-0.625-1.9375c0.125-0.17578 0.26562-0.30469 0.42188-0.39062 0.16406-0.082031 0.35156-0.125 0.5625-0.125 0.36328 0 0.66406 0.14844 0.90625 0.4375 0.23828 0.29297 0.35938 0.66797 0.35938 1.125 0 0.46875-0.12109 0.85156-0.35938 1.1406-0.24219 0.29297-0.54297 0.4375-0.90625 0.4375-0.21094 0-0.39844-0.042969-0.5625-0.125-0.15625-0.082031-0.29688-0.21094-0.42188-0.39062v0.4375h-0.96875v-4.1562h0.96875z"
         id="path2337" />
    </symbol>
    <symbol
       id="i"
       overflow="visible">
      <path
         d="m0.0625-2.9844h0.95312l0.8125 2.0156 0.6875-2.0156h0.95312l-1.2656 3.2656c-0.125 0.33203-0.27344 0.56641-0.4375 0.70312-0.16797 0.13281-0.39062 0.20312-0.67188 0.20312h-0.54688v-0.64062h0.29688c0.16406 0 0.28516-0.027344 0.35938-0.078125 0.070313-0.054688 0.12891-0.14062 0.17188-0.26562l0.03125-0.09375z"
         id="path2340" />
    </symbol>
    <symbol
       id="h"
       overflow="visible">
      <path
         d="m1.9688-2.2188c0.20703 0 0.35938-0.035156 0.45312-0.10938 0.09375-0.082031 0.14062-0.21875 0.14062-0.40625 0-0.17578-0.046875-0.30078-0.14062-0.375-0.09375-0.082031-0.24609-0.125-0.45312-0.125h-0.4375v1.0156zm-0.4375 0.70312v1.5156h-1.0312v-3.9844h1.5781c0.51953 0 0.89844 0.089844 1.1406 0.26562 0.25 0.17969 0.375 0.45312 0.375 0.82812 0 0.27344-0.0625 0.49219-0.1875 0.65625-0.125 0.16797-0.32031 0.29297-0.57812 0.375 0.13281 0.03125 0.25781 0.10547 0.375 0.21875 0.11328 0.10547 0.22656 0.27734 0.34375 0.51562l0.5625 1.125h-1.1094l-0.48438-0.98438c-0.09375-0.20703-0.19531-0.34766-0.29688-0.42188-0.09375-0.070312-0.22656-0.10938-0.39062-0.10938z"
         id="path2343" />
    </symbol>
    <symbol
       id="g"
       overflow="visible">
      <path
         d="m2.4219-4.1562v0.625h-0.51562c-0.13672 0-0.23438 0.027344-0.29688 0.078125-0.054687 0.054687-0.078125 0.13672-0.078125 0.25v0.21875h0.82812v0.67188h-0.82812v2.3125h-0.95312v-2.3125h-0.46875v-0.67188h0.46875v-0.21875c0-0.32031 0.085937-0.5625 0.26562-0.71875 0.1875-0.15625 0.47266-0.23438 0.85938-0.23438z"
         id="path2346" />
    </symbol>
    <symbol
       id="a"
       overflow="visible">
      <path
         d="m1.875-2.375c-0.21094 0-0.37109 0.078125-0.48438 0.23438-0.10547 0.14844-0.15625 0.35938-0.15625 0.64062 0 0.29297 0.050781 0.51562 0.15625 0.67188 0.11328 0.14844 0.27344 0.21875 0.48438 0.21875 0.20703 0 0.36719-0.070313 0.48438-0.21875 0.11328-0.15625 0.17188-0.37891 0.17188-0.67188 0-0.28125-0.058594-0.49219-0.17188-0.64062-0.11719-0.15625-0.27734-0.23438-0.48438-0.23438zm0-0.6875c0.51953 0 0.92188 0.14062 1.2031 0.42188 0.28906 0.27344 0.4375 0.65234 0.4375 1.1406 0 0.5-0.14844 0.89062-0.4375 1.1719-0.28125 0.27344-0.68359 0.40625-1.2031 0.40625-0.51172 0-0.91406-0.13281-1.2031-0.40625-0.29297-0.28125-0.4375-0.67188-0.4375-1.1719 0-0.48828 0.14453-0.86719 0.4375-1.1406 0.28906-0.28125 0.69141-0.42188 1.2031-0.42188z"
         id="path2349" />
    </symbol>
    <symbol
       id="t"
       overflow="visible">
      <path
         d="m2.0938-2.4375c0.16406 0 0.28906-0.035156 0.375-0.10938 0.082031-0.070313 0.125-0.17578 0.125-0.3125 0-0.14453-0.042969-0.25-0.125-0.3125-0.085938-0.070313-0.21094-0.10938-0.375-0.10938h-0.5625v0.84375zm0.046875 1.7344c0.19531 0 0.34766-0.039063 0.45312-0.125 0.10156-0.09375 0.15625-0.22266 0.15625-0.39062 0-0.17578-0.054688-0.30469-0.15625-0.39062-0.09375-0.09375-0.24609-0.14062-0.45312-0.14062h-0.60938v1.0469zm0.95312-1.4375c0.21875 0.074219 0.38281 0.19922 0.5 0.375 0.125 0.16797 0.1875 0.375 0.1875 0.625 0 0.38672-0.13281 0.67188-0.39062 0.85938-0.26172 0.1875-0.65625 0.28125-1.1875 0.28125h-1.7031v-3.9844h1.5469c0.55078 0 0.95312 0.085937 1.2031 0.25 0.25 0.16797 0.375 0.43359 0.375 0.79688 0 0.19922-0.046875 0.36719-0.14062 0.5-0.09375 0.13672-0.22656 0.23438-0.39062 0.29688z"
         id="path2352" />
    </symbol>
    <symbol
       id="s"
       overflow="visible">
      <path
         d="m2.7969-2.8906v0.71875c-0.21094-0.082031-0.40625-0.14453-0.59375-0.1875-0.1875-0.039063-0.37109-0.0625-0.54688-0.0625-0.17969 0-0.3125 0.023437-0.40625 0.0625-0.085938 0.042969-0.125 0.10938-0.125 0.20312 0 0.085938 0.03125 0.14844 0.09375 0.1875 0.070312 0.042969 0.19531 0.074219 0.375 0.09375l0.15625 0.015625c0.48828 0.0625 0.81641 0.16797 0.98438 0.3125 0.17578 0.13672 0.26562 0.35938 0.26562 0.67188s-0.12109 0.55469-0.35938 0.71875c-0.23047 0.15625-0.57812 0.23438-1.0469 0.23438-0.19922 0-0.40625-0.015625-0.625-0.046875-0.21094-0.03125-0.42188-0.078125-0.64062-0.14062v-0.71875c0.1875 0.085937 0.37891 0.15234 0.57812 0.20312 0.20703 0.042969 0.41406 0.0625 0.625 0.0625 0.1875 0 0.32812-0.023438 0.42188-0.078125 0.09375-0.050781 0.14062-0.125 0.14062-0.21875s-0.039062-0.16016-0.10938-0.20312c-0.0625-0.039062-0.1875-0.070312-0.375-0.09375l-0.17188-0.015625c-0.42969-0.050781-0.73047-0.14844-0.90625-0.29688-0.16797-0.14453-0.25-0.36328-0.25-0.65625 0-0.32031 0.10938-0.55469 0.32812-0.70312 0.21875-0.15625 0.55078-0.23438 1-0.23438 0.17578 0 0.35938 0.015625 0.54688 0.046875 0.19531 0.023437 0.41016 0.0625 0.64062 0.125z"
         id="path2355" />
    </symbol>
    <symbol
       id="r"
       overflow="visible">
      <path
         d="m3.2344-2.5c0.11328-0.17578 0.25391-0.3125 0.42188-0.40625 0.16406-0.10156 0.35156-0.15625 0.5625-0.15625 0.33203 0 0.58594 0.10938 0.76562 0.32812 0.1875 0.21094 0.28125 0.51172 0.28125 0.90625v1.8281h-0.96875v-1.5625c0.007813-0.019531 0.015625-0.039062 0.015625-0.0625v-0.10938c0-0.21875-0.03125-0.375-0.09375-0.46875s-0.16406-0.14062-0.29688-0.14062c-0.1875 0-0.33594 0.078125-0.4375 0.23438-0.09375 0.14844-0.14062 0.35938-0.14062 0.64062v1.4688h-0.96875v-1.5625c0-0.33203-0.03125-0.54688-0.09375-0.64062-0.054688-0.09375-0.15234-0.14062-0.29688-0.14062-0.17969 0-0.32031 0.078125-0.42188 0.23438-0.09375 0.14844-0.14062 0.35938-0.14062 0.64062v1.4688h-0.96875v-2.9844h0.96875v0.4375c0.11328-0.17578 0.24219-0.30469 0.39062-0.39062 0.15625-0.082031 0.32812-0.125 0.51562-0.125 0.20703 0 0.39062 0.054688 0.54688 0.15625 0.15625 0.09375 0.27344 0.23047 0.35938 0.40625z"
         id="path2358" />
    </symbol>
    <symbol
       id="q"
       overflow="visible">
      <path
         d="m3.4688-1.8281v1.8281h-0.96875v-1.3906c0-0.25781-0.007812-0.4375-0.015625-0.53125-0.011719-0.10156-0.03125-0.17578-0.0625-0.21875-0.03125-0.0625-0.085937-0.10938-0.15625-0.14062-0.0625-0.039062-0.13281-0.0625-0.20312-0.0625-0.21094 0-0.37109 0.078125-0.48438 0.23438-0.10547 0.15625-0.15625 0.37109-0.15625 0.64062v1.4688h-0.96875v-4.1562h0.96875v1.6094c0.13281-0.17578 0.28516-0.30469 0.45312-0.39062 0.16406-0.082031 0.34375-0.125 0.53125-0.125 0.34375 0 0.60156 0.10938 0.78125 0.32812 0.1875 0.21094 0.28125 0.51172 0.28125 0.90625z"
         id="path2361" />
    </symbol>
    <symbol
       id="p"
       overflow="visible">
      <path
         d="m0.5-3.9844h1.1562l1.4375 2.7344v-2.7344h0.98438v3.9844h-1.1562l-1.4375-2.7344v2.7344h-0.98438z"
         id="path2364" />
    </symbol>
    <symbol
       id="o"
       overflow="visible">
      <path
         d="m0.42188-1.1719v-1.8125h0.96875v0.29688 0.60938 0.48438c0 0.24219 0.003906 0.41797 0.015625 0.53125 0.007812 0.10547 0.03125 0.17969 0.0625 0.21875 0.039062 0.0625 0.09375 0.11719 0.15625 0.15625 0.0625 0.03125 0.13281 0.046875 0.21875 0.046875 0.19531 0 0.35156-0.078125 0.46875-0.23438 0.11328-0.15625 0.17188-0.36719 0.17188-0.64062v-1.4688h0.95312v2.9844h-0.95312v-0.4375c-0.14844 0.17969-0.30469 0.30859-0.46875 0.39062-0.15625 0.082031-0.33594 0.125-0.53125 0.125-0.34375 0-0.60938-0.10156-0.79688-0.3125-0.17969-0.21875-0.26562-0.53125-0.26562-0.9375z"
         id="path2367" />
    </symbol>
    <symbol
       id="n"
       overflow="visible">
      <path
         d="m3.4688-1.8281v1.8281h-0.96875v-1.3906c0-0.25781-0.007812-0.4375-0.015625-0.53125-0.011719-0.10156-0.03125-0.17578-0.0625-0.21875-0.03125-0.0625-0.085937-0.10938-0.15625-0.14062-0.0625-0.039062-0.13281-0.0625-0.20312-0.0625-0.21094 0-0.37109 0.078125-0.48438 0.23438-0.10547 0.15625-0.15625 0.37109-0.15625 0.64062v1.4688h-0.96875v-2.9844h0.96875v0.4375c0.13281-0.17578 0.28516-0.30469 0.45312-0.39062 0.16406-0.082031 0.34375-0.125 0.53125-0.125 0.34375 0 0.60156 0.10938 0.78125 0.32812 0.1875 0.21094 0.28125 0.51172 0.28125 0.90625z"
         id="path2370" />
    </symbol>
    <symbol
       id="m"
       overflow="visible">
      <path
         d="m0.5-3.9844h1.7031c0.50781 0 0.89844 0.11719 1.1719 0.34375 0.26953 0.21875 0.40625 0.53906 0.40625 0.95312 0 0.41797-0.13672 0.74219-0.40625 0.96875-0.27344 0.21875-0.66406 0.32812-1.1719 0.32812h-0.67188v1.3906h-1.0312zm1.0312 0.75v1.1094h0.5625c0.19531 0 0.34766-0.046875 0.45312-0.14062 0.11328-0.10156 0.17188-0.24219 0.17188-0.42188 0-0.17578-0.058594-0.3125-0.17188-0.40625-0.10547-0.09375-0.25781-0.14062-0.45312-0.14062z"
         id="path2373" />
    </symbol>
    <symbol
       id="l"
       overflow="visible">
      <path
         d="m0.45312-2.9844h0.96875v2.9375c0 0.39453-0.10156 0.69531-0.29688 0.90625-0.1875 0.21875-0.46484 0.32812-0.82812 0.32812h-0.48438v-0.64062h0.17188c0.17578 0 0.29688-0.042969 0.35938-0.125 0.070312-0.074219 0.10938-0.23047 0.10938-0.46875zm0-1.1719h0.96875v0.78125h-0.96875z"
         id="path2376" />
    </symbol>
    <symbol
       id="k"
       overflow="visible">
      <path
         d="m2.875-2.8906v0.76562c-0.125-0.082031-0.25781-0.14453-0.39062-0.1875-0.13672-0.039062-0.27344-0.0625-0.40625-0.0625-0.27344 0-0.48047 0.078125-0.625 0.23438-0.14844 0.15625-0.21875 0.37109-0.21875 0.64062 0 0.28125 0.070313 0.5 0.21875 0.65625 0.14453 0.15625 0.35156 0.23438 0.625 0.23438 0.14453 0 0.28516-0.019531 0.42188-0.0625 0.13281-0.039063 0.25781-0.10938 0.375-0.20312v0.78125c-0.14844 0.0625-0.29688 0.10156-0.45312 0.125-0.15625 0.03125-0.3125 0.046875-0.46875 0.046875-0.54297 0-0.96484-0.13281-1.2656-0.40625-0.30469-0.28125-0.45312-0.67188-0.45312-1.1719 0-0.48828 0.14844-0.86719 0.45312-1.1406 0.30078-0.28125 0.72266-0.42188 1.2656-0.42188 0.15625 0 0.3125 0.015625 0.46875 0.046875 0.15625 0.023437 0.30469 0.0625 0.45312 0.125z"
         id="path2379" />
    </symbol>
  </defs>
  <g
     id="g2462"
     transform="matrix(0.23034897,0,0,0.23034899,-31.504905,-15.590848)">
    <path
       d="m 568.99,288.85 -0.0312,-0.20312 c -0.62109,-6.3672 -0.60938,-12.926 -0.59766,-19.27 0.008,-4.8477 0.0195,-9.8594 -0.25781,-14.73 -0.51562,-9.1055 -2.8047,-17.852 -6.8008,-25.996 -3.0117,-6.1367 -3.3672,-8.1914 -3.3359,-9.2969 l 0.0391,-0.35547 c 2.4727,-13.078 -6.9141,-24.852 -15.195,-35.242 -2.6289,-3.2969 -5.1094,-6.4102 -7.1641,-9.4727 -11.395,-14.875 -16.445,-23.82 -19.789,-29.742 -6.7891,-12.027 -6.7891,-12.027 -43.75,-28.965 l -0.22656,-0.12109 c -3.9688,-2.4297 -7.1406,-5.332 -10.207,-8.1406 -1.25,-1.1445 -2.543,-2.3281 -3.8672,-3.457 -6.8867,-5.8438 -15.668,-8.5703 -24.812,-11.074 -16.188,-4.4297 -32.199,-10.641 -48.949,-18.988 -17.473,-9.6523 -34.125,-5.9297 -51.762,-1.9922 -2.3906,0.53516 -4.7969,1.0703 -7.2148,1.5781 l -0.20703,0.03125 c -4.8008,0.51563 -9.5234,0.49219 -14.094,0.47266 -6.8008,-0.03125 -13.219,-0.0625 -19.781,1.5469 l -0.24609,0.04687 c -27.387,3.3398 -63.594,18.41 -75.496,49.89801 -0.87891,2.2461 -2,4.1797 -3.2656,5.9648 -12.145,11.453 -22.938,24.738 -32.188,39.055 -14.562,20.297 -25.344,43.668 -31.469,67.219 -0.48047,1.4492 -0.95312,2.9062 -1.4062,4.3672 -0.70312,1.0781 -1.4258,2.1328 -2.1758,3.1523 -4.0977,6.1992 -5.9062,13.105 -6.7617,20.238 -0.85156,3.8203 -1.1992,7.5078 -1.1992,11.129 0,0.13281 -0.004,0.26172 0,0.39844 0,0.17578 -0.004,0.35156 0,0.53125 0,0.17969 0.004,0.35938 0.004,0.53906 -0.004,0.51953 -0.004,1.0391 0.0117,1.5586 -0.004,0.19922 -0.008,0.39844 -0.0117,0.60156 v 0.0508 c 0,0.33594 -0.004,0.67188 0.004,1.0078 -0.0117,0.24609 -0.008,0.50391 -0.008,0.75391 -0.004,0.0351 0,0.0703 0,0.10547 v 0.20703 0.0469 c -0.004,0.0234 0,0.043 -0.004,0.0625 0,0.11719 -0.008,0.23828 -0.004,0.35547 0,0.0937 0,0.1875 0.004,0.28125 v 0.0625 c 0,0.0469 -0.004,0.0937 -0.004,0.14453 v 0.125 c 0,0.0898 0.004,0.17969 0.004,0.27344 -0.004,1.2227 0.043,2.4414 0.14453,3.6562 -0.10938,2.2344 -0.16016,4.4844 -0.13281,6.7422 -0.0195,1.0938 -0.0156,2.1797 0.0117,3.2656 0.004,0.21484 -0.004,0.42578 0,0.64062 -0.0117,0.72656 -0.0273,1.4492 -0.0273,2.1719 0,0.18359 0.004,0.36719 0.008,0.55078 0,0.15234 0.004,0.30859 0.008,0.46094 -0.004,0.30859 0.004,0.61719 0.004,0.92969 -0.004,0.26953 -0.008,0.53906 -0.008,0.80859 0,0.14062 -0.004,0.28516 -0.004,0.42578 v 1.0625 0.23438 c -0.004,0.59375 0.004,1.19139 0.008,1.78519 -0.12109,16.539 2.4727,32.871 8.9883,48.26601 4.7812,14.81599 10.93,28.812 17.094,41.54699 4.6523,7.918 11.496,11.973 18.742,16.266 6.9414,4.1094 14.117,8.3594 19.379,16.227 0.75781,1.1992 1.4609,2.5156 2.2031,3.9141 1.668,3.1328 3.7461,7.02731 5.8984,8.1055 12.758,5.625 23.223,13.926 33.348,21.94901 4.3008,3.4062 8.7422,6.9336 13.312,10.207 30.691,18.555 65.836,27.262 110.58,27.38299 1.2969,-0.0742 2.5977,-0.10547 3.9023,-0.10547 4.8203,0 9.6641,0.43359 14.379,0.85547 10.008,0.89453 19.457,1.7383 28.754,-1.11329 3.6836,-1.6484 7.2148,-4.71481 10.633,-7.6758 1.7695,-1.5352 3.5977,-3.1211 5.4414,-4.5078 1.6992,-1.4023 6.375,-3.1406 13.855,-5.8633 6.793,-2.4688 14.488,-5.2695 17.34,-7.3242 10.195,-7.3398 19.344,-16.41 28.191,-25.184 5.6016,-5.55471 10.895,-10.805 16.117,-15.262 17.023,-15.812 27.449,-32.14101 30.918,-48.469 0.51953,-1.9961 2.8516,-5.0117 6.6133,-9.7734 2.1289,-2.6914 5.0391,-6.375 5.4258,-7.4922 2.457,-7.1211 3.6719,-12.707 4.8477,-18.109 1.6406,-7.5469 3.1953,-14.672 7.8906,-24.273 5.6836,-10.43401 11.074,-22.906 8.3477,-37.05901 z M 270.48,135.6 c 61.242,4.8789 132.61,31.504 159.23,90.918 36.879,91.367 -59.984,225.79 -160.31,205.69 -36.398,-6.3125 -70.934,-24.566 -95.562,-51.723 43.047,43.621 114.51,63.57 166.6,28.047 71.535,-43.09 115.72,-162.53 38.816,-220.97 -24.664,-18.012 -51.113,-35.219 -81.613,-40.707 -26.188,-4.3555 -54.508,-8.3828 -79.047,4.375 -12.629,6.5625 -23.172,15.477 -32.184,25.855 0.64844,-1.1367 1.3008,-2.2695 1.9609,-3.3984 21.578,-22.824 50.668,-38.48 82.105,-38.086 z M 159.27,353.92 c -3.6875,-4.9961 -6.9492,-10.258 -9.6836,-15.754 13.539,21.633 36.254,38.312 60.512,45.953 11.359,1.9219 22.973,2.8242 34.406,3.6797 11.02,-1.3281 21.648,-4.2891 32.027,-8.1328 22.465,-7.832 36.758,-27.023 48.352,-46.809 31.293,-47.117 16.543,-101.75 -28.18,-133.89 -24.312,-20.988 -58.625,-18.418 -88.484,-15.027 -11.223,1.0898 -20.633,4.8477 -28.562,10.48 3.4258,-3.5273 7.1602,-6.8398 11.254,-9.8945 25.797,-16.648 61.426,-10.57 90.352,-6.668 32.34,7.9219 58.66,35.379 72.938,64.562 16.273,40.188 0.45703,72.816 -20.047,107.31 -11.395,18.793 -31.078,31.691 -50.395,41.5 -17.789,8.1016 -36.414,2.8125 -54.902,1.4805 -22.848,-2.3086 -40.535,-18.578 -59.398,-30.113 -3.7383,-2.5469 -7.1328,-5.4688 -10.188,-8.6797 z m 39.98,-158.13 c 23.551,-0.82812 48.781,-8.3008 70.277,4.7539 23.027,11.875 42.551,31.516 48.129,57.543 3.6719,14.43 5.4492,30.188 -1.9219,43.754 -3.8359,7.7148 -6.1562,16.098 -10.379,23.66 -6.1094,12.121 -16.922,20.219 -25.5,30.273 -13.062,17.219 -35.941,17.562 -55.504,20.305 -26.047,1.3203 -58.961,-19.934 -74.398,-42.992 0.61328,0.64844 1.2578,1.2734 1.9453,1.8633 35.859,33.23 87.777,52.105 126.21,11.574 14.738,-17.078 27.746,-40.117 26.035,-63.207 -1.7773,-11.656 -3.1758,-23.387 -5.6953,-34.938 -3.6211,-22.898 -24.688,-33.504 -44.008,-41.629 -28.672,-16.812 -53.559,2.0547 -81.801,7.7148 -1.9492,0.0703 -3.8594,0.73047 -5.7227,1.8203 1.4609,-3.4453 3,-6.8945 4.5938,-10.344 7.0781,-7.1875 17.27,-10.5 27.734,-10.152 z m -43.082,39.184 c -0.48047,1.2695 -1.0234,2.5195 -1.6133,3.7539 -0.15234,0.15234 -0.30469,0.30859 -0.45703,0.46094 0.46484,-1.1367 0.94141,-2.2734 1.4219,-3.4102 0.21875,-0.26953 0.42969,-0.53906 0.64844,-0.80469 z m 10.145,0.28516 c 13.457,-6.082 29.508,-5.1953 43.809,-2.7461 11.84,4.9141 23.047,12.805 30.898,23.266 23.02,34.387 1.0469,71 -35.457,82.039 -7.3906,2.0859 -14.371,-1.7344 -21.855,-0.99609 -7.3945,-0.27344 -14.059,-3.0195 -20.035,-7.043 1.2188,0.55859 2.5586,1.1445 4.0703,1.7695 11.559,6.6445 23.617,1.6172 35.824,1.6719 21.23,-4.8594 39.328,-25.438 37.379,-48.012 -3.8672,-23.652 -14.973,-41.344 -38.594,-48.66 -12.41,-4.4805 -32.062,-1.4922 -45.465,6.6953 0.19531,-0.61719 0.40234,-1.2383 0.60547,-1.8555 2.7617,-2.3359 5.7227,-4.4062 8.8203,-6.1289 z m -17.566,80.957 c -0.10156,-0.71875 -0.21484,-1.4336 -0.34375,-2.1406 0.58984,0.77734 1.2461,1.5117 1.9336,2.2266 0.49219,1.1133 0.87891,2.1094 1.2578,3.0312 -0.97266,-1.0312 -1.9219,-2.0703 -2.8477,-3.1172 z m 42.559,3.3438 c -4.1289,0.30859 -7.9453,2.7891 -12.121,3.0938 -7.5117,-2.0156 -15.656,-1.0195 -22.805,-4.7812 -2.2539,-1.4766 -4.4062,-3.5156 -6.3906,-5.9336 -0.84766,-1.5742 -1.9297,-3.3125 -3.418,-5.2617 -0.13281,-0.44531 -0.26953,-0.88672 -0.41016,-1.3281 4.3125,5.4805 9.5938,9.5977 14.723,10.336 2.8203,1.5508 6.168,0.875 9.1445,2.1016 0.66797,0.0977 1.3398,0.19531 2.0078,0.29297 4.5742,1.793 8.8828,-2.5078 13.504,-2.5977 12.672,-0.63672 20.086,-15.809 19.012,-27.133 0.59375,-12.062 -3.0352,-25.625 -14.016,-32.004 -11.598,-7.6836 -26.352,-6.7812 -37.555,0.375 0.0234,-0.0859 0.043,-0.16797 0.0625,-0.25 12.168,-7.3203 25.801,-13.898 39.277,-5.6328 17.449,6.3906 23.316,22.496 22.648,39.828 0.45312,13.566 -10.078,27.434 -23.664,28.895 z m -4.5234,-19.594 c -5.793,9.0938 -17.113,13.668 -27.469,9.793 -0.66016,-0.24609 -2.0742,-0.89844 -2.3125,-0.94531 -0.61719,-0.12109 -1.9219,-0.30859 -2.7422,-0.29688 -0.59375,0.008 -1.1836,-0.0937 -1.7148,-0.35547 -2.5508,-1.2578 -4.7773,-3.0859 -6.6836,-5.2656 0.0156,-0.41016 0.0273,-0.82031 0.0469,-1.2305 1.0039,1.0664 1.9883,1.9805 2.9023,2.6758 0.16406,0.125 1.6289,1.1328 1.6289,1.1328 l 1.125,0.76562 c 3.45699,1.457 8.58979,2.6758 9.5,2.3359 3.9805,2.1875 24.62899,-8.3594 20.43399,-14.164 0.0664,-0.21094 -0.0508,-0.4375 -0.0625,-0.65625 2.86331,-9.2852 4.16801,-23.527 -6.59379,-28.719 -0.40234,-0.30469 -0.94922,-1.2969 -1.40621,-0.85156 -2.1484,-1.2695 -4.45699,-2.3047 -6.9609,-2.6133 -4.8477,-1.5117 -10.199,-1.2578 -14.852,0.62109 0.12109,-0.50391 0.23438,-1.0078 0.35547,-1.5117 7.5781,-4.2891 16.707,-1.457 25.18,-0.125 11.77,3.7656 14.203,17.422 12.46101,27.965 2.5586,4.4648 -1.82811,7.6367 -2.83591,11.445 z m -6.25,-7.7266 c 2.2695,7.7773 -4.6211,9.6797 -10.465,12.668 -2.8906,1.2266 -5.3203,3.5547 -8.8125,2.918 -1.4414,-0.73047 -3.1914,-0.1875 -4.4727,-1.375 -1.4492,-0.76953 -3.1133,-0.56641 -4.6758,-1.0312 l -2.7266,-1.6836 c -0.95312,-1.0078 -1.8828,-2.0234 -2.7812,-3.0586 0.58594,0.41797 1.1797,0.79688 1.7812,1.1289 1.207,0.69141 2.4531,0.89062 3.9258,0.72266 5.8555,4.1836 17.605,0.32812 19.5,-5.4258 0.5625,-0.62891 0.44531,-1.7812 0.87109,-2.5508 0.0273,0.082 0.0547,0.16406 0.0859,0.24219 1.4922,-9.6875 5.9219,-26.176 -8.0234,-27.824 -6.3242,-1.5742 -10.398,-2.2773 -13.895,-1.4141 0.15234,-0.68359 0.30859,-1.3672 0.46875,-2.0508 3.957,-2.168 8.4258,-3.0352 13.406,-1.2617 2.6328,0.9375 6.0078,0.96484 8.5547,2.6836 8.1406,4.3203 9.4922,12.023 8.957,20.633 1.2266,2.8789 -2.3164,4.4727 -1.6992,6.6797 z m -31.973,8.8438 c -0.19922,-0.16797 -0.39453,-0.33984 -0.59375,-0.51562 1.3203,0.44922 2.6211,0.45703 3.8828,-0.0625 5.7891,-1.5352 4.9453,-8.793 12.219,-9.6562 2.9961,-3.6719 3.793,-8.1055 1.3906,-12.578 -0.52734,-1.2539 -0.84766,-2.6758 -2.1484,-3.6953 -4.0742,-5.4609 -8.2148,-6.7617 -13.195,-5.6562 0.12891,-0.62109 0.26953,-1.2461 0.40625,-1.8672 3.2148,-0.89844 6.8477,-0.62109 11.25,-0.10547 14.809,2.6836 12.266,13.93 10.395,25.492 -0.28906,7.793 -8.8008,10.613 -15.613,10.977 -0.78906,-0.65234 -1.9961,-0.77734 -2.9961,-1.2695 0.0391,-0.0117 0.0742,-0.0234 0.10938,-0.0352 -1.9609,-0.84766 -3.5234,-0.97656 -5.1055,-1.0273 z m 0.89453,-28.707 c 7.8359,-1.3555 11.41,10.715 8.0664,16.406 -1.0781,0.84766 -2.5352,1.6406 -3.9492,1.457 -0.27734,-0.0586 -0.45703,0.21094 -0.41406,0.41406 -1.0391,0.65234 -2.4844,1.1523 -2.8164,2.4844 -2.3789,0.35547 -1.6133,3.8945 -3.3828,4.0352 -0.24609,-0.14062 -0.50781,-0.28125 -0.76953,-0.42578 0.19922,-2.832 0.47266,-5.6953 0.80859,-8.5859 0.21875,-0.20703 0.44531,-0.38672 0.70312,-0.51172 2.0391,-0.32422 6.9531,-0.28516 5.3398,-3.5352 0.45312,-2.6055 -1.3203,-5.5625 -3.5273,-6.8359 -0.25,-0.33984 -0.52734,-0.62109 -0.82031,-0.875 0.23047,-1.3359 0.47656,-2.6758 0.73438,-4.0234 0.008,0 0.0156,0 0.0273,-0.004 z m -0.90234,4.832 c 1.5508,1.0781 2.9062,2.6133 3.5703,4.3047 0.16016,0.41016 0.16016,2.9453 0.10547,3.1719 -0.85547,3.4648 -2.875,0.46094 -4.9688,2.3164 -0.0469,0.0117 -0.0859,0.0352 -0.13281,0.0508 0.39453,-3.2461 0.86328,-6.5273 1.4258,-9.8438 z m -2.4648,21.117 c 0.0195,-0.29297 0.0312,-0.57812 0.0508,-0.87109 0.24219,0.125 0.48828,0.25391 0.71875,0.37109 2.0547,0.26562 2.2109,-3.2227 3.6758,-4.293 0.625,-0.53906 1.4766,-0.86328 1.6758,-1.8008 0.69531,0.0234 1.2305,-0.27734 1.6523,-0.80859 6.8164,-0.17578 6.0938,-8.4258 4.3242,-13.035 -0.18359,-0.57031 -0.37891,-1.1445 -0.60938,-1.6992 -0.0703,-0.17578 -0.34375,-0.76953 -0.45703,-0.96484 -0.35938,-0.61719 -0.64453,-1.3477 -1.2695,-1.6211 -1.5859,-2.4609 -3.7461,-1.9805 -6.2891,-1.8828 0.125,-0.64844 0.25391,-1.3008 0.38672,-1.9492 3.9492,-0.96484 7.9375,-0.36328 11.121,3.4531 1.2852,1.9805 2.7773,3.8828 3.7539,5.3477 3.8242,14 -4.7305,9.6953 -8.8672,17.812 -0.004,-0.0117 -0.004,-0.0195 -0.008,-0.0312 -1.7656,4.1562 -6.4219,4.0469 -9.8594,1.9727 z m 8.9961,11.305 c 2.2031,0.68359 4.1523,2.7383 6.6094,2.0781 7.7031,2.9922 24.297,-2.918 25.844,-11.523 4.3242,-4.7227 4.1992,-7.9297 3.457,-13.613 1.793,-10.246 -2.8828,-25.457 -13.391,-26.711 -9.5703,-3.957 -18.352,-3.5938 -25.297,-0.48828 0.0664,-0.26562 0.13672,-0.53125 0.20312,-0.79688 26.426,-18.477 58.211,3.6758 50.395,39.07 -4.2891,15.543 -17.531,17.504 -30.562,19.637 -2.0703,0.17188 -3.4844,-1.7812 -5.5625,-1.1836 -1.0078,-0.5 -2.0664,-0.67188 -3.1367,-0.74609 -1.4141,-0.0977 -2.793,-0.52734 -4.0312,-1.2227 -1.3984,-0.78516 -3.0469,-1.1094 -4.5039,-1.7852 -1.1992,-0.88672 -2.3477,-1.8477 -3.4531,-2.8633 1.0234,0.31641 2.1523,0.39453 3.4297,0.14844 z m 4.9023,11.449 c 7.5664,1.0938 15.391,3.6602 22.984,2.4844 6.918,-3.1328 15.316,-1.7578 20.863,-7.3828 13.355,-10.891 13.871,-21.551 11.578,-37.742 -0.16406,-22.379 -29.902,-39.562 -49.734,-30.266 -3.8633,1.582 -8,3.418 -11.898,5.6055 0.13672,-0.49609 0.26562,-0.98828 0.40234,-1.4805 1.9805,-1.3398 4.1445,-2.5742 6.5508,-3.6484 9.2031,-5.1484 20.633,-9.7578 31.016,-5.5586 11.559,5.0781 23.375,10.188 29.77,22.352 2.1133,7.4648 3.7852,14.883 5.9258,22.352 0.78125,15.371 -9.6914,33.141 -25.754,35.16 -4.5391,1.1367 -8.1914,5.1836 -13.277,4.3281 -11.16,0.48828 -23.039,2.3633 -31.555,-6.9609 -0.37891,-0.34766 -0.73828,-0.71484 -1.1055,-1.0703 1.3203,0.74219 2.7305,1.3594 4.2344,1.8281 z m -6.4766,-1.6914 c 0.90234,0.87109 1.7891,1.7539 2.5859,2.6836 8.4375,9.8281 20.625,7.543 32.039,7.0859 6.1367,0.65234 10.473,-4.4062 16.398,-5.2188 3.2539,-0.53516 6.6914,-0.97656 9.2578,-3.3984 11.25,-10.613 19.293,-22.422 13.773,-38.938 -2.6992,-10.094 -3.7344,-20.809 -12.516,-27.328 -9.7305,-6.6797 -20.652,-15.039 -32.945,-14.508 -10.617,1.1875 -19.812,4.6367 -27.102,9.6641 0.35938,-1.2344 0.73438,-2.4727 1.1133,-3.7109 15.668,-9.1875 36.898,-13.715 53.301,-4.1719 19.672,7.4688 29.711,28.602 29.742,48.656 -1.0312,19.758 -17.426,37.09 -36.141,41.246 -11.641,0.15234 -23.25,4.8555 -34.312,-1.4219 -10.117,-3.9531 -13.207,-6.9531 -15.195,-10.641 z m 31.027,19.246 c 6.3633,-0.80469 12.172,2.3203 18.438,1.6133 16.145,-3.4844 30.727,-14.059 40.785,-26.836 23.617,-32.004 -4.0547,-78.676 -40.305,-83.965 -14.41,-0.44531 -30.145,-1.7305 -42.605,6.9414 -0.75781,0.53125 -1.5039,1.0859 -2.2422,1.6562 0.0352,-0.0977 0.0703,-0.19922 0.10547,-0.29688 2.1094,-1.9531 4.3359,-3.7578 6.6602,-5.3828 9.3594,-5.8711 20.379,-6.832 30.707,-7.7188 8.9531,-1.1875 18.98,-2.25 26.895,3.1484 17.48,9.7461 35.098,21.902 39.336,42.816 5.3164,18.77 0.53516,39.543 -14.238,52.648 -9.1641,9.1523 -19.672,18.266 -32.707,20.992 -27.633,4.8516 -45.695,-2.1211 -64.719,-22.785 -0.41406,-0.51562 -0.78516,-1.0508 -1.1367,-1.6016 9.3477,10.02 20.984,18.957 35.027,18.77 z m -34.438,-14.516 c 0.36328,0.36719 0.74609,0.73047 1.1562,1.0781 2.2227,2.0742 4.5,4.1406 6.8398,6.1406 -1.3125,-0.94531 -2.6367,-1.8711 -4.0039,-2.7344 -1.8164,-1.1523 -3.1445,-2.6992 -3.9922,-4.4844 z m 40.602,23.531 c 21.676,0.94531 39.621,-2.9102 55.109,-19.117 19.863,-15.809 25.824,-42.566 16.164,-65.734 -5.6992,-17.332 -20.672,-26.211 -35.359,-35.184 -12.488,-9.5469 -28.285,-5.0273 -42.586,-3.7422 -8.8203,1.0039 -16.988,4.6406 -23.969,10.008 0.58594,-1.6445 1.1914,-3.293 1.8125,-4.9453 7.207,-6.6328 15.973,-11.23 26.172,-12.23 31.23,-4.5586 49.82,-1.8203 74.969,18.508 17.516,21.703 31.148,52.738 12.93,78.121 -9.3672,14.395 -22.02,28.418 -37.922,35.453 -9.9297,4.0938 -19.242,3.2305 -29.367,5.6406 -11.078,0.54688 -20.766,-3.2422 -30.184,-8.4219 -3.8945,-2.1445 -7.4531,-4.7539 -10.941,-7.4531 6.9531,4.6602 14.566,8.1484 23.172,9.0977 z m -36.453,-15.535 c 20.898,16.426 41.504,31.195 69.355,22.691 24.059,-0.9375 41.543,-20.945 54.359,-39.266 17.074,-22.871 8.9414,-49.66 -4.8711,-70.93 -3.1328,-6.0898 -7.1602,-11.32 -12.77,-15.34 -26.133,-17.93 -41.156,-19.199 -71.93,-15.289 -9.2539,0.73438 -17.453,4.2773 -24.465,9.6094 0.26953,-0.67578 0.54687,-1.3516 0.82031,-2.0273 9.1055,-7.5625 24.863,-6.1875 35.648,-12.738 13.977,-5.3906 28.125,-9.1289 42.93,-3.2969 47.539,16.82 52.328,28.848 57.754,77.285 1.293,48.859 -47.426,99.98 -99.359,79.445 -13.293,-5.4375 -36.793,-16.477 -48.422,-30.652 0.30078,0.17969 0.61719,0.34766 0.94922,0.50781 z m 66.441,46.781 c 6.9727,0.13281 13.684,-1.8281 20.523,-2.75 5.6836,-0.76562 11.656,0.16406 15.484,-1.9922 16.398,-6.6602 20.371,-11.293 31.418,-23.688 16.898,-13.871 24.848,-34.371 32.66,-54.09 2.1328,-4.7539 2.8398,-9.8711 2.7812,-15.082 0.082,-34.797 -20.188,-66.758 -51.281,-82.125 -21.469,-13.852 -46.98,-7.1562 -70.758,-5.8125 -6.0703,0.24609 -12.18,0.25391 -18.043,1.9609 -0.44531,0.16016 -0.875,0.33984 -1.3047,0.51562 2.8203,-1.9062 5.8398,-3.625 9.0859,-5.1172 31.844,-9.6523 79.102,-12.133 105.2,11.059 22.215,18.078 42.133,42.316 42.43,72.285 2.2031,37.098 -24.812,84.566 -58.152,101.07 -30.445,14.344 -68.59,13.535 -96.488,-6.0742 -8.3711,-5.1328 -16.086,-11.566 -22.691,-18.938 16.648,15 36.438,27.953 59.133,28.773 z m -50.133,-11.77 c 19.605,13.691 39.652,29.125 64.223,29.547 21.316,3.0977 40.227,5.1797 60.453,-7.0391 33.602,-21.531 38.141,-29.797 56.02,-64.215 23.801,-38.078 14.348,-90.117 -18.75,-119.68 -28.094,-33.699 -71.352,-37.625 -112.37,-34.426 -11.906,0.0977 -22.414,4.1758 -31.559,10.668 24.23,-21.91 57.449,-24.078 91.047,-17.965 39.547,6.9609 87.164,38.691 100.46,77.754 13.039,36.668 1.1797,74.879 -19.613,106.3 -9.4492,17.297 -22.125,32.531 -39.953,41.629 -42.824,28.027 -68.051,20.348 -112.98,4.9531 -13.203,-7.0469 -26.086,-16.379 -36.988,-27.523 z m 48.5,36.09 c 49.074,14.125 68.578,14.164 112.81,-15.863 26.383,-17.941 40.191,-49.477 52.086,-78.094 19.008,-56.266 -9.0781,-104.92 -58.785,-132.15 -22.367,-14.863 -49.605,-19.367 -75.984,-19.684 -19.875,-1.8047 -36.992,3.4453 -51.422,13.105 5.293,-5.0742 10.887,-9.5156 16.766,-13.105 19.973,-12.809 44.723,-12.867 67.43,-9.6523 31.23,2.7812 59.441,16.949 84.602,34.977 22.234,14.039 40.23,35.312 45.969,61.426 20.734,75.734 -52.523,181.68 -133.41,178.53 -37.219,-0.0586 -75.172,-17.066 -101.98,-43.832 12.117,11.066 25.977,19.996 41.922,24.344 z m 163.41,-8.2695 c 24.059,-21.824 41.285,-49.801 51.578,-80.367 18.742,-47.859 2.1367,-105.77 -39.723,-136.22 -40.652,-30.152 -104.56,-54.141 -154.86,-40.57 -17.609,5.9531 -32.672,15.105 -45.422,26.555 0.625,-1.0039 1.2422,-2.0195 1.875,-3.0156 12.238,-11.305 26.441,-20.621 41.332,-27.941 82.633,-37.07 227.77,36.211 226.9,132.86 0.46875,30.902 -12.215,60.004 -25.656,87.227 -19.105,37.414 -51.664,67.484 -90.117,84.223 -38.789,16.609 -82.398,5.5117 -119.18,-11.277 -11.844,-5.7695 -23.105,-13.184 -33.465,-21.812 54.953,39.504 135.36,46.242 186.74,-9.6562 z m -221.07,-22.766 c 18.121,24.16 40.645,45.5 68.309,58.031 35.543,15.93 81.141,27.234 117.2,11.34 46.547,-19.363 80.742,-54.23 100.65,-99.512 33.781,-63.859 24.426,-134.12 -36.664,-176.99 -45.414,-32.391 -105.7,-55.047 -161.33,-40.109 -16.93,6.1328 -33.047,15.117 -47.145,26.508 2.1094,-3.1055 4.2539,-6.1719 6.4414,-9.1875 28.484,-24.371 65.23,-37.477 106.41,-29.34 93.918,9.1875 200.9,86.172 170.85,191.24 -15.652,60.129 -50.262,119.25 -110.19,143.45 -77.766,32.477 -170.08,-6.9609 -214.54,-75.434 z m 256.05,53.805 c 41.668,-32.902 63.527,-85.035 74.703,-135.69 8.8711,-48.297 -13.191,-97.367 -50.785,-127.7 -37.68,-31.445 -85.691,-48.59 -134.17,-53.496 -34.262,-5.3242 -65.133,4.6836 -90.648,23.508 4.7266,-4.2656 9.7109,-8.2969 14.965,-12.059 46.285,-33.836 99.523,-28.023 150.91,-10.609 66.863,20.98 133.94,72.281 139.01,147.04 3.4336,40.445 -12.711,78.977 -28.809,115.2 -33.875,79.68 -124.52,120.67 -206.86,94.273 -28.926,-7.5625 -59.516,-24.242 -85.098,-46.684 61.973,48.645 153.56,60.496 216.79,6.2109 z m 141,-113.02 -0.0156,0.0625 c -15.777,55.746 -43.98,104 -79.414,135.88 -33.066,29.746 -72,45.027 -114,45.027 -10.336,0 -20.852,-0.92578 -31.516,-2.7891 -34.465,-5.1992 -71.383,-20.871 -103.9,-44.117 -2.3477,-1.6797 -4.6562,-3.3906 -6.9297,-5.1328 34.66,23.352 75.52,37.043 118.2,36.559 71.883,1.3086 135.54,-49.531 160.53,-115.26 20.242,-46.168 36.609,-100.64 13.949,-148.85 -1.2188,-4.707 -8.3945,-17.641 -8.2656,-17.684 -37.293,-63.184 -111.53001,-93.855 -181.40001,-104.06 -36.355,-5.8789 -69.105,4.6406 -96.52,24.48 27.24201,-28.801 61.645,-42.242 98.262,-38.023 64.539,-0.99609 108.80001,21.375 159.91001,50.754 16.145,9.4844 20.961,16.762 28.258,27.77 2.3164,3.5 4.9453,7.4609 8.2812,11.992 33.859,41.391 46.789,94.992 34.578,143.39 z"
       id="path2384" />
  </g>
</svg>
