<?xml version="1.0" encoding="UTF-8" standalone="no"?>
<svg
   height="100"
   version="1.1"
   viewBox="0 0 100 100"
   id="svg2116"
   sodipodi:docname="brain-template.svg"
   inkscape:version="1.2.2 (b0a8486541, 2022-12-01)"
   xmlns:inkscape="http://www.inkscape.org/namespaces/inkscape"
   xmlns:sodipodi="http://sodipodi.sourceforge.net/DTD/sodipodi-0.dtd"
   xmlns="http://www.w3.org/2000/svg"
   xmlns:svg="http://www.w3.org/2000/svg">
  <sodipodi:namedview
     id="namedview2118"
     pagecolor="#ffffff"
     bordercolor="#000000"
     borderopacity="0.25"
     inkscape:showpageshadow="2"
     inkscape:pageopacity="0.0"
     inkscape:pagecheckerboard="0"
     inkscape:deskcolor="#d1d1d1"
     inkscape:document-units="pt"
     showgrid="false"
     inkscape:zoom="0.96857143"
     inkscape:cx="212.16814"
     inkscape:cy="218.87906"
     inkscape:window-width="1896"
     inkscape:window-height="1012"
     inkscape:window-x="0"
     inkscape:window-y="0"
     inkscape:window-maximized="1"
     inkscape:current-layer="svg2116" />
  <defs
     id="defs2014">
    <symbol
       id="u"
       overflow="visible">
      <path
         d="m18.766-1.125c-0.96875 0.5-1.9805 0.875-3.0312 1.125-1.043 0.25781-2.1367 0.39062-3.2812 0.39062-3.3984 0-6.0898-0.94531-8.0781-2.8438-1.9922-1.9062-2.9844-4.4844-2.9844-7.7344 0-3.2578 0.99219-5.8359 2.9844-7.7344 1.9883-1.9062 4.6797-2.8594 8.0781-2.8594 1.1445 0 2.2383 0.13281 3.2812 0.39062 1.0508 0.25 2.0625 0.625 3.0312 1.125v4.2188c-0.98047-0.65625-1.9453-1.1406-2.8906-1.4531-0.94922-0.3125-1.9492-0.46875-3-0.46875-1.875 0-3.3516 0.60547-4.4219 1.8125-1.0742 1.1992-1.6094 2.8555-1.6094 4.9688 0 2.1055 0.53516 3.7617 1.6094 4.9688 1.0703 1.1992 2.5469 1.7969 4.4219 1.7969 1.0508 0 2.0508-0.14844 3-0.45312 0.94531-0.3125 1.9102-0.80078 2.8906-1.4688z"
         id="path1951" />
    </symbol>
    <symbol
       id="c"
       overflow="visible">
      <path
         d="m13.734-11.141c-0.4375-0.19531-0.87109-0.34375-1.2969-0.4375-0.41797-0.10156-0.83984-0.15625-1.2656-0.15625-1.2617 0-2.2305 0.40625-2.9062 1.2188-0.67969 0.80469-1.0156 1.9531-1.0156 3.4531v7.0625h-4.8906v-15.312h4.8906v2.5156c0.625-1 1.3438-1.7266 2.1562-2.1875 0.82031-0.46875 1.8008-0.70312 2.9375-0.70312 0.16406 0 0.34375 0.011719 0.53125 0.03125 0.19531 0.011719 0.47656 0.039062 0.84375 0.078125z"
         id="path1954" />
    </symbol>
    <symbol
       id="b"
       overflow="visible">
      <path
         d="m17.641-7.7031v1.4062h-11.453c0.125 1.1484 0.53906 2.0078 1.25 2.5781 0.70703 0.57422 1.7031 0.85938 2.9844 0.85938 1.0312 0 2.082-0.14844 3.1562-0.45312 1.082-0.3125 2.1914-0.77344 3.3281-1.3906v3.7656c-1.1562 0.4375-2.3125 0.76562-3.4688 0.98438-1.1562 0.22656-2.3125 0.34375-3.4688 0.34375-2.7734 0-4.9297-0.70312-6.4688-2.1094-1.5312-1.4062-2.2969-3.3789-2.2969-5.9219 0-2.5 0.75391-4.4609 2.2656-5.8906 1.5078-1.4375 3.582-2.1562 6.2188-2.1562 2.4062 0 4.332 0.73047 5.7812 2.1875 1.4453 1.4492 2.1719 3.3828 2.1719 5.7969zm-5.0312-1.625c0-0.92578-0.27344-1.6719-0.8125-2.2344-0.54297-0.57031-1.25-0.85938-2.125-0.85938-0.94922 0-1.7188 0.26562-2.3125 0.79688s-0.96484 1.2969-1.1094 2.2969z"
         id="path1957" />
    </symbol>
    <symbol
       id="f"
       overflow="visible">
      <path
         d="m9.2188-6.8906c-1.0234 0-1.793 0.17188-2.3125 0.51562-0.51172 0.34375-0.76562 0.85547-0.76562 1.5312 0 0.625 0.20703 1.1172 0.625 1.4688 0.41406 0.34375 0.98828 0.51562 1.7188 0.51562 0.92578 0 1.7031-0.32812 2.3281-0.98438 0.63281-0.66406 0.95312-1.4922 0.95312-2.4844v-0.5625zm7.4688-1.8438v8.7344h-4.9219v-2.2656c-0.65625 0.92969-1.3984 1.6055-2.2188 2.0312-0.82422 0.41406-1.8242 0.625-3 0.625-1.5859 0-2.8711-0.45703-3.8594-1.375-0.99219-0.92578-1.4844-2.1289-1.4844-3.6094 0-1.7891 0.61328-3.1016 1.8438-3.9375 1.2383-0.84375 3.1797-1.2656 5.8281-1.2656h2.8906v-0.39062c0-0.76953-0.30859-1.332-0.92188-1.6875-0.61719-0.36328-1.5703-0.54688-2.8594-0.54688-1.0547 0-2.0312 0.10547-2.9375 0.3125-0.89844 0.21094-1.7305 0.52344-2.5 0.9375v-3.7344c1.0391-0.25 2.0859-0.44141 3.1406-0.57812 1.0625-0.13281 2.125-0.20312 3.1875-0.20312 2.7578 0 4.75 0.54688 5.9688 1.6406 1.2266 1.0859 1.8438 2.8555 1.8438 5.3125z"
         id="path1960" />
    </symbol>
    <symbol
       id="a"
       overflow="visible">
      <path
         d="m7.7031-19.656v4.3438h5.0469v3.5h-5.0469v6.5c0 0.71094 0.14062 1.1875 0.42188 1.4375s0.83594 0.375 1.6719 0.375h2.5156v3.5h-4.1875c-1.9375 0-3.3125-0.39844-4.125-1.2031-0.80469-0.8125-1.2031-2.1797-1.2031-4.1094v-6.5h-2.4219v-3.5h2.4219v-4.3438z"
         id="path1963" />
    </symbol>
    <symbol
       id="m"
       overflow="visible">
      <path
         d="m12.766-13.078v-8.2031h4.9219v21.281h-4.9219v-2.2188c-0.66797 0.90625-1.4062 1.5703-2.2188 1.9844s-1.7578 0.625-2.8281 0.625c-1.8867 0-3.4336-0.75-4.6406-2.25-1.2109-1.5-1.8125-3.4258-1.8125-5.7812 0-2.3633 0.60156-4.2969 1.8125-5.7969 1.207-1.5 2.7539-2.25 4.6406-2.25 1.0625 0 2 0.21484 2.8125 0.64062 0.82031 0.42969 1.5664 1.0859 2.2344 1.9688zm-3.2188 9.9219c1.0391 0 1.8359-0.37891 2.3906-1.1406 0.55078-0.76953 0.82812-1.8828 0.82812-3.3438 0-1.457-0.27734-2.5664-0.82812-3.3281-0.55469-0.76953-1.3516-1.1562-2.3906-1.1562-1.043 0-1.8398 0.38672-2.3906 1.1562-0.55469 0.76172-0.82812 1.8711-0.82812 3.3281 0 1.4609 0.27344 2.5742 0.82812 3.3438 0.55078 0.76172 1.3477 1.1406 2.3906 1.1406z"
         id="path1966" />
    </symbol>
    <symbol
       id="l"
       overflow="visible">
      <path
         d="m10.5-3.1562c1.0508 0 1.8516-0.37891 2.4062-1.1406 0.55078-0.76953 0.82812-1.8828 0.82812-3.3438 0-1.457-0.27734-2.5664-0.82812-3.3281-0.55469-0.76953-1.3555-1.1562-2.4062-1.1562-1.0547 0-1.8594 0.38672-2.4219 1.1562-0.55469 0.77344-0.82812 1.8828-0.82812 3.3281 0 1.4492 0.27344 2.5586 0.82812 3.3281 0.5625 0.77344 1.3672 1.1562 2.4219 1.1562zm-3.25-9.9219c0.67578-0.88281 1.4219-1.5391 2.2344-1.9688 0.82031-0.42578 1.7656-0.64062 2.8281-0.64062 1.8945 0 3.4453 0.75 4.6562 2.25 1.207 1.5 1.8125 3.4336 1.8125 5.7969 0 2.3555-0.60547 4.2812-1.8125 5.7812-1.2109 1.5-2.7617 2.25-4.6562 2.25-1.0625 0-2.0078-0.21094-2.8281-0.625-0.8125-0.42578-1.5586-1.0859-2.2344-1.9844v2.2188h-4.8906v-21.281h4.8906z"
         id="path1969" />
    </symbol>
    <symbol
       id="e"
       overflow="visible">
      <path
         d="m0.34375-15.312h4.8906l4.125 10.391 3.5-10.391h4.8906l-6.4375 16.766c-0.64844 1.6953-1.4023 2.8828-2.2656 3.5625-0.86719 0.6875-2 1.0312-3.4062 1.0312h-2.8438v-3.2188h1.5312c0.83203 0 1.4375-0.13672 1.8125-0.40625 0.38281-0.26172 0.67969-0.73047 0.89062-1.4062l0.14062-0.42188z"
         id="path1972" />
    </symbol>
    <symbol
       id="k"
       overflow="visible">
      <path
         d="m2.5781-20.406h5.25v16.422h9.25v3.9844h-14.5z"
         id="path1975" />
    </symbol>
    <symbol
       id="j"
       overflow="visible">
      <path
         d="m2.1875-5.9688v-9.3438h4.9219v1.5312c0 0.83594-0.007813 1.875-0.015625 3.125-0.011719 1.25-0.015625 2.0859-0.015625 2.5 0 1.2422 0.03125 2.1328 0.09375 2.6719 0.070313 0.54297 0.17969 0.93359 0.32812 1.1719 0.20703 0.32422 0.47266 0.57422 0.79688 0.75 0.32031 0.16797 0.69141 0.25 1.1094 0.25 1.0195 0 1.8203-0.39062 2.4062-1.1719 0.58203-0.78125 0.875-1.8672 0.875-3.2656v-7.5625h4.8906v15.312h-4.8906v-2.2188c-0.74219 0.89844-1.5234 1.5586-2.3438 1.9844-0.82422 0.41406-1.7344 0.625-2.7344 0.625-1.7617 0-3.1055-0.53906-4.0312-1.625-0.92969-1.082-1.3906-2.6602-1.3906-4.7344z"
         id="path1978" />
    </symbol>
    <symbol
       id="i"
       overflow="visible">
      <path
         d="m17.75-9.3281v9.3281h-4.9219v-7.1406c0-1.3203-0.03125-2.2344-0.09375-2.7344s-0.16797-0.86719-0.3125-1.1094c-0.1875-0.3125-0.44922-0.55469-0.78125-0.73438-0.32422-0.17578-0.69531-0.26562-1.1094-0.26562-1.0234 0-1.8242 0.39844-2.4062 1.1875-0.58594 0.78125-0.875 1.8711-0.875 3.2656v7.5312h-4.8906v-15.312h4.8906v2.2344c0.73828-0.88281 1.5195-1.5391 2.3438-1.9688 0.83203-0.42578 1.75-0.64062 2.75-0.64062 1.7695 0 3.1133 0.54688 4.0312 1.6406 0.91406 1.0859 1.375 2.6562 1.375 4.7188z"
         id="path1981" />
    </symbol>
    <symbol
       id="t"
       overflow="visible">
      <path
         d="m16.781-19.766v4.3125c-1.125-0.5-2.2266-0.875-3.2969-1.125-1.0625-0.25781-2.0703-0.39062-3.0156-0.39062-1.25 0-2.1797 0.17969-2.7812 0.53125-0.60547 0.34375-0.90625 0.88281-0.90625 1.6094 0 0.54297 0.20312 0.96875 0.60938 1.2812 0.40625 0.30469 1.1406 0.5625 2.2031 0.78125l2.25 0.45312c2.2695 0.44922 3.8789 1.1406 4.8281 2.0781 0.95703 0.92969 1.4375 2.2461 1.4375 3.9531 0 2.25-0.66797 3.9297-2 5.0312-1.3359 1.0938-3.3711 1.6406-6.1094 1.6406-1.3047 0-2.6055-0.125-3.9062-0.375-1.3047-0.23828-2.6055-0.59766-3.9062-1.0781v-4.4531c1.3008 0.69922 2.5625 1.2266 3.7812 1.5781 1.2188 0.34375 2.3906 0.51562 3.5156 0.51562 1.1562 0 2.0352-0.1875 2.6406-0.5625 0.61328-0.38281 0.92188-0.9375 0.92188-1.6562 0-0.63281-0.21094-1.125-0.625-1.4688-0.41797-0.34375-1.2461-0.65625-2.4844-0.9375l-2.0312-0.4375c-2.043-0.4375-3.5391-1.1328-4.4844-2.0938-0.9375-0.95703-1.4062-2.25-1.4062-3.875 0-2.0312 0.65625-3.5938 1.9688-4.6875s3.1953-1.6406 5.6562-1.6406c1.125 0 2.2734 0.085938 3.4531 0.25 1.1875 0.16797 2.4141 0.42188 3.6875 0.76562z"
         id="path1984" />
    </symbol>
    <symbol
       id="h"
       overflow="visible">
      <path
         d="m16.547-12.766c0.61328-0.94531 1.3477-1.6719 2.2031-2.1719 0.85156-0.5 1.7891-0.75 2.8125-0.75 1.7578 0 3.0977 0.54688 4.0156 1.6406 0.92578 1.0859 1.3906 2.6562 1.3906 4.7188v9.3281h-4.9219v-7.9844-0.35938c0.007813-0.13281 0.015625-0.32031 0.015625-0.5625 0-1.082-0.16406-1.8633-0.48438-2.3438-0.3125-0.48828-0.82422-0.73438-1.5312-0.73438-0.92969 0-1.6484 0.38672-2.1562 1.1562-0.51172 0.76172-0.77344 1.8672-0.78125 3.3125v7.5156h-4.9219v-7.9844c0-1.6953-0.14844-2.7852-0.4375-3.2656-0.29297-0.48828-0.8125-0.73438-1.5625-0.73438-0.9375 0-1.6641 0.38672-2.1719 1.1562-0.51172 0.76172-0.76562 1.8594-0.76562 3.2969v7.5312h-4.9219v-15.312h4.9219v2.2344c0.60156-0.86328 1.2891-1.5156 2.0625-1.9531 0.78125-0.4375 1.6406-0.65625 2.5781-0.65625 1.0625 0 2 0.25781 2.8125 0.76562 0.8125 0.51172 1.4258 1.2305 1.8438 2.1562z"
         id="path1987" />
    </symbol>
    <symbol
       id="s"
       overflow="visible">
      <path
         d="m2.3594-15.312h4.8906v15.312h-4.8906zm0-5.9688h4.8906v4h-4.8906z"
         id="path1990" />
    </symbol>
    <symbol
       id="g"
       overflow="visible">
      <path
         d="m17.75-9.3281v9.3281h-4.9219v-7.1094c0-1.3438-0.03125-2.2656-0.09375-2.7656s-0.16797-0.86719-0.3125-1.1094c-0.1875-0.3125-0.44922-0.55469-0.78125-0.73438-0.32422-0.17578-0.69531-0.26562-1.1094-0.26562-1.0234 0-1.8242 0.39844-2.4062 1.1875-0.58594 0.78125-0.875 1.8711-0.875 3.2656v7.5312h-4.8906v-21.281h4.8906v8.2031c0.73828-0.88281 1.5195-1.5391 2.3438-1.9688 0.83203-0.42578 1.75-0.64062 2.75-0.64062 1.7695 0 3.1133 0.54688 4.0312 1.6406 0.91406 1.0859 1.375 2.6562 1.375 4.7188z"
         id="path1993" />
    </symbol>
    <symbol
       id="r"
       overflow="visible">
      <path
         d="m12.422-21.281v3.2188h-2.7031c-0.6875 0-1.1719 0.125-1.4531 0.375-0.27344 0.25-0.40625 0.6875-0.40625 1.3125v1.0625h4.1875v3.5h-4.1875v11.812h-4.8906v-11.812h-2.4375v-3.5h2.4375v-1.0625c0-1.6641 0.46094-2.8984 1.3906-3.7031 0.92578-0.80078 2.3672-1.2031 4.3281-1.2031z"
         id="path1996" />
    </symbol>
    <symbol
       id="d"
       overflow="visible">
      <path
         d="m9.6406-12.188c-1.0859 0-1.9141 0.39062-2.4844 1.1719-0.57422 0.78125-0.85938 1.9062-0.85938 3.375s0.28516 2.5938 0.85938 3.375c0.57031 0.77344 1.3984 1.1562 2.4844 1.1562 1.0625 0 1.875-0.38281 2.4375-1.1562 0.57031-0.78125 0.85938-1.9062 0.85938-3.375s-0.28906-2.5938-0.85938-3.375c-0.5625-0.78125-1.375-1.1719-2.4375-1.1719zm0-3.5c2.6328 0 4.6914 0.71484 6.1719 2.1406 1.4766 1.418 2.2188 3.3867 2.2188 5.9062 0 2.5117-0.74219 4.4805-2.2188 5.9062-1.4805 1.418-3.5391 2.125-6.1719 2.125-2.6484 0-4.7148-0.70703-6.2031-2.125-1.4922-1.4258-2.2344-3.3945-2.2344-5.9062 0-2.5195 0.74219-4.4883 2.2344-5.9062 1.4883-1.4258 3.5547-2.1406 6.2031-2.1406z"
         id="path1999" />
    </symbol>
    <symbol
       id="q"
       overflow="visible">
      <path
         d="m2.5781-20.406h5.875l7.4219 14v-14h4.9844v20.406h-5.875l-7.4219-14v14h-4.9844z"
         id="path2002" />
    </symbol>
    <symbol
       id="p"
       overflow="visible">
      <path
         d="m2.5781-20.406h8.7344c2.5938 0 4.582 0.57812 5.9688 1.7344 1.3945 1.1484 2.0938 2.7891 2.0938 4.9219 0 2.1367-0.69922 3.7812-2.0938 4.9375-1.3867 1.1562-3.375 1.7344-5.9688 1.7344h-3.4844v7.0781h-5.25zm5.25 3.8125v5.7031h2.9219c1.0195 0 1.8047-0.25 2.3594-0.75 0.5625-0.5 0.84375-1.2031 0.84375-2.1094 0-0.91406-0.28125-1.6172-0.84375-2.1094-0.55469-0.48828-1.3398-0.73438-2.3594-0.73438z"
         id="path2005" />
    </symbol>
    <symbol
       id="o"
       overflow="visible">
      <path
         d="m2.3594-15.312h4.8906v15.031c0 2.0508-0.49609 3.6172-1.4844 4.7031-0.98047 1.082-2.4062 1.625-4.2812 1.625h-2.4219v-3.2188h0.85938c0.92578 0 1.5625-0.21094 1.9062-0.625 0.35156-0.41797 0.53125-1.2461 0.53125-2.4844zm0-5.9688h4.8906v4h-4.8906z"
         id="path2008" />
    </symbol>
    <symbol
       id="n"
       overflow="visible">
      <path
         d="m14.719-14.828v3.9844c-0.65625-0.45703-1.3242-0.79688-2-1.0156-0.66797-0.21875-1.3594-0.32812-2.0781-0.32812-1.3672 0-2.4336 0.40234-3.2031 1.2031-0.76172 0.79297-1.1406 1.9062-1.1406 3.3438 0 1.4297 0.37891 2.543 1.1406 3.3438 0.76953 0.79297 1.8359 1.1875 3.2031 1.1875 0.75781 0 1.4844-0.10938 2.1719-0.32812 0.6875-0.22656 1.3203-0.56641 1.9062-1.0156v4c-0.76172 0.28125-1.5391 0.48828-2.3281 0.625-0.78125 0.14453-1.5742 0.21875-2.375 0.21875-2.7617 0-4.9219-0.70703-6.4844-2.125-1.5547-1.4141-2.3281-3.3828-2.3281-5.9062 0-2.5312 0.77344-4.5039 2.3281-5.9219 1.5625-1.4141 3.7227-2.125 6.4844-2.125 0.80078 0 1.5938 0.074219 2.375 0.21875 0.78125 0.13672 1.5547 0.35156 2.3281 0.64062z"
         id="path2011" />
    </symbol>
  </defs>
  <g
     id="g2114"
     transform="matrix(0.18796962,0,0,0.18796915,-15.246016,-2.6317185)">
    <path
       d="m 331.51,55.395 c 0.0547,-14.453 0.10156,-26.938 -7.7148,-34.777 -4.4375,-4.4531 -10.68,-6.6172 -19.086,-6.6172 -18.867,0 -35.727,11.16 -42.805,27.734 -4.3594,-0.86719 -8.8438,-1.3125 -13.406,-1.3125 -37.043,0 -67.184,29.863 -67.184,66.578 0,2.5234 0.14453,5.0273 0.42578,7.5 -42.602,8.0352 -74.031,45.195 -74.031,88.762 0,27.215 12.355,52.797 33.402,69.898 -20.379,16.586 -33.402,41.738 -33.402,69.848 0,42.453 29.699,78.156 69.59,87.801 -3.0859,7.6523 -3.0898,14.539 -3.0898,21.73 0,36.707 30.137,66.574 67.184,66.574 6.25,0 13.402,-0.45703 20.883,-3.2812 6.3672,17.816 23.816,30.168 43.766,30.168 8.2383,0 14.305,-2.0898 18.555,-6.3984 7.2773,-7.3711 7.1328,-18.902 6.957,-32.25 -0.0234,-2.043 -0.0508,-4.1445 -0.0508,-6.2852 v -442.13 z m -15.145,476.09 c -1.9609,1.9883 -5.3359,2.9531 -10.324,2.9531 -16.738,0 -31.109,-11.441 -34.172,-27.207 -0.39062,-2.0117 -0.58594,-4.082 -0.58594,-6.1602 0,-7.7539 2.6875,-15.027 7.7695,-21.031 l -8.8203,-7.4766 c -6.7812,8.0078 -10.516,18.129 -10.516,28.508 0,1.0938 0.043,2.1836 0.12109,3.2695 -6.3477,2.7773 -12.586,3.207 -18.449,3.207 -30.668,0 -55.617,-24.68 -55.617,-55.008 0,-7.4844 0.004,-13.176 3.293,-19.691 3.2383,0.34766 6.5234,0.52344 9.8516,0.52344 6.1719,0 12.352,-0.61719 18.363,-1.8281 l -2.293,-11.34 c -5.2617,1.0664 -10.668,1.6055 -16.07,1.6055 -43.918,0 -79.645,-35.352 -79.645,-78.801 0,-43.449 35.73,-78.801 79.645,-78.801 v -11.566 c -17.586,0 -34.023,4.957 -47.969,13.531 -19.906,-14.875 -31.68,-38.125 -31.68,-62.91 0,-38.039 27.508,-70.469 64.766,-77.422 2.9609,9.9727 8.2656,19.18 15.637,26.902 l 8.3672,-7.9844 c -9.7812,-10.246 -15.168,-23.652 -15.168,-37.758 0,-30.332 24.949,-55.012 55.617,-55.012 15.43,0 29.777,6.1055 40.395,17.199 l 8.3594,-7.9961 c -6.9102,-7.2148 -15.121,-12.68 -24.137,-16.188 5.5859,-11.668 17.879,-19.434 31.598,-19.434 5.1719,0 8.7344,1.0547 10.895,3.2148 4.4258,4.4375 4.3867,14.695 4.3477,26.574 l -0.0117,445.71 c 0,2.1914 0.0274,4.3359 0.0547,6.4336 0.14453,10.758 0.26172,20.047 -3.6211,23.98 z"
       id="path2016" />
    <path
       d="m 221.5,212.68 c -2.2344,4.6211 -4.0703,10.289 -4.5977,16.918 -0.92188,11.645 2.5703,20.902 5.6602,26.625 l 10.176,-5.5 c -1.9258,-3.5586 -5.0391,-10.914 -4.3047,-20.211 0.77344,-9.7109 5.2656,-16.711 8.4688,-20.547 16.895,-5.4297 30.805,-18.492 36.34,-35.973 3.5508,-11.211 3.2461,-22.836 -0.17188,-33.445 -0.75,-7.4023 3.7695,-14.004 12.82,-18.656 2.8516,-1.4727 6.1172,-2.1836 9.5898,-2.043 l 0.37109,-11.559 c -5.5469,-0.17969 -10.633,0.94141 -15.254,3.3203 -6.8047,3.4961 -11.969,8.1562 -15.215,13.504 -6.8203,-9.7305 -16.707,-17.5 -28.781,-21.602 l -3.7148,10.949 c 23.434,7.9648 36.594,33.105 29.332,56.043 -6.6016,20.844 -28.305,33.754 -50.57,30.023 l -1.9102,11.406 c 3.2031,0.53516 6.3906,0.79688 9.5508,0.79688 0.74219,-0.008 1.4805,-0.0234 2.2109,-0.0508 z"
       id="path2018" />
    <path
       d="m 285.68,301.39 c 13.434,-14.367 14.648,-36.055 2.7617,-49.387 -8.1953,-9.1797 -21.539,-12.883 -34.773,-9.6641 l 2.7227,11.238 c 8.9961,-2.1758 18.16,0.23438 23.426,6.1289 7.8086,8.7578 6.6523,23.914 -2.582,33.781 z"
       id="path2020" />
    <path
       d="m 232.27,335.94 c 7.6914,3.8398 11.984,9.8828 13.863,13.141 l 10.02,-5.7695 c -3.082,-5.3594 -8.832,-12.785 -18.719,-17.715 -3.5938,-1.793 -7.1562,-2.9219 -10.406,-3.6211 4.9492,-8.0977 7.207,-17.82 6.1328,-27.715 l -11.496,1.2539 c 1.2773,11.695 -3.7422,23.039 -13.094,29.602 -10.316,7.2578 -24.051,7.4727 -34.984,0.55859 l -6.1875,9.7695 c 7.2188,4.5703 15.344,6.8438 23.414,6.8438 8.582,-0.004 17.109,-2.582 24.406,-7.707 0.93359,-0.65625 1.832,-1.3438 2.7031,-2.0664 3.5547,0.0859 8.8906,0.70312 14.348,3.4258 z"
       id="path2022" />
    <path
       d="m 280.02,185.48 c -6.4883,9.6523 -4.332,20.043 -3.5195,22.996 l 11.148,-3.0703 c -0.34375,-1.2461 -1.8633,-7.7656 1.9727,-13.473 3.3945,-5.0469 9.8047,-7.6953 16.234,-6.7539 l 1.6602,-11.445 c -10.836,-1.5625 -21.641,3.0352 -27.496,11.746 z"
       id="path2024" />
    <path
       d="m 280.29,339.49 c -11.414,6.3242 -16.84,20.461 -12.91,33.602 l 11.078,-3.3086 c -2.3828,-7.9805 0.73828,-16.461 7.4297,-20.172 5.2695,-2.9141 12.117,-2.3906 17.5,1.332 l 6.5859,-9.5 c -8.9453,-6.2188 -20.613,-6.9727 -29.684,-1.9531 z"
       id="path2026" />
    <path
       d="m 172.29,362.9 c 1.5234,7.3242 -1.207,14.598 -6.8047,18.098 -5.6172,3.5195 -12.027,1.7148 -13.266,1.3203 l -3.5586,11 c 1.4727,0.48047 4.8164,1.3789 9.0195,1.3789 4.1406,0 9.1133,-0.875 13.938,-3.8984 9.6836,-6.0586 14.5,-18.223 11.988,-30.262 z"
       id="path2028" />
    <path
       d="m 169.49,182.6 c -14.613,5.3672 -20.199,17.93 -21.559,21.652 l 10.855,3.9805 c 0.66797,-1.8086 4.4883,-11.027 14.695,-14.777 9.5312,-3.4883 17.742,0.19922 20.035,1.4141 l 5.4219,-10.215 c -3.3672,-1.7812 -15.43,-7.2031 -29.449,-2.0547 z"
       id="path2030" />
    <path
       d="m 237.7,444.95 -8.1211,-8.2344 c -4.6133,4.5508 -10.684,12.34 -13.395,23.578 -3.6133,14.938 0.74609,27.316 3.6641,33.363 l 10.414,-5.0273 c -2.2461,-4.6602 -5.6016,-14.18 -2.8398,-25.621 2.0781,-8.5938 6.7344,-14.562 10.277,-18.059 z"
       id="path2032" />
    <path
       d="m 288.58,418.57 c -10.914,-0.58594 -17.484,-9.9844 -19.031,-12.449 -1.25,-4.2461 -3.1836,-8.3125 -5.793,-12 -8.8984,-12.566 -24.465,-19.16 -39.598,-16.73 l 1.8086,11.418 c 10.859,-1.707 21.977,2.9922 28.348,12 6.3828,9.0117 7.1484,21.145 1.9648,30.91 l 10.211,5.4219 c 2.2109,-4.168 3.6445,-8.6406 4.3125,-13.207 4.4609,3.1836 10.191,5.8164 17.156,6.1953 0.55859,0.0273 1.1172,0.0469 1.6836,0.0469 5.4961,0 11.016,-1.4531 16.082,-4.2227 l -5.5586,-10.141 c -2.5742,1.3945 -6.668,3.0781 -11.586,2.7578 z"
       id="path2034" />
    <path
       d="m 341.58,521.23 c 0,13.66 11.113,24.773 24.773,24.773 13.66,0 24.773,-11.113 24.773,-24.773 0,-1.3477 -0.10938,-2.6719 -0.31641,-3.9609 l 102.57,-42.922 c 4.5117,6.1445 11.789,10.145 19.98,10.145 13.66,0 24.773,-11.113 24.773,-24.773 0,-6.7656 -2.7266,-12.906 -7.1406,-17.383 l 28.691,-46.078 c 2.4609,0.82031 5.0898,1.2656 7.8242,1.2656 13.66,0 24.773,-11.113 24.773,-24.77 0,-11.668 -8.1094,-21.48 -18.992,-24.09 v -124.12 c 10.879,-2.6133 18.992,-12.422 18.992,-24.086 0,-13.66 -11.113,-24.773 -24.773,-24.773 -3.4648,0 -6.7656,0.71484 -9.7617,2.0078 l -51.637,-69.258 c 3.5859,-4.2969 5.7461,-9.8242 5.7461,-15.844 0,-13.66 -11.113,-24.773 -24.773,-24.773 -7.9883,0 -15.102,3.8008 -19.637,9.6875 l -76.742,-34.199 c 0.27344,-1.4688 0.41406,-2.9805 0.41406,-4.5234 0,-13.656 -11.113,-24.77 -24.773,-24.77 -13.66,0 -24.773,11.113 -24.773,24.77 0,11.668 8.1094,21.48 18.992,24.09 v 40.676 c -7.7773,2.4609 -13.43,9.7422 -13.43,18.32 0,8.5778 5.6523,15.863 13.43,18.32 v 60.934 c -7.7773,2.4609 -13.43,9.7422 -13.43,18.32 0,8.5778 5.6523,15.863 13.43,18.32 v 109.05 c -7.7773,2.4609 -13.43,9.7422 -13.43,18.32 0,8.5778 5.6523,15.863 13.43,18.32 v 113.69 c -10.879,2.6133 -18.988,12.422 -18.988,24.094 z m 37.867,-385.32 36.02,20.352 c -0.28125,1.3086 -0.42969,2.668 -0.42969,4.0625 0,2.7539 0.57813,5.375 1.6211,7.75 l -40.273,34.992 c -1.3203,-0.80859 -2.7422,-1.4648 -4.2461,-1.9414 l -0.004,-60.938 c 2.7578,-0.87109 5.2461,-2.3477 7.3125,-4.2773 z m 85.547,-32.121 c 0.76953,1.5156 1.6953,2.9414 2.75,4.2578 l -26.555,34.141 c -2.1133,-0.79297 -4.4023,-1.2305 -6.7891,-1.2305 -5.1133,0 -9.7695,1.9922 -13.234,5.2422 l -36.016,-20.352 c 0.21875,-1.0273 0.35156,-2.0859 0.39844,-3.168 z m 31.852,11.566 51.637,69.254 c -3.3594,4.0234 -5.4648,9.125 -5.7188,14.703 l -59.969,11.5 c -2.4258,-5.3398 -6.6914,-9.668 -11.98,-12.18 l 17,-81.285 c 3.1992,-0.0937 6.2461,-0.79297 9.0312,-1.9922 z m 62.039,234.18 -29.652,-44.176 c 4.0664,-4.4141 6.5508,-10.305 6.5508,-16.766 0,-6.6484 -2.6328,-12.695 -6.9102,-17.148 l 30.508,-47.598 c 0.76563,0.26562 1.5508,0.49609 2.3516,0.69141 l -0.004,124.13 c -0.97266,0.23047 -1.9219,0.52344 -2.8438,0.86719 z m -45.523,85.406 c -0.58594,0 -1.168,0.0234 -1.7422,0.0625 l -21.363,-67.586 c 2.1953,-1.5469 4.0508,-3.5391 5.4414,-5.8438 l 47.043,11.219 c 0.0117,6.75 2.7344,12.879 7.1406,17.344 l -28.691,46.074 c -2.4609,-0.82031 -5.0938,-1.2695 -7.8281,-1.2695 z m -22.551,14.52 -45.254,-8.7578 c -0.27344,-6.168 -2.8086,-11.758 -6.7969,-15.953 l 35.344,-54.535 c 1.6289,0.44922 3.3438,0.69141 5.1172,0.69141 h 0.0117 l 21.363,67.582 c -4.2695,2.582 -7.6992,6.4102 -9.7852,10.973 z m -14.492,-333.62 -16.82,80.422 c -1.1484,0.0352 -2.2773,0.14453 -3.3828,0.33203 l -9.1641,-21.539 c 4.168,-3.5547 6.8164,-8.8438 6.8164,-14.734 0,-4.0977 -1.2812,-7.9023 -3.4609,-11.035 z m 8.6562,106.32 59.969,-11.5 c 1.1719,2.5742 2.7695,4.9141 4.707,6.9297 l -30.508,47.598 c -2.5469,-0.88672 -5.2852,-1.3711 -8.1289,-1.3711 -3.5,0 -6.832,0.73047 -9.8516,2.0469 l -21.844,-29.066 c 3.3203,-4.0195 5.4023,-9.0938 5.6562,-14.637 z m 60.453,139.38 -47.043,-11.219 c -0.70703,-9.9531 -9.0312,-17.836 -19.16,-17.836 -5.2812,0 -10.07,2.1406 -13.543,5.5977 l -26.242,-13.727 c 0.48828,-1.9336 0.74609,-3.957 0.74609,-6.043 0,-0.54688 -0.0195,-1.0898 -0.0547,-1.6289 l 49.609,-15.422 c 4.3281,7.2422 12.246,12.098 21.277,12.098 3.0312,0 5.9375,-0.54688 8.625,-1.5508 l 29.652,44.176 c -1.5312,1.6641 -2.8359,3.5273 -3.8672,5.5547 z m -73.855,-9.8438 c 0,-4.2188 3.4297,-7.6445 7.6445,-7.6445 4.2188,0 7.6445,3.4297 7.6445,7.6445 0,4.2188 -3.4297,7.6445 -7.6445,7.6445 -4.2148,0 -7.6445,-3.4258 -7.6445,-7.6445 z m -56.16,-46.59 c 7.2773,0 13.203,5.9219 13.203,13.207 0,7.2773 -5.9219,13.203 -13.203,13.203 -7.2852,0 -13.207,-5.9219 -13.207,-13.203 0,-7.2811 5.9258,-13.207 13.207,-13.207 z m 44.816,-59.312 c 3.4961,0 6.8281,-0.73047 9.8477,-2.043 l 21.848,29.07 c -3.5469,4.2891 -5.6836,9.7852 -5.6836,15.77 0,0.54688 0.0195,1.0898 0.0547,1.6289 l -49.605,15.422 c -1.5586,-2.6055 -3.5781,-4.9023 -5.9531,-6.7773 l 24.664,-53.547 c 1.5625,0.3125 3.1758,0.47656 4.8281,0.47656 z m 63.988,42.797 c 0,7.2852 -5.9219,13.207 -13.203,13.207 -7.2852,0 -13.207,-5.9219 -13.207,-13.207 0,-7.2812 5.9219,-13.207 13.207,-13.207 7.2773,-0.004 13.203,5.9258 13.203,13.207 z m -63.988,-54.363 c -7.2852,0 -13.207,-5.9219 -13.207,-13.207 0,-7.2812 5.9219,-13.207 13.207,-13.207 7.2852,0 13.207,5.9258 13.207,13.207 0.004,7.2852 -5.9219,13.207 -13.207,13.207 z m -18.023,-73.91 c 0,4.3047 -3.5,7.8008 -7.8047,7.8008 -4.2969,0 -7.7969,-3.5 -7.7969,-7.8008 0,-4.3047 3.5,-7.8047 7.7969,-7.8047 4.3008,0 7.8047,3.5 7.8047,7.8047 z m -17.961,16.484 c 2.9531,1.8281 6.4336,2.8828 10.156,2.8828 0.64844,0 1.2852,-0.0312 1.918,-0.0937 l 9.1641,21.543 c -6.0781,4.5195 -10.027,11.754 -10.027,19.895 0,7.8789 3.6992,14.906 9.4492,19.449 l -24.664,53.547 c -1.5625,-0.30859 -3.1758,-0.47266 -4.8242,-0.47266 -1.8984,0 -3.75,0.21484 -5.5312,0.62109 l -30.215,-60.895 c 3.6328,-3.4961 5.8945,-8.4062 5.8945,-13.832 0,-2.7188 -0.57031,-5.3047 -1.5898,-7.6484 z m -22.258,162.32 c 3.8711,2.5078 8.4844,3.9648 13.43,3.9648 7.4297,0 14.105,-3.2891 18.648,-8.4883 l 26.242,13.727 c -0.19531,1.0938 -0.29688,2.2227 -0.29688,3.3711 0,4.6367 1.6523,8.8984 4.3984,12.219 l -35.34,54.531 c -2.582,-0.91406 -5.3555,-1.4141 -8.2461,-1.4141 -3.2617,0 -6.3789,0.63672 -9.2344,1.7891 l -29.91,-42.117 c 2.4414,-3.2227 3.8906,-7.2344 3.8906,-11.578 0,-3.0352 -0.70703,-5.9062 -1.9648,-8.4609 z m 5.625,102.68 c 0,-7.2852 5.9219,-13.207 13.207,-13.207 7.2773,0 13.203,5.9219 13.203,13.207 0,7.2852 -5.9219,13.207 -13.203,13.207 -7.2852,0.004 -13.207,-5.9219 -13.207,-13.207 z m -8.0781,-142.49 c -5.4336,4.5469 -8.8945,11.375 -8.8945,19 0,4.5312 1.2227,8.7812 3.3594,12.438 l -18.387,17.543 c -1.0977,-0.60547 -2.2617,-1.1094 -3.4766,-1.4922 v -102.71 z m -27.285,84.094 29.914,42.117 c -3.8047,4.3555 -6.1133,10.055 -6.1133,16.277 0,6.375 2.418,12.191 6.3867,16.586 l -27.227,39.699 c -0.99609,-0.38281 -2.0195,-0.70312 -3.0703,-0.95312 l -0.004,-113.69 c 0.0391,-0.0117 0.0742,-0.0234 0.11328,-0.0352 z m -5.8945,151.02 c -7.2852,0 -13.207,-5.9219 -13.207,-13.207 0,-7.2852 5.9219,-13.207 13.207,-13.207 7.2852,0 13.207,5.9219 13.207,13.207 0,7.2852 -5.9258,13.207 -13.207,13.207 z m 19.977,-27.836 c -0.5,-0.67969 -1.0312,-1.3359 -1.5977,-1.9609 l 27.223,-39.695 c 2.75,1.0586 5.7383,1.6406 8.8594,1.6406 10.004,0 18.641,-5.9648 22.547,-14.527 l 45.25,8.7539 c 0.043,0.97266 0.14062,1.9258 0.29297,2.8672 z m 127.03,-33.676 c -7.2852,0 -13.207,-5.9219 -13.207,-13.207 0,-7.2851 5.9219,-13.207 13.207,-13.207 7.2852,0 13.207,5.9219 13.207,13.207 0.004,7.2812 -5.9219,13.207 -13.207,13.207 z m 67.359,-100.17 c 0,7.2773 -5.9219,13.203 -13.207,13.203 -7.2851,0 -13.207,-5.9219 -13.207,-13.203 0,-7.2852 5.9219,-13.207 13.207,-13.207 7.2852,-0.004 13.207,5.9219 13.207,13.207 z m 0,-172.31 c 0,7.2812 -5.9219,13.207 -13.207,13.207 -7.2851,0 -13.207,-5.9219 -13.207,-13.207 0,-7.2812 5.9219,-13.207 13.207,-13.207 7.2851,0 13.207,5.9258 13.207,13.207 z m -93.633,-121.07 c 7.2852,0 13.207,5.9258 13.207,13.207 0,7.2812 -5.9219,13.207 -13.207,13.207 -7.2851,0 -13.207,-5.9219 -13.207,-13.207 -0.004,-7.2812 5.9219,-13.207 13.207,-13.207 z m -24.359,8.6836 c -0.26953,1.4531 -0.41016,2.9453 -0.41406,4.4727 l -79.785,18.973 c -2.4023,-3.7422 -6.0703,-6.5977 -10.395,-7.9648 v -40.676 c 5.5898,-1.3438 10.449,-4.5859 13.855,-9.0039 z m -109.59,-49.289 c 0,-7.2812 5.9219,-13.207 13.207,-13.207 7.2852,0 13.207,5.9219 13.207,13.207 0,7.2812 -5.9219,13.207 -13.207,13.207 -7.2812,0.0039 -13.207,-5.9219 -13.207,-13.207 z m 13.211,75.445 c 4.2188,0 7.6445,3.4297 7.6445,7.6445 0,4.2148 -3.4297,7.6445 -7.6445,7.6445 -4.2188,0 -7.6445,-3.4297 -7.6445,-7.6445 -0.004,-4.2148 3.4258,-7.6445 7.6445,-7.6445 z m 0,97.578 c 4.2188,0 7.6445,3.4297 7.6445,7.6445 0,4.2148 -3.4297,7.6445 -7.6445,7.6445 -4.2188,0 -7.6445,-3.4297 -7.6445,-7.6445 -0.004,-4.2188 3.4258,-7.6445 7.6445,-7.6445 z m 0,145.68 c 4.2188,0 7.6445,3.4297 7.6445,7.6445 0,4.2188 -3.4297,7.6445 -7.6445,7.6445 -4.2188,0 -7.6445,-3.4297 -7.6445,-7.6445 -0.004,-4.2148 3.4258,-7.6445 7.6445,-7.6445 z"
       id="path2036" />
  </g>
</svg>
