<?xml version="1.0" encoding="UTF-8" standalone="no"?>
<svg
   height="100"
   version="1.1"
   viewBox="0 0 100 100"
   id="svg300"
   sodipodi:docname="drugs-template.svg"
   inkscape:version="1.2.2 (b0a8486541, 2022-12-01)"
   xmlns:inkscape="http://www.inkscape.org/namespaces/inkscape"
   xmlns:sodipodi="http://sodipodi.sourceforge.net/DTD/sodipodi-0.dtd"
   xmlns="http://www.w3.org/2000/svg"
   xmlns:svg="http://www.w3.org/2000/svg">
  <sodipodi:namedview
     id="namedview302"
     pagecolor="#ffffff"
     bordercolor="#000000"
     borderopacity="0.25"
     inkscape:showpageshadow="2"
     inkscape:pageopacity="0.0"
     inkscape:pagecheckerboard="0"
     inkscape:deskcolor="#d1d1d1"
     inkscape:document-units="pt"
     showgrid="false"
     inkscape:zoom="0.96857143"
     inkscape:cx="212.16814"
     inkscape:cy="218.87906"
     inkscape:window-width="1896"
     inkscape:window-height="1012"
     inkscape:window-x="0"
     inkscape:window-y="0"
     inkscape:window-maximized="1"
     inkscape:current-layer="g298" />
  <defs
     id="defs220">
    <symbol
       id="g"
       overflow="visible">
      <path
         d="m3.6562-0.21875c-0.1875 0.09375-0.38672 0.16797-0.59375 0.21875-0.19922 0.050781-0.40625 0.078125-0.625 0.078125-0.66797 0-1.1992-0.17969-1.5938-0.54688-0.38672-0.375-0.57812-0.87891-0.57812-1.5156 0-0.64453 0.19141-1.1484 0.57812-1.5156 0.39453-0.375 0.92578-0.5625 1.5938-0.5625 0.21875 0 0.42578 0.027344 0.625 0.078125 0.20703 0.054687 0.40625 0.125 0.59375 0.21875v0.82812c-0.1875-0.125-0.375-0.21875-0.5625-0.28125-0.17969-0.0625-0.37109-0.09375-0.57812-0.09375-0.36719 0-0.65625 0.12109-0.875 0.35938-0.21094 0.23047-0.3125 0.55469-0.3125 0.96875 0 0.40625 0.10156 0.73047 0.3125 0.96875 0.21875 0.23047 0.50781 0.34375 0.875 0.34375 0.20703 0 0.39844-0.023437 0.57812-0.078125 0.1875-0.0625 0.375-0.16016 0.5625-0.29688z"
         id="path163" />
    </symbol>
    <symbol
       id="d"
       overflow="visible">
      <path
         d="m2.6875-2.1719c-0.085938-0.039063-0.16797-0.070313-0.25-0.09375-0.085938-0.019531-0.16797-0.03125-0.25-0.03125-0.25 0-0.44531 0.085937-0.57812 0.25-0.125 0.15625-0.1875 0.38281-0.1875 0.67188v1.375h-0.96875v-2.9844h0.96875v0.48438c0.11328-0.19531 0.25-0.33594 0.40625-0.42188 0.16406-0.09375 0.35938-0.14062 0.57812-0.14062h0.10938c0.039063 0 0.09375 0.007812 0.15625 0.015625z"
         id="path166" />
    </symbol>
    <symbol
       id="c"
       overflow="visible">
      <path
         d="m3.4375-1.5v0.26562h-2.2344c0.03125 0.23047 0.11328 0.40234 0.25 0.51562 0.13281 0.10547 0.32812 0.15625 0.57812 0.15625 0.20703 0 0.41406-0.023438 0.625-0.078125 0.20703-0.0625 0.42188-0.15625 0.64062-0.28125v0.73438c-0.21875 0.09375-0.44531 0.16406-0.67188 0.20312-0.23047 0.039062-0.45312 0.0625-0.67188 0.0625-0.54297 0-0.96484-0.13281-1.2656-0.40625-0.30469-0.28125-0.45312-0.67188-0.45312-1.1719 0-0.47656 0.14453-0.85938 0.4375-1.1406 0.30078-0.28125 0.70703-0.42188 1.2188-0.42188 0.46875 0 0.84375 0.14062 1.125 0.42188s0.42188 0.66406 0.42188 1.1406zm-0.96875-0.32812c0-0.17578-0.058594-0.31641-0.17188-0.42188-0.10547-0.11328-0.24219-0.17188-0.40625-0.17188-0.1875 0-0.33984 0.054687-0.45312 0.15625-0.11719 0.10547-0.1875 0.25-0.21875 0.4375z"
         id="path169" />
    </symbol>
    <symbol
       id="b"
       overflow="visible">
      <path
         d="m1.7969-1.3438c-0.19922 0-0.35156 0.039062-0.45312 0.10938-0.09375 0.0625-0.14062 0.16406-0.14062 0.29688 0 0.11719 0.035156 0.21094 0.10938 0.28125 0.082031 0.0625 0.19531 0.09375 0.34375 0.09375 0.17578 0 0.32812-0.0625 0.45312-0.1875s0.1875-0.28516 0.1875-0.48438v-0.10938zm1.4688-0.35938v1.7031h-0.96875v-0.4375c-0.125 0.17969-0.27344 0.30859-0.4375 0.39062-0.15625 0.082031-0.35156 0.125-0.57812 0.125-0.3125 0-0.57031-0.085938-0.76562-0.26562-0.1875-0.1875-0.28125-0.42188-0.28125-0.70312 0-0.35156 0.11719-0.61328 0.35938-0.78125 0.23828-0.16406 0.61719-0.25 1.1406-0.25h0.5625v-0.0625c0-0.15625-0.0625-0.26562-0.1875-0.32812-0.11719-0.070312-0.29688-0.10938-0.54688-0.10938-0.21094 0-0.40234 0.023437-0.57812 0.0625-0.17969 0.042969-0.33984 0.10156-0.48438 0.17188v-0.71875c0.19531-0.050781 0.39844-0.085938 0.60938-0.10938 0.20703-0.03125 0.41406-0.046875 0.625-0.046875 0.53906 0 0.92969 0.10938 1.1719 0.32812 0.23828 0.21094 0.35938 0.55469 0.35938 1.0312z"
         id="path172" />
    </symbol>
    <symbol
       id="a"
       overflow="visible">
      <path
         d="m1.5-3.8438v0.85938h0.98438v0.67188h-0.98438v1.2812c0 0.13672 0.023438 0.23047 0.078125 0.28125 0.0625 0.042969 0.17578 0.0625 0.34375 0.0625h0.48438v0.6875h-0.8125c-0.38672 0-0.65625-0.078125-0.8125-0.23438s-0.23438-0.42188-0.23438-0.79688v-1.2812h-0.46875v-0.67188h0.46875v-0.85938z"
         id="path175" />
    </symbol>
    <symbol
       id="j"
       overflow="visible">
      <path
         d="m2.5-2.5469v-1.6094h0.95312v4.1562h-0.95312v-0.4375c-0.13672 0.17969-0.28125 0.30859-0.4375 0.39062-0.15625 0.082031-0.33984 0.125-0.54688 0.125-0.375 0-0.68359-0.14453-0.92188-0.4375-0.23047-0.28906-0.34375-0.67188-0.34375-1.1406 0-0.45703 0.11328-0.83203 0.34375-1.125 0.23828-0.28906 0.54688-0.4375 0.92188-0.4375 0.19531 0 0.375 0.042969 0.53125 0.125 0.16406 0.085938 0.31641 0.21484 0.45312 0.39062zm-0.64062 1.9375c0.20703 0 0.36328-0.070313 0.46875-0.21875 0.11328-0.15625 0.17188-0.37891 0.17188-0.67188 0-0.28125-0.058594-0.49219-0.17188-0.64062-0.10547-0.15625-0.26172-0.23438-0.46875-0.23438-0.19922 0-0.35547 0.078125-0.46875 0.23438-0.10547 0.14844-0.15625 0.35938-0.15625 0.64062 0 0.29297 0.050781 0.51562 0.15625 0.67188 0.11328 0.14844 0.26953 0.21875 0.46875 0.21875z"
         id="path178" />
    </symbol>
    <symbol
       id="i"
       overflow="visible">
      <path
         d="m2.0469-0.60938c0.20703 0 0.36328-0.070313 0.46875-0.21875 0.11328-0.15625 0.17188-0.37891 0.17188-0.67188 0-0.28125-0.058594-0.49219-0.17188-0.64062-0.10547-0.15625-0.26172-0.23438-0.46875-0.23438-0.19922 0-0.35547 0.078125-0.46875 0.23438-0.10547 0.14844-0.15625 0.35938-0.15625 0.64062 0 0.29297 0.050781 0.51562 0.15625 0.67188 0.11328 0.14844 0.26953 0.21875 0.46875 0.21875zm-0.625-1.9375c0.125-0.17578 0.26562-0.30469 0.42188-0.39062 0.16406-0.082031 0.35156-0.125 0.5625-0.125 0.36328 0 0.66406 0.14844 0.90625 0.4375 0.23828 0.29297 0.35938 0.66797 0.35938 1.125 0 0.46875-0.12109 0.85156-0.35938 1.1406-0.24219 0.29297-0.54297 0.4375-0.90625 0.4375-0.21094 0-0.39844-0.042969-0.5625-0.125-0.15625-0.082031-0.29688-0.21094-0.42188-0.39062v0.4375h-0.96875v-4.1562h0.96875z"
         id="path181" />
    </symbol>
    <symbol
       id="h"
       overflow="visible">
      <path
         d="m0.0625-2.9844h0.95312l0.8125 2.0156 0.6875-2.0156h0.95312l-1.2656 3.2656c-0.125 0.33203-0.27344 0.56641-0.4375 0.70312-0.16797 0.13281-0.39062 0.20312-0.67188 0.20312h-0.54688v-0.64062h0.29688c0.16406 0 0.28516-0.027344 0.35938-0.078125 0.070313-0.054688 0.12891-0.14062 0.17188-0.26562l0.03125-0.09375z"
         id="path184" />
    </symbol>
    <symbol
       id="f"
       overflow="visible">
      <path
         d="m3.4688-1.8281v1.8281h-0.96875v-1.3906c0-0.25781-0.007812-0.4375-0.015625-0.53125-0.011719-0.10156-0.03125-0.17578-0.0625-0.21875-0.03125-0.0625-0.085937-0.10938-0.15625-0.14062-0.0625-0.039062-0.13281-0.0625-0.20312-0.0625-0.21094 0-0.37109 0.078125-0.48438 0.23438-0.10547 0.15625-0.15625 0.37109-0.15625 0.64062v1.4688h-0.96875v-4.1562h0.96875v1.6094c0.13281-0.17578 0.28516-0.30469 0.45312-0.39062 0.16406-0.082031 0.34375-0.125 0.53125-0.125 0.34375 0 0.60156 0.10938 0.78125 0.32812 0.1875 0.21094 0.28125 0.51172 0.28125 0.90625z"
         id="path187" />
    </symbol>
    <symbol
       id="s"
       overflow="visible">
      <path
         d="m1.4219-0.4375v1.5781h-0.96875v-4.125h0.96875v0.4375c0.125-0.17578 0.26562-0.30469 0.42188-0.39062 0.16406-0.082031 0.35156-0.125 0.5625-0.125 0.36328 0 0.66406 0.14844 0.90625 0.4375 0.23828 0.29297 0.35938 0.66797 0.35938 1.125 0 0.46875-0.12109 0.85156-0.35938 1.1406-0.24219 0.29297-0.54297 0.4375-0.90625 0.4375-0.21094 0-0.39844-0.042969-0.5625-0.125-0.15625-0.082031-0.29688-0.21094-0.42188-0.39062zm0.625-1.9375c-0.19922 0-0.35547 0.078125-0.46875 0.23438-0.10547 0.14844-0.15625 0.35938-0.15625 0.64062 0 0.29297 0.050781 0.51562 0.15625 0.67188 0.11328 0.14844 0.26953 0.21875 0.46875 0.21875 0.20703 0 0.36328-0.070313 0.46875-0.21875 0.11328-0.15625 0.17188-0.37891 0.17188-0.67188 0-0.28125-0.058594-0.49219-0.17188-0.64062-0.10547-0.15625-0.26172-0.23438-0.46875-0.23438z"
         id="path190" />
    </symbol>
    <symbol
       id="r"
       overflow="visible">
      <path
         d="m2.4219-4.1562v0.625h-0.51562c-0.13672 0-0.23438 0.027344-0.29688 0.078125-0.054687 0.054687-0.078125 0.13672-0.078125 0.25v0.21875h0.82812v0.67188h-0.82812v2.3125h-0.95312v-2.3125h-0.46875v-0.67188h0.46875v-0.21875c0-0.32031 0.085937-0.5625 0.26562-0.71875 0.1875-0.15625 0.47266-0.23438 0.85938-0.23438z"
         id="path193" />
    </symbol>
    <symbol
       id="e"
       overflow="visible">
      <path
         d="m1.875-2.375c-0.21094 0-0.37109 0.078125-0.48438 0.23438-0.10547 0.14844-0.15625 0.35938-0.15625 0.64062 0 0.29297 0.050781 0.51562 0.15625 0.67188 0.11328 0.14844 0.27344 0.21875 0.48438 0.21875 0.20703 0 0.36719-0.070313 0.48438-0.21875 0.11328-0.15625 0.17188-0.37891 0.17188-0.67188 0-0.28125-0.058594-0.49219-0.17188-0.64062-0.11719-0.15625-0.27734-0.23438-0.48438-0.23438zm0-0.6875c0.51953 0 0.92188 0.14062 1.2031 0.42188 0.28906 0.27344 0.4375 0.65234 0.4375 1.1406 0 0.5-0.14844 0.89062-0.4375 1.1719-0.28125 0.27344-0.68359 0.40625-1.2031 0.40625-0.51172 0-0.91406-0.13281-1.2031-0.40625-0.29297-0.28125-0.4375-0.67188-0.4375-1.1719 0-0.48828 0.14453-0.86719 0.4375-1.1406 0.28906-0.28125 0.69141-0.42188 1.2031-0.42188z"
         id="path196" />
    </symbol>
    <symbol
       id="q"
       overflow="visible">
      <path
         d="m3.2344-2.5c0.11328-0.17578 0.25391-0.3125 0.42188-0.40625 0.16406-0.10156 0.35156-0.15625 0.5625-0.15625 0.33203 0 0.58594 0.10938 0.76562 0.32812 0.1875 0.21094 0.28125 0.51172 0.28125 0.90625v1.8281h-0.96875v-1.5625c0.007813-0.019531 0.015625-0.039062 0.015625-0.0625v-0.10938c0-0.21875-0.03125-0.375-0.09375-0.46875s-0.16406-0.14062-0.29688-0.14062c-0.1875 0-0.33594 0.078125-0.4375 0.23438-0.09375 0.14844-0.14062 0.35938-0.14062 0.64062v1.4688h-0.96875v-1.5625c0-0.33203-0.03125-0.54688-0.09375-0.64062-0.054688-0.09375-0.15234-0.14062-0.29688-0.14062-0.17969 0-0.32031 0.078125-0.42188 0.23438-0.09375 0.14844-0.14062 0.35938-0.14062 0.64062v1.4688h-0.96875v-2.9844h0.96875v0.4375c0.11328-0.17578 0.24219-0.30469 0.39062-0.39062 0.15625-0.082031 0.32812-0.125 0.51562-0.125 0.20703 0 0.39062 0.054688 0.54688 0.15625 0.15625 0.09375 0.27344 0.23047 0.35938 0.40625z"
         id="path199" />
    </symbol>
    <symbol
       id="p"
       overflow="visible">
      <path
         d="m0.5-3.9844h1.1562l1.4375 2.7344v-2.7344h0.98438v3.9844h-1.1562l-1.4375-2.7344v2.7344h-0.98438z"
         id="path202" />
    </symbol>
    <symbol
       id="o"
       overflow="visible">
      <path
         d="m0.42188-1.1719v-1.8125h0.96875v0.29688 0.60938 0.48438c0 0.24219 0.003906 0.41797 0.015625 0.53125 0.007812 0.10547 0.03125 0.17969 0.0625 0.21875 0.039062 0.0625 0.09375 0.11719 0.15625 0.15625 0.0625 0.03125 0.13281 0.046875 0.21875 0.046875 0.19531 0 0.35156-0.078125 0.46875-0.23438 0.11328-0.15625 0.17188-0.36719 0.17188-0.64062v-1.4688h0.95312v2.9844h-0.95312v-0.4375c-0.14844 0.17969-0.30469 0.30859-0.46875 0.39062-0.15625 0.082031-0.33594 0.125-0.53125 0.125-0.34375 0-0.60938-0.10156-0.79688-0.3125-0.17969-0.21875-0.26562-0.53125-0.26562-0.9375z"
         id="path205" />
    </symbol>
    <symbol
       id="n"
       overflow="visible">
      <path
         d="m3.4688-1.8281v1.8281h-0.96875v-1.3906c0-0.25781-0.007812-0.4375-0.015625-0.53125-0.011719-0.10156-0.03125-0.17578-0.0625-0.21875-0.03125-0.0625-0.085937-0.10938-0.15625-0.14062-0.0625-0.039062-0.13281-0.0625-0.20312-0.0625-0.21094 0-0.37109 0.078125-0.48438 0.23438-0.10547 0.15625-0.15625 0.37109-0.15625 0.64062v1.4688h-0.96875v-2.9844h0.96875v0.4375c0.13281-0.17578 0.28516-0.30469 0.45312-0.39062 0.16406-0.082031 0.34375-0.125 0.53125-0.125 0.34375 0 0.60156 0.10938 0.78125 0.32812 0.1875 0.21094 0.28125 0.51172 0.28125 0.90625z"
         id="path208" />
    </symbol>
    <symbol
       id="m"
       overflow="visible">
      <path
         d="m0.5-3.9844h1.7031c0.50781 0 0.89844 0.11719 1.1719 0.34375 0.26953 0.21875 0.40625 0.53906 0.40625 0.95312 0 0.41797-0.13672 0.74219-0.40625 0.96875-0.27344 0.21875-0.66406 0.32812-1.1719 0.32812h-0.67188v1.3906h-1.0312zm1.0312 0.75v1.1094h0.5625c0.19531 0 0.34766-0.046875 0.45312-0.14062 0.11328-0.10156 0.17188-0.24219 0.17188-0.42188 0-0.17578-0.058594-0.3125-0.17188-0.40625-0.10547-0.09375-0.25781-0.14062-0.45312-0.14062z"
         id="path211" />
    </symbol>
    <symbol
       id="l"
       overflow="visible">
      <path
         d="m0.45312-2.9844h0.96875v2.9375c0 0.39453-0.10156 0.69531-0.29688 0.90625-0.1875 0.21875-0.46484 0.32812-0.82812 0.32812h-0.48438v-0.64062h0.17188c0.17578 0 0.29688-0.042969 0.35938-0.125 0.070312-0.074219 0.10938-0.23047 0.10938-0.46875zm0-1.1719h0.96875v0.78125h-0.96875z"
         id="path214" />
    </symbol>
    <symbol
       id="k"
       overflow="visible">
      <path
         d="m2.875-2.8906v0.76562c-0.125-0.082031-0.25781-0.14453-0.39062-0.1875-0.13672-0.039062-0.27344-0.0625-0.40625-0.0625-0.27344 0-0.48047 0.078125-0.625 0.23438-0.14844 0.15625-0.21875 0.37109-0.21875 0.64062 0 0.28125 0.070313 0.5 0.21875 0.65625 0.14453 0.15625 0.35156 0.23438 0.625 0.23438 0.14453 0 0.28516-0.019531 0.42188-0.0625 0.13281-0.039063 0.25781-0.10938 0.375-0.20312v0.78125c-0.14844 0.0625-0.29688 0.10156-0.45312 0.125-0.15625 0.03125-0.3125 0.046875-0.46875 0.046875-0.54297 0-0.96484-0.13281-1.2656-0.40625-0.30469-0.28125-0.45312-0.67188-0.45312-1.1719 0-0.48828 0.14844-0.86719 0.45312-1.1406 0.30078-0.28125 0.72266-0.42188 1.2656-0.42188 0.15625 0 0.3125 0.015625 0.46875 0.046875 0.15625 0.023437 0.30469 0.0625 0.45312 0.125z"
         id="path217" />
    </symbol>
  </defs>
  <g
     id="g298">
    <path
       d="m 81.60713,88.25312 c 7.6e-4,-1.06198 -0.50576,-2.06089 -1.36277,-2.68847 -0.85702,-0.6268 -1.96203,-0.80726 -2.97442,-0.48421 -1.01223,0.32231 -1.80909,1.10803 -2.14549,2.11583 -0.25324,0.65501 -0.89192,1.07833 -1.59373,1.05679 H 26.46867 c -0.70181,0.0215 -1.34049,-0.40178 -1.59373,-1.05679 -0.26067,-0.77755 -0.79909,-1.43182 -1.51278,-1.83659 -0.71368,-0.40548 -1.55141,-0.53248 -2.35272,-0.35647 -0.80131,0.17527 -1.50981,0.64017 -1.98959,1.30633 -0.47901,0.66541 -0.69512,1.4853 -0.60749,2.30081 0.0884,0.81544 0.47455,1.56996 1.08501,2.11812 0.61045,0.54807 1.40138,0.85182 2.22211,0.85182 -0.82063,0 -1.61156,0.30376 -2.22211,0.85183 -0.61046,0.54807 -0.99664,1.30262 -1.08501,2.11811 -0.0876,0.81544 0.12848,1.63533 0.60749,2.30082 0.47974,0.66616 1.18824,1.13105 1.98959,1.30632 0.80131,0.17601 1.63904,0.049 2.35272,-0.35647 0.71369,-0.40474 1.25211,-1.05902 1.51278,-1.83658 0.25324,-0.65502 0.89192,-1.07834 1.59373,-1.0568 h 47.06205 c 0.70181,-0.0215 1.34049,0.40178 1.59373,1.0568 0.26067,0.77754 0.79909,1.43182 1.51278,1.83658 0.71369,0.40549 1.55141,0.53249 2.35272,0.35647 0.80131,-0.17526 1.50981,-0.64016 1.9896,-1.30632 0.479,-0.66542 0.69511,-1.4853 0.60748,-2.30082 -0.0884,-0.81544 -0.47455,-1.56996 -1.08501,-2.11811 -0.61045,-0.54807 -1.40138,-0.85183 -2.22211,-0.85183 0.88227,0 1.72891,-0.35054 2.35273,-0.97436 0.62381,-0.62381 0.97436,-1.47045 0.97436,-2.35272 z"
       id="path222"
       style="stroke-width:0.190119" />
    <path
       d="m 90.59025,1.9e-4 -2.35348,2.351959 3.52899,3.528984 -5.8819,5.882464 -4.70545,-4.705439 -2.35196,2.35272 3.56701,3.567007 -14.79658,14.668042 1.1979,1.1979 -4.45734,4.457334 c -4.09497,-3.198558 -9.14206,-4.935673 -14.33763,-4.935673 -5.19557,0 -10.24266,1.737058 -14.33763,4.935673 l -4.45734,-4.457334 1.1979,-1.1979 L 17.60616,12.977885 21.17317,9.410878 18.82121,7.058158 14.11576,11.763597 8.233863,5.881703 11.762852,2.351959 9.409369,0 0,9.410878 l 2.352722,2.352719 3.528989,-3.528984 5.881141,5.881133 -4.705445,4.705439 2.352722,2.352719 3.490395,-3.49039 14.796576,14.668041 1.15482,-1.154819 4.33852,4.33851 h 7.6e-4 c -4.16551,4.331855 -6.48933,10.110515 -6.48116,16.119978 v 9.981234 c 0,2.647593 1.05159,5.185869 2.92308,7.058158 1.87224,1.871491 4.41057,2.923076 7.05817,2.923076 v 9.981233 h 4.99062 V 76.608308 H 45.009 v 4.990617 h 3.32708 v -4.990617 h 3.32708 v 4.990617 h 3.32708 v -4.990617 h 3.32709 v 4.990617 h 4.99062 v -9.981233 c 2.6476,0 5.18587,-1.051585 7.05817,-2.923076 1.87149,-1.872232 2.92308,-4.410565 2.92308,-7.058158 v -9.981234 c 0.008,-6.009463 -2.31565,-11.788123 -6.48116,-16.119218 l 4.33927,-4.33927 1.15483,1.154819 14.79658,-14.668041 3.49115,3.49039 2.35196,-2.352719 -4.70544,-4.705439 5.8819,-5.881893 3.52899,3.528984 L 100,9.410117 Z M 40.0186,59.973147 c -1.76453,0 -3.45712,-0.701063 -4.70544,-1.948717 -1.24766,-1.248396 -1.94872,-2.940947 -1.94872,-4.705439 0,-1.764492 0.70106,-3.457119 1.94872,-4.705439 1.24839,-1.247654 2.94095,-1.948717 4.70544,-1.948717 1.7645,0 3.45712,0.701063 4.70545,1.948717 1.24765,1.248396 1.94872,2.940947 1.94872,4.705439 0,1.764492 -0.70107,3.457119 -1.94872,4.705439 -1.2484,1.247654 -2.94095,1.948717 -4.70545,1.948717 z m 4.99062,9.981234 3.56398,-5.94045 c 0.30076,-0.500545 0.84217,-0.807264 1.42663,-0.807264 0.58446,0 1.12586,0.306719 1.42663,0.807264 l 3.56397,5.94045 z m 14.97187,-9.981234 c -1.76453,0 -3.45712,-0.701063 -4.70544,-1.948717 -1.24766,-1.248396 -1.94872,-2.940947 -1.94872,-4.705439 0,-1.764492 0.70106,-3.457119 1.94872,-4.705439 1.2484,-1.247654 2.94095,-1.948717 4.70544,-1.948717 1.7645,0 3.45713,0.701063 4.70545,1.948717 1.24766,1.248396 1.94872,2.940947 1.94872,4.705439 0,1.764492 -0.70106,3.457119 -1.94872,4.705439 -1.2484,1.247654 -2.94095,1.948717 -4.70545,1.948717 z"
       id="path224"
       style="stroke-width:0.190119" />
  </g>
</svg>
