<?xml version="1.0" encoding="UTF-8" standalone="no"?>
<svg
   height="100"
   version="1.1"
   viewBox="0 0 100 100"
   id="svg755"
   sodipodi:docname="eye-template.svg"
   inkscape:version="1.2.2 (b0a8486541, 2022-12-01)"
   width="75pt"
   xmlns:inkscape="http://www.inkscape.org/namespaces/inkscape"
   xmlns:sodipodi="http://sodipodi.sourceforge.net/DTD/sodipodi-0.dtd"
   xmlns:xlink="http://www.w3.org/1999/xlink"
   xmlns="http://www.w3.org/2000/svg"
   xmlns:svg="http://www.w3.org/2000/svg">
  <sodipodi:namedview
     id="namedview757"
     pagecolor="#ffffff"
     bordercolor="#000000"
     borderopacity="0.25"
     inkscape:showpageshadow="2"
     inkscape:pageopacity="0.0"
     inkscape:pagecheckerboard="0"
     inkscape:deskcolor="#d1d1d1"
     inkscape:document-units="pt"
     showgrid="false"
     inkscape:zoom="1.8220149"
     inkscape:cx="84.521812"
     inkscape:cy="13.17223"
     inkscape:window-width="943"
     inkscape:window-height="1012"
     inkscape:window-x="0"
     inkscape:window-y="0"
     inkscape:window-maximized="1"
     inkscape:current-layer="svg755" />
  <defs
     id="defs611">
    <symbol
       id="v"
       overflow="visible">
      <path
         d="M 0.46875,-0.03125 C 0.445312,-0.019531 0.421875,-0.007812 0.390625,0 0.359375,0.007812 0.332031,0.015625 0.3125,0.015625 c -0.085938,0 -0.15234,-0.019531 -0.20312,-0.0625 -0.054688,-0.050781 -0.078125,-0.11719 -0.078125,-0.20312 0,-0.082031 0.023438,-0.14844 0.078125,-0.20312 0.050781,-0.050781 0.11719,-0.078125 0.20312,-0.078125 0.019531,0 0.046875,0.007812 0.078125,0.015625 0.03125,0.011719 0.054687,0.023437 0.078125,0.03125 v 0.10938 C 0.445312,-0.394516 0.421875,-0.406235 0.390625,-0.406235 0.367188,-0.414047 0.34375,-0.42186 0.3125,-0.42186 c -0.042969,0 -0.078125,0.015625 -0.10938,0.046875 -0.023437,0.023438 -0.03125,0.0625 -0.03125,0.125 0,0.054688 0.007813,0.09375 0.03125,0.125 0.03125,0.023438 0.066406,0.03125 0.10938,0.03125 h 0.078125 c 0.03125,-0.007812 0.054687,-0.019531 0.078125,-0.03125 z"
         id="path545" />
    </symbol>
    <symbol
       id="c"
       overflow="visible">
      <path
         d="M 0.34375,-0.26562 C 0.332031,-0.273433 0.320312,-0.281245 0.3125,-0.281245 0.300781,-0.289057 0.289062,-0.29687 0.28125,-0.29687 0.25,-0.29687 0.222656,-0.285151 0.203125,-0.26562 0.191406,-0.242183 0.1875,-0.210933 0.1875,-0.17187 V 10e-6 H 0.04688 v -0.375 H 0.1875 v 0.0625 C 0.195312,-0.34374 0.210938,-0.363271 0.234375,-0.37499 0.253906,-0.382802 0.28125,-0.390615 0.3125,-0.390615 h 0.03125 z"
         id="path548" />
    </symbol>
    <symbol
       id="a"
       overflow="visible">
      <path
         d="m 0.4375,-0.20312 v 0.046875 H 0.15625 c 0,0.03125 0.003906,0.054688 0.015625,0.0625 0.019531,0.011719 0.050781,0.015625 0.09375,0.015625 h 0.0625 c 0.03125,-0.0078125 0.0625,-0.023437 0.09375,-0.046875 v 0.10938 c -0.03125,0 -0.0625,0.0078125 -0.09375,0.015625 C 0.304688,0.0078225 0.28125,0.015635 0.25,0.015635 0.175781,0.015635 0.11719,1e-5 0.07812,-0.03124 0.04687,-0.070302 0.031245,-0.12499 0.031245,-0.18749 c 0,-0.0625 0.015625,-0.10938 0.046875,-0.14062 0.039063,-0.039063 0.09375,-0.0625 0.15625,-0.0625 0.0625,0 0.10938,0.023437 0.14062,0.0625 0.039062,0.03125 0.0625,0.074219 0.0625,0.125 z m -0.125,-0.03125 c 0,-0.019531 -0.011719,-0.035156 -0.03125,-0.046875 -0.011719,-0.019531 -0.027344,-0.03125 -0.046875,-0.03125 -0.023437,0 -0.042969,0.011719 -0.0625,0.03125 C 0.160156,-0.269526 0.15625,-0.253901 0.15625,-0.23437 Z"
         id="path551" />
    </symbol>
    <symbol
       id="g"
       overflow="visible">
      <path
         d="m 0.23438,-0.17188 c -0.023437,0 -0.042969,0.007813 -0.0625,0.015625 -0.011719,0.011719 -0.015625,0.023438 -0.015625,0.03125 0,0.023438 0.003906,0.039062 0.015625,0.046875 h 0.03125 c 0.03125,0 0.050781,-0.0039062 0.0625,-0.015625 0.019531,-0.019531 0.03125,-0.039062 0.03125,-0.0625 V -0.17188 Z m 0.1875,-0.046875 V -5e-6 h -0.125 V -0.04688 C 0.273443,-0.023442 0.253911,-0.007818 0.23438,-5e-6 0.210943,0.0078075 0.187505,0.01562 0.156255,0.01562 c -0.03125,0 -0.0625,-0.011719 -0.09375,-0.03125 -0.023438,-0.019531 -0.03125,-0.054688 -0.03125,-0.10938 0,-0.039062 0.015625,-0.066406 0.046875,-0.078125 0.03125,-0.019531 0.078125,-0.03125 0.14062,-0.03125 H 0.296875 V -0.25001 c 0,-0.019531 -0.011719,-0.035156 -0.03125,-0.046875 -0.011719,-0.007813 -0.03125,-0.015625 -0.0625,-0.015625 -0.03125,0 -0.058594,0.007812 -0.078125,0.015625 -0.023438,0 -0.042969,0.007813 -0.0625,0.015625 v -0.09375 h 0.078125 c 0.03125,-0.007812 0.054687,-0.015625 0.078125,-0.015625 0.070312,0 0.125,0.015625 0.15625,0.046875 0.03125,0.023438 0.046875,0.0625 0.046875,0.125 z"
         id="path554" />
    </symbol>
    <symbol
       id="b"
       overflow="visible">
      <path
         d="M 0.20312,-0.48438 V -0.375 H 0.3125 v 0.078125 H 0.20312 v 0.17188 0.03125 H 0.23437 0.312495 V 5e-6 h -0.10938 c -0.054687,0 -0.089844,-0.0078125 -0.10938,-0.03125 -0.023438,-0.019531 -0.03125,-0.050781 -0.03125,-0.09375 v -0.17188 H 0.01561 V -0.375 h 0.046875 v -0.10938 z"
         id="path557" />
    </symbol>
    <symbol
       id="l"
       overflow="visible">
      <path
         d="m 0.3125,-0.32812 v -0.20312 h 0.125 V 10e-6 H 0.3125 V -0.046865 C 0.300781,-0.023427 0.285156,-0.007803 0.265625,10e-6 0.242188,0.0078225 0.222656,0.015635 0.203125,0.015635 0.148438,0.015635 0.109375,10e-6 0.078125,-0.03124 0.046875,-0.070302 0.03125,-0.12499 0.03125,-0.18749 c 0,-0.0625 0.015625,-0.10938 0.046875,-0.14062 0.03125,-0.039063 0.070313,-0.0625 0.125,-0.0625 0.019531,0 0.039063,0.007813 0.0625,0.015625 0.019531,0.011719 0.035156,0.027344 0.046875,0.046875 z m -0.078125,0.25 c 0.019531,0 0.035156,-0.0039062 0.046875,-0.015625 0.019531,-0.019531 0.03125,-0.050781 0.03125,-0.09375 0,-0.03125 -0.011719,-0.054688 -0.03125,-0.078125 -0.011719,-0.03125 -0.027344,-0.046875 -0.046875,-0.046875 -0.023437,0 -0.042969,0.015625 -0.0625,0.046875 -0.011719,0.023437 -0.015625,0.046875 -0.015625,0.078125 0,0.042969 0.003906,0.074219 0.015625,0.09375 0.019531,0.011719 0.039063,0.015625 0.0625,0.015625 z"
         id="path560" />
    </symbol>
    <symbol
       id="k"
       overflow="visible">
      <path
         d="m 0.26562,-0.078125 c 0.03125,0 0.050781,-0.0039062 0.0625,-0.015625 0.007813,-0.019531 0.015625,-0.050781 0.015625,-0.09375 0,-0.03125 -0.007812,-0.054688 -0.015625,-0.078125 C 0.316401,-0.296875 0.29687,-0.3125 0.26562,-0.3125 c -0.03125,0 -0.054687,0.015625 -0.0625,0.046875 -0.011719,0.023437 -0.015625,0.046875 -0.015625,0.078125 0,0.03125 0.003906,0.058594 0.015625,0.078125 0.007813,0.023438 0.03125,0.03125 0.0625,0.03125 z m -0.078125,-0.25 C 0.195307,-0.347656 0.210933,-0.363281 0.23437,-0.375 c 0.019531,-0.007812 0.046875,-0.015625 0.078125,-0.015625 0.039062,0 0.078125,0.023437 0.10938,0.0625 0.03125,0.03125 0.046875,0.078125 0.046875,0.14062 0,0.062495 -0.015625,0.11719 -0.046875,0.15625 C 0.390625,-5e-6 0.351562,0.01562 0.312495,0.01562 0.281245,0.01562 0.253901,0.0078075 0.23437,-5e-6 0.210933,-0.0078175 0.195307,-0.023443 0.187495,-0.04688 V -5e-6 h -0.14062 v -0.53125 h 0.14062 z"
         id="path563" />
    </symbol>
    <symbol
       id="j"
       overflow="visible">
      <path
         d="m 0.015625,-0.375 h 0.10938 l 0.10938,0.25 0.078125,-0.25 H 0.45313 L 0.28125,0.03125 C 0.269531,0.070312 0.253906,0.101562 0.234375,0.125 0.210938,0.144531 0.179688,0.15625 0.140625,0.15625 H 0.0625 V 0.0625 h 0.046875 c 0.019531,0 0.03125,-0.0078125 0.03125,-0.015625 0.007813,0 0.019531,-0.011719 0.03125,-0.03125 z"
         id="path566" />
    </symbol>
    <symbol
       id="f"
       overflow="visible">
      <path
         d="m 0.0625,-0.51562 h 0.14062 l 0.1875,0.35938 V -0.51562 H 0.53124 V 0 H 0.37499 L 0.18749,-0.34375 V 0 h -0.125 z"
         id="path569" />
    </symbol>
    <symbol
       id="i"
       overflow="visible">
      <path
         d="m 0.35938,-0.375 v 0.10938 C 0.32813,-0.285151 0.29688,-0.29687 0.26563,-0.29687 0.242193,-0.304683 0.222661,-0.312495 0.20313,-0.312495 c -0.023437,0 -0.039063,0.007812 -0.046875,0.015625 -0.011719,0 -0.015625,0.011719 -0.015625,0.03125 0,0 0.003906,0.007813 0.015625,0.015625 0.007812,0.011719 0.023438,0.015625 0.046875,0.015625 h 0.03125 c 0.050781,0 0.085937,0.011719 0.10938,0.03125 0.019531,0.023437 0.03125,0.054687 0.03125,0.09375 0,0.042969 -0.015625,0.074219 -0.046875,0.09375 -0.023437,0.019531 -0.0625,0.03125 -0.125,0.03125 C 0.171885,0.01563 0.144541,0.0078175 0.12501,5e-6 0.101572,5e-6 0.078135,-0.0039012 0.046885,-0.01562 v -0.09375 c 0.019531,0.011719 0.039062,0.023438 0.0625,0.03125 h 0.09375 0.046875 c 0.007812,-0.0078125 0.015625,-0.019531 0.015625,-0.03125 0,-0.007813 -0.007813,-0.015625 -0.015625,-0.015625 C 0.238291,-0.132807 0.222666,-0.144526 0.203135,-0.156245 H 0.18751 c -0.0625,0 -0.10547,-0.007812 -0.125,-0.03125 C 0.039072,-0.207026 0.03126,-0.23437 0.03126,-0.26562 c 0,-0.039063 0.015625,-0.070313 0.046875,-0.09375 0.03125,-0.019531 0.070313,-0.03125 0.125,-0.03125 0.019531,0 0.039063,0.007813 0.0625,0.015625 h 0.09375 z"
         id="path572" />
    </symbol>
    <symbol
       id="e"
       overflow="visible">
      <path
         d="M 0.45312,-0.23438 V 0 H 0.3125 V -0.17188 -0.250005 -0.26563 c 0,-0.007813 -0.007812,-0.015625 -0.015625,-0.015625 -0.011719,-0.007812 -0.023437,-0.015625 -0.03125,-0.015625 -0.023437,0 -0.042969,0.011719 -0.0625,0.03125 C 0.191406,-0.242193 0.1875,-0.218755 0.1875,-0.187505 V -5e-6 H 0.04688 v -0.375 H 0.1875 V -0.32813 C 0.195312,-0.347661 0.210938,-0.363286 0.234375,-0.375005 0.253906,-0.382817 0.28125,-0.39063 0.3125,-0.39063 c 0.039062,0 0.070312,0.015625 0.09375,0.046875 0.03125,0.023438 0.046875,0.058594 0.046875,0.10938 z"
         id="path575" />
    </symbol>
    <symbol
       id="u"
       overflow="visible">
      <path
         d="m 0.046875,-0.53125 h 0.14062 v 0.29688 l 0.125,-0.14062 h 0.14062 l -0.1875,0.17188 0.21875,0.20312 H 0.328115 L 0.187495,-0.15624 V 10e-6 h -0.14062 z"
         id="path578" />
    </symbol>
    <symbol
       id="d"
       overflow="visible">
      <path
         d="m 0.23438,-0.3125 c -0.023437,0 -0.042969,0.011719 -0.0625,0.03125 -0.011719,0.023438 -0.015625,0.054688 -0.015625,0.09375 0,0.042969 0.003906,0.074219 0.015625,0.09375 0.019531,0.011719 0.039063,0.015625 0.0625,0.015625 0.03125,0 0.050781,-0.0039062 0.0625,-0.015625 0.019531,-0.019531 0.03125,-0.050781 0.03125,-0.09375 0,-0.039062 -0.011719,-0.070312 -0.03125,-0.09375 C 0.285161,-0.300781 0.26563,-0.3125 0.23438,-0.3125 Z m 0,-0.078125 c 0.070313,0 0.125,0.023437 0.15625,0.0625 0.039063,0.03125 0.0625,0.078125 0.0625,0.14062 0,0.062495 -0.023437,0.11719 -0.0625,0.15625 C 0.35938,-5e-6 0.304693,0.01562 0.23438,0.01562 0.17188,0.01562 0.11719,-5e-6 0.07813,-0.031255 0.04688,-0.070317 0.031255,-0.125005 0.031255,-0.187505 c 0,-0.0625 0.015625,-0.10938 0.046875,-0.14062 0.039063,-0.039063 0.09375,-0.0625 0.15625,-0.0625 z"
         id="path581" />
    </symbol>
    <symbol
       id="t"
       overflow="visible">
      <path
         d="m 0.25,-0.28125 c 0.03125,0 0.050781,-0.003906 0.0625,-0.015625 0.007812,-0.007813 0.015625,-0.023437 0.015625,-0.046875 0,-0.019531 -0.007813,-0.035156 -0.015625,-0.046875 C 0.300781,-0.410156 0.28125,-0.421875 0.25,-0.421875 H 0.203125 v 0.14062 z M 0.203125,-0.203125 V -5e-6 h -0.14062 v -0.51562 h 0.20312 c 0.0625,0 0.10938,0.015625 0.14062,0.046875 0.03125,0.023438 0.046875,0.054688 0.046875,0.09375 0,0.042969 -0.007813,0.074219 -0.015625,0.09375 -0.011719,0.023438 -0.039062,0.039062 -0.078125,0.046875 0.019531,0 0.035156,0.011719 0.046875,0.03125 0.007812,0.011719 0.023438,0.03125 0.046875,0.0625 L 0.531245,-5e-6 h -0.15625 l -0.046875,-0.125 C 0.316401,-0.144536 0.300776,-0.160161 0.281245,-0.17188 0.269526,-0.191411 0.253901,-0.20313 0.23437,-0.20313 Z"
         id="path584" />
    </symbol>
    <symbol
       id="h"
       overflow="visible">
      <path
         d="M 0.046875,-0.15625 V -0.375 h 0.125 v 0.03125 0.078125 0.0625 0.0625 c 0.007813,0.011719 0.015625,0.023437 0.015625,0.03125 0.007812,0.011719 0.015625,0.015625 0.015625,0.015625 h 0.03125 c 0.019531,0 0.035156,-0.0039062 0.046875,-0.015625 0.019531,-0.019531 0.03125,-0.050781 0.03125,-0.09375 v -0.17188 h 0.125 V -5e-6 H 0.3125 V -0.04688 C 0.289062,-0.023442 0.269531,-0.007818 0.25,-5e-6 0.238281,0.0078075 0.21875,0.01562 0.1875,0.01562 0.144531,0.01562 0.109375,-5e-6 0.07812,-0.031255 0.054682,-0.062505 0.04687,-0.101567 0.04687,-0.156255 Z"
         id="path587" />
    </symbol>
    <symbol
       id="s"
       overflow="visible">
      <path
         d="m 0.046875,-0.53125 h 0.14062 V 0 h -0.14062 z"
         id="path590" />
    </symbol>
    <symbol
       id="r"
       overflow="visible">
      <path
         d="m 0.3125,-0.53125 v 0.078125 H 0.234375 c -0.011719,0 -0.023437,0.007813 -0.03125,0.015625 v 0.03125 0.03125 h 0.10938 v 0.078125 H 0.203125 V 5e-6 h -0.125 v -0.29688 h -0.0625 V -0.375 h 0.0625 v -0.03125 c 0,-0.039062 0.0078125,-0.070312 0.03125,-0.09375 0.019531,-0.019531 0.054687,-0.03125 0.10938,-0.03125 z"
         id="path593" />
    </symbol>
    <symbol
       id="q"
       overflow="visible">
      <path
         d="m 0.42188,-0.3125 c 0.007813,-0.019531 0.023437,-0.035156 0.046875,-0.046875 0.019531,-0.019531 0.039062,-0.03125 0.0625,-0.03125 0.039062,0 0.070312,0.015625 0.09375,0.046875 0.03125,0.023438 0.046875,0.058594 0.046875,0.10938 V 1e-5 h -0.125 v -0.20312 -0.015625 c 0,-0.03125 -0.007813,-0.050781 -0.015625,-0.0625 0,-0.007812 -0.011719,-0.015625 -0.03125,-0.015625 -0.023438,0 -0.042969,0.011719 -0.0625,0.03125 C 0.425786,-0.242173 0.42188,-0.218735 0.42188,-0.187485 V 1.5e-5 H 0.3125 v -0.20312 C 0.3125,-0.242168 0.304688,-0.269511 0.296875,-0.28123 0.285156,-0.289042 0.269531,-0.296855 0.25,-0.296855 c -0.023438,0 -0.039062,0.011719 -0.046875,0.03125 C 0.191406,-0.242168 0.1875,-0.21873 0.1875,-0.18748 V 2e-5 H 0.04688 v -0.375 H 0.1875 v 0.046875 c 0.007812,-0.019531 0.023438,-0.035156 0.046875,-0.046875 0.019531,-0.007812 0.039063,-0.015625 0.0625,-0.015625 0.03125,0 0.050781,0.011719 0.0625,0.03125 0.019531,0.011719 0.039063,0.027344 0.0625,0.046875 z"
         id="path596" />
    </symbol>
    <symbol
       id="p"
       overflow="visible">
      <path
         d="M 0.45312,-0.23438 V 0 H 0.3125 V -0.17188 -0.250005 -0.26563 c 0,-0.007813 -0.007812,-0.015625 -0.015625,-0.015625 -0.011719,-0.007812 -0.023437,-0.015625 -0.03125,-0.015625 -0.023437,0 -0.042969,0.011719 -0.0625,0.03125 C 0.191406,-0.242193 0.1875,-0.218755 0.1875,-0.187505 V -5e-6 H 0.04688 v -0.53125 H 0.1875 v 0.20312 C 0.195312,-0.347666 0.210938,-0.363291 0.234375,-0.37501 0.253906,-0.382822 0.28125,-0.390635 0.3125,-0.390635 c 0.039062,0 0.070312,0.015625 0.09375,0.046875 0.03125,0.023438 0.046875,0.058594 0.046875,0.10938 z"
         id="path599" />
    </symbol>
    <symbol
       id="o"
       overflow="visible">
      <path
         d="m 0.0625,-0.51562 h 0.21875 c 0.0625,0 0.10938,0.015625 0.14062,0.046875 0.039063,0.03125 0.0625,0.074219 0.0625,0.125 0,0.054688 -0.023437,0.09375 -0.0625,0.125 -0.03125,0.03125 -0.078125,0.046875 -0.14062,0.046875 H 0.203125 V 1e-5 h -0.14062 z m 0.14062,0.09375 v 0.15625 h 0.0625 c 0.03125,0 0.050781,-0.003906 0.0625,-0.015625 0.007813,-0.019531 0.015625,-0.039062 0.015625,-0.0625 0,-0.019531 -0.007812,-0.035156 -0.015625,-0.046875 -0.011719,-0.019531 -0.03125,-0.03125 -0.0625,-0.03125 z"
         id="path602" />
    </symbol>
    <symbol
       id="n"
       overflow="visible">
      <path
         d="m 0.046875,-0.375 h 0.14062 v 0.35938 c 0,0.050781 -0.015625,0.09375 -0.046875,0.125 C 0.117183,0.14063 0.082026,0.156255 0.03124,0.156255 H -0.015635 V 0.062505 H -1e-5 c 0.019531,0 0.03125,-0.0078125 0.03125,-0.015625 0.0078125,0 0.015625,-0.023438 0.015625,-0.0625 z m 0,-0.15625 h 0.14062 v 0.09375 h -0.14062 z"
         id="path605" />
    </symbol>
    <symbol
       id="m"
       overflow="visible">
      <path
         d="m 0.375,-0.375 v 0.10938 C 0.351562,-0.273433 0.332031,-0.285151 0.3125,-0.29687 0.300781,-0.304683 0.285156,-0.312495 0.265625,-0.312495 c -0.03125,0 -0.058594,0.015625 -0.078125,0.046875 -0.023438,0.023437 -0.03125,0.046875 -0.03125,0.078125 0,0.03125 0.007812,0.058594 0.03125,0.078125 0.019531,0.023438 0.046875,0.03125 0.078125,0.03125 H 0.3125 C 0.332031,-0.0859325 0.351562,-0.097651 0.375,-0.10937 v 0.09375 C 0.351562,-0.003901 0.332031,5e-6 0.3125,5e-6 0.289062,0.0078175 0.269531,0.01563 0.25,0.01563 0.175781,0.01563 0.11719,5e-6 0.07812,-0.031245 0.04687,-0.070307 0.031245,-0.124995 0.031245,-0.187495 c 0,-0.0625 0.015625,-0.10938 0.046875,-0.14062 0.039063,-0.039063 0.097656,-0.0625 0.17188,-0.0625 0.019531,0 0.039062,0.007813 0.0625,0.015625 H 0.375 Z"
         id="path608" />
    </symbol>
  </defs>
  <g
     id="g753"
     transform="matrix(0.21311357,0,0,0.21311339,-22.402068,-11.317906)">
    <path
       d="m 395.43,291.88 c 0.0937,17.453 -13.98,31.68 -31.438,31.773 -17.457,0.0898 -31.68,-13.984 -31.773,-31.441 -0.0937,-17.453 13.984,-31.68 31.438,-31.773 17.457,-0.0898 31.684,13.984 31.773,31.441"
       id="path613" />
    <path
       d="m 521,180.19 c 9.1914,0 16.668,-7.4766 16.668,-16.672 0,-9.1914 -7.4766,-16.672 -16.668,-16.672 -9.1914,0 -16.672,7.4766 -16.672,16.672 0.004,9.1953 7.4805,16.672 16.672,16.672 z"
       id="path615" />
    <path
       d="m 432.82,230.73 c -1.4492,-1.625 -3.957,-1.7344 -5.4961,-0.19141 l -7.7578,7.7734 c -0.64844,0.62891 -1.4727,0.95312 -2.293,0.95312 -0.84375,0 -1.6641,-0.32422 -2.293,-0.95312 -1.2773,-1.2773 -1.2773,-3.332 0,-4.5859 l 4.1016,-4.1133 c 2.0391,-2.043 1.0977,-5.5117 -1.6875,-6.2812 -8.9453,-2.4805 -18.168,-4.3945 -27.762,-5.7852 -0.14844,-0.0234 -0.30078,-0.043 -0.45703,-0.0664 -2.0977,-0.28906 -4.0508,0.99219 -4.8008,2.9766 -0.62109,1.6445 -1.6172,3.168 -2.9844,4.4414 -2.2266,2.0781 -5.1055,3.1992 -8.1094,3.1992 -3.2891,0 -6.4688,-1.3828 -8.7188,-3.7852 l -6.1836,-6.6328 c -0.82812,-0.89062 -2.0039,-1.3945 -3.2188,-1.3906 -3.3672,0.008 -5.5547,0.0391 -5.6289,0.0391 -7.6758,0.36719 -15.832,1.082 -24.117,2.1211 -8.2188,1.0391 -16.242,2.9844 -24.051,5.625 -18.168,16.719 -28.895,40.098 -29.762,64.711 h 25.543 c 1.2969,-26.258 18.191,-49.789 42.891,-59.219 1.6875,-0.62891 3.5469,0.21484 4.1953,1.8828 0.62891,1.6875 -0.19531,3.5469 -1.8828,4.1953 -22.211,8.457 -37.418,29.566 -38.715,53.141 h 9.9688 c 1.7969,0 3.2461,1.4492 3.2461,3.2461 0,1.7969 -1.4492,3.2461 -3.2461,3.2461 h -10.012 c 0.73438,13.539 5.9492,25.91 14.188,35.645 l 6.3164,-6.3359 c 1.2773,-1.2773 3.332,-1.2773 4.5859,0 1.2773,1.2773 1.2773,3.332 0,4.5859 l -0.17188,0.17188 c -0.15234,0.53906 -0.36719,1.0391 -0.77734,1.4492 l -5.1719,5.1758 c 10.793,10.145 25.305,16.395 41.266,16.395 11.484,0 22.645,-3.2461 32.289,-9.3672 1.5156,-0.97266 3.5273,-0.51953 4.4766,0.99609 0.97266,1.5156 0.51953,3.5039 -0.99609,4.4766 -10.684,6.793 -23.055,10.383 -35.773,10.383 -17.734,0 -33.871,-6.9648 -45.852,-18.297 l -8.5859,8.5859 c -0.62891,0.62891 -1.4492,0.95312 -2.293,0.95312 -0.82422,0 -1.6641,-0.32422 -2.293,-0.95312 -1.2539,-1.2773 -1.2539,-3.332 0,-4.5859 l 0.19531,-0.19531 c 0.12891,-0.51953 0.36719,-1.0156 0.78125,-1.4492 l 7.3984,-7.3984 c -9.3867,-10.922 -15.336,-24.895 -16.07,-40.23 h -25.5 c 1.6875,48.316 40.66,87.293 88.98,88.98 v -14.145 c 0,-1.7969 1.4492,-3.2461 3.2461,-3.2461 1.7969,0 3.2461,1.4492 3.2461,3.2461 v 14.145 c 49.398,-1.7305 89.066,-42.414 89.066,-92.223 -0.004,-22.91 -8.2383,-44.398 -23.32,-61.309 z m -68.992,99.398 c -21,0 -38.09,-17.086 -38.09,-38.086 0,-21 17.086,-38.109 38.09,-38.109 21,0 38.086,17.109 38.086,38.109 0,21 -17.086,38.086 -38.086,38.086 z m 79.027,-34.844 H 430.55 c -0.71484,14.34 -6.0352,28.16 -15.184,39.254 -0.64844,0.77734 -1.5586,1.168 -2.5078,1.168 -0.71484,0 -1.4492,-0.23828 -2.0547,-0.73438 -1.3828,-1.1445 -1.5781,-3.1797 -0.43359,-4.5625 8.1992,-9.9258 12.934,-22.297 13.625,-35.125 h -9.2773 c -1.793,0 -3.2461,-1.4492 -3.2461,-3.2461 0,-1.7969 1.4492,-3.2461 3.2461,-3.2461 h 9.3203 c -1.125,-20.98 -13.043,-39.883 -31.684,-49.918 -1.5781,-0.84375 -2.1641,-2.8125 -1.3203,-4.3906 0.8438,-1.5781 2.8125,-2.1836 4.3906,-1.3203 20.762,11.16 33.957,32.27 35.102,55.629 h 12.328 c 1.7734,0 3.2461,1.4492 3.2461,3.2461 0,1.7969 -1.4727,3.2461 -3.2461,3.2461 z"
       id="path617" />
    <path
       d="m 508.39,390.35 c -8.6914,0 -15.766,7.0742 -15.766,15.766 0,8.6953 7.0742,15.766 15.766,15.766 8.6953,0 15.77,-7.0742 15.77,-15.766 0,-8.6914 -7.0742,-15.766 -15.77,-15.766 z"
       id="path619" />
    <path
       d="m 363.83,390.84 c 0.90625,0 0.90625,1.2969 0.15234,2.1641 l -7.1484,8.168 c -0.45703,0.52344 -1.1328,0.81641 -1.8281,0.79688 -3.6914,-0.10547 -6.0156,-0.23047 -6.0742,-0.25 -38.285,-2.5117 -79.723,-14.785 -126.45,-37.496 -5.4062,-2.625 -9.957,-6.7461 -12.965,-11.949 -5.9414,-10.281 -13.07,-28.574 -5.9531,-49.84 1.5547,-4.6406 4.1836,-8.8359 7.4297,-12.5 18.391,-20.75 41.59,-42.09 68.105,-56.168 1.9883,-1.0547 4.0703,1.2109 2.8164,3.0781 -10.891,16.18 -16.875,35.395 -16.875,55.195 -0.008,54.461 44.309,98.801 98.793,98.801 z"
       id="path621" />
    <path
       d="m 526.32,316.1 c -39.859,48.578 -84.414,76.152 -136.21,84.266 -1.2383,0.20312 -2.5156,0.375 -3.8047,0.52734 -0.74219,0.0859 -1.4531,-0.4375 -1.5234,-1.1797 -0.27344,-2.9141 -1.6133,-5.7422 -3.9961,-7.8242 -0.97266,-0.84375 -1.125,-2.3047 -0.0703,-2.4844 46.465,-8.043 81.914,-48.645 81.914,-97.352 0,-19.699 -5.6914,-38.43 -16.285,-54.414 -1.0664,-1.6055 0.61328,-3.6055 2.3633,-2.7969 26.113,12.129 50.637,30.262 76.344,55.93 6.918,6.8984 7.4609,17.801 1.2734,25.328 z"
       id="path623" />
    <path
       d="m 189.88,315.95 c -8.7461,11.75 -15.355,21.91 -19.43,28.512 -0.86719,1.4062 -1.2656,3.0977 -0.89844,4.7148 0.48438,2.1289 1.9961,3.7266 3.9805,4.2812 5.0352,1.4062 10.359,1.6602 16,1.9297 3.4531,0.16406 6.957,0.33594 10.469,0.78125 1.957,0.25 3.418,-1.7461 2.5117,-3.5 -4.4219,-8.5625 -8.8477,-20.871 -8.2461,-35.18 0.0937,-2.3906 -2.9609,-3.457 -4.3867,-1.5391 z"
       id="path625" />
    <path
       d="m 373.27,221.62 c -1.4961,0 -2.9375,-0.62891 -3.957,-1.7188 l -57.938,-62.145 -145.21,-0.004 c -2.9805,0 -5.4062,-2.4258 -5.4062,-5.4062 0,-2.9805 2.4258,-5.4062 5.4062,-5.4062 h 147.57 c 1.4961,0 2.9375,0.62891 3.9531,1.7188 l 59.539,63.867 c 2.0312,2.1797 1.9141,5.6094 -0.26562,7.6406 -1.0039,0.9375 -2.3164,1.4531 -3.6875,1.4531 z"
       id="path627" />
    <path
       d="m 166.16,192.81 c -2.9805,0 -5.4062,-2.4258 -5.4062,-5.4062 0,-2.9804 2.4258,-5.4062 5.4062,-5.4062 h 82.961 c 2.9805,0 5.4062,2.4258 5.4062,5.4062 0,2.9804 -2.4258,5.4062 -5.4062,5.4062 z"
       id="path629" />
    <path
       d="m 266.42,192.81 c -2.9805,0 -5.4062,-2.4258 -5.4062,-5.4062 0,-2.9804 2.4258,-5.4062 5.4062,-5.4062 h 33.84 c 2.9805,0 5.4062,2.4258 5.4062,5.4062 0,2.9804 -2.4258,5.4062 -5.4062,5.4062 z"
       id="path631" />
    <path
       d="m 166.16,228.43 c -2.9805,0 -5.4062,-2.4258 -5.4062,-5.4062 0,-2.9805 2.4258,-5.4062 5.4062,-5.4062 h 80.934 c 2.9805,0 5.4062,2.4258 5.4062,5.4062 0,2.9805 -2.4258,5.4062 -5.4062,5.4062 z"
       id="path633" />
    <path
       d="m 389.42,198.89 c -2.9805,0 -5.4062,-2.4258 -5.4062,-5.4062 v -57.562 c 0,-7.75 6.3086,-14.059 14.059,-14.059 h 135.77 c 2.9805,0 5.4062,2.4258 5.4062,5.4062 0,2.9804 -2.4258,5.4062 -5.4062,5.4062 h -135.77 c -1.7891,0 -3.2461,1.457 -3.2461,3.2461 v 57.562 c 0.004,2.9805 -2.4219,5.4062 -5.4062,5.4062 z"
       id="path635" />
    <path
       d="m 408.86,170.3 c -2.9805,0 -5.4062,-2.4258 -5.4062,-5.4062 0,-2.9804 2.4258,-5.4062 5.4062,-5.4062 h 75.348 c 2.9805,0 5.4062,2.4258 5.4062,5.4062 0,2.9804 -2.4258,5.4062 -5.4062,5.4062 z"
       id="path637" />
    <path
       d="m 437.43,206.88 c -2.9805,0 -5.4062,-2.4258 -5.4062,-5.4062 0,-2.9805 2.4258,-5.4062 5.4062,-5.4062 h 46.773 c 2.9805,0 5.4062,2.4258 5.4062,5.4062 0,2.9805 -2.4258,5.4062 -5.4062,5.4062 z"
       id="path639" />
    <path
       d="m 501.51,206.88 c -2.9805,0 -5.4062,-2.4258 -5.4062,-5.4062 0,-2.9805 2.4258,-5.4062 5.4062,-5.4062 h 32.32 c 2.9805,0 5.4062,2.4258 5.4062,5.4062 0,2.9805 -2.4258,5.4062 -5.4062,5.4062 z"
       id="path641" />
    <path
       d="m 496.91,240.58 c -2.9805,0 -5.4062,-2.4258 -5.4062,-5.4062 0,-2.9804 2.4258,-5.4062 5.4062,-5.4062 h 36.91 c 2.9805,0 5.4062,2.4258 5.4062,5.4062 0,2.9804 -2.4258,5.4062 -5.4062,5.4062 z"
       id="path643" />
    <path
       d="m 166.16,440.74 c -2.9805,0 -5.4062,-2.4258 -5.4062,-5.4062 0,-2.9805 2.4258,-5.4062 5.4062,-5.4062 h 174.16 l 28.551,-32.648 c 1.0273,-1.1758 2.5117,-1.8477 4.0703,-1.8477 1.3086,0 2.5742,0.47656 3.5586,1.3359 2.2461,1.9648 2.4727,5.3867 0.51172,7.6289 l -30.168,34.492 c -1.0273,1.1758 -2.5117,1.8477 -4.0703,1.8477 z"
       id="path645" />
    <path
       d="m 384.14,440.74 c -2.9805,0 -5.4062,-2.4258 -5.4062,-5.4062 0,-2.9805 2.4258,-5.4062 5.4062,-5.4062 h 149.69 c 2.9805,0 5.4062,2.4258 5.4062,5.4062 0,2.9805 -2.4258,5.4062 -5.4062,5.4062 z"
       id="path647" />
    <path
       d="m 176.74,421.58 c -4.4141,0 -8.0039,-3.5898 -8.0039,-8.0039 0,-4.4141 3.5898,-8.0039 8.0039,-8.0039 4.4258,0 8.0234,3.5898 8.0234,8.0039 0,4.4141 -3.5977,8.0039 -8.0234,8.0039 z"
       id="path649" />
    <path
       d="m 209.59,421.58 c -4.4141,0 -8.0039,-3.5898 -8.0039,-8.0039 0,-4.4141 3.5898,-8.0039 8.0039,-8.0039 4.4141,0 8,3.5898 8,8.0039 0.004,4.4141 -3.5859,8.0039 -8,8.0039 z"
       id="path651" />
    <path
       d="m 242.43,421.58 c -4.4141,0 -8.0039,-3.5898 -8.0039,-8.0039 0,-4.4141 3.5898,-8.0039 8.0039,-8.0039 4.4258,0 8.0234,3.5898 8.0234,8.0039 0.004,4.4141 -3.5977,8.0039 -8.0234,8.0039 z"
       id="path653" />
    <path
       d="m 275.28,421.58 c -4.4258,0 -8.0234,-3.5898 -8.0234,-8.0039 0,-4.4141 3.5977,-8.0039 8.0234,-8.0039 4.4141,0 8,3.5898 8,8.0039 0,4.4141 -3.5898,8.0039 -8,8.0039 z"
       id="path655" />
    <path
       d="m 468.51,421.58 c -4.4141,0 -8,-3.5898 -8,-8.0039 0,-4.4141 3.5898,-8.0039 8,-8.0039 4.4141,0 8.0039,3.5898 8.0039,8.0039 0,4.4141 -3.5898,8.0039 -8.0039,8.0039 z"
       id="path657" />
    <path
       d="m 258.34,135.28 c -4.4141,0 -8.0039,-3.6016 -8.0039,-8.0234 0,-4.4141 3.5898,-8.0039 8.0039,-8.0039 4.4141,0 8,3.5898 8,8.0039 0.004,4.4258 -3.5859,8.0234 -8,8.0234 z"
       id="path659" />
    <path
       d="m 292.5,135.28 c -4.4141,0 -8.0039,-3.6016 -8.0039,-8.0234 0,-4.4141 3.5898,-8.0039 8.0039,-8.0039 4.4258,0 8.0234,3.5898 8.0234,8.0039 0,4.4258 -3.5977,8.0234 -8.0234,8.0234 z"
       id="path661" />
    <path
       d="m 224.2,135.28 c -4.4141,0 -8.0039,-3.6016 -8.0039,-8.0234 0,-4.4141 3.5898,-8.0039 8.0039,-8.0039 4.4141,0 8,3.5898 8,8.0039 0,4.4258 -3.5898,8.0234 -8,8.0234 z"
       id="path663" />
    <path
       d="m 190.04,135.28 c -4.4141,0 -8,-3.6016 -8,-8.0234 0,-4.4141 3.5898,-8.0039 8,-8.0039 4.4141,0 8.0039,3.5898 8.0039,8.0039 0,4.4258 -3.5898,8.0234 -8.0039,8.0234 z"
       id="path665" />
    <use
       x="70"
       y="562.10156"
       xlink:href="#v"
       id="use667" />
    <use
       x="70.515625"
       y="562.10156"
       xlink:href="#c"
       id="use669" />
    <use
       x="70.859375"
       y="562.10156"
       xlink:href="#a"
       id="use671" />
    <use
       x="71.332031"
       y="562.10156"
       xlink:href="#g"
       id="use673" />
    <use
       x="71.804688"
       y="562.10156"
       xlink:href="#b"
       id="use675" />
    <use
       x="72.140625"
       y="562.10156"
       xlink:href="#a"
       id="use677" />
    <use
       x="72.617188"
       y="562.10156"
       xlink:href="#l"
       id="use679" />
    <use
       x="73.359375"
       y="562.10156"
       xlink:href="#k"
       id="use681" />
    <use
       x="73.859375"
       y="562.10156"
       xlink:href="#j"
       id="use683" />
    <use
       x="74.5625"
       y="562.10156"
       xlink:href="#f"
       id="use685" />
    <use
       x="75.148438"
       y="562.10156"
       xlink:href="#a"
       id="use687" />
    <use
       x="75.621094"
       y="562.10156"
       xlink:href="#i"
       id="use689" />
    <use
       x="76.039062"
       y="562.10156"
       xlink:href="#b"
       id="use691" />
    <use
       x="76.375"
       y="562.10156"
       xlink:href="#a"
       id="use693" />
    <use
       x="76.847656"
       y="562.10156"
       xlink:href="#c"
       id="use695" />
    <use
       x="77.191406"
       y="562.10156"
       xlink:href="#a"
       id="use697" />
    <use
       x="77.667969"
       y="562.10156"
       xlink:href="#e"
       id="use699" />
    <use
       x="78.167969"
       y="562.10156"
       xlink:href="#u"
       id="use701" />
    <use
       x="78.632812"
       y="562.10156"
       xlink:href="#d"
       id="use703" />
    <use
       x="79.355469"
       y="562.10156"
       xlink:href="#t"
       id="use705" />
    <use
       x="79.894531"
       y="562.10156"
       xlink:href="#h"
       id="use707" />
    <use
       x="80.394531"
       y="562.10156"
       xlink:href="#i"
       id="use709" />
    <use
       x="80.808594"
       y="562.10156"
       xlink:href="#s"
       id="use711" />
    <use
       x="81.050781"
       y="562.10156"
       xlink:href="#g"
       id="use713" />
    <use
       x="81.523438"
       y="562.10156"
       xlink:href="#e"
       id="use715" />
    <use
       x="70"
       y="562.80078"
       xlink:href="#r"
       id="use717" />
    <use
       x="70.304688"
       y="562.80078"
       xlink:href="#c"
       id="use719" />
    <use
       x="70.648438"
       y="562.80078"
       xlink:href="#d"
       id="use721" />
    <use
       x="71.128906"
       y="562.80078"
       xlink:href="#q"
       id="use723" />
    <use
       x="72.105469"
       y="562.80078"
       xlink:href="#b"
       id="use725" />
    <use
       x="72.4375"
       y="562.80078"
       xlink:href="#p"
       id="use727" />
    <use
       x="72.9375"
       y="562.80078"
       xlink:href="#a"
       id="use729" />
    <use
       x="73.65625"
       y="562.80078"
       xlink:href="#f"
       id="use731" />
    <use
       x="74.242188"
       y="562.80078"
       xlink:href="#d"
       id="use733" />
    <use
       x="74.722656"
       y="562.80078"
       xlink:href="#h"
       id="use735" />
    <use
       x="75.21875"
       y="562.80078"
       xlink:href="#e"
       id="use737" />
    <use
       x="75.960938"
       y="562.80078"
       xlink:href="#o"
       id="use739" />
    <use
       x="76.476562"
       y="562.80078"
       xlink:href="#c"
       id="use741" />
    <use
       x="76.820312"
       y="562.80078"
       xlink:href="#d"
       id="use743" />
    <use
       x="77.300781"
       y="562.80078"
       xlink:href="#n"
       id="use745" />
    <use
       x="77.542969"
       y="562.80078"
       xlink:href="#a"
       id="use747" />
    <use
       x="78.015625"
       y="562.80078"
       xlink:href="#m"
       id="use749" />
    <use
       x="78.429688"
       y="562.80078"
       xlink:href="#b"
       id="use751" />
  </g>
</svg>
