<?xml version="1.0" encoding="UTF-8" standalone="no"?>
<svg
   height="100"
   version="1.1"
   viewBox="0 0 100 100"
   id="svg2057"
   sodipodi:docname="fetal-cloning-template.svg"
   inkscape:version="1.2.2 (b0a8486541, 2022-12-01)"
   xmlns:inkscape="http://www.inkscape.org/namespaces/inkscape"
   xmlns:sodipodi="http://sodipodi.sourceforge.net/DTD/sodipodi-0.dtd"
   xmlns="http://www.w3.org/2000/svg"
   xmlns:svg="http://www.w3.org/2000/svg">
  <sodipodi:namedview
     id="namedview2059"
     pagecolor="#ffffff"
     bordercolor="#000000"
     borderopacity="0.25"
     inkscape:showpageshadow="2"
     inkscape:pageopacity="0.0"
     inkscape:pagecheckerboard="0"
     inkscape:deskcolor="#d1d1d1"
     inkscape:document-units="pt"
     showgrid="false"
     inkscape:zoom="0.96857143"
     inkscape:cx="212.16814"
     inkscape:cy="302.50737"
     inkscape:window-width="1896"
     inkscape:window-height="1012"
     inkscape:window-x="0"
     inkscape:window-y="0"
     inkscape:window-maximized="1"
     inkscape:current-layer="g2055" />
  <defs
     id="defs2011">
    <symbol
       id="d"
       overflow="visible">
      <path
         d="m 29.312,-1.75 c -1.5117,0.78125 -3.0898,1.3711 -4.7344,1.7656 -1.6367,0.40625 -3.3398,0.60938 -5.1094,0.60938 -5.3125,0 -9.5273,-1.4844 -12.641,-4.4531 -3.1055,-2.9688 -4.6562,-7 -4.6562,-12.094 0,-5.094 1.5508,-9.125 4.6562,-12.094 3.1133,-2.9688 7.3281,-4.4531 12.641,-4.4531 1.7695,0 3.4727,0.19922 5.1094,0.59375 1.6445,0.39844 3.2227,0.99219 4.7344,1.7812 v 6.5938 c -1.5312,-1.0391 -3.0391,-1.8008 -4.5156,-2.2812 -1.4805,-0.48828 -3.0391,-0.73438 -4.6719,-0.73438 -2.9375,0 -5.2461,0.94531 -6.9219,2.8281 -1.6797,1.875 -2.5156,4.4648 -2.5156,7.7656 0,3.293 0.83594,5.8828 2.5156,7.7656 1.6758,1.875 3.9844,2.8125 6.9219,2.8125 1.6328,0 3.1914,-0.23828 4.6719,-0.71875 1.4766,-0.48828 2.9844,-1.2539 4.5156,-2.2969 z"
         id="path1963" />
    </symbol>
    <symbol
       id="k"
       overflow="visible">
      <path
         d="m 21.453,-17.406 c -0.67969,-0.3125 -1.3516,-0.53906 -2.0156,-0.6875 -0.65625,-0.15625 -1.3203,-0.23438 -1.9844,-0.23438 -1.9688,0 -3.4844,0.63281 -4.5469,1.8906 -1.0547,1.2617 -1.5781,3.0703 -1.5781,5.4219 V 6.2e-4 H 3.6718 v -23.922 h 7.6562 v 3.9219 c 0.97656,-1.5625 2.1016,-2.7031 3.375,-3.4219 1.2812,-0.71875 2.8125,-1.0781 4.5938,-1.0781 0.25,0 0.52344,0.01172 0.82812,0.03125 0.30078,0.02344 0.73438,0.07031 1.2969,0.14062 z"
         id="path1966" />
    </symbol>
    <symbol
       id="a"
       overflow="visible">
      <path
         d="m 27.562,-12.031 v 2.1875 H 9.671 c 0.1875,1.793 0.83203,3.1367 1.9375,4.0312 1.1133,0.89844 2.6719,1.3438 4.6719,1.3438 1.6016,0 3.25,-0.23438 4.9375,-0.70312 1.6875,-0.47656 3.4219,-1.2031 5.2031,-2.1719 v 5.8906 c -1.8047,0.6875 -3.6094,1.2031 -5.4219,1.5469 -1.8125,0.35156 -3.6211,0.53125 -5.4219,0.53125 -4.3359,0 -7.7031,-1.0977 -10.109,-3.2969 -2.3984,-2.207 -3.5938,-5.2969 -3.5938,-9.2656 0,-3.9062 1.1758,-6.9727 3.5312,-9.2031 2.3633,-2.2383 5.6094,-3.3594 9.7344,-3.3594 3.7578,0 6.7695,1.1367 9.0312,3.4062 2.2578,2.2617 3.3906,5.2812 3.3906,9.0625 z m -7.8594,-2.5312 c 0,-1.457 -0.42969,-2.6289 -1.2812,-3.5156 -0.84375,-0.89453 -1.9492,-1.3438 -3.3125,-1.3438 -1.4922,0 -2.6992,0.41797 -3.625,1.25 -0.91797,0.83594 -1.4922,2.0391 -1.7188,3.6094 z"
         id="path1969" />
    </symbol>
    <symbol
       id="j"
       overflow="visible">
      <path
         d="m 14.391,-10.766 c -1.5938,0 -2.793,0.27344 -3.5938,0.8125 -0.80469,0.54297 -1.2031,1.3398 -1.2031,2.3906 0,0.96875 0.32031,1.7305 0.96875,2.2812 0.64453,0.54297 1.5469,0.8125 2.7031,0.8125 1.4375,0 2.6445,-0.51562 3.625,-1.5469 0.98828,-1.0312 1.4844,-2.3203 1.4844,-3.875 v -0.875 z m 11.688,-2.8906 V -6e-4 h -7.7031 v -3.5469 c -1.0312,1.4492 -2.1875,2.5078 -3.4688,3.1719 -1.2813,0.6641 -2.8398,1 -4.6719,1 -2.4805,0 -4.4961,-0.72266 -6.0469,-2.1719 -1.543,-1.4453 -2.3125,-3.3203 -2.3125,-5.625 0,-2.8125 0.96094,-4.8672 2.8906,-6.1719 1.9375,-1.3125 4.9688,-1.9688 9.0938,-1.9688 h 4.5156 v -0.60938 c 0,-1.207 -0.48047,-2.0938 -1.4375,-2.6562 -0.94922,-0.5625 -2.4375,-0.84375 -4.4688,-0.84375 -1.6367,0 -3.1562,0.16797 -4.5625,0.5 -1.4062,0.32422 -2.7188,0.8125 -3.9375,1.4688 v -5.8281 c 1.6445,-0.40625 3.2891,-0.70703 4.9375,-0.90625 1.6562,-0.20703 3.3047,-0.3125 4.9531,-0.3125 4.3203,0 7.4375,0.85547 9.3438,2.5625 1.9141,1.6992 2.875,4.4609 2.875,8.2812 z"
         id="path1972" />
    </symbol>
    <symbol
       id="i"
       overflow="visible">
      <path
         d="m 12.031,-30.719 v 6.7969 h 7.875 v 5.4688 h -7.875 v 10.141 c 0,1.1172 0.21875,1.8711 0.65625,2.2656 0.4375,0.38672 1.3125,0.57812 2.625,0.57812 h 3.9375 v 5.4688 h -6.5625 c -3.0234,0 -5.1641,-0.62891 -6.4219,-1.8906 -1.2617,-1.2578 -1.8906,-3.3984 -1.8906,-6.4219 v -10.141 h -3.7969 v -5.4688 h 3.7969 v -6.7969 z"
         id="path1975" />
    </symbol>
    <symbol
       id="h"
       overflow="visible">
      <path
         d="m 19.953,-20.422 v -12.812 h 7.6875 V 0 H 19.953 v -3.4531 c -1.0547,1.4062 -2.2148,2.4375 -3.4844,3.0938 -1.2734,0.65625 -2.7422,0.98438 -4.4062,0.98438 -2.9492,0 -5.3711,-1.1719 -7.2656,-3.5156 -1.8867,-2.3438 -2.8281,-5.3594 -2.8281,-9.0469 0,-3.6875 0.94141,-6.7031 2.8281,-9.0469 1.8945,-2.3438 4.3164,-3.5156 7.2656,-3.5156 1.6562,0 3.1172,0.33594 4.3906,1 1.2812,0.65625 2.4453,1.6836 3.5,3.0781 z m -5.0469,15.484 c 1.6445,0 2.8945,-0.59766 3.75,-1.7969 0.86328,-1.1953 1.2969,-2.9297 1.2969,-5.2031 0,-2.2812 -0.43359,-4.0195 -1.2969,-5.2188 -0.85547,-1.1953 -2.1055,-1.7969 -3.75,-1.7969 -1.625,0 -2.8711,0.60156 -3.7344,1.7969 -0.85547,1.1992 -1.2812,2.9375 -1.2812,5.2188 0,2.2734 0.42578,4.0078 1.2812,5.2031 0.86328,1.1992 2.1094,1.7969 3.7344,1.7969 z"
         id="path1978" />
    </symbol>
    <symbol
       id="g"
       overflow="visible">
      <path
         d="m 16.406,-4.9375 c 1.6328,0 2.8828,-0.59766 3.75,-1.7969 0.86328,-1.1953 1.2969,-2.9297 1.2969,-5.2031 0,-2.2812 -0.43359,-4.0195 -1.2969,-5.2188 -0.86719,-1.1953 -2.1172,-1.7969 -3.75,-1.7969 -1.6367,0 -2.8906,0.60547 -3.7656,1.8125 -0.875,1.1992 -1.3125,2.9336 -1.3125,5.2031 0,2.2617 0.4375,3.9961 1.3125,5.2031 0.875,1.1992 2.1289,1.7969 3.7656,1.7969 z m -5.0781,-15.484 c 1.0508,-1.3945 2.2188,-2.4219 3.5,-3.0781 1.2812,-0.66406 2.7539,-1 4.4219,-1 2.9453,0 5.3672,1.1719 7.2656,3.5156 1.8945,2.3438 2.8438,5.3594 2.8438,9.0469 0,3.6875 -0.94922,6.7031 -2.8438,9.0469 -1.8984,2.3438 -4.3203,3.5156 -7.2656,3.5156 -1.668,0 -3.1406,-0.33594 -4.4219,-1 -1.2813,-0.66406 -2.4492,-1.6914 -3.5,-3.0781 V 4e-4 H 3.6717 v -33.234 h 7.6562 z"
         id="path1981" />
    </symbol>
    <symbol
       id="f"
       overflow="visible">
      <path
         d="m 0.53125,-23.922 h 7.6562 l 6.4219,16.234 5.4688,-16.234 h 7.6562 l -10.062,26.188 c -1.0117,2.6641 -2.1953,4.5234 -3.5469,5.5781 -1.3438,1.0625 -3.1211,1.5938 -5.3281,1.5938 H 4.37545 V 4.4223 h 2.3906 c 1.3008,0 2.2422,-0.21094 2.8281,-0.625 0.59375,-0.40625 1.0547,-1.1484 1.3906,-2.2188 l 0.20312,-0.65625 z"
         id="path1984" />
    </symbol>
    <symbol
       id="e"
       overflow="visible">
      <path
         d="m 0.21875,-31.891 h 8.2656 l 8.4531,23.531 8.4375,-23.531 h 8.2656 L 21.82855,0 h -9.7969 z"
         id="path1987" />
    </symbol>
    <symbol
       id="p"
       overflow="visible">
      <path
         d="m 4.0156,-31.891 h 8.2188 V 0 H 4.0156 Z"
         id="path1990" />
    </symbol>
    <symbol
       id="c"
       overflow="visible">
      <path
         d="m 4.0156,-31.891 h 9.1875 l 11.594,21.875 V -31.891 H 32.594 V 0 H 23.4065 L 11.8125,-21.875 V 0 H 4.0156 Z"
         id="path1993" />
    </symbol>
    <symbol
       id="o"
       overflow="visible">
      <path
         d="m 2.4531,-31.891 h 26.812 v 4.9688 l -17.109,20.703 h 17.594 V -4e-4 H 1.9691 v -4.9844 l 17.109,-20.688 H 2.4531 Z"
         id="path1996" />
    </symbol>
    <symbol
       id="b"
       overflow="visible">
      <path
         d="m 4.0156,-31.891 h 22.203 v 6.2188 h -13.984 v 5.9375 h 13.141 v 6.2188 h -13.141 v 7.2969 h 14.453 V -2e-4 H 4.0156 Z"
         id="path1999" />
    </symbol>
    <symbol
       id="n"
       overflow="visible">
      <path
         d="m 26.219,-30.891 v 6.75 c -1.7617,-0.78125 -3.4766,-1.3672 -5.1406,-1.7656 -1.668,-0.40625 -3.2422,-0.60938 -4.7188,-0.60938 -1.9609,0 -3.4141,0.27344 -4.3594,0.8125 -0.9375,0.54297 -1.4062,1.3867 -1.4062,2.5312 0,0.85547 0.31641,1.5234 0.95312,2 0.63281,0.46875 1.7852,0.875 3.4531,1.2188 l 3.5,0.70312 c 3.5391,0.71875 6.0625,1.8047 7.5625,3.25 1.5,1.4492 2.25,3.5117 2.25,6.1875 0,3.5234 -1.0469,6.1406 -3.1406,7.8594 -2.0859,1.7188 -5.2734,2.5781 -9.5625,2.5781 -2.0234,0 -4.0547,-0.19531 -6.0938,-0.57812 -2.0312,-0.38281 -4.0625,-0.95703 -6.0938,-1.7188 v -6.9375 c 2.0312,1.0859 3.9922,1.9023 5.8906,2.4531 1.9062,0.54297 3.7422,0.8125 5.5156,0.8125 1.7891,0 3.1602,-0.29688 4.1094,-0.89062 0.95703,-0.60156 1.4375,-1.457 1.4375,-2.5625 0,-1 -0.32422,-1.7695 -0.96875,-2.3125 -0.64844,-0.53906 -1.9375,-1.0234 -3.875,-1.4531 l -3.1875,-0.70312 c -3.1875,-0.6875 -5.5234,-1.7734 -7,-3.2656 -1.4688,-1.5 -2.2031,-3.5156 -2.2031,-6.0469 0,-3.1758 1.0234,-5.6172 3.0781,-7.3281 2.0508,-1.707 5,-2.5625 8.8438,-2.5625 1.75,0 3.5508,0.13281 5.4062,0.39062 1.8516,0.26172 3.7695,0.65625 5.75,1.1875 z"
         id="path2002" />
    </symbol>
    <symbol
       id="m"
       overflow="visible">
      <path
         d="m 0.21875,-31.891 h 29.391 v 6.2188 h -10.578 V -2e-4 h -8.2188 v -25.672 h -10.594 z"
         id="path2005" />
    </symbol>
    <symbol
       id="l"
       overflow="visible">
      <path
         d="m 4.0156,-31.891 h 8.2188 v 19.109 c 0,2.6367 0.42969,4.5234 1.2969,5.6562 0.86328,1.1367 2.2695,1.7031 4.2188,1.7031 1.9688,0 3.3789,-0.56641 4.2344,-1.7031 0.86328,-1.1328 1.2969,-3.0195 1.2969,-5.6562 v -19.109 h 8.2344 v 19.109 c 0,4.5234 -1.1367,7.8867 -3.4062,10.094 -2.2617,2.2109 -5.7148,3.3125 -10.359,3.3125 -4.625,0 -8.0742,-1.1016 -10.344,-3.3125 C 5.1449,-4.895 4.016,-8.2583 4.016,-12.782 Z"
         id="path2008" />
    </symbol>
  </defs>
  <g
     id="g2055"
     transform="matrix(0.13392824,0,0,0.13392838,-5.2348194,4.0178514e-4)">
    <path
       d="m 735.77546,303.93433 -62.02133,-20.672 V 244.997 c 0,-64.97867 -25.812,-127.29733 -71.76,-173.24 -45.94267,-45.948 -108.26,-71.76 -173.24,-71.76 -64.98,0 -127.29733,25.812 -173.24,71.76 -45.948,45.94267 -71.76,108.26 -71.76,173.24 v 38.26533 l -62.02133,20.672 c -4.7604,1.58854 -7.974,6.0416 -7.9792,11.06254 v 140 c 0.005,5.0208 3.2188,9.474 7.9792,11.06253 l 62.02133,20.672 v 189.93333 c -12.5052,0 -24.05733,6.67187 -30.312,17.5 -6.25,10.82814 -6.25,24.172 0,35 6.2552,10.82814 17.80667,17.5 30.312,17.5 h 490 c 12.5052,0 24.05733,-6.67186 30.312,-17.5 6.25,-10.82813 6.25,-24.172 0,-35 -6.2552,-10.82813 -17.80667,-17.5 -30.312,-17.5 V 486.7314 l 62.02133,-20.672 c 4.7604,-1.58853 7.974,-6.0416 7.9792,-11.06253 v -140 c -0.005,-5.0208 -3.2188,-9.474 -7.9792,-11.06254 z m -253.90666,231.56 14.104,7 c 1.70306,0.85416 2.7812,2.59894 2.776,4.5052 0.0156,1.67187 -0.81251,3.2448 -2.20307,4.17707 -1.38027,0.92708 -3.12507,1.11979 -4.66667,0.51041 l -7,-2.82293 c -16.32266,-6.5 -30.28133,-17.82267 -40.00533,-32.45867 -3.44267,-5.14066 -8.83853,-8.64066 -14.93733,-9.69266 -1.24479,-0.21875 -2.5104,-0.32812 -3.776,-0.32812 -4.88547,0.005 -9.63547,1.58333 -13.54667,4.5052 -16.5,12.36973 -37.94267,16.05733 -57.62533,9.90626 -19.688,-6.15106 -35.21867,-21.38533 -41.74,-40.95333 l -5.0052,-15.016 c -4.62507,-13.95867 -4.62507,-29.04133 0,-43 16.5,-49.22933 48.86,-91.59333 92.016,-120.45867 0.63541,-0.42708 1.22917,-0.91666 1.7708,-1.4584 l 11.66666,-11.66666 c 1.28126,-1.28646 2.25,-2.84374 2.82294,-4.56254 l 4.7604,-14.328 c 4.88546,-14.60933 15.36933,-26.688 29.15066,-33.57866 13.78134,-6.89067 29.72934,-8.0312 44.34934,-3.17187 l 8.2604,2.7656 c 13.23439,4.41147 24.39599,13.50533 31.39599,25.568 7.0052,12.06253 9.35934,26.26533 6.62507,39.94267 l -4.29173,21.48933 c -1.55734,7.79693 -5.776,14.81733 -11.92707,19.85467 -6.15627,5.0364 -13.86933,7.7864 -21.82266,7.7708 h -4.2708 c -1.80734,0 -3.59374,0.41666 -5.2136,1.22396 l -13.604,6.81253 c -4.7812,2.38547 -10.04694,3.62507 -15.39067,3.63027 h -5.06253 c -9.10414,-0.0208 -17.83334,-3.63547 -24.292,-10.05734 l -9.85934,-9.85933 h 0.005 c -3.33854,-3.33333 -8.35414,-4.33333 -12.7136,-2.526 -4.35934,1.80733 -7.20307,6.05733 -7.20307,10.776 v 13.672 c -0.0521,18.02667 -7.20827,35.30267 -19.91733,48.07867 -2.66147,2.66666 -3.86974,6.4584 -3.2448,10.17186 0.61978,3.7136 3,6.90107 6.38546,8.55734 l 68.57867,33.448 c 9.974,4.87493 17.61467,13.50533 21.24533,24 3.63547,10.4948 2.9636,22 -1.86973,32 -2.81773,5.7552 -0.46355,12.7136 5.276,15.57333 z M 421.37946,420.541 412.2232,416.0722 c 1.40106,-2.0052 2.60413,-4.15107 3.83853,-6.2656 l 53.292,6.65107 h -0.005 c 19.90666,2.5208 40.104,1.30208 59.55733,-3.59374 l 1.3177,-0.32812 0.005,0.005 c 11.0364,-2.776 22.36933,-4.18747 33.74933,-4.2136 h 4.7708 c 9.18747,0.0312 18.19733,-2.5104 26.01067,-7.33854 7.81253,-4.83333 14.11466,-11.7552 18.19333,-19.984 l 2.4636,-4.92186 c 2.15627,-4.34374 5.4792,-8 9.60413,-10.54694 4.12494,-2.54693 8.88027,-3.89066 13.72934,-3.87493 h 11.66666 v 13.0312 c -14.156,3.40627 -26.07333,12.91147 -32.536,25.95867 l -2.4636,4.92186 c -2.15626,4.34374 -5.4792,8 -9.60413,10.54694 -4.12493,2.54693 -8.88027,3.89066 -13.72933,3.87493 h -28.104 c -13.2812,0.005 -26.516,1.63547 -39.40134,4.85413 -17.45866,4.38027 -35.60399,5.31254 -53.42133,2.7396 z m 187.77333,-303.88 h -23.016 c -24.052,-29.890667 -56.74,-51.630667 -93.60399,-62.254667 l -14.78134,-4.2448 5.0416,-19.833333 c 51.02133,12.890667 95.80267,43.489333 126.36,86.33333 z M 459.81946,25.775667 454.6424,46.661 h -51.78134 l -5.2292,-20.885333 h 0.005 c 20.61466,-3.2656 41.61466,-3.2656 62.22933,0 z m -85.16666,4.4896 5.09893,19.896 -14.73467,4.197866 C 328.1264,64.9842 295.42373,86.744467 271.3664,116.6618 h -23.016 c 30.55733,-42.844 75.33866,-73.442667 126.36,-86.333333 z M 137.07947,323.41193 148.74613,319.51607 V 450.4854 l -11.66666,-3.89587 z m 35,134.84 V 311.74527 l 11.66666,-3.88547 v 154.28 z m 513.33332,253.41334 c 0,3.09373 -1.22917,6.06253 -3.41666,8.25 -2.1875,2.18746 -5.15627,3.41666 -8.25,3.41666 h -490 c -6.44266,0 -11.66666,-5.224 -11.66666,-11.66666 0,-6.44267 5.224,-11.66667 11.66666,-11.66667 h 490 c 3.09373,0 6.06253,1.22917 8.25,3.41667 2.18746,2.18749 3.41666,5.15626 3.41666,8.25 z m -478.33332,-35 V 244.9986 c -0.0364,-36.66133 9.07813,-72.74933 26.52133,-105 h 43.47867 c 3.67186,0 7.13026,-1.7292 9.33333,-4.66667 21.224,-28.19333 51.04133,-48.718663 84.95866,-58.47333 l 24.02134,-6.859333 h 66.708 l 24.02133,6.859333 c 33.91733,9.7552 63.73466,30.28133 84.95866,58.47333 2.20307,2.93747 5.66147,4.66667 9.33334,4.66667 h 43.47866 c 17.44267,32.25067 26.55734,68.33867 26.52134,105 v 93.33333 h -11.66667 c -9.18747,-0.0312 -18.19733,2.5104 -26.01067,7.33854 -7.81253,4.83333 -14.11466,11.7552 -18.19333,19.984 l -2.4636,4.92186 c -2.15627,4.34374 -5.4792,8 -9.60413,10.54694 -4.12494,2.54693 -8.88027,3.89066 -13.72934,3.87493 h -4.7708 c -13.2812,0.005 -26.516,1.63547 -39.40133,4.85413 l -1.32812,0.32812 c -16.66133,4.17187 -33.95333,5.2136 -50.99466,3.07814 l -46.74934,-5.83334 c 1.07812,-3.88026 1.89587,-7.82813 2.45307,-11.81773 9.37493,6.09893 20.312,9.36453 31.5,9.40107 h 5.06253 c 8.95307,-0.0156 17.78667,-2.09374 25.80667,-6.07814 l 11.17707,-5.59893 h 1.5156 c 13.33333,0 26.25999,-4.62507 36.57333,-13.07813 10.31253,-8.45307 17.38,-20.21867 20,-33.29734 l 4.29173,-21.48933 c 3.86453,-19.25067 0.56771,-39.24533 -9.2812,-56.22933 -9.84893,-16.98934 -25.56267,-29.78667 -44.188,-35.99467 l -8.2604,-2.7656 c -20.484,-6.81253 -42.83866,-5.2188 -62.15066,4.43747 -19.312,9.65626 -34,26.584 -40.844,47.05733 l -3.89587,11.724 -8.91147,8.91147 v 0.005 c -46.97866,31.74533 -82.20266,78.07333 -100.22933,131.83333 -6.20826,18.75467 -6.20826,39.016 0,57.77067 l 5.0052,15.016 c 8.85413,26.53067 29.85467,47.22933 56.50533,55.69733 26.656,8.4688 55.74934,3.68747 78.292,-12.86973 12.30734,18.208 29.80267,32.292 50.21334,40.43733 l 7,2.83334 c 8.7448,3.5052 18.656,2.44266 26.464,-2.83334 7.80213,-5.2812 12.47919,-14.088 12.47919,-23.51066 0.0156,-5.2708 -1.44266,-10.44267 -4.2188,-14.92667 -2.77079,-4.4896 -6.74479,-8.10413 -11.47399,-10.44787 l -4.66667,-2.33333 c 3.31773,-12.0312 3.11973,-24.76 -0.56771,-36.688 -3.69266,-11.92187 -10.7188,-22.536 -20.25466,-30.59333 3.34893,0.20833 6.69786,0.34896 10.0312,0.34896 v 0.005 c 13.2604,0 26.46933,-1.63027 39.32799,-4.85413 11.0312,-2.7552 22.34934,-4.15627 33.71867,-4.16667 h 28.104 c 9.18747,0.0312 18.19733,-2.5104 26.01067,-7.33853 7.81253,-4.83334 14.11466,-11.7552 18.19333,-19.984 l 2.4636,-4.92187 c 2.54693,-4.9844 6.64067,-9.0052 11.66667,-11.4584 v 277.04 z M 673.74613,384.9986 v -77.14 l 11.66666,3.88547 v 146.50666 l -11.66666,3.88547 z m 46.66666,61.588 -11.66666,3.89587 V 319.51313 l 11.66666,3.89587 z"
       id="path2013"
       style="stroke-width:1.33333" />
  </g>
</svg>
