<?xml version="1.0" encoding="UTF-8" standalone="no"?>
<svg
   height="100"
   version="1.1"
   viewBox="0 0 100 100"
   id="svg359"
   sodipodi:docname="man-template.svg"
   inkscape:version="1.2.2 (b0a8486541, 2022-12-01)"
   xmlns:inkscape="http://www.inkscape.org/namespaces/inkscape"
   xmlns:sodipodi="http://sodipodi.sourceforge.net/DTD/sodipodi-0.dtd"
   xmlns="http://www.w3.org/2000/svg"
   xmlns:svg="http://www.w3.org/2000/svg">
  <sodipodi:namedview
     id="namedview361"
     pagecolor="#ffffff"
     bordercolor="#000000"
     borderopacity="0.25"
     inkscape:showpageshadow="2"
     inkscape:pageopacity="0.0"
     inkscape:pagecheckerboard="0"
     inkscape:deskcolor="#d1d1d1"
     inkscape:document-units="pt"
     showgrid="false"
     inkscape:zoom="0.96857143"
     inkscape:cx="212.16814"
     inkscape:cy="218.87906"
     inkscape:window-width="1896"
     inkscape:window-height="1012"
     inkscape:window-x="0"
     inkscape:window-y="0"
     inkscape:window-maximized="1"
     inkscape:current-layer="svg359" />
  <defs
     id="defs281">
    <symbol
       id="t"
       overflow="visible">
      <path
         d="m3.6562-0.21875c-0.1875 0.09375-0.38672 0.16797-0.59375 0.21875-0.19922 0.050781-0.40625 0.078125-0.625 0.078125-0.66797 0-1.1992-0.17969-1.5938-0.54688-0.38672-0.375-0.57812-0.87891-0.57812-1.5156 0-0.64453 0.19141-1.1484 0.57812-1.5156 0.39453-0.375 0.92578-0.5625 1.5938-0.5625 0.21875 0 0.42578 0.027344 0.625 0.078125 0.20703 0.054687 0.40625 0.125 0.59375 0.21875v0.82812c-0.1875-0.125-0.375-0.21875-0.5625-0.28125-0.17969-0.0625-0.37109-0.09375-0.57812-0.09375-0.36719 0-0.65625 0.12109-0.875 0.35938-0.21094 0.23047-0.3125 0.55469-0.3125 0.96875 0 0.40625 0.10156 0.73047 0.3125 0.96875 0.21875 0.23047 0.50781 0.34375 0.875 0.34375 0.20703 0 0.39844-0.023437 0.57812-0.078125 0.1875-0.0625 0.375-0.16016 0.5625-0.29688z"
         id="path221" />
    </symbol>
    <symbol
       id="d"
       overflow="visible">
      <path
         d="m2.6875-2.1719c-0.085938-0.039063-0.16797-0.070313-0.25-0.09375-0.085938-0.019531-0.16797-0.03125-0.25-0.03125-0.25 0-0.44531 0.085937-0.57812 0.25-0.125 0.15625-0.1875 0.38281-0.1875 0.67188v1.375h-0.96875v-2.9844h0.96875v0.48438c0.11328-0.19531 0.25-0.33594 0.40625-0.42188 0.16406-0.09375 0.35938-0.14062 0.57812-0.14062h0.10938c0.039063 0 0.09375 0.007812 0.15625 0.015625z"
         id="path224" />
    </symbol>
    <symbol
       id="a"
       overflow="visible">
      <path
         d="m3.4375-1.5v0.26562h-2.2344c0.03125 0.23047 0.11328 0.40234 0.25 0.51562 0.13281 0.10547 0.32812 0.15625 0.57812 0.15625 0.20703 0 0.41406-0.023438 0.625-0.078125 0.20703-0.0625 0.42188-0.15625 0.64062-0.28125v0.73438c-0.21875 0.09375-0.44531 0.16406-0.67188 0.20312-0.23047 0.039062-0.45312 0.0625-0.67188 0.0625-0.54297 0-0.96484-0.13281-1.2656-0.40625-0.30469-0.28125-0.45312-0.67188-0.45312-1.1719 0-0.47656 0.14453-0.85938 0.4375-1.1406 0.30078-0.28125 0.70703-0.42188 1.2188-0.42188 0.46875 0 0.84375 0.14062 1.125 0.42188s0.42188 0.66406 0.42188 1.1406zm-0.96875-0.32812c0-0.17578-0.058594-0.31641-0.17188-0.42188-0.10547-0.11328-0.24219-0.17188-0.40625-0.17188-0.1875 0-0.33984 0.054687-0.45312 0.15625-0.11719 0.10547-0.1875 0.25-0.21875 0.4375z"
         id="path227" />
    </symbol>
    <symbol
       id="l"
       overflow="visible">
      <path
         d="m1.7969-1.3438c-0.19922 0-0.35156 0.039062-0.45312 0.10938-0.09375 0.0625-0.14062 0.16406-0.14062 0.29688 0 0.11719 0.035156 0.21094 0.10938 0.28125 0.082031 0.0625 0.19531 0.09375 0.34375 0.09375 0.17578 0 0.32812-0.0625 0.45312-0.1875s0.1875-0.28516 0.1875-0.48438v-0.10938zm1.4688-0.35938v1.7031h-0.96875v-0.4375c-0.125 0.17969-0.27344 0.30859-0.4375 0.39062-0.15625 0.082031-0.35156 0.125-0.57812 0.125-0.3125 0-0.57031-0.085938-0.76562-0.26562-0.1875-0.1875-0.28125-0.42188-0.28125-0.70312 0-0.35156 0.11719-0.61328 0.35938-0.78125 0.23828-0.16406 0.61719-0.25 1.1406-0.25h0.5625v-0.0625c0-0.15625-0.0625-0.26562-0.1875-0.32812-0.11719-0.070312-0.29688-0.10938-0.54688-0.10938-0.21094 0-0.40234 0.023437-0.57812 0.0625-0.17969 0.042969-0.33984 0.10156-0.48438 0.17188v-0.71875c0.19531-0.050781 0.39844-0.085938 0.60938-0.10938 0.20703-0.03125 0.41406-0.046875 0.625-0.046875 0.53906 0 0.92969 0.10938 1.1719 0.32812 0.23828 0.21094 0.35938 0.55469 0.35938 1.0312z"
         id="path230" />
    </symbol>
    <symbol
       id="c"
       overflow="visible">
      <path
         d="m1.5-3.8438v0.85938h0.98438v0.67188h-0.98438v1.2812c0 0.13672 0.023438 0.23047 0.078125 0.28125 0.0625 0.042969 0.17578 0.0625 0.34375 0.0625h0.48438v0.6875h-0.8125c-0.38672 0-0.65625-0.078125-0.8125-0.23438s-0.23438-0.42188-0.23438-0.79688v-1.2812h-0.46875v-0.67188h0.46875v-0.85938z"
         id="path233" />
    </symbol>
    <symbol
       id="f"
       overflow="visible">
      <path
         d="m2.5-2.5469v-1.6094h0.95312v4.1562h-0.95312v-0.4375c-0.13672 0.17969-0.28125 0.30859-0.4375 0.39062-0.15625 0.082031-0.33984 0.125-0.54688 0.125-0.375 0-0.68359-0.14453-0.92188-0.4375-0.23047-0.28906-0.34375-0.67188-0.34375-1.1406 0-0.45703 0.11328-0.83203 0.34375-1.125 0.23828-0.28906 0.54688-0.4375 0.92188-0.4375 0.19531 0 0.375 0.042969 0.53125 0.125 0.16406 0.085938 0.31641 0.21484 0.45312 0.39062zm-0.64062 1.9375c0.20703 0 0.36328-0.070313 0.46875-0.21875 0.11328-0.15625 0.17188-0.37891 0.17188-0.67188 0-0.28125-0.058594-0.49219-0.17188-0.64062-0.10547-0.15625-0.26172-0.23438-0.46875-0.23438-0.19922 0-0.35547 0.078125-0.46875 0.23438-0.10547 0.14844-0.15625 0.35938-0.15625 0.64062 0 0.29297 0.050781 0.51562 0.15625 0.67188 0.11328 0.14844 0.26953 0.21875 0.46875 0.21875z"
         id="path236" />
    </symbol>
    <symbol
       id="k"
       overflow="visible">
      <path
         d="m2.0469-0.60938c0.20703 0 0.36328-0.070313 0.46875-0.21875 0.11328-0.15625 0.17188-0.37891 0.17188-0.67188 0-0.28125-0.058594-0.49219-0.17188-0.64062-0.10547-0.15625-0.26172-0.23438-0.46875-0.23438-0.19922 0-0.35547 0.078125-0.46875 0.23438-0.10547 0.14844-0.15625 0.35938-0.15625 0.64062 0 0.29297 0.050781 0.51562 0.15625 0.67188 0.11328 0.14844 0.26953 0.21875 0.46875 0.21875zm-0.625-1.9375c0.125-0.17578 0.26562-0.30469 0.42188-0.39062 0.16406-0.082031 0.35156-0.125 0.5625-0.125 0.36328 0 0.66406 0.14844 0.90625 0.4375 0.23828 0.29297 0.35938 0.66797 0.35938 1.125 0 0.46875-0.12109 0.85156-0.35938 1.1406-0.24219 0.29297-0.54297 0.4375-0.90625 0.4375-0.21094 0-0.39844-0.042969-0.5625-0.125-0.15625-0.082031-0.29688-0.21094-0.42188-0.39062v0.4375h-0.96875v-4.1562h0.96875z"
         id="path239" />
    </symbol>
    <symbol
       id="j"
       overflow="visible">
      <path
         d="m0.0625-2.9844h0.95312l0.8125 2.0156 0.6875-2.0156h0.95312l-1.2656 3.2656c-0.125 0.33203-0.27344 0.56641-0.4375 0.70312-0.16797 0.13281-0.39062 0.20312-0.67188 0.20312h-0.54688v-0.64062h0.29688c0.16406 0 0.28516-0.027344 0.35938-0.078125 0.070313-0.054688 0.12891-0.14062 0.17188-0.26562l0.03125-0.09375z"
         id="path242" />
    </symbol>
    <symbol
       id="e"
       overflow="visible">
      <path
         d="m0.45312-2.9844h0.96875v2.9844h-0.96875zm0-1.1719h0.96875v0.78125h-0.96875z"
         id="path245" />
    </symbol>
    <symbol
       id="i"
       overflow="visible">
      <path
         d="m2.875-2.8906v0.76562c-0.125-0.082031-0.25781-0.14453-0.39062-0.1875-0.13672-0.039062-0.27344-0.0625-0.40625-0.0625-0.27344 0-0.48047 0.078125-0.625 0.23438-0.14844 0.15625-0.21875 0.37109-0.21875 0.64062 0 0.28125 0.070313 0.5 0.21875 0.65625 0.14453 0.15625 0.35156 0.23438 0.625 0.23438 0.14453 0 0.28516-0.019531 0.42188-0.0625 0.13281-0.039063 0.25781-0.10938 0.375-0.20312v0.78125c-0.14844 0.0625-0.29688 0.10156-0.45312 0.125-0.15625 0.03125-0.3125 0.046875-0.46875 0.046875-0.54297 0-0.96484-0.13281-1.2656-0.40625-0.30469-0.28125-0.45312-0.67188-0.45312-1.1719 0-0.48828 0.14844-0.86719 0.45312-1.1406 0.30078-0.28125 0.72266-0.42188 1.2656-0.42188 0.15625 0 0.3125 0.015625 0.46875 0.046875 0.15625 0.023437 0.30469 0.0625 0.45312 0.125z"
         id="path248" />
    </symbol>
    <symbol
       id="b"
       overflow="visible">
      <path
         d="m1.875-2.375c-0.21094 0-0.37109 0.078125-0.48438 0.23438-0.10547 0.14844-0.15625 0.35938-0.15625 0.64062 0 0.29297 0.050781 0.51562 0.15625 0.67188 0.11328 0.14844 0.27344 0.21875 0.48438 0.21875 0.20703 0 0.36719-0.070313 0.48438-0.21875 0.11328-0.15625 0.17188-0.37891 0.17188-0.67188 0-0.28125-0.058594-0.49219-0.17188-0.64062-0.11719-0.15625-0.27734-0.23438-0.48438-0.23438zm0-0.6875c0.51953 0 0.92188 0.14062 1.2031 0.42188 0.28906 0.27344 0.4375 0.65234 0.4375 1.1406 0 0.5-0.14844 0.89062-0.4375 1.1719-0.28125 0.27344-0.68359 0.40625-1.2031 0.40625-0.51172 0-0.91406-0.13281-1.2031-0.40625-0.29297-0.28125-0.4375-0.67188-0.4375-1.1719 0-0.48828 0.14453-0.86719 0.4375-1.1406 0.28906-0.28125 0.69141-0.42188 1.2031-0.42188z"
         id="path251" />
    </symbol>
    <symbol
       id="h"
       overflow="visible">
      <path
         d="m3.4688-1.8281v1.8281h-0.96875v-1.3906c0-0.25781-0.007812-0.4375-0.015625-0.53125-0.011719-0.10156-0.03125-0.17578-0.0625-0.21875-0.03125-0.0625-0.085937-0.10938-0.15625-0.14062-0.0625-0.039062-0.13281-0.0625-0.20312-0.0625-0.21094 0-0.37109 0.078125-0.48438 0.23438-0.10547 0.15625-0.15625 0.37109-0.15625 0.64062v1.4688h-0.96875v-2.9844h0.96875v0.4375c0.13281-0.17578 0.28516-0.30469 0.45312-0.39062 0.16406-0.082031 0.34375-0.125 0.53125-0.125 0.34375 0 0.60156 0.10938 0.78125 0.32812 0.1875 0.21094 0.28125 0.51172 0.28125 0.90625z"
         id="path254" />
    </symbol>
    <symbol
       id="g"
       overflow="visible">
      <path
         d="m2.4219-4.1562v0.625h-0.51562c-0.13672 0-0.23438 0.027344-0.29688 0.078125-0.054687 0.054687-0.078125 0.13672-0.078125 0.25v0.21875h0.82812v0.67188h-0.82812v2.3125h-0.95312v-2.3125h-0.46875v-0.67188h0.46875v-0.21875c0-0.32031 0.085937-0.5625 0.26562-0.71875 0.1875-0.15625 0.47266-0.23438 0.85938-0.23438z"
         id="path257" />
    </symbol>
    <symbol
       id="s"
       overflow="visible">
      <path
         d="m0.45312-4.1562h0.96875v4.1562h-0.96875z"
         id="path260" />
    </symbol>
    <symbol
       id="r"
       overflow="visible">
      <path
         d="m3.2344-2.5c0.11328-0.17578 0.25391-0.3125 0.42188-0.40625 0.16406-0.10156 0.35156-0.15625 0.5625-0.15625 0.33203 0 0.58594 0.10938 0.76562 0.32812 0.1875 0.21094 0.28125 0.51172 0.28125 0.90625v1.8281h-0.96875v-1.5625c0.007813-0.019531 0.015625-0.039062 0.015625-0.0625v-0.10938c0-0.21875-0.03125-0.375-0.09375-0.46875s-0.16406-0.14062-0.29688-0.14062c-0.1875 0-0.33594 0.078125-0.4375 0.23438-0.09375 0.14844-0.14062 0.35938-0.14062 0.64062v1.4688h-0.96875v-1.5625c0-0.33203-0.03125-0.54688-0.09375-0.64062-0.054688-0.09375-0.15234-0.14062-0.29688-0.14062-0.17969 0-0.32031 0.078125-0.42188 0.23438-0.09375 0.14844-0.14062 0.35938-0.14062 0.64062v1.4688h-0.96875v-2.9844h0.96875v0.4375c0.11328-0.17578 0.24219-0.30469 0.39062-0.39062 0.15625-0.082031 0.32812-0.125 0.51562-0.125 0.20703 0 0.39062 0.054688 0.54688 0.15625 0.15625 0.09375 0.27344 0.23047 0.35938 0.40625z"
         id="path263" />
    </symbol>
    <symbol
       id="q"
       overflow="visible">
      <path
         d="m3.4688-1.8281v1.8281h-0.96875v-1.3906c0-0.25781-0.007812-0.4375-0.015625-0.53125-0.011719-0.10156-0.03125-0.17578-0.0625-0.21875-0.03125-0.0625-0.085937-0.10938-0.15625-0.14062-0.0625-0.039062-0.13281-0.0625-0.20312-0.0625-0.21094 0-0.37109 0.078125-0.48438 0.23438-0.10547 0.15625-0.15625 0.37109-0.15625 0.64062v1.4688h-0.96875v-4.1562h0.96875v1.6094c0.13281-0.17578 0.28516-0.30469 0.45312-0.39062 0.16406-0.082031 0.34375-0.125 0.53125-0.125 0.34375 0 0.60156 0.10938 0.78125 0.32812 0.1875 0.21094 0.28125 0.51172 0.28125 0.90625z"
         id="path266" />
    </symbol>
    <symbol
       id="p"
       overflow="visible">
      <path
         d="m0.5-3.9844h1.1562l1.4375 2.7344v-2.7344h0.98438v3.9844h-1.1562l-1.4375-2.7344v2.7344h-0.98438z"
         id="path269" />
    </symbol>
    <symbol
       id="o"
       overflow="visible">
      <path
         d="m0.42188-1.1719v-1.8125h0.96875v0.29688 0.60938 0.48438c0 0.24219 0.003906 0.41797 0.015625 0.53125 0.007812 0.10547 0.03125 0.17969 0.0625 0.21875 0.039062 0.0625 0.09375 0.11719 0.15625 0.15625 0.0625 0.03125 0.13281 0.046875 0.21875 0.046875 0.19531 0 0.35156-0.078125 0.46875-0.23438 0.11328-0.15625 0.17188-0.36719 0.17188-0.64062v-1.4688h0.95312v2.9844h-0.95312v-0.4375c-0.14844 0.17969-0.30469 0.30859-0.46875 0.39062-0.15625 0.082031-0.33594 0.125-0.53125 0.125-0.34375 0-0.60938-0.10156-0.79688-0.3125-0.17969-0.21875-0.26562-0.53125-0.26562-0.9375z"
         id="path272" />
    </symbol>
    <symbol
       id="n"
       overflow="visible">
      <path
         d="m0.5-3.9844h1.7031c0.50781 0 0.89844 0.11719 1.1719 0.34375 0.26953 0.21875 0.40625 0.53906 0.40625 0.95312 0 0.41797-0.13672 0.74219-0.40625 0.96875-0.27344 0.21875-0.66406 0.32812-1.1719 0.32812h-0.67188v1.3906h-1.0312zm1.0312 0.75v1.1094h0.5625c0.19531 0 0.34766-0.046875 0.45312-0.14062 0.11328-0.10156 0.17188-0.24219 0.17188-0.42188 0-0.17578-0.058594-0.3125-0.17188-0.40625-0.10547-0.09375-0.25781-0.14062-0.45312-0.14062z"
         id="path275" />
    </symbol>
    <symbol
       id="m"
       overflow="visible">
      <path
         d="m0.45312-2.9844h0.96875v2.9375c0 0.39453-0.10156 0.69531-0.29688 0.90625-0.1875 0.21875-0.46484 0.32812-0.82812 0.32812h-0.48438v-0.64062h0.17188c0.17578 0 0.29688-0.042969 0.35938-0.125 0.070312-0.074219 0.10938-0.23047 0.10938-0.46875zm0-1.1719h0.96875v0.78125h-0.96875z"
         id="path278" />
    </symbol>
  </defs>
  <g
     id="g357"
     transform="matrix(0.18775379,0,0,0.18775695,-15.955299,-2.5681082)">
    <path
       d="m 478.69,340.36 16.723,-91.152 c 0.69922,-3.8047 -1.3008,-7.5234 -4.8672,-9.0352 l -9.5586,-4.0469 c -2.3086,-0.97266 -4.8906,-0.85156 -7.0859,0.33984 -0.55859,0.29688 -1.0703,0.65625 -1.5312,1.0625 h -34.266 c 6.4648,-11.188 11.023,-23.547 13.301,-36.598 l 11.496,-5.1094 c 9.3281,-4.1445 15.902,-13.027 17.148,-23.156 l 2.8203,-23.066 c 1.3008,-10.652 -5.9375,-20.477 -16.504,-22.367 -0.16406,-0.0312 -0.32813,-0.043 -0.49219,-0.0547 l -11.617,-0.57031 v -22.617 c 0,-49.796997 -40.512,-90.311997 -90.312,-90.311997 h -28.57 c -49.797,0 -90.312,40.512 -90.312,90.311997 v 22.609 l -11.516,0.57031 c -0.16406,0.0117 -0.32812,0.0234 -0.49219,0.0547 -10.555,1.8906 -17.805,11.727 -16.504,22.367 l 2.8203,23.066 c 1.2461,10.141 7.8086,19.008 17.148,23.156 l 11.461,5.0859 c 2.2734,13.047 6.8359,25.418 13.312,36.609 h -33.645 c -0.46094,-0.40625 -0.97266,-0.76562 -1.5312,-1.0625 -2.1992,-1.1914 -4.7891,-1.3125 -7.0859,-0.33984 l -9.5586,4.0469 c -3.5664,1.5078 -5.5664,5.2266 -4.8672,9.0352 l 16.723,91.152 c -20.574,16.492 -32.344,42.711 -29.367,70.383 l 8.9141,82.809 c 2.5703,23.941 21.023,42.852 44.867,45.992 34.211,4.5078 71.18,6.7578 107.59,6.7578 35.164,0 69.805,-2.1016 100.91,-6.3203 23.844,-3.2383 42.297,-22.148 44.855,-45.992 l 8.957,-83.246 c 2.9648,-27.652 -8.8047,-53.859 -29.367,-70.363 z m -25.758,-153.17 1.1914,-52.926 11.102,0.54688 c 6.4414,1.2812 10.84,7.3164 10.031,13.859 l -2.8203,23.066 c -0.91797,7.4805 -5.7656,14.031 -12.656,17.094 l -7.1875,3.1953 c 0.14062,-1.6094 0.26172,-3.2188 0.33984,-4.8359 z m -213.3,1.6289 c -6.8906,-3.0625 -11.734,-9.6133 -12.656,-17.094 l -2.8203,-23.066 c -0.79688,-6.5391 3.5859,-12.578 10.031,-13.859 l 10.992,-0.54688 1.2812,52.938 v 0.0977 c 0.0781,1.5859 0.19531,3.1484 0.33984,4.7148 z m 237.89,54.383 c 0.15234,-0.0859 0.31641,-0.0859 0.46875,-0.0234 l 9.5586,4.0469 c 0.24219,0.0977 0.37109,0.35156 0.32812,0.60156 l -19.422,105.89 c -0.0312,0.17578 -0.12109,0.30469 -0.27344,0.38281 -0.15234,0.0859 -0.31641,0.0859 -0.46875,0.0234 l -9.5586,-4.0469 c -0.24219,-0.0977 -0.37109,-0.35156 -0.32812,-0.60156 l 19.426,-105.9 c 0.0312,-0.16406 0.11719,-0.29688 0.26953,-0.37109 z m -72.984,59.074 h 32.746 c 2.1094,0 3.8281,1.7188 3.8281,3.8281 0,2.1093 -1.7188,3.8281 -3.8281,3.8281 h -32.746 z m 38.215,-15.488 h -38.215 v -7.6562 h 38.215 c 2.1094,0 3.8281,1.7188 3.8281,3.8281 0,2.1093 -1.7188,3.8281 -3.8281,3.8281 z m 5.4688,-30.812 c 2.1094,0 3.8281,1.7188 3.8281,3.8281 0,2.1093 -1.7188,3.8281 -3.8281,3.8281 h -30.953 c 2.625,-2.4297 5.1172,-4.9883 7.4922,-7.6562 z m -17.27,-190.39 c 1.5742,-1.4766 2.625,-3.3047 3.1289,-5.2617 7.918,12.676 12.523,27.641 12.523,43.664 v 24.992 l -0.42578,19.055 c -8.1484,-13.859 -13.266,-29.344 -14.918,-45.414 l -0.88672,-8.5547 c -0.49219,-4.7461 -3.0625,-8.957 -7.0664,-11.562 -3.8398,-2.4922 -8.5,-3.1602 -12.895,-1.9141 7.3789,-4.1211 14.293,-9.1523 20.539,-15.004 z m -177.44,96.695 c 7.3828,-10.008 13.137,-21.066 17.094,-32.746 l 10.926,6.8594 c 0.63281,0.39453 1.3359,0.58984 2.0352,0.58984 1.2812,0 2.5156,-0.63281 3.25,-1.793 1.125,-1.793 0.57812,-4.1562 -1.2148,-5.2734 l -12.699,-7.9609 c 0.73437,-2.7344 1.3555,-5.4922 1.8906,-8.2695 l 6.7383,4.2227 c 0.63281,0.39453 1.3359,0.58984 2.0352,0.58984 1.2812,0 2.5156,-0.63281 3.25,-1.793 1.125,-1.793 0.57812,-4.1562 -1.2148,-5.2734 l -9.5156,-5.9727 c 0.0859,-0.75391 0.19531,-1.5078 0.27344,-2.2734 l 0.84375,-8.2891 c 0.25,-2.4375 1.5625,-4.6055 3.6211,-5.9375 2.0547,-1.3359 4.5703,-1.6641 6.9023,-0.90625 40.645,13.277 83.617,13.289 124.29,0.05469 l 0.23047,-0.07813 c 2.3281,-0.75391 4.8359,-0.42578 6.8906,0.90625 2.0547,1.3359 3.3672,3.5 3.6211,5.9297 l 0.88672,8.5547 c 2.1641,20.977 9.8555,41.047 22.234,58.109 l -0.57031,25.387 c -2.1562,43.793 -31.805,81.727 -73.785,94.379 l -10.074,3.0391 c -7.6797,2.3086 -15.781,2.3203 -23.461,0 l -10.074,-3.0391 c -41.969,-12.656 -71.617,-50.562 -73.785,-94.336 z m 41.957,147.65 h -32.746 c -2.1094,0 -3.8281,-1.7188 -3.8281,-3.8281 0,-2.1093 1.7188,-3.8281 3.8281,-3.8281 h 32.746 z m 0,-23.145 h -38.215 c -2.1094,0 -3.8281,-1.7188 -3.8281,-3.8281 0,-2.1093 1.7188,-3.8281 3.8281,-3.8281 h 38.215 z m -43.684,-30.812 h 22.848 c 2.375,2.668 4.8789,5.2188 7.5039,7.6562 h -30.352 c -2.1094,0 -3.8281,-1.7188 -3.8281,-3.8281 0,-2.1093 1.7188,-3.8281 3.8281,-3.8281 z m -39.66,-8.1602 c -0.043,-0.25 0.0859,-0.50391 0.32812,-0.60156 l 9.5586,-4.0469 c 0.0781,-0.0312 0.14063,-0.043 0.21875,-0.043 0.0859,0 0.17578,0.0234 0.26172,0.0664 0.15234,0.0859 0.25,0.20703 0.27344,0.38281 l 19.426,105.9 c 0.043,0.25 -0.0859,0.50391 -0.32812,0.60156 l -9.5586,4.0469 c -0.16406,0.0664 -0.31641,0.0664 -0.46875,-0.0234 -0.15234,-0.0859 -0.25,-0.20703 -0.27344,-0.38281 z m 103.18,290 c -23.406,-1.0156 -46.57,-2.9648 -68.578,-5.8633 -20.32,-2.6797 -36.062,-18.801 -38.25,-39.223 l -8.9141,-82.809 c -2.5391,-23.527 6.75,-45.906 23.34,-60.891 l 1.1172,6.0586 c 0.44922,2.4609 1.9688,4.5508 4.1797,5.7422 1.2148,0.65625 2.5469,0.98437 3.8945,0.98437 1.082,0 2.1641,-0.21875 3.2031,-0.65625 l 9.5586,-4.0469 c 3.5664,-1.5078 5.5664,-5.2266 4.8672,-9.0352 l -2.4727,-13.484 c 2.4844,-0.875 5.0195,-1.6406 7.6445,-2.2422 5.7852,-1.3359 39.66,-6.1562 44.406,-6.1562 2.1094,0 3.8281,-1.7188 3.8281,-3.8281 v -20.758 l 10.094,5.1523 c 1.2891,0.65625 2.0898,1.957 2.0898,3.4141 l 0.004,227.64 z m 185.13,-127.89 -8.957,83.246 c -2.1875,20.332 -17.926,36.465 -38.281,39.223 -39.715,5.3828 -85.246,7.2852 -130.23,5.7188 v -197.7 c 8.8828,2.3398 17.84,3.5312 26.809,3.5312 4.125,0 8.2461,-0.25 12.359,-0.74219 2.1016,-0.25 3.5977,-2.1641 3.3359,-4.2656 -0.25,-2.1016 -2.1562,-3.5977 -4.2656,-3.3359 -12.73,1.543 -25.582,0.50391 -38.25,-3.1172 v -22.336 c 0,-4.3438 -2.4062,-8.2578 -6.2656,-10.227 l -13.574,-6.9141 v -14.031 c 7.0547,3.9805 14.59,7.25 22.562,9.6484 l 10.074,3.0391 c 4.5625,1.3789 9.2539,2.0547 13.945,2.0547 4.6911,0 9.3828,-0.6875 13.945,-2.0664 l 10.074,-3.0391 c 8.1914,-2.4727 15.945,-5.8516 23.176,-9.9844 v 14.371 l -13.574,6.9141 c -3.8711,1.9688 -6.2656,5.8945 -6.2656,10.238 v 213.38 c 0,2.1094 1.7188,3.8281 3.8281,3.8281 2.1093,0 3.8281,-1.7188 3.8281,-3.8281 v -213.37 c 0,-1.4453 0.79688,-2.7578 2.0898,-3.4141 l 10.094,-5.1406 v 20.715 c 0,2.1094 1.7188,3.8281 3.8281,3.8281 5.7188,0 37.121,4.5273 44.406,6.2109 2.625,0.60156 5.1641,1.3672 7.6445,2.2422 l -2.4727,13.484 c -0.69922,3.8047 1.3008,7.5234 4.8672,9.0352 l 9.5586,4.0469 c 1.0273,0.4375 2.1094,0.65625 3.1953,0.65625 1.3359,0 2.668,-0.32812 3.8945,-0.98438 2.1992,-1.1797 3.7188,-3.2812 4.1797,-5.7422 l 1.1172,-6.0586 c 16.59,14.98 25.867,37.355 23.328,60.883 z"
       id="path283" />
  </g>
</svg>
