<?xml version="1.0" encoding="UTF-8" standalone="no"?>
<svg
   height="100"
   version="1.1"
   viewBox="0 0 100 100"
   id="svg1286"
   sodipodi:docname="through-the-wormhole-template.svg"
   inkscape:version="1.2.2 (b0a8486541, 2022-12-01)"
   xmlns:inkscape="http://www.inkscape.org/namespaces/inkscape"
   xmlns:sodipodi="http://sodipodi.sourceforge.net/DTD/sodipodi-0.dtd"
   xmlns="http://www.w3.org/2000/svg"
   xmlns:svg="http://www.w3.org/2000/svg">
  <sodipodi:namedview
     id="namedview1288"
     pagecolor="#ffffff"
     bordercolor="#000000"
     borderopacity="0.25"
     inkscape:showpageshadow="2"
     inkscape:pageopacity="0.0"
     inkscape:pagecheckerboard="0"
     inkscape:deskcolor="#d1d1d1"
     inkscape:document-units="pt"
     showgrid="false"
     inkscape:zoom="0.96857143"
     inkscape:cx="212.16814"
     inkscape:cy="367.55162"
     inkscape:window-width="1896"
     inkscape:window-height="1012"
     inkscape:window-x="0"
     inkscape:window-y="0"
     inkscape:window-maximized="1"
     inkscape:current-layer="svg1286" />
  <defs
     id="defs766">
    <symbol
       id="t"
       overflow="visible">
      <path
         d="m19.141-1.1406c-0.98047 0.51172-2.0078 0.89844-3.0781 1.1562-1.0742 0.25781-2.1875 0.39062-3.3438 0.39062-3.4805 0-6.2344-0.96875-8.2656-2.9062-2.0234-1.9453-3.0312-4.5781-3.0312-7.8906 0-3.332 1.0078-5.9688 3.0312-7.9062 2.0312-1.9375 4.7852-2.9062 8.2656-2.9062 1.1562 0 2.2695 0.13281 3.3438 0.39062 1.0703 0.26172 2.0977 0.64844 3.0781 1.1562v4.3125c-0.99219-0.6875-1.9688-1.1875-2.9375-1.5s-1.9922-0.46875-3.0625-0.46875c-1.918 0-3.4219 0.61719-4.5156 1.8438-1.0938 1.2188-1.6406 2.9141-1.6406 5.0781 0 2.1484 0.54688 3.8359 1.6406 5.0625 1.0938 1.2305 2.5977 1.8438 4.5156 1.8438 1.0703 0 2.0938-0.15625 3.0625-0.46875 0.96875-0.32031 1.9453-0.82031 2.9375-1.5z"
         id="path706" />
    </symbol>
    <symbol
       id="e"
       overflow="visible">
      <path
         d="m14.016-11.375c-0.4375-0.19531-0.875-0.34375-1.3125-0.4375-0.42969-0.10156-0.85938-0.15625-1.2969-0.15625-1.293 0-2.2891 0.41406-2.9844 1.2344-0.6875 0.82422-1.0312 2-1.0312 3.5312v7.2031h-4.9844v-15.625h4.9844v2.5625c0.64453-1.0195 1.3828-1.7656 2.2188-2.2344 0.83203-0.46875 1.8281-0.70312 2.9844-0.70312 0.17578 0 0.35938 0.007812 0.54688 0.015625 0.19531 0.011719 0.48438 0.042969 0.85938 0.09375z"
         id="path709" />
    </symbol>
    <symbol
       id="b"
       overflow="visible">
      <path
         d="m18-7.8594v1.4219h-11.672c0.11328 1.1797 0.53125 2.0586 1.25 2.6406 0.72656 0.58594 1.75 0.875 3.0625 0.875 1.0391 0 2.1133-0.14844 3.2188-0.45312 1.1016-0.3125 2.2383-0.78516 3.4062-1.4219v3.8438c-1.1875 0.44922-2.375 0.78906-3.5625 1.0156-1.1797 0.22656-2.3555 0.34375-3.5312 0.34375-2.8242 0-5.0234-0.71875-6.5938-2.1562-1.5625-1.4375-2.3438-3.4531-2.3438-6.0469 0-2.5508 0.76562-4.5547 2.2969-6.0156 1.5391-1.457 3.6602-2.1875 6.3594-2.1875 2.457 0 4.4219 0.74219 5.8906 2.2188 1.4766 1.4805 2.2188 3.4531 2.2188 5.9219zm-5.1406-1.6562c0-0.94531-0.27734-1.7109-0.82812-2.2969-0.55469-0.58203-1.2773-0.875-2.1719-0.875-0.96094 0-1.7461 0.27734-2.3594 0.82812-0.60547 0.54297-0.98047 1.3242-1.125 2.3438z"
         id="path712" />
    </symbol>
    <symbol
       id="m"
       overflow="visible">
      <path
         d="m9.4062-7.0312c-1.043 0-1.8281 0.17969-2.3594 0.53125-0.52344 0.35547-0.78125 0.875-0.78125 1.5625 0 0.63672 0.20703 1.1328 0.625 1.4844 0.42578 0.35547 1.0195 0.53125 1.7812 0.53125 0.9375 0 1.7227-0.33203 2.3594-1 0.64453-0.67578 0.96875-1.5195 0.96875-2.5312v-0.57812zm7.625-1.8906v8.9219h-5.0312v-2.3125c-0.66797 0.94922-1.4219 1.6406-2.2656 2.0781-0.83594 0.42578-1.8516 0.64062-3.0469 0.64062-1.625 0-2.9453-0.46875-3.9531-1.4062-1-0.94531-1.5-2.1758-1.5-3.6875 0-1.832 0.62891-3.1758 1.8906-4.0312 1.2578-0.85156 3.2383-1.2812 5.9375-1.2812h2.9375v-0.39062c0-0.78906-0.3125-1.3672-0.9375-1.7344-0.625-0.375-1.5938-0.5625-2.9062-0.5625-1.0742 0-2.0742 0.10938-3 0.32812-0.91797 0.21094-1.7734 0.52734-2.5625 0.95312v-3.7969c1.0703-0.25781 2.1445-0.45703 3.2188-0.59375 1.082-0.13281 2.1641-0.20312 3.25-0.20312 2.8125 0 4.8438 0.55859 6.0938 1.6719 1.25 1.1055 1.875 2.9062 1.875 5.4062z"
         id="path715" />
    </symbol>
    <symbol
       id="d"
       overflow="visible">
      <path
         d="m7.8594-20.062v4.4375h5.1406v3.5625h-5.1406v6.6406c0 0.71875 0.14062 1.2109 0.42188 1.4688 0.28906 0.25 0.86328 0.375 1.7188 0.375h2.5781v3.5781h-4.2969c-1.9688 0-3.3672-0.41016-4.1875-1.2344-0.82422-0.82031-1.2344-2.2188-1.2344-4.1875v-6.6406h-2.4844v-3.5625h2.4844v-4.4375z"
         id="path718" />
    </symbol>
    <symbol
       id="l"
       overflow="visible">
      <path
         d="m13.031-13.344v-8.375h5.0312v21.719h-5.0312v-2.2656c-0.6875 0.92969-1.4492 1.6055-2.2812 2.0312-0.82422 0.42578-1.7773 0.64062-2.8594 0.64062-1.9297 0-3.5117-0.76562-4.75-2.2969-1.2422-1.5312-1.8594-3.5-1.8594-5.9062 0-2.4141 0.61719-4.3828 1.8594-5.9062 1.2383-1.5312 2.8203-2.2969 4.75-2.2969 1.0703 0 2.0234 0.21875 2.8594 0.65625 0.83203 0.42969 1.5938 1.0938 2.2812 2zm-3.2969 10.125c1.0703 0 1.8906-0.39062 2.4531-1.1719s0.84375-1.9141 0.84375-3.4062c0-1.4883-0.28125-2.625-0.84375-3.4062s-1.3828-1.1719-2.4531-1.1719c-1.0547 0-1.8672 0.39062-2.4375 1.1719-0.5625 0.78125-0.84375 1.918-0.84375 3.4062 0 1.4922 0.28125 2.625 0.84375 3.4062 0.57031 0.78125 1.3828 1.1719 2.4375 1.1719z"
         id="path721" />
    </symbol>
    <symbol
       id="k"
       overflow="visible">
      <path
         d="m10.719-3.2188c1.0703 0 1.8906-0.39062 2.4531-1.1719s0.84375-1.9141 0.84375-3.4062c0-1.4883-0.28125-2.625-0.84375-3.4062s-1.3828-1.1719-2.4531-1.1719c-1.0742 0-1.8984 0.39844-2.4688 1.1875-0.57422 0.78125-0.85938 1.9141-0.85938 3.3906 0 1.4805 0.28516 2.6172 0.85938 3.4062 0.57031 0.78125 1.3945 1.1719 2.4688 1.1719zm-3.3281-10.125c0.6875-0.90625 1.4453-1.5703 2.2812-2 0.84375-0.4375 1.8125-0.65625 2.9062-0.65625 1.9258 0 3.5039 0.76562 4.7344 2.2969 1.2383 1.5234 1.8594 3.4922 1.8594 5.9062 0 2.4062-0.62109 4.375-1.8594 5.9062-1.2305 1.5312-2.8086 2.2969-4.7344 2.2969-1.0938 0-2.0625-0.21484-2.9062-0.64062-0.83594-0.4375-1.5938-1.1133-2.2812-2.0312v2.2656h-4.9844v-21.719h4.9844z"
         id="path724" />
    </symbol>
    <symbol
       id="c"
       overflow="visible">
      <path
         d="m0.34375-15.625h5l4.2031 10.594 3.5625-10.594h5l-6.5625 17.109c-0.66797 1.7383-1.4453 2.9531-2.3281 3.6406-0.875 0.69531-2.0312 1.0469-3.4688 1.0469h-2.8906v-3.2812h1.5625c0.84375 0 1.457-0.13672 1.8438-0.40625 0.38281-0.27344 0.6875-0.75781 0.90625-1.4531l0.14062-0.4375z"
         id="path727" />
    </symbol>
    <symbol
       id="j"
       overflow="visible">
      <path
         d="m-0.28125-20.828h5.875l4.75 7.4219 4.7344-7.4219h5.8906l-7.9375 12.047v8.7812h-5.375v-8.7812z"
         id="path730" />
    </symbol>
    <symbol
       id="a"
       overflow="visible">
      <path
         d="m9.8438-12.438c-1.1172 0-1.9648 0.40234-2.5469 1.2031-0.57422 0.79297-0.85938 1.9375-0.85938 3.4375s0.28516 2.6484 0.85938 3.4375c0.58203 0.79297 1.4297 1.1875 2.5469 1.1875 1.082 0 1.9102-0.39453 2.4844-1.1875 0.58203-0.78906 0.875-1.9375 0.875-3.4375s-0.29297-2.6445-0.875-3.4375c-0.57422-0.80078-1.4023-1.2031-2.4844-1.2031zm0-3.5625c2.6875 0 4.7852 0.72656 6.2969 2.1719 1.5078 1.4492 2.2656 3.4609 2.2656 6.0312 0 2.5625-0.75781 4.5742-2.2656 6.0312-1.5117 1.4492-3.6094 2.1719-6.2969 2.1719-2.6992 0-4.8086-0.72266-6.3281-2.1719-1.5234-1.457-2.2812-3.4688-2.2812-6.0312 0-2.5703 0.75781-4.582 2.2812-6.0312 1.5195-1.4453 3.6289-2.1719 6.3281-2.1719z"
         id="path733" />
    </symbol>
    <symbol
       id="f"
       overflow="visible">
      <path
         d="m18.109-9.5156v9.5156h-5.0156v-7.2812c0-1.3516-0.03125-2.2852-0.09375-2.7969-0.0625-0.50781-0.16797-0.88281-0.3125-1.125-0.19922-0.32031-0.46484-0.57031-0.79688-0.75-0.33594-0.1875-0.71484-0.28125-1.1406-0.28125-1.043 0-1.8672 0.40234-2.4688 1.2031-0.59375 0.80469-0.89062 1.918-0.89062 3.3438v7.6875h-4.9844v-15.625h4.9844v2.2812c0.75781-0.90625 1.5625-1.5703 2.4062-2 0.84375-0.4375 1.7734-0.65625 2.7969-0.65625 1.8125 0 3.1797 0.55469 4.1094 1.6562 0.9375 1.1055 1.4062 2.7148 1.4062 4.8281z"
         id="path736" />
    </symbol>
    <symbol
       id="i"
       overflow="visible">
      <path
         d="m2.625-20.828h8.9219c2.6445 0 4.6758 0.58984 6.0938 1.7656 1.4141 1.1797 2.125 2.8555 2.125 5.0312 0 2.1797-0.71094 3.8555-2.125 5.0312-1.418 1.1797-3.4492 1.7656-6.0938 1.7656h-3.5469v7.2344h-5.375zm5.375 3.8906v5.8125h2.9688c1.0391 0 1.8438-0.25 2.4062-0.75 0.57031-0.50781 0.85938-1.2266 0.85938-2.1562 0-0.9375-0.28906-1.6562-0.85938-2.1562-0.5625-0.5-1.3672-0.75-2.4062-0.75z"
         id="path739" />
    </symbol>
    <symbol
       id="h"
       overflow="visible">
      <path
         d="m2.2344-6.0781v-9.5469h5.0156v1.5625c0 0.84375-0.007812 1.9062-0.015625 3.1875v2.5625c0 1.25 0.03125 2.1562 0.09375 2.7188 0.0625 0.55469 0.17188 0.95312 0.32812 1.2031 0.20703 0.32422 0.47266 0.57422 0.79688 0.75 0.33203 0.17969 0.71094 0.26562 1.1406 0.26562 1.0391 0 1.8594-0.39844 2.4531-1.2031 0.60156-0.80078 0.90625-1.9102 0.90625-3.3281v-7.7188h4.9844v15.625h-4.9844v-2.2656c-0.76172 0.91797-1.5625 1.5938-2.4062 2.0312-0.83594 0.42578-1.7617 0.64062-2.7812 0.64062-1.8047 0-3.1797-0.55078-4.125-1.6562-0.9375-1.1133-1.4062-2.7227-1.4062-4.8281z"
         id="path742" />
    </symbol>
    <symbol
       id="g"
       overflow="visible">
      <path
         d="m2.4062-15.625h4.9844v15.344c0 2.0938-0.50781 3.6914-1.5156 4.7969-1 1.1016-2.4531 1.6562-4.3594 1.6562h-2.4688v-3.2812h0.875c0.94531 0 1.5977-0.21484 1.9531-0.64062 0.35156-0.42969 0.53125-1.2734 0.53125-2.5312zm0-6.0938h4.9844v4.0781h-4.9844z"
         id="path745" />
    </symbol>
    <symbol
       id="s"
       overflow="visible">
      <path
         d="m2.4062-15.625h4.9844v15.625h-4.9844zm0-6.0938h4.9844v4.0781h-4.9844z"
         id="path748" />
    </symbol>
    <symbol
       id="r"
       overflow="visible">
      <path
         d="m12.688-21.719v3.2812h-2.7656c-0.71094 0-1.2031 0.13281-1.4844 0.39062-0.27344 0.25-0.40625 0.69531-0.40625 1.3281v1.0938h4.2656v3.5625h-4.2656v12.062h-5v-12.062h-2.4844v-3.5625h2.4844v-1.0938c0-1.6953 0.47266-2.9531 1.4219-3.7656 0.94531-0.82031 2.4141-1.2344 4.4062-1.2344z"
         id="path751" />
    </symbol>
    <symbol
       id="q"
       overflow="visible">
      <path
         d="m16.891-13.031c0.625-0.96875 1.3672-1.7031 2.2344-2.2031 0.875-0.50781 1.832-0.76562 2.875-0.76562 1.8008 0 3.1719 0.55469 4.1094 1.6562 0.9375 1.1055 1.4062 2.7148 1.4062 4.8281v9.5156h-5.0156v-8.1562c0.007812-0.11328 0.015625-0.23438 0.015625-0.35938v-0.5625c0-1.1133-0.16406-1.9141-0.48438-2.4062-0.32422-0.5-0.85156-0.75-1.5781-0.75-0.94922 0-1.6836 0.39062-2.2031 1.1719-0.51172 0.78125-0.77734 1.9141-0.79688 3.3906v7.6719h-5.0156v-8.1562c0-1.7266-0.15234-2.8359-0.45312-3.3281-0.29297-0.5-0.82422-0.75-1.5938-0.75-0.96094 0-1.6992 0.39844-2.2188 1.1875-0.52344 0.78125-0.78125 1.9023-0.78125 3.3594v7.6875h-5.0156v-15.625h5.0156v2.2812c0.61328-0.88281 1.3164-1.5469 2.1094-1.9844 0.80078-0.44531 1.6797-0.67188 2.6406-0.67188 1.082 0 2.0352 0.26172 2.8594 0.78125 0.83203 0.52344 1.4609 1.25 1.8906 2.1875z"
         id="path754" />
    </symbol>
    <symbol
       id="p"
       overflow="visible">
      <path
         d="m18.109-9.5156v9.5156h-5.0156v-7.25c0-1.375-0.03125-2.3164-0.09375-2.8281-0.0625-0.50781-0.16797-0.88281-0.3125-1.125-0.19922-0.32031-0.46484-0.57031-0.79688-0.75-0.33594-0.1875-0.71484-0.28125-1.1406-0.28125-1.043 0-1.8672 0.40234-2.4688 1.2031-0.59375 0.80469-0.89062 1.918-0.89062 3.3438v7.6875h-4.9844v-21.719h4.9844v8.375c0.75781-0.90625 1.5625-1.5703 2.4062-2 0.84375-0.4375 1.7734-0.65625 2.7969-0.65625 1.8125 0 3.1797 0.55469 4.1094 1.6562 0.9375 1.1055 1.4062 2.7148 1.4062 4.8281z"
         id="path757" />
    </symbol>
    <symbol
       id="o"
       overflow="visible">
      <path
         d="m2.625-20.828h6l7.5781 14.281v-14.281h5.0938v20.828h-6l-7.5781-14.297v14.297h-5.0938z"
         id="path760" />
    </symbol>
    <symbol
       id="n"
       overflow="visible">
      <path
         d="m15.031-15.141v4.0781c-0.67969-0.46875-1.3594-0.8125-2.0469-1.0312-0.6875-0.22656-1.3984-0.34375-2.125-0.34375-1.3984 0-2.4844 0.41406-3.2656 1.2344-0.77344 0.8125-1.1562 1.9492-1.1562 3.4062 0 1.4609 0.38281 2.5938 1.1562 3.4062 0.78125 0.8125 1.8672 1.2188 3.2656 1.2188 0.78125 0 1.5195-0.11328 2.2188-0.34375 0.70703-0.22656 1.3594-0.57031 1.9531-1.0312v4.0938c-0.78125 0.28125-1.5781 0.49219-2.3906 0.64062-0.80469 0.14453-1.6055 0.21875-2.4062 0.21875-2.8242 0-5.0312-0.72266-6.625-2.1719-1.5859-1.4453-2.375-3.457-2.375-6.0312 0-2.582 0.78906-4.5938 2.375-6.0312 1.5938-1.4453 3.8008-2.1719 6.625-2.1719 0.8125 0 1.6133 0.074219 2.4062 0.21875 0.80078 0.13672 1.5977 0.35156 2.3906 0.64062z"
         id="path763" />
    </symbol>
  </defs>
  <g
     id="g1284"
     transform="matrix(0.19886534,0,0,0.19886317,-19.544114,-6.3549417)">
    <path
       d="m 448.29,426.51 c 0.14844,-2.1523 2.2695,-3.207 3.1367,-5.8906 -6.2969,4.9414 -12.703,8.5469 -18.539,12.965 -5.8906,4.4609 -13.371,5.3867 -19.457,9.5039 2.4336,-0.37109 4.875,-0.73828 7.5781,-1.1484 -8.7617,11.359 -23.914,14.25 -35.273,21.652 -3.3711,2.5469 -7.4727,3.4102 -11.641,3.6953 -6.1094,0.41016 -12.039,2.0508 -18.172,2.4297 6.2852,1.418 12.863,-0.45703 19.121,1.8125 -18.938,5.0977 -38.57,5.4531 -57.996,3.9492 4.4609,2.6211 9.9766,1.1641 14.496,3.457 -0.0469,0.23828 -0.0859,0.48047 -0.13281,0.71875 -3.6133,-0.35547 -7.2188,-0.71484 -10.828,-1.0703 -0.0234,0.26953 -0.0391,0.53125 -0.0625,0.80078 21,4 42.938,2.7812 63.875,-1.4336 -1.3125,1.8789 -3.2617,2.3477 -5.1758,2.6172 -13.52,1.9219 -27.102,3.0508 -40.777,3.1328 -23.902,-1.1133 -49.715,-9.668 -71.789,-17.973 2.4297,0.10156 4.8555,1.2695 7.207,-0.13281 1.7891,0.14844 3.582,0.30469 5.3828,0.45312 -24.879,-9.543 -51.09,-20.496 -69.57,-40.336 9.6875,2.1211 14.184,12.688 24.047,14.855 -3.2734,-2.3594 -6.3828,-4.9141 -9.5586,-7.3789 -2.4453,-1.8906 -3.7383,-5.1719 -6.4336,-6.3867 -4.6758,-2.1094 -7.8906,-5.7812 -11.297,-9.2188 -3.8281,-3.8633 -8.0898,-7.4414 -10.445,-12.578 6.4297,3.7656 13.926,16.863 19.664,16.996 -9.3242,-7.0742 -14.645,-17.445 -25.098,-22.367 -0.89844,1.7891 -0.10156,2.9648 0.52734,4.1016 1.3125,2.3711 3.0234,4.4844 4.9844,6.3125 1.5078,1.4102 2.457,2.7539 1.5469,4.8242 -10.148,-9.7148 -16.621,-22.281 -25.293,-33.152 -3.2305,-7.9023 -5.4805,-14.656 -11.984,-20.855 2.0586,6.0273 6.9883,10.547 8.6055,16.824 -6.6445,-5.3828 -9.4727,-13.629 -15.207,-20.469 1.3359,7.7617 6.5664,13.273 10.617,19.695 13.027,17.641 26.074,35.188 42.219,50.211 11.605,14.48 29.691,20.016 45.246,28.855 6.1211,3.6797 12.211,7.6758 19.555,8.7617 0.86719,0.13281 1.9961,-0.10156 2.5938,0.92578 -8.1445,-0.30859 -15.719,-2.1875 -22,-7.7812 -1.9492,-1.7383 -4.5781,-1.8477 -6.9102,-2.6289 -12.836,-4.8906 -23.887,-13.199 -35.855,-19.812 -1.0977,-0.63281 -2.2617,-1.5273 -3.7305,-0.8125 -0.53906,1.6133 0.52734,2.2969 1.6133,2.9609 6.3594,3.9023 12.25,8.5273 19.102,11.688 4.8672,2.2461 8.3086,6.7266 13.172,9.125 6.9961,3.3125 14.559,4.9297 21.355,8.9258 -8.5391,-0.92578 -15.949,-5.3945 -23.777,-8.543 -2.418,-1.0156 -4.6758,-2.5703 -7.5938,-2 -1.3867,0.27344 -2.1523,-1.4961 -3.5195,-1.7031 -8.6406,-8.8242 -23.297,-18.73 -35.062,-30.152 -0.875,-0.76562 -1.4609,-1.7656 -1.9531,-3.1367 3.75,0.62109 4.5273,4.1523 6.543,6.2305 0.92188,-0.42969 0.14453,-1.0508 0.28125,-1.5898 1.3789,0.17188 1.7305,1.5273 3.2812,2.2695 -3.7539,-7.5703 -8.5039,-13.742 -12.25,-21.207 -1.2578,-2.4805 -3.5312,-3.8984 -5.6953,-5.418 -0.69531,0.80469 0.49609,1.25 -0.0117,2.0508 -1.5195,-1.4453 -2.6055,-3.2969 -4.6055,-4.207 4.7891,6.6133 9.7891,13.051 15.84,19.285 -8.9023,-2.8047 -39.43,-40.027 -42.258,-51.023 1.1094,-0.13672 1.4844,1.0625 3.2383,1.5273 -7.9648,-14.398 -16.617,-28.074 -14.578,-45.398 3.7383,7.8047 7.3828,15.43 11.035,23.051 -2.0352,-12.469 -10.223,-22.93 -12.418,-35.469 -4.4688,-22.812 -7.1719,-45.922 -9.7891,-69.004 0.0898,-2.3047 -1.1602,-7.0781 1.8789,-7.707 1.418,-0.13672 1.6797,1.0859 1.9883,2.0625 0.62891,1.9727 1.1523,3.9766 1.9648,5.9531 0.84766,-7.75 0.55469,-15.602 2.8555,-23.133 -0.0508,18.133 2.8047,36.246 0.13672,54.406 -2.0234,-5.2188 -4.5078,-10.234 -4.7617,-15.926 -1.8359,17.434 17.062,86.848 24.887,91.559 0.38672,-1.3672 -0.84766,-2.5664 -0.27344,-4.1758 4.4609,7.0117 8.1328,14.324 13.258,21.23 0.94141,-2.1133 -0.0469,-3.5898 0.30469,-5.8164 2.7539,5.0469 5.2617,9.5586 10.211,13.051 -3.0391,-5.6953 -5.75,-10.766 -8.457,-15.836 0.14844,-0.0781 0.29688,-0.15234 0.44531,-0.23438 5.8477,9.1953 11.27,18.75 19.434,26.133 3.9141,3.8164 7.6211,7.8477 10.582,12.492 -2.875,-1.9102 -4.7422,-5.0898 -8.6328,-6.7266 2.5469,3.4453 5.4414,5.7031 8.2578,7.9883 0.90234,0.73047 0.57031,-0.43359 0.65625,-0.84766 14.887,18.879 34.594,33.539 56.188,43.715 -21.074,-12.84 -40.77,-28.297 -56.875,-47.027 -15.93,-17.152 -24.914,-38.984 -37.258,-58.645 0.78906,5.3945 4.1602,9.7656 5.9258,14.805 -2,-2.9023 -4.7617,-5.0508 -7.3203,-8.5039 0.94922,6.5664 4.6055,11.172 5.9219,16.676 -10.633,-12.379 -13.777,-28.742 -21.633,-42.621 -0.26953,0.0898 -0.53125,0.18359 -0.80078,0.27344 0.30859,2.0352 0.61719,4.0625 0.92969,6.1641 -3.9609,-4.0859 -6.7773,-20.754 -8.6016,-28.41 -1.0781,-5.0469 -0.90234,-10.086 -0.16016,-15.188 0.71875,-4.9414 -1.0273,-9.9727 0.45312,-15.164 1.6914,4.6797 2.8789,9.4219 2.4844,14.137 -0.48438,5.7617 2.0625,10.566 3.4922,15.75 l -0.0898,-0.0898 c 0.13281,3.1523 1.8789,5.8125 2.6328,8.793 0.92578,-0.32031 -0.004,-1.2969 0.73047,-1.6758 0.91016,1.5312 1.8242,3.0625 3.1484,5.2812 -0.79297,-7.8984 -4.3047,-14.434 -4.2617,-21.691 4.1641,10.035 5.2305,20.961 8.4531,31.621 2.2812,-4.6562 0.25781,-8.5898 -0.6875,-12.516 -3.7305,-15.109 -5.6523,-30.344 -10.125,-45.309 -1.1367,7.75 0.89844,14.594 1.5195,22.039 -3.5664,-8.4844 -3.9492,-41.668 -0.88672,-68.109 1.207,7.7656 -3.1992,15.867 0.0586,23.27 4.0625,7.1211 0.73828,15.445 2.3086,23.121 0.26953,-0.004 0.54297,-0.0156 0.8125,-0.0234 0.44141,-11.977 -4.5195,-25.484 1.582,-36.473 0.875,11.52 -2.0703,23.344 1.0117,34.824 0.64453,2.9531 0.24609,5.9023 -0.48047,8.8477 -1.4805,6.0234 0.85547,11.383 3.0977,16.762 -0.80469,-11.766 -1.9141,-23.492 -0.42969,-35.285 2.4922,2.9023 2.1211,6.5312 2.9609,9.9961 1.4688,-1.3984 1.7031,-2.9102 1.2969,-4.7188 -1.2812,-5.7422 -2.0742,-11.504 -1.0469,-17.418 -0.76172,-5.1523 -0.62891,-20.543 2.0586,-24.848 -0.0898,1.8633 -0.16406,3.4688 -0.24609,5.0742 1.5703,-5.3438 2.3359,-10.879 4.5391,-16.039 -1.1484,8.8047 -4.0742,17.398 -2.7422,26.492 3.125,-4.3672 0.92188,-9.8906 3.3086,-15.098 -4.0742,50.617 1.8281,104.7 31.145,147.63 -0.34766,-2.3438 -1.4961,-3.7148 -2.3867,-5.1328 -19.996,-31.543 -26.621,-68.715 -26.953,-105.5 -1.5469,-17.027 1.6758,-33.457 6.0586,-49.762 2.3672,-13.543 8.1836,-25.898 15.086,-37.641 0.51953,-0.9375 1.1953,-2.0742 2.668,-1.7891 l -0.0625,-0.0859 c 0.92969,1.8906 1.668,3.7305 -0.21094,5.5781 -1.1641,1.1484 -2.2188,1.9727 -3.668,-0.0703 -3.332,8.2812 -6.5469,16.25 -9.7383,24.234 -0.875,2.1836 -1.1211,4.4805 -0.66406,6.7891 0.50391,2.5469 0.36719,5.125 0.35938,8.0352 5.293,-3.9141 4.8242,-9.9258 6.3711,-14.988 4.0273,-13.207 9.3867,-25.695 18.199,-36.977 0.24609,1.5703 -0.62891,2.2734 -1.1445,3.0586 -8.7656,14.297 -17.57,32.062 -19.211,48.688 -0.0508,12.43 -5.4336,23.965 -4.1875,36.492 -2.3945,19.176 -0.0469,35.789 3.293,54.691 -1.1836,-15.766 -4.2305,-32.07 -0.69141,-47.676 1.1719,-5.0703 3.1016,-10.051 3.4414,-15.305 0.53906,-8.3945 2.6797,-16.469 4.4336,-24.617 0.35938,-1.668 1.0781,-3.1602 2.4805,-4.5195 1.5703,-1.5273 2.1758,-3.9023 2.4609,-6.2812 -1.4453,0.51563 -1.2969,2.2227 -2.8008,2.9297 3.9102,-14.012 10.879,-26.332 17.691,-38.766 -0.63281,-0.61328 -1.7148,0.11328 -2.5664,-1.0508 0.79297,-4.6562 2.7148,-8.8867 7.1523,-12 0.22266,1.0742 0.38672,1.8672 0.54297,2.6211 1.3086,-0.0117 1.3672,-1.4336 2.8008,-1.75 -4.4531,9.8516 -11.348,18.133 -14.461,28.285 4.4453,-5.0391 5.3125,-13.125 11.539,-16.312 3.6523,-1.6797 6.457,-4.3086 8.6328,-7.7305 19.262,-29.75 47.965,-52.668003 81.246,-64.754003 -5.8281,-1.5312 -9.9492,1.3477 -15.406,1.8633 0.42188,-1.1719 1.3711,-1.5039 2.1992,-1.9375 6.4297,-3.3477 13.211,-5.6914 20.324,-7.0352 1.4922,-0.28125 3.2812,-0.70703 2.582,2.418 9.7891,-2.9375 19.793,-1.6641 29.527,-3.8047 10.77,-2.3711 21.805,-1.2852 32.887,-0.70312 -0.50781,1.4414 -1.8398,0.85547 -2.418,1.5938 2.457,2.9023 11.594,2.1953 13.188,-1.3594 20.219,5.4727 39.371,10.578 59.559,17.297 -0.73047,-1.3984 -1.0625,-2.0352 -1.4922,-2.8555 12.113,2.8164 19.855,13.742003 31.039,18.461003 -10.305,-10.965003 -24.074,-18.621003 -37.973,-23.914003 -16.496,-5.8867 -33.188,-11.824 -50.93,-12.176 -11.996,-0.6875 -24.012,-1.0469 -35.988,-1.0273 6.8359,-2.0273 13.879,-2.1367 20.902,-2.5469 -17.508,-1.7812 -34.793,0.19922 -52.051,3.2461 2.0234,-2.1602 4.8008,-2.293 7.3086,-2.7148 13.578,-2.2969 27.238,-3.7539 41.047,-2.9609 2.3867,0.13672 5.0508,0.02734 7.0898,1.0352 6.2227,3.0859 12.977,1.6406 19.379,2.875 0.62891,0.04687 1.1602,0.12109 1.6562,-0.45312 -0.87891,-1.2461 -2.3359,-0.46875 -3.8164,-1.0977 15.379,-1.7148 26.617,7.1719 39.621,12.863 1.1641,0.46094 2.3359,0.92188 3.6914,-0.32422 -3.6562,-2.9531 -7.6445,-5.0898 -11.926,-6.793 -1.793,-0.71484 -4.6172,-0.35547 -4.3242,-3.75 -5.0156,-3.1484 -13.742,-2.2617 -19.43,-4.9219 21.77,-2.1484 42.43,7.9766 60.816,18.52 6.0859,3.5039 11.926,7.3945 17.566,11.578 1.0703,0.78906 2.2188,1.5391 2.6523,3.132803 -11.441,-5.386703 -24.605,-7.410203 -35.594,-14.184003 -0.1875,-0.125 -0.53125,-0.01563 -0.89844,0.17578 12.602,5.8516 23.484,14.355003 35.543,22.578003 -0.875,-1.3789 -1.332,-2.0898 -1.9023,-2.9844 1.8672,-0.70312 3.0898,0.32031 4.2617,1.1367 4.9961,3.4688 9.4336,7.5898 13.766,11.836 5.2383,5.1328 11.406,9.0117 17.555,12.91 3.9844,2.3672 6.1758,6.5039 9.4844,9.5391 6.5273,8.4102 13.875,14.656 20.789,23.125 -0.26953,-3.0352 -2.1484,-4.8672 -2.4531,-7.1602 11.461,10.516 19.09,23.445 23.984,38.059 -2.5547,-2.4922 -3.3359,-5.8516 -4.582,-9.293 -2.1719,0.41797 -3.2617,-1.2227 -4.4414,-2.6953 -4.0117,-4.5664 -5.793,-10.57 -10.027,-14.926 7.3945,11.367 10.594,24.406 15.359,36.816 -9.3086,-13.77 -12.32,-31.652 -23.434,-43.988 -10.973,-6.7422 -14.461,-19.965 -25.219,-26.781 3.8984,6.8398 10.633,11.48 13.84,18.812 0.94141,2.0234 2.6641,3.5195 4.1953,5.1094 13.84,14.422 20.539,33.125 27.977,51.234 -1.9844,0.92188 -2.3047,-0.53125 -2.7422,-1.5469 -5.8867,-16.781 -15.898,-31.383 -24.676,-46.719 -1.0469,-1.7422 -1.8359,-3.8242 -4.1367,-4.7617 -0.12109,1.5898 0.57812,2.75 1.3086,3.8281 4.3711,6.4414 8.0977,13.273 12.367,19.789 3.5547,5.4297 6.7539,11.68 7.875,17.766 1.9766,10.707 8.0156,19.57 11.027,29.707 8.3984,28.453 6.8164,58.441 3.8984,87.516 -0.0234,1.7422 -0.48047,3.6211 -1.8125,5.0273 -1.2383,-0.34766 -0.62109,-1.7695 -1.6406,-2.5039 -3.8867,8.9609 -5.2344,21.398 -9.0977,31.164 -3.707,10.293 -7.7695,20.875 -13.07,30.297 9.7031,-26.973 19.527,-55.012 22.504,-84.074 1.9883,-13.984 -1.3359,-27.359 -2.6641,-40.977 -0.125,-1.3086 -0.49609,-2.8633 -2.1367,-3.9297 0.95313,4.9883 -1.7266,9.6875 -0.39844,14.379 6.0742,20.23 0.11328,40.133 -5.7891,59.445 2.1875,-14.281 7.543,-28.32 2.8359,-43.078 -2.0898,9.9492 -0.14844,20.184 -2.6289,30.016 -1.3945,4.9844 -1.5156,10.238 -2.0625,15.398 -0.62109,5.8398 -1.25,11.688 -5.0742,16.547 -0.22266,0.28516 -0.32031,0.72656 -1.0273,0.58984 -0.85547,-1.8906 -0.14844,-3.5703 1.1094,-5.0742 1.8555,-2.2227 2.6016,-4.6289 1.7148,-7.4844 -0.37891,-1.2109 -0.45703,-2.6016 0.26172,-3.6562 2.6875,-3.9375 1.4727,-8.3359 1.8398,-12.559 -1.9883,-0.33203 -2.4609,0.97266 -2.8242,2.2734 -2.582,9.4922 -4.9609,19.223 -8.668,28.223 0.20703,5.3125 -1.9492,9.8984 -4.0234,14.566 -2.1758,4.2734 -2.2461,9.332 -5.5156,13.035 -0.79297,-11.223 6.0156,-20.211 8.2109,-30.984 -10.148,13.566 -9.3945,30.25 -17.855,44.078 -5.8164,9.0117 -7.8164,19.891 -16.422,27 -1.6133,-2.4219 -0.64062,-4.7422 -0.42969,-7.1328 -4.9414,6.5703 -8.8398,14.012 -16.543,18.246 5.7266,-6.3359 11.086,-12.676 15.258,-20.098 2.8164,-5.0508 7.9883,-8.1641 10.75,-13.262 4.7148,-9.8008 12.59,-19.207 14.641,-29.805 -4.8984,8.6328 -9.7891,17.27 -14.688,25.898 -0.14844,-0.0742 -0.29688,-0.14844 -0.44531,-0.22266 7.0742,-14.293 12.719,-29.25 18.359,-44.176 0.92578,-2.3594 1.3438,-4.7617 0.91016,-7.418 -2.0508,0.0625 -3.1953,1.3125 -4.0039,2.8516 -4.6641,10.262 -11.781,19.57 -14.305,30.633 -2.8398,6.6289 -7.5039,12.48 -11.332,18.68 4.1758,-6.2383 3.7695,-13.922 7.0469,-20.434 -0.22266,-0.10938 -0.45312,-0.21875 -0.67578,-0.32422 -6.7656,10.891 -12.039,22.559 -21.543,31.387 -6.7148,8.3945 -11.988,17.863 -19.582,25.605 -8.4062,9.5078 -19.68,15.543 -29.633,23.238 -3.7031,2.6172 -7.9102,3.3555 -11.781,5.1523 -4.5781,2.1328 -8.9961,4.7656 -14.074,5.6797 l 0.0469,0.0586 c 1.6953,-1.75 4.5195,-1.668 6.0586,-3.7812 -0.32031,-0.24609 -0.64453,-0.48437 -1.0859,-0.82422 2.3047,-1.6211 4.3789,-3.4102 7.1133,-4.0586 l -0.0703,-0.0781 c -0.54688,1.1484 -1.6562,1.7656 -3.0117,3.0742 7.6445,-1.3828 12.645,-6.0898 18.246,-10.32 -1.7266,-0.29297 -2.6406,1.0469 -4.3438,1.1523 6.6406,-6.8516 14.594,-8.4297 21.027,-16.965 l -0.0352,0.18359 z m -44.766,-213.7 c 0.0391,0 0.0742,-0.004 0.11328,-0.0117 l -0.17187,-0.0508 c 0.3125,-0.49609 -0.0234,-0.65234 -0.44141,-0.86328 0.0391,-0.0391 0.0781,-0.0742 0.12109,-0.11328 0.19531,0.3125 0.24609,0.70703 0.37891,1.0391 z m -109.55,1.5781 0.0898,-0.0586 c -0.83984,-0.26953 -1.8125,-0.13281 -2.4414,-0.9375 -1.3242,3.25 -3.6016,5.9023 -4.4961,9.2188 1.0234,0.39453 1.0586,-1.0625 1.7422,-0.86719 0.65625,0.42188 -0.28125,1.1211 0.64062,1.5273 0.61328,-0.46094 1.2812,-0.97266 1.9414,-1.4727 -1.6133,4.1719 -4.8281,7.4297 -6.4844,11.629 -0.65234,1.6406 -0.70312,2.2461 0.92969,2.9141 1.9102,-4.3828 4.4961,-8.3828 7.0625,-12.41 1.2383,-1.9492 3.1328,-3.7617 2.8047,-6.4453 2.7773,-0.67578 4.2305,-2.6289 5.2812,-5.125 -1.8359,-0.32422 -2.1719,0.125 -2.9844,-1.7266 0.53906,-0.91406 1.0781,-1.8281 1.7422,-2.9531 -2.7695,0.78906 -5.8398,4.4922 -5.8359,6.7266 z m 54.84,-23.695 c 0.0625,-1.7148 -1.25,-1.0977 -2.0469,-1.1211 -2.3438,-0.0742 -4.4961,1.2188 -6.8789,1.2305 3.0117,0.45312 6.0039,0.17188 9,-0.17578 0.78906,1.875 2.2383,0.78125 3.1602,0.44141 5.5703,-2.1953 11.051,0.78125 16.754,0.76562 -4.5781,-1.6641 -9.7148,-3.4453 -14.422,-3.1641 -1.3594,2.1133 -3.5078,1.9141 -5.5586,2.0273 z m 57.789,246.55 c 5.9844,-2.875 10.863,-7.3359 16.133,-11.25 -5.8984,2.9961 -12.297,5.2695 -16.078,11.309 -4.543,1.7305 -9.0586,3.5273 -13.172,6.1836 4.3203,-2.1953 9.3438,-2.8867 13.121,-6.2383 z m 4.0117,-116.62 c 0.73828,-0.66406 0.96094,-1.457 0.60156,-2.3984 -0.50391,-1.0859 1.6211,-1.4844 0.53906,-2.9883 -3.9883,4.3125 -6.25,9.5156 -10.004,14.004 -2.9102,0.61719 -1.5938,4.1758 -3.9219,5.1133 1.3047,1.7383 2.3086,0.66406 3.332,0.0977 2.7617,-4.8672 8.0273,-8.0625 9.457,-13.828 z m 8.8008,-94.113 c -2.5195,-2.5898 -4.8906,-5.3438 -7.9219,-7.4102 2.9141,2.8359 5.4609,5.9609 7.7695,9.2852 0.30859,0.44141 0.70703,0.60547 1.2305,0.36719 -0.28125,3.0977 2.8359,4.2109 3.7773,6.6016 -1.3984,-8.0117 -6.5312,-13.938 -11.324,-20.949 0.44141,6.4688 4.8633,6.6406 6.4688,12.109 z m -142,20.879 c -2.9297,4.8906 -2.3867,9.5703 1.582,13.754 0.86719,-0.17578 0.27344,-1.2734 0.87891,-1.5273 1.793,1.1992 0.64453,3.4453 1.9648,4.8867 -0.25,-4.3945 -0.75391,-8.7773 0.61328,-13.102 -1.5078,1.9648 -1.6562,4.4727 -3.3242,6.457 -0.91406,-1.3086 0.16016,-2.8633 -0.96094,-3.8867 -0.73047,0.67578 -0.37109,2.1445 -1.875,2.3984 0.53125,-3.0352 1.7383,-5.9492 1.0391,-9.0508 1.9492,-0.96484 1.1094,-3.0625 1.7695,-4.5703 2.1094,-4.8125 4.125,-9.6562 6.4102,-14.395 0.32422,-0.67578 1.3555,-1.5703 0.0469,-2.3945 -3.1758,6.8789 -8.3086,13.621 -8.1484,21.434 z m 95.262,-52.91 c 0.53125,2.9023 4.3125,2.1953 5.2578,5.0039 0.39844,-1.543 1.668,-1.1875 2.6211,-1.5938 -8.1719,-4.3203 -21.238,-6.9648 -28.676,-3.6953 3.2617,1.8281 7.0703,-0.98828 10.164,1.1719 0.0273,0.85156 -1.2188,0.33594 -1.0273,1.1953 0.44531,0.59375 1.3789,-0.42969 1.7656,0.67969 0.29297,0.58984 -1.207,0.62891 -0.67578,1.4727 1.0703,0.39453 2.1094,0.92969 3.2383,0.11328 -0.23047,-1.1016 -0.45312,-2.1719 -0.71875,-3.4688 2.8008,-0.23828 5.6914,1.3125 8.0508,-0.87891 z m -86.172,105.02 c -2.2734,0.0742 -3.0508,-1.9961 -4.4531,-3.3789 0.0977,3.2617 2.2969,5.6562 4.0234,8.2227 -1.0742,0.90234 0.90234,1.8242 0,2.7305 -2.1641,-0.67578 -4.2305,-1.457 -5.0703,-3.9375 0.81641,6.8906 5.8672,10.91 10.645,15.516 -1.5469,-0.0352 -1.5273,-2.3047 -3.1602,-1.2344 0.16016,0.49219 0.33203,1.0117 0.49609,1.5312 -0.94922,0 -1.5898,-1.5547 -2.9414,-0.40625 1.1602,1.1836 1.6562,2.875 3.3047,3.6641 0.78125,-0.76953 0.14844,-1.6289 0.41016,-2.3359 1.0117,0.25 2.0625,1.2734 2.9961,-0.34375 2.2188,3.6797 4.4336,7.2344 8.6797,8.5586 1.6445,0.51562 3.5039,0.62891 4.5391,2.1484 1.4336,2.1016 2.7695,2.7031 4.5273,-0.13672 0.87891,2.6445 3.4336,3.3359 4.5039,5.0039 1.5938,2.4844 3.7383,2.9297 6.1484,3.3828 2.0898,3.5703 5.1602,5.4844 9.3125,5.9297 2.0391,0.22266 4.4102,0.0625 5.7148,2.3047 -2.5195,-0.94141 -5.1484,-1.2969 -7.793,-1.5703 2.0352,2.1328 4.4609,2.8477 7.2578,2.3438 3.1094,1.5586 6.3125,0.21875 9.4727,0.29297 2.8984,0.0703 5.7305,-0.32031 7.3828,-3.4297 -3.6055,-0.62109 -7.1328,-1.2305 -10.922,-1.8867 0.8125,1.7031 2.6172,1 3.5312,2.332 -1.9414,-0.0859 -3.7148,-0.45313 -5.3789,-0.17188 -1.9375,0.32422 -1.3086,-2.7695 -3.2227,-2.0625 0.82812,-0.69141 1.8164,-1.4102 2.8477,-1.1758 3.0586,0.69141 6.0703,-0.38672 9.0898,-0.0586 5.7305,1.0625 11.059,3.707 17.297,1.9648 -0.25,1.8633 -2.1758,1.4297 -2.7383,2.7812 4.6406,-2.3789 9.7695,-3.1953 14.531,-5.0859 -0.84766,-1 0.97656,-1.1484 0.73828,-1.9961 -0.23047,-0.82812 -1.3359,-0.14844 -1.5938,-0.92578 -0.10938,-1.5312 1.4297,-2.0898 2.0703,-3.3945 -0.80078,-0.17578 -1.5078,-0.33203 -2.2109,-0.48438 0.0273,-0.12109 0.0508,-0.23828 0.0781,-0.36719 2.1484,-0.35547 4.2969,-0.71484 6.4922,-1.0742 -0.0859,0.98828 -1.2461,1.1602 -1.0859,2.0781 2.8008,1.1523 5.3047,-0.58984 7.1367,-2.3086 4.1211,-2.8008 9.6523,-5.25 12.113,-9.6211 -0.8125,-1.0234 -1.4219,0.70312 -2.4062,-0.0625 2.2461,-3.6133 4.8047,-6.6953 7.8125,-9.4453 1.2109,1.2617 -0.65625,2.9219 1.0781,3.875 1.4102,-1.125 1.2227,-2.6172 1.125,-4.1719 -0.0469,-0.71484 -0.76172,-1.3359 -0.17578,-2.1523 1.7188,-2.418 2.0586,-5.4961 4.0391,-7.875 2.293,-2.75 3.5312,-6.0859 3.8672,-9.7383 0.19531,-2.1367 -0.90234,-4.4414 0.74219,-6.3945 0.44141,1.5156 0.57812,1.7148 2.5312,3.4414 -0.91406,-5.3242 -1.3359,-10.125 0.91406,-14.641 2.1602,0.83594 3.0391,0.23047 2.8672,-1.8906 0.33203,-7.1602 -1.6445,-13.977 -2.2617,-21.027 -0.0156,-0.49609 -0.22266,-1.3789 -1.3711,-1.3789 -0.29688,1.9102 -0.60156,3.8516 -0.91406,5.8867 -1.5273,-0.86719 -1.125,-2.5469 -2.125,-3.5898 -0.3125,0.57031 -0.53125,0.97266 -0.75,1.3711 -1.9531,-1.418 1.5586,-3.3945 -0.98438,-4.793 1.9102,0.0508 2.9648,-0.44531 3.0977,-2.0625 0.69141,0.21094 0.49609,1.4531 1.5703,1.0117 1.1094,-1.7812 -0.67578,-2.9766 -0.96094,-4.4727 -0.26172,-1.3555 -2.4531,-2.5391 -0.42188,-4.2305 0.97266,1.4062 1.8672,2.6953 2.8672,4.1367 -0.33203,-6.7266 -6.6445,-11.172 -8.7188,-17.492 -1.8984,-4.3672 -6.3594,-8.8516 -11.219,-9.9375 -1.4336,-1.5938 -2.8672,-3.1875 -4.3047,-4.7891 0.41016,0.0976 0.82422,0.19922 1.8477,0.44531 -2.6172,-3.5898 -5.3242,-6.2695 -8.6289,-8.3359 -0.27344,-0.17188 -0.87891,0.22266 -0.92969,0.82422 1.8359,1.668 4.8398,2.2617 5.0625,5.4414 -4.418,-2.1367 -8.5156,-5.0898 -13.742,-5.3594 -0.42188,0.53906 0.0508,1.1445 0.16016,1.7617 -1.9961,-0.99609 -3.6914,-2.5547 -6.2617,-2.2695 -4.8359,0.53906 -9.418,-1.1211 -14.102,-1.9648 3.4922,0.0351 6.9414,0.0898 10.766,-0.33594 -2.3867,-2.0469 -4.75,-0.49219 -7.0625,-1.3203 -5.3086,-1.9023 -11.012,-4.2734 -16.285,0.48437 -0.50391,0.47266 -2.1445,0.61328 -2.4961,0.0117 0.24609,-0.60156 1.1758,-0.0469 1.3047,-0.81641 -0.38281,-0.83594 -1.7812,-0.30859 -1.9297,-1.582 1.2227,-0.27344 2.5664,-0.3125 3.6641,-1.1758 -1.9023,-0.76172 -7.6758,0.0625 -7.6172,1.0273 0.45312,0.84766 1.6055,0.13281 2.293,0.98438 -2.6641,0.59375 -0.61719,1.4844 -0.25,2.2188 -0.85547,0.43359 -2.1094,-0.0859 -2.3945,1.3945 1.418,0.21875 2.7891,0.42188 4.3672,0.66406 -1.0391,0.875 -2.1133,0.81641 -2.9375,0.58984 -2.1992,-0.61719 -3.6211,0.96484 -4.3789,2.1719 -1.1641,1.8516 -1.8984,1.4102 -3.332,0.39453 1.1211,-0.77734 2.0469,-1.4219 2.8281,-1.9727 0.34766,-1.1602 -0.74219,-1.0234 -1.0391,-1.543 0.52734,-0.54297 1.4961,-0.41797 1.5273,-0.57812 -0.0977,-2.6328 -1.668,-1.668 -2.7383,-1.9141 0.46094,-1.2109 2.6211,-0.125 2.6914,-2.1445 -2.5078,0.25781 -5.207,-1.2383 -7.6875,1.332 1.9023,0.72656 3.5195,0.56641 5.0859,0.73047 -0.0977,0.80078 -0.65625,0.98438 -1.3477,1.2383 -6.6211,1.5391 -11.922,3.3477 -18.602,5.8516 1.9727,-1.75 3.4219,-3.0391 5,-4.4414 -3.0234,-0.40625 -6.6914,2.4688 -6.707,5.0117 -0.0117,1.9219 -1.1836,3.0703 -3.582,3.5039 -0.22266,-1.2461 1.1523,-1.75 1.3047,-2.3438 -1.3047,-0.8125 -0.39844,-2.7656 -1.8516,-3.0625 -1.7305,2.9219 -4.4961,5.0703 -5.8164,8.25 -0.13672,0.33203 -0.51562,0.78125 -0.79297,0.79297 -3.9141,0.17578 -5.2344,3.6406 -7.1367,6.0469 -0.9375,1.1836 -3.1602,2.3086 -2.2109,4.5898 h 1.4414 c 0.12109,0.20703 0.23438,0.41797 0.35547,0.62109 -4.6328,4.2969 -5.1953,10.473 -6.8555,16.148 -3.9297,8.3555 -3.5703,17.344 -2.8477,25.996 0.64453,7.6523 1.1875,15.52 3.8555,22.73 -0.62109,0.69141 -0.8125,-0.43359 -1.3359,0 -0.0352,1.2578 1.9766,2.1211 0.19922,4.2578 -4.1758,-5.4336 -7.7891,-10.836 -8.6445,-17.688 0.98438,1.0234 0.9375,2.6914 2.5078,3.8008 -0.17188,-3.2383 -1.6445,-5.7891 -2.2852,-8.5781 -0.98828,1.6523 -0.22266,3.2461 -0.19531,4.8398 -1.4844,0.57031 -1.8789,-0.29297 -1.9258,-1.5156 -0.0625,-1.6445 -0.65234,-3.1328 -1.1133,-4.6914 -0.75391,-2.5391 -2.0703,-5.8008 -0.51562,-7.7539 1.9883,-2.5039 0.0156,-4.0977 0.24609,-6.0703 -1.5664,5.875 -2.4922,11.75 -0.25781,17.641 0.73828,1.9414 2.2695,4.0977 1.9102,5.8398 -0.9375,4.582 1.4531,8.0156 2.7188,11.941 0.92969,-0.21094 1.582,-1.2227 2.3359,0.27344 0.78906,1.5703 2.4805,2.543 4.0234,3.4688 -0.0977,0.37891 -0.19531,0.75391 -0.29297,1.1328 z m 124.15,-137.73 c -5.6562,-3.8984 -14.152,-7.3359 -21.148,-8.6914 3.7891,2.9102 8.5664,2.6914 12.441,5.4453 -4.3867,-0.51562 -8.4453,-2.4219 -12.828,-3.2383 0.0156,1.0977 1.332,0.82422 1.3828,1.9492 -7.2969,-2.332 -14.789,-1.6133 -22.766,-2.1836 1.5039,1.3672 2.8008,1.0898 3.9492,1.0977 16.07,0.0898 30.508,6.0273 44.73,12.582 12.762,7.4336 26.559,20.383 36.238,31.676 1.8281,2.4609 3.7617,4.8984 6.3555,6.668 -8.3203,-13.062 -19.43,-23.594 -30.953,-33.781 2.4414,1.707 4.9219,3.0859 8.0742,3.9961 -7.6641,-6.9297 -16.715,-11.312 -25.48,-15.52 z m -147.82,-41.543 c 4.4844,-2.0273 12.309,-5.8359 14.91,-9.7617 -0.0898,-1.7148 1.1016,-2.1523 2.0898,-2.6953 15.387,-9.1211 31.738,-16.012 49.188,-19.48 11.508,-3.7188 23.719,-2.8398 35.148,-6.5781 -3.7383,-0.01172 -7.3242,-1.8008 -11.125,-0.875 1.7148,1.3047 3.8008,1 5.8906,1.4297 -3.7188,0.92187 -7.0781,-0.75 -10.484,-0.53125 -7.7656,-0.16406 -15.102,2.3242 -22.703,3.3203 -1.5781,0.23828 -0.78906,-1.8125 -2.2461,-1.5586 -13.668,1.3789 -25.312,8.6641 -37.555,14.258 10.539,-3.3203 20.996,-6.5391 31.668,-9.4531 0.0781,0.23828 0.16406,0.48047 0.24609,0.71875 -24.441,9.25 -48.633,18.949 -68.219,37.012 7.5273,-0.94922 14.52,-13.285 21.953,-12.898 -2.5312,2.8281 -6.3984,4.0469 -8.7695,7.0859 z m -33.988,20.027 c -2.3867,2.8281 -5.6914,4.7188 -5.6914,9.0234 0.16406,2.2578 -3.6914,2.3086 -5.0352,4.5195 -7.8047,13.324 -17.492,25.777 -23.738,39.93 -3.4336,15.961 -11.863,31.594 -9.1367,48.25 1.582,-13.344 6.2695,-25.93 7.4727,-39.336 0.125,-3.0742 1.5664,-6.0898 2.3711,-9.1445 0.34766,-1.3242 0.87891,-3.25 1.8672,-3.3828 2.6211,-0.35547 2.6445,-2.5039 3.4609,-4.0352 3.4961,-7.0117 7.9727,-13.262 11.719,-20.086 1.3125,-2.8672 2.707,-5.9102 4.9141,-8.1523 1.25,-0.0625 0.32031,1.3086 1.3594,1.3477 1.3242,-0.59375 1.9961,-2.3828 3.5586,-2.3242 -0.83594,-3.6797 2.332,-5.7422 2.9297,-8.4453 0.71484,-3.2461 2.9648,-5.1602 3.9375,-8.1719 z m 236.94,266.75 c 15.098,-13.539 27.754,-28.879 36.727,-47.668 -1.8516,0.28516 -2.207,1.5156 -3.3047,1.9258 0.6875,-3.0898 2.7305,-5.5469 3.7617,-8.8672 -6.0117,6.3477 -8.3438,14.336 -13.941,20.922 -6.5469,12.125 -13.121,24.039 -23.246,33.688 z m 45.965,-105.85 c -5.7656,14.645 -7.4922,29.84 -14.199,43.434 -6.668,13.527 -14.297,26.543 -21.234,39.922 13.77,-20.344 26.281,-41.32 32.52,-65.93 -0.67578,0.99609 -1.0742,1.5898 -1.4727,2.1758 1.3828,-6.3711 3.4805,-12.516 4.3945,-19.602 z m -332.88,-50.453 c -0.8125,28.207 4.1016,55.258 16.309,80.84 -8.3945,-26.348 -16.727,-52.715 -16.309,-80.84 z m 128.05,175.9 c -24.051,-6.0352 -42.57,-22.629 -64.801,-32.395 5.3359,5.7383 12.922,8.0977 19.258,12.332 13.805,9.2969 28.938,17.941 45.547,20.062 z m 2.4336,6.9648 c 19.32,3.4531 38.605,4.3555 57.652,-1.7383 -19.145,2.3867 -38.371,2.1875 -57.652,1.7383 z m 22.48,-47.836 c -20.961,-3.2188 -39.484,-11.086 -57.027,-21.516 13.102,12.016 45.273,24.312 57.027,21.516 z m 113.53,-281.39 c -0.14844,0.1875 -0.30469,0.37891 -0.45312,0.56641 13.531,8.9297 27.062,17.855 39.496,26.062 -10.047,-11.691 -23.789,-20.273 -39.039,-26.629 z m -111.63,344.13 c 26.547,2.3789 50.305,-6.3125 73.27,-18.121 -23.547,9.4844 -47.195,18.605 -73.27,18.121 z m 124.22,-51.68 c 13.422,-12.43 21.879,-27.305 28.492,-43.41 -8.0469,13.91 -16.285,27.68 -27.184,39.617 -0.69141,0.76172 -1.2812,1.6758 -1.3086,3.793 z m -256.67,-174.7 c -3.8906,19.492 -6.3555,39.051 -2.8125,58.902 -0.10938,-19.688 0.84766,-39.32 2.8125,-58.902 z m 87.43,-128.45 c -8.207,2.4688 -15.172,7.1328 -21.812,12.398 3.3203,-0.74219 6.0508,-2.9766 9.4297,-3.5195 -4.3672,2.6289 -9.0234,4.7812 -12.988,9.1758 10.473,-3.9883 18,-10.898 25.367,-18.059 z m 122.87,2.5469 c -13.59,-4.4531 -27.555,-6.8672 -42,-5.9023 13.836,2.9023 27.973,3.6875 42,5.9023 z m 121.54,101.77 c -0.0898,3.2734 -0.0859,6.7891 1.9297,8.7422 3.582,3.4688 4.4609,7.7266 5.3672,12.113 1.2734,6.2188 4.9727,11.594 6.0977,17.863 0.125,0.6875 0.51563,1.582 1.5469,1.9609 0.88672,-2.8984 -0.46094,-5.3359 -1.3477,-7.793 -2.7656,-7.668 -5.8398,-15.234 -8.3594,-22.984 -1.1484,-3.5391 -1.875,-7.1133 -5.2344,-9.8906 z m 22.023,44.418 c 0.46094,-8.5898 -5.4219,-26.422 -10.926,-32.688 3.543,9.8164 4.0703,19.57 7.3125,28.633 0.23828,-0.0508 0.48047,-0.10938 0.71875,-0.16016 -1.1367,-5.6016 -2.2734,-11.195 -3.4102,-16.793 3.5312,6.5938 3.1719,14.246 6.2969,21.004 z m -182.8,-154.54 c -5.9219,-3.4453 -30.43,-0.96094 -35.805,3.3125 9.1094,-1.457 18.309,-3.2188 27.652,-1.8984 1.3438,0.17188 1.6211,-2.1016 3.1211,-0.94922 1.6016,1.2383 3.0273,0.125 5.0352,-0.46875 z m -40.039,382.5 c 11.148,1.4805 21.184,-2.7695 31.621,-3.793 -10.77,-1.4688 -21.184,0.0859 -31.621,3.793 z m -123.94,-120.25 c 9.9961,17.059 25.676,35.039 31.484,36.48 -12.074,-10.816 -21.914,-23.547 -31.484,-36.48 z m -42.121,-18.965 c 0.32422,-0.0898 0.65234,-0.17578 0.97656,-0.26953 -2.6289,-8.7188 -5.2617,-17.441 -7.8906,-26.16 -0.33594,0.10156 -0.67578,0.21094 -1.0117,0.3125 0.37109,9.3984 3.5547,17.938 7.9258,26.109 z m 102.81,-104.04 c 7.8516,-12.211 15.828,-24.324 26.656,-34.223 -6.1523,1.6172 -24.312,26.473 -26.656,34.223 z m -108.97,45.16 c -0.55469,-17.16 -3.5547,-33.789 -2,-50.59 -2.5898,15.262 0.78906,30.441 0.78125,46.004 -1.3242,-1.1484 -1.293,-2.6172 -2.3867,-4.0508 -0.0859,5.3555 -0.23438,10.164 1.7695,14.777 -0.29297,-2.9883 -0.58203,-5.9766 -0.89844,-9.1836 1.3711,0.62891 1.3086,2.0977 2.7383,3.0352 z m 357.73,63.16 c -1.1484,4.0898 -3.2734,7.8125 -4,12.004 2.9023,-6.8906 8.2852,-13.016 6.582,-21.355 -2.5312,6.7148 -6.8125,12.664 -8.5664,19.695 2.6172,-3.1133 3.6055,-7.1211 5.9844,-10.355 z m -58.125,83.09 c -7.7773,6.6914 -14.473,13.719 -22.332,19.418 7.2227,-2.3125 21.25,-14.453 22.332,-19.418 z m -90.543,42.613 c 7.4414,0.81641 14.312,-0.85156 20.762,-4.4688 -0.23828,0.35547 -0.48047,0.71484 -0.78906,1.1719 2.2617,-0.65234 3.668,-1.7773 4.2109,-3.3828 -8.0703,2.6328 -16.453,3.4531 -24.184,6.6797 z m -51.367,-357.22 c 10.133,-2.6953 20.441,-4.4414 30.539,-7.1016 -11.027,-1.2695 -20.668,3.4961 -30.539,7.1016 z m -144.21,120.31 h 0.55859 c 0.49219,-2.3125 0.97656,-4.6211 1.5039,-7.0977 -1.0352,0.32422 -0.70312,1.543 -1.6641,1.5781 -0.27344,-1.6641 0.22266,-3.3711 -0.43359,-5.1602 -2.3555,3.8789 -4.793,19.027 -3.543,23.121 1.4453,-4.8906 1.1758,-9.6172 2.8516,-14.32 0.33594,0.89062 0.53125,1.3867 0.71875,1.8867 z m 261.72,63.691 c -4.1641,12.188 -9.9727,23.781 -15.238,35.602 8.0273,-10.57 11.445,-23.121 15.238,-35.602 z m -151.43,55.258 c 8.0156,8.2109 16.938,15.016 27.84,18.824 -9.5664,-5.8555 -19.172,-11.652 -27.84,-18.824 z m -28.27,-20.062 c 6.7617,11.504 15.027,21.496 27.246,27.559 -10.199,-8.0742 -20.07,-16.473 -27.246,-27.559 z m 173.15,-224.79 c -3.9414,-4.1523 -17.188,-8.3672 -21.41,-5.5898 7.3125,1.8047 14.395,3.5312 21.41,5.5898 z m -0.56641,160.62 c -0.16406,0.61719 0.1875,2.0703 -0.57812,2.1133 -1.5938,-3.1523 -1.3047,-6.8164 -2.9883,-9.9258 1.6328,8.1367 1.5469,16.312 1.0898,24.555 1.2812,-3.1133 2.8984,-6.0859 2.0508,-9.5703 -0.15234,-0.63281 -0.30859,-1.8047 -0.0781,-1.9141 2.9258,-1.3789 0.58203,-3.5078 0.50391,-5.2578 z m 120.57,8.1836 c 1.9609,-6.9609 0.53906,-20.297 -2.3828,-23.543 0.38672,5.2461 0.92578,10.293 2.5586,15.93 -0.98438,-0.90234 -1.3438,-1.2383 -1.8984,-1.75 0.0508,3.1953 -0.49609,6.2305 1.7266,9.3594 z m -252.65,199.71 c 6.5664,1.6172 12.77,4.5195 19.566,4.9961 -2.5898,-1.1367 -5.5312,-1.0742 -7.9531,-2.4961 -0.0156,-1.0234 1.543,-0.80078 1.0039,-2.2617 -4.0625,-0.29688 -8.1602,-2.4727 -12.621,-0.23438 z m 153.87,-66.867 c -5.1445,5.5898 -13.32,7.3438 -18.207,14.445 8.6758,-2.4336 12.688,-9.4453 18.207,-14.445 z m -152.16,-70.16 c 5.0781,5.75 12.086,7.582 19.113,10.121 -5.0352,-6.5898 -13.121,-6.2383 -19.113,-10.121 z m 17.324,-128.46 c 0.27344,1.0352 1.2461,1.2578 2.1016,1.4531 1.9023,-1.5703 5.25,-1.3711 5.543,-4.7305 -7.2812,0.28125 -13.332,3.7891 -18.469,11 4.293,-2.3203 6.5039,-6.3125 10.824,-7.7148 z m -31.777,-91.848 c 8.6172,-0.28125 15.207,-6.1484 23.238,-8.0117 -8.207,1.3789 -15.965,4.0273 -23.238,8.0117 z m -96.387,258.84 c -4.6641,-7.707 -8.0977,-16.172 -14.273,-22.949 4.1445,8.0273 8.3555,16.016 14.273,22.949 z m 95.84,-100.22 c -0.69141,3.7188 -0.74219,7.3789 0.48047,10.949 0.21875,0.63281 0.53125,1.2305 0.19531,1.9141 -1.1367,2.2969 -0.11328,4.5664 2.2695,5.2305 0.0586,-3.5039 0.39844,-8.0156 -0.78906,-11.027 -0.10156,0.43359 -0.21094,0.86719 -0.41797,1.707 -1.3125,-3.0781 -0.97656,-6.0234 -1.7305,-8.7773 z m 264.11,11.367 c -2.1992,5.5195 -3.1641,14.004 -2.3125,19.977 1.7188,-6.543 2.6016,-13.188 2.3125,-19.977 z m -113.61,65.145 c 6.9648,-8.9609 12.387,-18.754 15.781,-29.613 -4.3594,10.348 -10.219,19.891 -15.781,29.613 z m -235.56,54.23 c 5.7656,7.1758 11.867,14.027 19.258,19.633 -6.1094,-6.8477 -12.922,-13.004 -19.258,-19.633 z m 199.02,45.703 c 10.145,-3.793 19.234,-9.4102 27.52,-16.379 -9.125,5.5312 -17.973,11.539 -27.52,16.379 z m 66.621,-214.57 c -1.25,-6.418 -10.824,-21.898 -15.715,-25.09 5.7695,8.6016 11.828,16.176 15.715,25.09 z m -200.84,199.42 c -7.1953,-4.4219 -13,-11.113 -22.059,-14.172 7.3047,5.7031 14.367,10.359 22.059,14.172 z m 85.922,26.629 c 10.984,-1.0625 21.453,-3.8125 31.434,-8.3789 -10.332,3.4414 -20.863,6.1094 -31.434,8.3789 z m -2.875,-363.17 c -9.0703,0.58984 -17.715,3.2969 -26.566,5 9.1875,0.0039 17.707,-3.3242 26.566,-5 z m 6.1953,380.26 c -5.4102,-0.79297 -10.777,-2.0977 -16.148,-0.10938 5.3711,1.5547 10.766,2 16.148,0.10938 z m -4.4922,-13.508 c 9.6641,0.52734 18.973,-0.92969 27.676,-5.4453 -9.2578,1.7031 -18.07,5.4609 -27.676,5.4453 z m 189.98,-165.98 c 1.5312,-8.8555 0.76562,-34.344 -0.875,-37.121 0.28125,12.211 0.98828,24.652 0.875,37.121 z m -247.35,-60.793 c -4.3828,4.2617 -5.6914,9.2188 -5.7656,14.641 2.6172,-4.457 4.7695,-9.0898 5.7656,-14.641 z m 255.55,26.281 c -0.0117,-4.4727 1.8242,-9.0117 -0.10938,-13.371 -1.8516,-4.1875 -0.98828,-8.9219 -2.9102,-13.078 1.0156,4.4805 0.27344,9.3125 1.8164,13.539 1.5938,4.3672 -1.3945,8.8516 1.207,12.914 z m -15.547,78 c 1.9727,-5.9102 3.1328,-9.6055 2.4414,-16.137 -2.3555,4.2578 -3.8359,8.0234 -4.2695,12.152 0.87891,-1.1328 1.1875,-2.582 2.582,-3.5664 0.53125,2.6055 -1.7266,4.7617 -0.75,7.5469 z m -20.633,-168.94 c 1.9609,5.5312 4.9102,8.9102 10.086,11.84 -2.4805,-4.6445 -5.4727,-8.4844 -10.086,-11.84 z m -28.027,-23.922 c 5.6328,5.4062 11.27,10.812 16.898,16.223 -4.2305,-6.8906 -10.238,-11.902 -16.898,-16.223 z m 43.965,175.63 c 2.8516,-9.4453 4.5195,-19.102 4.4961,-29.035 -1.6016,9.6523 -1.9141,19.52 -4.4961,29.035 z m -275.38,113.73 c 9.0156,4.7305 17.492,10.582 27.484,13.297 -9.5039,-3.7305 -18.039,-9.4609 -27.484,-13.297 z m -75.148,-56.766 c 1.1094,3.707 6.7695,12.047 9.4688,13.938 -1.4297,-4.5703 -5.5781,-10.676 -9.4688,-13.938 z m 303.32,-231.5 c -4.4414,-4.8555 -10.164,-8.0391 -15.527,-11.719 4.4609,4.8281 9.582,8.7812 15.527,11.719 z m -241.88,286.96 c -5.1875,-4.0977 -9.5664,-9.3984 -16.473,-10.93 5.8555,3.1016 10.246,8.3867 16.473,10.93 z m 78.395,-2.6211 c 9.8516,2.1211 19.805,1.9141 29.777,1.4922 -9.9492,-0.125 -19.867,-0.65234 -29.777,-1.4922 z m -30.715,-191.16 c -0.58203,2.0156 -3.3594,2.8047 -3.3594,4.9844 0.28125,3.3359 -2.9883,6.5039 -0.40625,9.5078 1.3086,-5.0234 2.5391,-9.7539 3.7656,-14.492 z m -24.262,-127.16 c -5.4961,3.4297 -10.855,6.9883 -14.359,12.613 4.3125,-4.7617 10.395,-7.4844 14.359,-12.613 z m 278.57,108.7 c 0.0352,4.9102 0.32031,9.7891 2.2852,14.371 0.26953,-4.9531 0.14844,-9.8398 -2.2852,-14.371 z m -148.26,117.91 c 1.8359,-3.793 5.9258,-5.5938 8.0859,-9.1719 -0.98828,1.3945 -2.9844,0.3125 -3.9023,1.6562 -1.1602,1.6875 -2.6797,2.9141 -4.5586,3.7422 -0.99609,0.43359 -1.8359,1.3711 -0.37891,1.9414 1.457,0.56641 -0.60156,1.3789 0.75391,1.8359 z m 34.387,-59.293 c -3.6133,5.2695 1.7539,11 -3.875,14.84 0.35547,0.75 0.36719,1.7305 1.457,2.1641 1.8164,-5.4336 3.125,-10.75 2.418,-17.004 z m -113.39,78.52 c -5.7812,-3.5703 -11.996,-6.3789 -17.867,-9.8242 5.3438,4.3828 11.469,7.3438 17.867,9.8242 z m 205.73,-176.43 c 2.2383,4.6875 4.4531,9.418 8.2188,13.188 -1.5469,-5.1094 -4.8984,-9.1328 -8.2188,-13.188 z m -20.102,-53.742 c -3.0898,-4.418 -7.457,-7.418 -11.613,-10.652 2.9023,4.6289 7.5586,7.3047 11.613,10.652 z m -63.496,-8.9766 c 3.9961,2.582 8.2305,4.543 13.531,5.6211 -4.1523,-3.9531 -9.0625,-4.2383 -13.531,-5.6211 z m -179.73,8.668 c -2.8164,1.0234 -5.2344,2.3086 -6.0391,5.2852 2.1602,0.61719 5.6055,-0.51562 5.5664,-1.8125 -0.41797,-0.0859 -0.83984,-0.17578 -1.2383,-0.26172 0.58203,-1.0977 1.1484,-2.1523 1.7148,-3.2109 z m 259.65,211.86 c -3.9375,3.2305 -6.25,7.4297 -6.6875,13.207 2.4102,-4.7617 4.5469,-8.9844 6.6875,-13.207 z m -215.48,19.516 c 4.1953,4.418 9.457,7.1836 13.383,7.2734 -4.7266,-2.5703 -9.0586,-4.9219 -13.383,-7.2734 z m -93.578,-14.285 c -2.7305,-5.0117 -5.457,-10.016 -8.1875,-15.027 1.0391,5.9531 4.5547,10.594 8.1875,15.027 z m 31.344,-204.87 c 3.2617,-2.8242 7.4727,-4.6641 9.9961,-9.3984 -4.8398,2.293 -7.3086,5.9727 -9.9961,9.3984 z m -39.461,256.32 c -2.4336,-4.1094 -5.6016,-7.6172 -8.9414,-10.977 1.793,4.6055 5.4062,7.7656 8.9414,10.977 z m 345.74,-110.88 c -2.4531,4.6328 -1.0117,9.7773 -1.8398,14.629 0.875,-4.8398 2.3789,-9.6016 1.8398,-14.629 z m -38.875,-139.15 c 3.4219,4.5273 6.3945,8.4609 9.3672,12.395 -2.3086,-4.4336 -3.9492,-9.3711 -9.3672,-12.395 z m -276.42,15.754 c -3.0742,2.4609 -5.5391,5.3555 -6.5547,9.2578 2.9102,-2.582 5.0859,-5.668 6.5547,-9.2578 z m 5.4062,-11.359 c 3.1875,-2.4688 5.457,-4.8047 6.8242,-7.9141 -3.207,0.94141 -5.2617,3.3594 -6.8242,7.9141 z m 126.57,202.73 c -5.9414,0.55859 -11.875,1.418 -17.887,0.73047 5.9492,1.2227 12.121,1.4922 17.887,-0.73047 z m -8.0469,111.63 c -5.6797,0.47266 -11.406,0.46875 -16.984,1.7773 5.7148,-0.125 11.43,-0.26953 16.984,-1.7773 z m 117.51,-289.28 c -2.3594,-3.2578 -5.0703,-6.1133 -8.9609,-7.5547 2.5273,3.0469 5.5156,5.5547 8.9609,7.5547 z m -176.18,-59.914 c 3.6953,-0.53125 6.9961,-1.8008 9.7539,-4.2461 -3.7422,0.35547 -7.0898,1.582 -9.7539,4.2461 z m 168.61,17.195 c -3.5586,-2.9219 -7.5273,-5.0703 -11.633,-6.9648 3.2461,3.4297 7.3242,5.4219 11.633,6.9648 z m -266.07,56.434 c 1.6523,-3.7812 3.3047,-7.5703 4.9531,-11.355 -0.28125,-0.11328 -0.56641,-0.23438 -0.84766,-0.34766 -2.7891,3.3203 -3.6641,7.4219 -4.1094,11.703 z m 92.16,9.793 c -4.6328,3.7031 -8.0508,8.4688 -11.441,13.262 4.1328,-4.1367 7.457,-8.9531 11.441,-13.262 z m -12.027,82.246 c 0.3125,-3.8047 -0.41797,-11.16 -1.1641,-12.715 -1.9492,4.2969 -0.004,8.2109 1.1641,12.715 z m 79.824,145.44 c 3.8164,0.34766 7.543,-0.17188 11.211,-1.1602 -3.8672,-0.77734 -7.5938,-0.32422 -11.211,1.1602 z m -213.66,-135.78 c 0.35938,3.4609 -0.23047,7.1602 2.1875,10.707 0.76562,-4.1992 -0.58984,-7.4688 -2.1875,-10.707 z m 216.82,58.133 c -3.7305,0.63281 -7.0117,2.8906 -10.875,2.8477 h 9.1641 c -0.60547,-1.8477 1.0156,-1.8789 1.707,-2.8477 z m -172.41,-89.543 c -1.4336,3.1094 -1.2188,6.25 0.13281,9.3828 0.62109,-3.1094 0.82422,-6.2188 -0.13281,-9.3828 z m 132.18,-60.73 c 3.2344,-0.49609 5.8164,-2.2344 8.3867,-4.0156 -3.3242,0.23828 -6.2227,1.3867 -8.3867,4.0156 z m 117.37,-102.07 c 4.0898,2.2578 8.4727,3.75 12.977,4.9102 -4.1719,-2.0469 -8.2578,-4.3242 -12.977,-4.9102 z m -49.836,329.82 c -4.5469,1.543 -9.1016,3.0859 -13.652,4.6289 5.125,-0.0273 9.4531,-2.4102 13.652,-4.6289 z m 150.08,-147.32 c -1.8398,3.3242 -0.99609,6.3477 -0.57812,9.5547 0.83984,-3.1641 2.5039,-6.0703 0.57812,-9.5547 z m -179.72,-139.29 c 4.1836,-0.1875 8.332,0.74219 12.516,0.39453 -4.1367,-0.98828 -8.2617,-2.1602 -12.516,-0.39453 z m 93.441,267.37 c 2.9219,-2.9883 6.4453,-5.4062 8.4922,-9.207 -3.3203,2.6133 -6.0977,5.7305 -8.4922,9.207 z m 95.59,-101.52 c -1.4297,2.6875 -2.1133,5.4609 -1.9141,8.9297 2.6133,-2.9375 2.5039,-5.9102 1.9141,-8.9297 z m -118.26,-8.543 c 1.1992,-3.2695 1.9297,-6.1211 2.3125,-9.3984 -1.3867,1.7305 -0.92969,3.7695 -1.9766,5.2695 -0.64062,-0.16016 -0.15234,-1.2695 -1.2695,-1.0859 0.37891,1.582 -1.5391,3.418 0.92969,5.2109 z m 111.63,23.695 c 1.6055,-2.9492 1.8242,-5.25 0.92188,-7.6758 -0.88672,2.2227 -2.3438,4.3828 -0.92188,7.6758 z m -203.82,-237.61 c 5.0625,-1.6445 10.406,-1.4961 15.566,-2.5195 -5.3594,-0.24609 -10.621,0.09766 -15.566,2.5195 z m 46.379,119.21 c 2.3438,2.1133 5.0742,3.3828 8.1523,3.8516 -2.4727,-1.8047 -4.9141,-3.6641 -8.1523,-3.8516 z m -169.19,-18.492 c 2.8516,-2.3555 4.4336,-5.1328 4.4102,-7.7539 -2.0977,2.1953 -3.9297,4.2812 -4.4102,7.7539 z m 110.68,186.63 c 4.7305,1.2109 8.6641,2.2109 13.484,2.0703 -4.5703,-1.4922 -8.5586,-2.1641 -13.484,-2.0703 z m 213.18,-35.234 c 1.9609,-3.5781 3.0508,-7.5078 3.793,-12.059 -3.0469,3.7812 -2.1094,8.2812 -3.793,12.059 z m -268,-107.57 c 2.0703,-3.5781 3.7148,-7.3359 4.7773,-11.336 -2.0273,3.5938 -3.9023,7.2461 -4.7773,11.336 z m -96.199,12.172 c -0.49609,5.8906 -0.54688,11.789 -0.0703,17.68 0.75391,-5.8867 0.28125,-11.781 0.0703,-17.68 z m 145.9,236.25 c -1.3047,-1.9961 -3.4766,-2.0742 -6.5195,-0.23047 2.5586,-0.21094 4.25,1.2812 6.5195,0.23047 z m 48.062,-305.03 c 3.4453,0.77734 6.6953,3.0859 10.52,1.4062 -3.5078,-0.46875 -7.0156,-0.9375 -10.52,-1.4062 z m -31.59,183.07 c -3.7539,-1.0898 -7.5078,-2.1875 -11.262,-3.2812 3.4062,2.2461 7.1953,3.2461 11.262,3.2812 z m 0.38672,-164.02 c 3.4102,0.70312 6.5078,-1.4062 9.8789,-1.0391 -3.4727,-1.2305 -6.6289,0.33594 -9.8789,1.0391 z m 54.633,6.707 c -2.5586,-0.73047 -4.2617,-3.2227 -6.7812,-0.53125 2.0898,0.78906 3.9375,2.1211 6.7812,0.53125 z m 120.9,-17.789 c 1.7656,3.2969 3.7617,6.3711 6.5078,8.8672 -1.6758,-3.3438 -3.6797,-6.4297 -6.5078,-8.8672 z m -80.668,95.875 c -1.332,3.8047 -1.5781,7.8477 -2.0859,11.852 1.7148,-3.75 2.0859,-7.7383 2.0859,-11.852 z m -174.91,-138.75 c -2.2383,1.2578 -4.3203,2.707 -5.6914,5.6406 3.0469,-1.2617 4.668,-3.125 5.6914,-5.6406 z m 83.52,59.887 c 4.0273,1.2578 5.7617,-1.9727 8.5547,-2.1992 -3.3242,-1.4531 -5.2383,1.5312 -8.5547,2.1992 z m 212.19,-22.43 c -1.3203,-2.8867 -2.7891,-5.6641 -5.5312,-7.5039 1.4844,2.7656 3.0156,5.4961 5.5312,7.5039 z m -229.64,-64.539 c 2.9883,-0.27344 5.4453,-0.97656 8.2188,-3.1016 -3.4922,0.32422 -6.0703,0.70703 -8.2188,3.1016 z m -39.824,9.7773 c -3.3438,0.0703 -4.543,0.8125 -6.1211,3.6914 2.5469,-0.41016 4.1836,-2.0352 6.1211,-3.6914 z m 208.79,15.406 c 2.0781,2.9961 4.4062,5.8242 7.5664,7.7773 z m 53.344,65.473 c -0.38281,-3.8164 -1.7656,-7.2188 -4.1602,-10.207 1.3867,3.3984 2.7695,6.8047 4.1602,10.207 z m -17.125,93.582 c -0.90234,2.3711 -1.4961,4.8359 -0.96484,8.3086 1.1016,-3.2109 1.3477,-5.6875 0.96484,-8.3086 z m -263.59,-60.41 c -1.7188,2.5898 -2.8359,4.6016 -2.8125,7.4102 1.8555,-2.1445 3.0781,-4.125 2.8125,-7.4102 z m 132.53,106.29 c -3.2695,0.10938 -5.1211,1.8047 -7.2188,2.9961 2.418,-0.48437 4.9609,-0.65625 7.2188,-2.9961 z m 35.52,-89.996 c 0.34766,-3.3555 -0.58984,-5.9102 -2.707,-7.707 0.69141,2.6055 1.332,5.1016 2.707,7.707 z m -105.28,-47.633 c 2.7773,-0.0117 4.6016,-0.70312 6.2305,-2.3945 -2.9414,-1.5312 -4,1.0391 -6.2305,2.3945 z m 7,148.8 c 2.8164,1.2461 5.7031,2.0977 8.8164,1.6445 -2.8242,-1.2109 -5.8555,-1.2188 -8.8164,-1.6445 z m -145.69,-68.703 c 0.51563,-3.5312 -0.20703,-6.9492 -0.72656,-10.387 -0.25,3.5039 -0.40625,6.9961 0.72656,10.387 z m 281.27,-63.406 c 1.0273,2.8906 2.5156,5.5078 4.4531,7.8633 -0.85547,-2.9844 -2.3945,-5.5703 -4.4531,-7.8633 z m -59.656,-49.852 c 2.5664,1.8672 5.1445,3.7188 8.1992,4.7031 -2.4961,-1.9883 -5.1016,-3.7812 -8.1992,-4.7031 z m 121.13,16.727 c -1.0469,-3.5898 -2.5469,-5.9492 -4.4688,-8.0625 1.0234,2.6641 2.0859,5.2969 4.4688,8.0625 z m -195.23,3.7539 c -2.8906,0.59375 -6.1016,-0.0625 -8.3828,2.3984 2.793,-0.80078 5.5898,-1.6016 8.3828,-2.3984 z m 83.262,137.29 c -1.4805,2.3555 -2.9531,4.7031 -4.4336,7.0586 2.4844,-1.6953 4.0625,-3.9766 4.4336,-7.0586 z m -146.25,-56.102 c 0.15234,0 0.3125,0 0.46875,0.004 v -12.336 c -1.0156,4.0117 -0.23828,8.2305 -0.46875,12.332 z m 169.56,-173.68 c 2.5156,0.96484 5.0234,1.9375 8.3203,3.207 -2.6758,-2.793 -5.3867,-3.2852 -8.3203,-3.207 z m -194.64,207.94 c -0.61719,-3 -1.1875,-5.9961 -3.0117,-8.5312 0.61719,2.9883 1.5586,5.8633 3.0117,8.5312 z m 132.22,63.961 c -2.1523,0.48047 -4.5781,-0.0117 -6.5039,2.0508 2.7656,0.42188 4.75,-0.52734 6.5039,-2.0508 z m -98.016,-252.01 c 3.0391,-0.32031 4.6953,-2.0117 6.3789,-3.668 -2.2852,0.66797 -4.4961,1.4531 -6.3789,3.668 z m 245.77,125.93 c 0.0586,2.5898 0.33594,5.1016 1.7188,7.332 0.1875,-2.6289 -0.45703,-5.0625 -1.7188,-7.332 z m -8.3477,-85.012 c 1.0742,2.8477 2.9883,5.0742 5.1445,7.125 -0.98828,-2.8789 -3.2305,-4.8789 -5.1445,-7.125 z"
       id="path768" />
    <path
       d="m 371.26,492.48 c 4.9844,0.24609 9.9648,-0.76953 14.75,1.1641 11.234,0.55469 24.43,-6 35.887,-7.8242 -1.793,1.8398 -3.4688,2.2617 -5.0234,2.8633 -32.613,11.004 -67.801,10.098 -101.6,7.1758 3,-0.35938 6.0391,-0.40625 9.4336,-1.4844 -27.875,-5.1719 -55.691,-9.7812 -81.445,-22.688 -6.332,-3 -12.219,-6.8359 -18.164,-10.531 -1.332,-0.82422 -2.4336,-1.875 -3.2852,-3.7422 3.7812,1.4062 6.5547,4.4102 10.457,4.2227 2.3555,-0.42969 4.1992,1.0273 6.0391,2.2344 17.977,12.359 39.188,18.355 60.207,23.273 19.195,3.9141 38.48,6.1602 58.09,3.6055 5.0352,-0.65625 10.133,-0.39453 15.004,-0.25781 0.75391,1.125 -0.66797,0.94141 -0.34766,1.9844 z"
       id="path770" />
    <path
       d="m 188.5,151.7 c -1.3594,-1.6055 -0.64062,-2.8281 -0.0352,-3.7891 3.7422,-7.7383 10.875,-12.582 16.355,-19.102 17.457,-18.566 37.395,-35.07 61.621,-43.473 0.91406,-0.23047 1.8281,-0.64453 2.8789,0.16016 -0.36719,2.0586 -2.293,2.3203 -3.7148,2.9297 -4.6758,2 -9.3555,3.9531 -13.789,6.4688 -7.1367,4.0391 -13.926,8.5273 -19.656,14.461 -1.3477,1.3945 -2.8672,2.3984 -4.9219,2.7031 -2.4102,0.35937 -3.6875,2.4805 -5.2969,4.1016 1.5195,-1.75 4.0742,-0.84766 5.8477,-2.1523 -5.8867,6.0781 -13.039,10.926 -17.668,18.246 0.33203,-2.2188 2.1445,-3.5586 2.8672,-5.5469 -10.824,5.6406 -17.344,15.582 -24.492,25.004 z"
       id="path772" />
    <path
       d="m 130.09,338 c -15.559,-29.965 -15.531,-61.355 -9.9961,-93.305 0.96094,2.9258 1.2109,6.0391 0.36719,8.875 -2.7891,15.852 0.15234,32.246 0.78125,48.246 0.57031,13.566 6.9883,24.359 8.8477,36.184 z"
       id="path774" />
    <path
       d="m 426.18,64.703 c -1.3203,1.1094 -2.8477,0.70703 -4.2812,0.26953 -6.4102,-1.9648 -12.816,-3.9648 -19.199,-6.0156 -13.605,-4.3711 -27.613,-5.3867 -41.789,-5.1953 -1.4609,0.02344 -3.0742,0.45312 -4.418,-0.70703 0.71484,-1.1328 1.8242,-0.97266 2.8398,-1.0156 11.473,-0.52734 22.836,0.81641 34.195,2.1641 1.2617,0.14844 2.5078,0.79297 3.6562,-0.66406 0.39844,-0.50781 1.8164,-0.36719 2.75,-0.28516 9.1523,0.78906 17.004,5.1094 24.879,9.3242 0.69531,0.37109 1.5039,0.9375 1.3789,2.1328 z"
       id="path776" />
    <path
       d="m 160.12,401.96 c 2.8359,0.11328 4.5547,1.8555 6.2109,3.5586 3.8359,3.9297 7.1953,8.25 10.023,12.973 0.53906,0.89844 0.85156,1.7773 2.2695,1.7031 0.71484,-0.0391 1.6211,0.65234 2.1953,1.2461 4.1367,4.2734 8.7422,8.1016 12.367,12.867 0.28516,0.37109 0.61328,0.73047 0.35547,1.4961 -2.1836,-0.42188 -3.4102,-2.6289 -5.5703,-3.1641 -0.41797,1.2734 1.1836,2 0.78906,3.207 -6.7266,-3.1133 -29.035,-29.305 -28.633,-33.887 z"
       id="path778" />
    <path
       d="m 463.96,440.56 c -3.5898,12.059 -13.828,18.973 -24.219,25.691 -9.3438,5.5664 -19.098,11.602 -29.793,13.852 11.875,-5.8164 23.926,-11.273 33.922,-20.207 -5.1211,2.0117 -9.543,5.3242 -14.445,7.7812 5.2812,-5.3828 12.707,-7.6914 18.238,-12.688 5.6055,-5.0586 10.777,-10.605 16.297,-14.441 z"
       id="path780" />
    <path
       d="m 460.8,433.21 c -0.53906,-0.66406 0.57812,-1.4336 -1.0391,-2.1523 -3.4453,4.4414 -8.0039,7.9883 -13.461,10.406 7.0273,-5.7188 12.312,-13.332 20.102,-18.113 9.418,-5.9102 14.473,-16 22.492,-23.52 -3.0273,10.137 -21.137,31.695 -28.098,33.383 z"
       id="path782" />
    <path
       d="m 202.72,112.69 c 2.2227,-1.0898 3.4609,-3.1992 5.0352,-4.9414 9.582,-10.621 20.984,-18.855 33.527,-25.602 0.45312,-0.24609 0.92969,-0.75 1.8477,-0.35547 -19.629,13.902 -36.367,30.777 -52.855,47.977 2.707,-6.0156 7.5781,-11.074 12.027,-15.941 0.34766,-0.32422 0.65625,-0.70703 0.53125,-1.25 z"
       id="path784" />
    <path
       d="m 277,96.016 c -14.016,5.7188 -26.793,12.367 -38.262,21.508 7.1641,-8.7695 16.012,-16.148 25.059,-22.941 1.8477,-1.3242 4.0508,-3.6172 6.1875,-0.02344 0.34375,0.57812 1.457,0.10156 2.1953,-0.07031 1.5703,-0.37109 2.9883,-0.23047 4.8242,1.5312 z"
       id="path786" />
    <path
       d="m 495.64,90.633 c -1.2969,0.125 -1.9141,-0.58203 -2.5547,-1.0859 -7.8789,-6.1641 -16.371,-11.441 -24.676,-16.996 -14.762,-8.7812 -31.184,-11.738 -47.211,-18.418 15.867,-1.1836 67.602,24.32 74.434,36.496 z"
       id="path788" />
    <path
       d="m 519.74,141.97 c -10.262,-10.719 -20.355,-21.836 -31.91,-31.324 -2.0625,-1.6445 -4.0117,-3.4297 -5.4062,-5.75 10.789,7.8906 20.543,17.035 31.086,25.25 4.8477,2.2578 7.8359,7.2383 11.422,11.098 -0.47266,0.54688 -0.87891,-0.16016 -1.3203,-0.0273 -0.78125,0.57031 0.26953,1.3555 -0.0156,1.8789 -1.7305,0.62891 -2.5703,-0.92969 -3.8633,-1.1211 z"
       id="path790" />
    <path
       d="m 181.55,191.37 c 1.2969,-2.3867 2.1484,-5.1719 4.3789,-6.9766 2.2969,2.9609 -3.4727,34.281 -9.0352,48.977 0.67969,-8.1875 1.7656,-15.93 3.3945,-23.633 0.95312,-4.5156 2.1875,-9.1367 0.54688,-13.91 -0.43359,-1.2578 0.44141,-2.9609 0.71484,-4.457 z"
       id="path792" />
    <path
       d="m 161.4,412.71 c -14.781,-16.113 -27.234,-33.836 -36.926,-53.41 0.40625,-0.27344 0.80469,-0.54297 1.2109,-0.81641 11.309,18.469 22.188,37.23 35.719,54.23 z"
       id="path794" />
    <path
       d="m 503.86,97.996 c 18.195,10.84 31.926,26.258 44.121,43.234 C 534.36,125.726 519.399,111.597 503.86,97.996 Z"
       id="path796" />
    <path
       d="m 240.56,489.88 c 25.43,12.176 52.441,17.719 80.297,19.855 -28.602,0.74219 -55.098,-7.0703 -80.297,-19.855 z"
       id="path798" />
    <path
       d="m 281.91,494 c -11.184,-0.15234 -21.395,-3.2969 -30.496,-9.8047 11.039,0.53125 20.59,5.7383 30.496,9.8047 z"
       id="path800" />
    <path
       d="m 281.57,478.87 c 16.77,2.8789 33.754,3.8242 50.496,6.6211 -11.75,-0.23828 -23.434,-0.94141 -35.188,-1.1484 -1.4805,-0.0234 -4.2188,1.4219 -4.2227,-2.1133 -3.1836,-1.4102 -7.582,-2.207 -11.086,-3.3594 z"
       id="path802" />
    <path
       d="m 244.34,68.605 c -2.1836,0.03516 -2.9297,-1.1719 -2.0898,-3.0117 1.4336,-3.125 9.4336,-7.8984 12.93,-7.7266 2.2695,-0.05859 3.0352,2.3789 1.4727,3.8047 -3.2109,4.0234 -7.6562,5.8633 -12.312,6.9375 z"
       id="path804" />
    <path
       d="m 129.98,171.92 c -5.3867,17.781 -10.16,35.691 -11.109,54.336 0.23437,-18.789 2.7383,-37.148 9.6406,-54.676 0.49219,0.11328 0.97656,0.22266 1.4688,0.33594 z"
       id="path806" />
    <path
       d="m 190.44,452.12 c 16,9.9297 30.43,22.195 47.336,30.645 -16.59,-8.9883 -33.961,-16.77 -47.336,-30.645 z"
       id="path808" />
    <path
       d="m 307.11,56.555 c -13.742,2.8516 -27.176,6.7305 -40.547,10.852 12.645,-6.8516 26.051,-10.91 40.547,-10.852 z"
       id="path810" />
    <path
       d="m 130.9,301.12 c 0.39453,6.3047 1.7656,12.457 2.7656,18.668 l 0.0586,-0.0586 c -0.44141,0.17188 -0.67578,0.0234 -0.82422,-0.42969 -4.8867,-16.199 -10.543,-33.188 -8.9102,-50.246 0.86719,8.6172 0.14844,17.641 4.582,25.469 1.1602,2.0156 1.6055,4.4453 2.3711,6.6875 l -0.0508,-0.0859 z"
       id="path812" />
    <path
       d="m 570.77,190.15 c -4.9141,-6.707 -8.1602,-14.184 -10.273,-22.555 4.6406,1.1094 11.613,16.395 10.273,22.555 z"
       id="path814" />
    <path
       d="m 454.24,461.08 c -16.062,11.848 -32.781,22.434 -52.594,27.027 18.348,-7.4297 36.371,-15.492 52.594,-27.027 z"
       id="path816" />
    <path
       d="m 149.98,165.66 c 0.26953,2.6523 -0.41797,4.7422 -1.2305,6.7031 -4.418,10.602 -8.4922,21.32 -11.582,32.41 0.0117,-11.102 5.8555,-20.727 8.0703,-31.367 0.49609,-2.8164 2.1758,-5.4297 4.7383,-7.75 z"
       id="path818" />
    <path
       d="m 146.05,370.32 c 5.5898,5.75 9.8672,12.238 12.371,20.09 -4.4727,-0.49219 -12.973,-14.211 -12.371,-20.09 z"
       id="path820" />
    <path
       d="m 125.84,250.06 c -1.5195,-9.7148 -1.1367,-19.566 -0.40625,-29.418 0.0898,-1.2461 0.32422,-2.418 -0.71484,-3.4844 -0.39844,-0.40625 -0.45312,-1.2344 -0.50391,-1.8789 -0.10156,-1.3477 -0.13281,-2.7422 1.125,-3.6641 2.2969,-1.5312 4.1328,1.9609 3.3555,3.8555 -2.8555,11.379 -2.0781,23.027 -2.8633,34.59 z"
       id="path822" />
    <path
       d="m 131.92,197.06 c 2.8867,-21.258 10.145,-40.887 22.152,-58.703 -10.719,18.309 -17.777,37.996 -22.152,58.703 z"
       id="path824" />
    <path
       d="m 182.29,444.18 c -12.582,-8.6406 -21.52,-20.652 -30.145,-32.949 9.7148,11.273 19.965,22.059 30.145,32.949 z"
       id="path826" />
    <path
       d="m 146.82,386.67 c -8.5781,-11.188 -15.219,-23.387 -20.738,-36.75 2.1328,0.38281 2.6055,1.6797 3.0859,2.6914 5.207,11.68 11.91,22.766 17.652,34.059 z"
       id="path828" />
    <path
       d="m 438.18,451.52 c -15.742,10.07 -31.824,19.41 -50.547,22.93 8.2109,-4.3477 17.539,-5.7695 25.949,-9.6133 8.5078,-3.8789 15.938,-9.7539 24.605,-13.32 z"
       id="path830" />
    <path
       d="m 401.13,64.367 c -13.68,-2.0508 -27.371,-3.9492 -41.133,-5.418 13.926,0.16406 27.891,0.05078 41.133,5.418 z"
       id="path832" />
    <path
       d="m 319.07,65.262 c -11.344,4.1133 -23.074,7 -34.516,10.812 10.961,-5.3125 22,-10.379 34.516,-10.812 z"
       id="path834" />
    <path
       d="m 518.52,133.76 c -7.2383,-6.4961 -14.086,-12.223 -19.887,-20.379 10.543,7.0508 19.199,15.406 22.484,21.738 -1.0703,-0.55859 -1.8359,-0.96094 -2.6016,-1.3594 z"
       id="path836" />
    <path
       d="m 527.86,435.71 c -6.2969,10.793 -15.922,18.367 -25.422,26.059 8.7656,-8.3984 16.531,-17.762 25.422,-26.059 z"
       id="path838" />
    <path
       d="m 593.14,274.88 c -1.7891,-0.875 -2.0586,-2.5078 -2.2812,-4.0977 -0.43359,-3.1367 -0.62109,-6.2969 0.23438,-9.3984 0.21875,-0.78906 0.49219,-1.7305 1.543,-1.8633 0.66406,-0.0859 1.0117,0.46875 1.3555,0.91406 1.8789,2.7812 2.5703,12.492 -0.85547,14.445 z"
       id="path840" />
    <path
       d="m 254.73,87.789 c 1.5898,-2.3984 4.1484,-3.3242 6.5898,-4.7031 -0.60156,-0.27344 -1.0586,-0.48438 -1.6523,-0.75391 1.6055,-1.6406 3.5195,-2.3555 5.5898,-3.0742 -0.23438,1.1016 -1.5273,1.0469 -1.6797,2.3945 6.7773,-2.8906 12.91,-6.9766 21.027,-8.207 -10.086,5.7695 -20.336,9.3125 -29.875,14.348 z"
       id="path842" />
    <path
       d="m 347.59,48.16 c -0.64062,1.6289 -1.5078,1.9844 -2.4688,2.207 -3.3086,0.76562 -6.6641,0.86719 -10.035,0.57031 -1.0781,-0.09766 -2.207,-0.41797 -2.457,-1.6211 -0.28516,-1.3945 1,-1.875 1.9141,-2.1328 4.4062,-1.2383 8.7617,-1.4727 13.047,0.97656 z"
       id="path844" />
    <path
       d="m 425.63,48.406 c 14.824,0.57031 27.09,7.7188 39.359,14.875 -12.48,-6.668 -25.762,-11.234 -39.359,-14.875 z"
       id="path846" />
    <path
       d="m 129.39,184.88 c 0.59375,-7.1836 1.0039,-14.48 6.6328,-19.996 -0.0156,7.3711 -3.9141,13.461 -6.6328,19.996 z"
       id="path848" />
    <path
       d="m 230.2,131.94 c -5.2305,7.8789 -11.188,15.133 -17.805,21.852 4.2812,-8.6328 10.594,-15.617 17.805,-21.852 z"
       id="path850" />
    <path
       d="m 157.86,194.29 c 1.2812,-1.3555 1.0898,-3.1953 1.5469,-4.8164 3.6445,-11.664 7.207,-24.004 14.566,-33.863 -4.1719,9.5039 -9.3555,18.594 -11.246,28.953 l 0.0781,-0.0977 c -0.98828,2.6133 -1.9297,5.2383 -2.9883,7.8242 -0.35938,0.87891 -0.54297,2.1094 -1.9727,2 z"
       id="path852" />
    <path
       d="m 537.34,394.27 c -0.47266,3.0977 -1.9961,5.9141 -4.5781,8.1133 -0.71875,0.61328 -1.6562,1.1602 -2.6289,0.47266 -3.3203,-2.25 7.125,-16.695 7.2109,-8.5898 z"
       id="path854" />
    <path
       d="m 156.93,421.87 c -7.3125,-6.5898 -13.25,-14.293 -17.738,-23.102 6.9375,6.8867 12.172,15.09 17.738,23.102 z"
       id="path856" />
    <path
       d="m 357.71,45.234 c 9.0234,-1.0156 17.977,-0.57812 26.863,1.25 -6.3359,1.0352 -25.145,0.32422 -26.863,-1.25 z"
       id="path858" />
    <path
       d="m 220.25,129.29 c 5.5273,-8.207 11.453,-16.062 20,-21.484 -6.25,7.5391 -12.73,14.863 -20,21.484 z"
       id="path860" />
    <path
       d="m 266.11,469.69 c 13.102,4.2461 26.48,7.4336 39.863,10.629 -8.2578,-0.51562 -15.965,-3.6562 -24.199,-4.4414 -5.6875,-0.62109 -10.68,-3.4453 -15.656,-6.1875 z"
       id="path862" />
    <path
       d="m 532.34,133.32 c 7.9531,6.8906 13.293,15.68 18.188,24.801 C 544.8718,149.5507 537.833,142 532.34,133.32 Z"
       id="path864" />
    <path
       d="m 355.32,507.47 c -11.371,1.2109 -22.703,2.0273 -34.016,-0.20703 11.355,0.0586 22.703,-0.0469 34.016,0.20703 z"
       id="path866" />
    <path
       d="m 315.17,69.27 c 10.977,-3.9492 22.469,-3.7891 33.879,-4.2969 -11.273,1.5938 -22.605,2.707 -33.879,4.2969 z"
       id="path868" />
    <path
       d="m 201.87,94.367 c 0.69141,4.0273 -4.2852,9.1211 -8.6211,9.0352 -0.63281,-3.6406 3.6328,-8.1992 8.6211,-9.0352 z"
       id="path870" />
    <path
       d="m 166.47,142.68 c -0.48047,2.6016 -3.2188,8.5547 -6.6133,7.9023 -0.73047,-0.42188 -0.94922,-1.1875 -0.76953,-1.9961 -0.12109,-2.6133 6.6133,-12.398 7.3828,-5.9102 z"
       id="path872" />
    <path
       d="m 151.65,189.86 c 1.3867,-7.8281 3.2578,-15.484 7.668,-22.27 -1.0781,7.9375 -5.0625,14.863 -7.668,22.27 z"
       id="path874" />
    <path
       d="m 597.15,322.44 c 1.1133,-9.3828 2.2305,-18.762 3.3438,-28.145 1.75,4.7812 -0.34766,22.652 -3.3438,28.145 z"
       id="path876" />
    <path
       d="m 507.86,411.88 c -2.0742,5.6914 -4.6914,10.012 -10.16,11.891 1.2852,-5.4453 5.0859,-8.8008 10.16,-11.891 z"
       id="path878" />
    <path
       d="m 347.41,61.828 c -6.9609,2.4531 -14.258,1.1602 -21.336,2.0625 6.9766,-2.0234 13.922,-4.3438 21.336,-2.0625 z"
       id="path880" />
    <path
       d="m 485.74,478.2 c 7.7305,0.0273 -5.7695,9.8672 -7.668,6.0039 -0.51562,-3.1875 5.5156,-5.4219 7.668,-6.0039 z"
       id="path882" />
    <path
       d="m 514.13,413.3 c 5.4297,-9.3242 10.555,-18.812 15.059,-29.195 0.32422,5.0469 -8.4102,21.941 -15.059,29.195 z"
       id="path884" />
    <path
       d="m 448.29,426.51 0.0352,-0.18359 c -6.8398,4.75 -12.645,10.324 -20.789,13.098 3.5586,-5.0039 12.676,-8.6133 17.875,-12.59 0.91016,-0.57812 1.8125,-1.1836 2.8789,-0.32422 z"
       id="path886" />
    <path
       d="m 565.14,157.16 c -6.0508,-5.9023 -9.793,-13.516 -14.715,-20.281 3.8398,2.4453 13.113,15.137 14.715,20.281 z"
       id="path888" />
    <path
       d="m 277.85,488.09 c 8.6133,1.6406 17.219,3.2852 25.828,4.9258 -0.0703,0.34375 -0.13672,0.67969 -0.21094,1.0234 -8.9648,0.0625 -17.348,-2.6875 -25.621,-5.9414 z"
       id="path890" />
    <path
       d="m 196.15,85.75 c 2.1211,-4.6797 5.6758,-6.8281 9.9883,-8.2188 0.57031,3.4297 -4.9961,8.125 -9.9883,8.2188 z"
       id="path892" />
    <path
       d="m 226.73,127.77 c -3.1445,4.8281 -6.5547,9.457 -11.07,13.176 2.0273,-5.7266 4.3086,-11.238 11.07,-13.176 z"
       id="path894" />
    <path
       d="m 189.02,157.96 c 3.2461,-8.7656 9.7188,-15.973 16.062,-22.73 -4.6406,6.9141 -9.3867,13.719 -13.789,20.805 -0.58203,0.9375 -1.2734,1.6016 -2.3477,1.8359 0,0 0.0703,0.0898 0.0703,0.0898 z"
       id="path896" />
    <path
       d="m 199.42,128.79 c 0.21094,1.4102 -10.875,16.84 -12.848,18.133 2.1836,-7.8984 8.4414,-12.359 12.848,-18.133 z"
       id="path898" />
    <path
       d="m 404.82,474.35 c -4.7773,3.4531 -19.91,7.9219 -27.516,8.0117 9.4219,-1.793 18.246,-5.5703 27.516,-8.0117 z"
       id="path900" />
    <path
       d="m 493.5,385 c -2.9258,7.457 -7.9375,13.109 -14.48,17.484 5.1875,-5.5586 9.4531,-11.875 14.48,-17.484 z"
       id="path902" />
    <path
       d="m 395.55,464.89 c 6.5195,-3.3359 13.793,-4.6406 20.051,-8.6328 0.17188,0.44141 0.33594,0.87891 0.50781,1.3203 -6.7148,2.8125 -12.938,6.8789 -20.559,7.3125 z"
       id="path904" />
    <path
       d="m 136.15,128.18 c -4.9766,9.0469 -8.8125,18.633 -13.367,28.164 0.125,-4.7695 8.9258,-23.367 13.367,-28.164 z"
       id="path906" />
    <path
       d="m 529.86,145.03 c 3.2852,4.418 10.594,5 11.555,11.953 -3.9258,-1.8047 -9.6523,-7.5703 -11.555,-11.953 z"
       id="path908" />
    <path
       d="m 468.04,457.05 c -4.8125,4.6016 -9.4922,9.3867 -15.715,12.172 4.3477,-5.1836 9.7617,-9.0156 15.715,-12.172 z"
       id="path910" />
    <path
       d="m 485.36,410.24 c 5.7617,-7.9766 10.781,-16.41 16.656,-24.246 -5.332,8.2578 -9.707,17.16 -16.656,24.246 z"
       id="path912" />
    <path
       d="m 224.73,454.09 c 0.35938,0.33203 0.72656,0.66406 1.0859,1 0.10938,0.35937 0.21094,0.71875 0.41016,1.3984 -6.1641,-2.2578 -10.742,-6.2734 -14.691,-11.188 4.3945,2.9297 8.793,5.8633 13.188,8.793 z"
       id="path914" />
    <path
       d="m 192.69,468.67 c 5.8906,3.2227 11.656,6.6289 16.715,11.125 -6.5938,-2.1445 -11.828,-6.3711 -16.715,-11.125 z"
       id="path916" />
    <path
       d="m 141.2,352.21 c 3.3555,3.1211 5.4297,6.8984 6.25,12.16 -4.1875,-3.5078 -6.3125,-7.25 -6.25,-12.16 z"
       id="path918" />
    <path
       d="m 572.38,230.02 c -2.4961,-7.8984 -5,-15.789 -7.6172,-24.051 2.8984,3.7422 8.207,19.984 7.6172,24.051 z"
       id="path920" />
    <path
       d="m 148.21,423.62 c 4.8164,3.8555 9.1602,8.1719 12.504,13.43 -5.1367,-3.543 -9.1016,-8.2109 -12.504,-13.43 z"
       id="path922" />
    <path
       d="m 527.38,374.43 c 0.49609,-4.8164 1.293,-8.9258 4.3594,-12.469 1.332,3.1484 -0.88672,9.6758 -4.3594,12.469 z"
       id="path924" />
    <path
       d="m 176.88,199.38 c -2.2227,-5.4805 -0.66797,-10.199 4.0977,-13.23 -1.3672,4.418 -2.6133,8.4336 -4.0977,13.23 z"
       id="path926" />
    <path
       d="m 132.8,325.31 c -2.7773,-2.5547 -5.0781,-9.1016 -4.7617,-13.133 2.8555,2.7422 5.2227,9.0469 4.7617,13.133 z"
       id="path928" />
    <path
       d="m 130.95,301.21 c 0.72656,-4.5273 -2.2188,-8.2344 -1.1445,-12.73 1.7031,8.2812 3.8125,16.07 4.6953,24.113 -3.0352,-3.2227 -1.9102,-8.4609 -3.5547,-11.383 z"
       id="path930" />
    <path
       d="m 299.45,76.91 c -7.2734,2.7266 -14.555,5.4531 -21.828,8.1836 -0.0859,-0.23047 -0.17188,-0.45703 -0.25781,-0.69141 6.8906,-3.8125 14.348,-6.1328 22.086,-7.4922 z"
       id="path932" />
    <path
       d="m 223.73,81.078 c -3.5781,4.3125 -7.8867,7.7695 -12.996,10.184 3.5391,-4.3711 7.8477,-7.7617 12.996,-10.184 z"
       id="path934" />
    <path
       d="m 505.04,451.3 c -4.1953,5.0469 -9.4219,8.7891 -15.121,11.922 4.3477,-4.8398 9.7148,-8.3945 15.121,-11.922 z"
       id="path936" />
    <path
       d="m 535.14,360.42 c 0.55469,-5.2227 0.92578,-10.496 3.6445,-15.211 0.43359,5.4414 -0.92578,10.48 -3.6445,15.211 z"
       id="path938" />
    <path
       d="m 461.37,85.09 c 7.9961,4.1875 15.223,8.9492 22.898,14.027 C 481.8227,98.64825 462.413,86.722 461.37,85.09 Z"
       id="path940" />
    <path
       d="m 106.87,201.1 c -0.26172,-1.207 1.668,-6.25 3.5156,-3.9492 1,1.7305 0.69141,3.4961 -0.0117,5.2227 -0.39844,0.98438 -0.95312,2.1836 -2.1445,1.9531 -1.3672,-0.26953 -1.3672,-1.6445 -1.3594,-3.2305 z"
       id="path942" />
    <path
       d="m 239.75,473.3 c -3.1602,0.10156 -5.1641,-0.73047 -7.0977,-2.0039 0.42188,-1.1211 1.4688,-0.14453 1.9883,-0.80469 -2.8906,-1.8789 -5.7891,-3.7656 -8.6875,-5.6523 4.8906,1.9102 9.7031,3.9375 13.793,8.4609 z"
       id="path944" />
    <path
       d="m 389.32,470.64 c -5.3828,2.8789 -11.121,4.2578 -17.207,4.1602 5.5469,-2.1758 11.379,-3.1641 17.207,-4.1602 z"
       id="path946" />
    <path
       d="m 115.99,181.89 c 0.25781,3.7617 -3.9414,8.4102 -4.4336,3.4219 -0.23828,-3.4297 3.8789,-8.0742 4.4336,-3.4219 z"
       id="path948" />
    <path
       d="m 157.85,194.29 c 1.1445,3.8633 -0.44141,9.8906 -3.332,11.461 -0.30859,-4.3984 1.1016,-8.0391 3.3438,-11.469 h -0.0117 z"
       id="path950" />
    <path
       d="m 119.74,328.64 c 2.5664,2.6523 4.5156,7.875 4.4297,11.434 -2.6055,-1.4414 -4.8164,-6.9609 -4.4297,-11.434 z"
       id="path952" />
    <path
       d="m 303.66,498.32 c -5.6133,0.44531 -10.988,-0.60547 -16.223,-2.5469 5.543,-0.0586 11.004,0.40625 16.223,2.5469 z"
       id="path954" />
    <path
       d="m 341.93,32.195 c -5.9258,0.25 -11.656,2.0469 -17.578,1.6289 5.7188,-2.3047 11.688,-1.9219 17.578,-1.6289 z"
       id="path956" />
    <path
       d="m 141.35,235.06 c -1.2344,8.1094 1.5039,15.703 0.0586,23.719 -1.6758,-7.3047 -1.0117,-14.48 -1.0352,-21.898 0.0391,-0.76953 0.0117,-1.5664 0.98828,-1.8164 h -0.004 z"
       id="path958" />
    <path
       d="m 151.58,136.67 c 1.9141,-4.8281 4.5898,-9.0977 8.6562,-12.395 -2.0781,4.6914 -5.0508,8.7695 -8.6562,12.395 z"
       id="path960" />
    <path
       d="m 349.43,479.14 c 5.2852,-1.8398 10.902,-1.1602 16.367,-1.9219 -5.3594,1.2734 -10.605,3.457 -16.367,1.9219 z"
       id="path962" />
    <path
       d="m 512.52,358.86 c 1.457,3.0742 -0.80469,8.7031 -4.2344,11.309 0.48438,-4.0781 2.2734,-7.4805 4.2344,-11.309 z"
       id="path964" />
    <path
       d="m 228.8,83.57 c 2.5586,-3.1133 5.8125,-5.0859 9.7656,-5.8867 -2.5703,3.0977 -5.6758,5.3047 -9.7656,5.8867 z"
       id="path966" />
    <path
       d="m 512.75,112.54 c -3.1094,-0.61719 -7.8867,-4.9375 -9.1875,-8.3086 3.293,1.2383 7.6289,5.1602 9.1875,8.3086 z"
       id="path968" />
    <path
       d="m 183.38,439.72 c 4.9766,2.875 8.3242,6.3828 11.75,9.9297 -3.1328,-0.69141 -9.1133,-5.5938 -11.75,-9.9297 z"
       id="path970" />
    <path
       d="m 251.78,84.996 c -4.5703,2.9883 -9.1875,5.9531 -14.547,7.4727 4.2344,-3.6406 9.707,-4.9375 14.547,-7.4727 z"
       id="path972" />
    <path
       d="m 562.9,217.73 c 2.4453,4.6523 3.7617,9.5703 4.1133,14.766 -2.2812,-4.6758 -3.7773,-9.5703 -4.1133,-14.766 z"
       id="path974" />
    <path
       d="m 437.04,88.676 c -2.707,1.1758 -5.5273,3.0352 -7.8242,-0.6875 2.3203,-2.2617 3.7031,-2.1484 7.8242,0.6875 z"
       id="path976" />
    <path
       d="m 144.9,293.32 c -0.37891,-3.0898 -0.75,-6.1836 -1.2188,-10.027 2.5547,4.2969 3.6406,8.1484 3.3672,12.492 -1.5312,-0.19922 -1.3242,-2.5664 -2.1523,-2.4688 z"
       id="path978" />
    <path
       d="m 249.45,461.94 c -4.582,-1.1367 -8.3672,-3.6562 -11.984,-7.5547 4.707,2.6328 9.3477,4.1758 13.188,7.2812 -0.33203,0.64453 -0.8125,0.24609 -1.2109,0.27344 z"
       id="path980" />
    <path
       d="m 162.73,184.56 c 1.5273,-1.6758 1.2734,-4.3789 3.5156,-6.0117 -0.85156,4.5391 -1.3828,8.8398 -4.1016,13.145 -0.66797,-2.9609 0.875,-5.0156 0.67578,-7.2344 0,0.004 -0.0859,0.10156 -0.0859,0.10156 z"
       id="path982" />
    <path
       d="m 473.27,468.47 c 3.9102,-3.6445 7.9375,-6.1953 12.395,-8.8242 -1.7188,3.1719 -8.4961,8.0234 -12.395,8.8242 z"
       id="path984" />
    <path
       d="m 123.8,296.79 c 2.1875,2.7031 2.8906,5.9375 1.9961,8.5547 -2.6016,-1.7148 -3.4844,-5.25 -1.9961,-8.5547 z"
       id="path986" />
    <path
       d="m 154.05,193.12 c -1.1328,8.4922 -2.582,16.938 -3.6953,25.434 -0.18359,-8.6758 2.0508,-17.012 3.6953,-25.434 z"
       id="path988" />
    <path
       d="m 554.45,341.3 c 0.1875,4.125 -1.6797,7.2188 -3.3047,10.867 -1.0156,-3.2188 0.54297,-8.1602 3.3047,-10.867 z"
       id="path990" />
    <path
       d="m 359.97,521.2 c 3.668,-1.7539 7.0703,-1.4297 10.676,-1.3359 -2.1133,2.293 -7.2617,2.9297 -10.676,1.3359 z"
       id="path992" />
    <path
       d="m 395.72,507.9 c 3.8281,-2.0742 7.8398,-3.3242 12.172,-3.4727 -3.7188,2.3242 -7.8672,3.2461 -12.172,3.4727 z"
       id="path994" />
    <path
       d="m 187.38,152.37 c 0.64453,3.7148 -0.91406,6.2852 -4.0781,6.9883 0.0391,-3.0156 1.3711,-5.1641 4.0781,-6.9883 z"
       id="path996" />
    <path
       d="m 389.59,467.34 c -4.1445,2.7812 -9.7695,4.2812 -13.777,3.6211 4.5703,-1.8164 8.7656,-2.7539 13.777,-3.6211 z"
       id="path998" />
    <path
       d="m 491.59,109.27 c -3.8242,-2.9258 -7.6523,-5.8516 -11.473,-8.7812 l 0.46094,-0.60156 c 4.6875,1.8242 7.6133,5.9961 11.555,8.8125 -0.17578,0.1875 -0.35937,0.38281 -0.53906,0.57031 z"
       id="path1000" />
    <path
       d="m 167.5,186.12 c -0.18359,-3.2578 0.64062,-5.6797 3.0586,-7.5664 1.2188,2.6523 -0.004,5.8906 -3.0586,7.5664 z"
       id="path1002" />
    <path
       d="m 485.02,440.61 c 1.0234,-3.5156 3.4922,-4.8633 6.0703,-6.5273 -0.38281,3.1758 -2.1328,5.0703 -6.0703,6.5273 z"
       id="path1004" />
    <path
       d="m 577.88,315.08 c 0.39453,4.0391 -0.28516,7.875 -2.2188,11.445 -0.22266,-3.9961 0.84766,-7.7422 2.2188,-11.445 z"
       id="path1006" />
    <path
       d="m 288.75,514.82 c 4.8477,0.13281 9.5703,0.92969 14.172,2.4297 -4.8125,-0.32031 -9.6211,-0.64453 -14.172,-2.4297 z"
       id="path1008" />
    <path
       d="m 169.32,195.71 c -0.47266,4.4062 -0.83984,7.9766 -2.2227,11.434 -1.3086,-1.1758 -0.20703,-7.2305 2.2227,-11.434 z"
       id="path1010" />
    <path
       d="m 581.22,287.12 c -0.79297,-4.0625 -0.23438,-8.0391 0.53906,-12.012 0.55469,4.0391 0.76172,8.0586 -0.53906,12.012 z"
       id="path1012" />
    <path
       d="m 174.78,119.73 c 0.72656,-3.2852 2.4805,-5.0977 5.1641,-6.3594 0.0508,3.0742 -1.8555,5.5391 -5.1641,6.3594 z"
       id="path1014" />
    <path
       d="m 473.29,444.28 c 2.3555,-2.9375 4.8906,-5.1211 8.1094,-7.3242 -1.8359,3.9023 -4.8477,6.6172 -8.1094,7.3242 z"
       id="path1016" />
    <path
       d="m 212.96,64.25 c 3.125,-3.0781 7,-5.0039 10.719,-7.1641 0.14453,0.21875 0.28516,0.42969 0.42969,0.64453 -3.5586,2.3594 -7.1211,4.7266 -10.68,7.0859 -0.15234,-0.1875 -0.30859,-0.37891 -0.46094,-0.56641 z"
       id="path1018" />
    <path
       d="m 558.89,338.2 c 0.51562,1.4219 -0.0898,2.4531 -0.32031,3.5469 -0.23828,1.1484 -1.7188,2.4219 0.36719,3.4961 0.70312,0.44531 -0.62109,3.1836 -1.7539,2.3555 -0.70703,-0.44531 -1,-1.2227 -0.82813,-2.0039 0.55469,-2.4922 1.1016,-4.9961 2.5391,-7.3984 z"
       id="path1020" />
    <path
       d="m 149.57,189.25 c 1.6758,2.9648 0.65625,4.8125 -1.6055,6.7773 -1.3047,-2.7891 -0.39453,-4.6797 1.6055,-6.7773 z"
       id="path1022" />
    <path
       d="m 373.29,32.824 c 2.7305,-1.6875 5.3594,-0.54688 8.7812,0.34375 -3.4805,1.418 -6.1016,0.73047 -8.7812,-0.34375 z"
       id="path1024" />
    <path
       d="m 213.79,455.69 c 3.0273,1.1602 5.7422,2.3203 8.0977,4.4297 -3.3711,0.48438 -6.3828,-1.1211 -8.0977,-4.4297 z"
       id="path1026" />
    <path
       d="m 224.44,467.78 c -3.0586,-0.17188 -4.4805,-1.0703 -6.9492,-4.3984 2.4219,0.14844 4.6211,1.543 6.9492,4.3984 z"
       id="path1028" />
    <path
       d="m 175.9,427.17 c -3.457,-3.1328 -6.7617,-6.4102 -9.6914,-10.246 2.3672,1 6.9883,5.8125 9.6914,10.246 z"
       id="path1030" />
    <path
       d="m 556.97,353.43 c -0.26953,3.2812 -1.125,6.2969 -3.4219,8.7305 0.12109,-3.3125 1.5703,-6.1094 3.4219,-8.7305 z"
       id="path1032" />
    <path
       d="m 273.29,42.984 c -3.3047,1.707 -6.4609,3.668 -10.293,3.7773 3.0625,-2.293 6.6875,-3.0859 10.293,-3.7773 z"
       id="path1034" />
    <path
       d="m 133.66,319.79 c 1.2617,5.1641 2.8789,10.25 3.3555,15.602 -1.8008,-5.0508 -3.3477,-10.164 -3.3086,-15.645 0.0117,-0.0117 -0.0469,0.0508 -0.0469,0.0508 z"
       id="path1036" />
    <path
       d="m 557.9,378.5 c -0.18359,3.3242 -0.97656,5.3945 -3.9492,6.8477 -0.0703,-3.1328 1.1523,-4.9414 3.9492,-6.8477 z"
       id="path1038" />
    <path
       d="m 182.46,451.78 c 2.2695,-0.47266 3.7266,0.53906 5.0352,1.8125 0.38281,0.37109 0.67969,0.97266 0.28516,1.5391 -0.38672,0.55859 -0.95312,0.51953 -1.5195,0.27344 -1.5898,-0.69531 -2.9609,-1.6289 -3.793,-3.6211 z"
       id="path1040" />
    <path
       d="m 142.58,209.37 c 0.21094,2.25 0.47266,4.207 -1.5703,5.5195 -1.9258,-2.3828 -1.2617,-4.7539 1.5703,-5.5195 z"
       id="path1042" />
    <path
       d="m 400.38,37.816 c -3.1445,1.4531 -5.2617,1.1641 -7.2109,-0.96484 2.5273,-0.78125 4.7812,-0.83594 7.2109,0.96484 z"
       id="path1044" />
    <path
       d="m 99.355,249.5 c -1.4688,-2.1445 -1.332,-4.1641 -0.21094,-6.3945 2.1758,1.8398 2.2344,4.1133 0.21094,6.3945 z"
       id="path1046" />
    <path
       d="m 333.14,478.67 c 2.5586,-1.2812 5.0859,-1.2305 8.4336,0.28125 -3.3867,0.82422 -5.9141,0.69531 -8.4336,-0.28125 z"
       id="path1048" />
    <path
       d="m 566.42,293.05 c 1.3242,3.8047 0.13672,6.8008 -0.69141,9.8164 -0.22266,-3.0781 -0.71484,-6.1836 0.69141,-9.8164 z"
       id="path1050" />
    <path
       d="m 519.73,454.34 c -1.9844,2.9961 -4.75,5.1094 -7.8906,6.8008 2.1875,-2.7422 4.8906,-4.9297 7.8906,-6.8008 z"
       id="path1052" />
    <path
       d="m 555.36,272.97 c -0.29688,-4.543 -0.60156,-9.0898 -0.89844,-13.633 1.2227,4.4531 1.4531,8.9961 1.6797,13.531 z"
       id="path1054" />
    <path
       d="m 223.29,71.469 c 1.4414,-2.3555 3.3789,-3.3867 5.9102,-3.793 -1.1016,2.8242 -2.6797,3.875 -5.9102,3.793 z"
       id="path1056" />
    <path
       d="m 566.29,258.1 c -1.4844,-2.5391 -2.7891,-5.125 -2.3047,-8.25 2.207,2.3203 1.8867,5.3945 2.3047,8.25 z"
       id="path1058" />
    <path
       d="m 235.65,90.93 c -0.35547,2.7891 -1.7383,3.7891 -4.6211,3.0781 0.64453,-2.5312 2.1094,-3.4219 4.6211,-3.0781 z"
       id="path1060" />
    <path
       d="m 193.8,440.95 c 2.8555,1.8125 5.6953,3.6016 7.9141,6.1719 -3.6523,-0.75391 -5.5273,-3.8242 -7.9141,-6.1719 z"
       id="path1062" />
    <path
       d="m 551.21,372.6 c -0.29297,-2.5898 0.96484,-4.2383 2.793,-5.9141 0.60156,2.8555 -0.23047,4.5469 -2.793,5.9141 z"
       id="path1064" />
    <path
       d="m 520.75,342.45 c -0.8125,3.4805 -2.0039,6.6914 -3.9414,9.582 0.30469,-3.6445 2.0898,-6.6797 3.9414,-9.582 z"
       id="path1066" />
    <path
       d="m 165.96,397.58 c 2.3672,1.3359 3.9531,3.3555 4.8242,5.9727 -2.332,-1.3477 -3.8359,-3.418 -4.8242,-5.9727 z"
       id="path1068" />
    <path
       d="m 489.43,447.96 c 1.793,-2.707 4.3242,-4.6133 7.0352,-6.3203 -1.707,2.7812 -4.1992,4.7266 -7.0352,6.3203 z"
       id="path1070" />
    <path
       d="m 275.72,478.12 c -2.9219,0.45312 -5.5703,-0.0703 -8.418,-1.9531 3.4805,-0.59375 5.8672,1.0469 8.418,1.9531 z"
       id="path1072" />
    <path
       d="m 113.19,298.89 c -2.3438,-2.4336 -2.4531,-4.6406 -2.0898,-7.7891 2.0703,2.4688 2.207,4.6758 2.0898,7.7891 z"
       id="path1074" />
    <path
       d="m 506.42,405.64 c -0.25,3.5898 -2.1953,5.4297 -4.457,7.0703 0.98828,-2.4414 2.0391,-4.8398 4.457,-7.0703 z"
       id="path1076" />
    <path
       d="m 188.53,137.66 c -0.98438,2.9219 -2.9766,5.0625 -5.2578,7.0039 1.2617,-2.6914 2.5195,-5.3789 5.2578,-7.0039 z"
       id="path1078" />
    <path
       d="m 344.14,487.71 c 5,0.20703 9.8047,-1.0625 14.68,-0.58984 -4.9141,0.6875 -9.8359,1.3672 -14.68,0.58984 z"
       id="path1080" />
    <path
       d="m 128.02,201.12 c -0.83984,-2.5703 -0.21875,-4.3789 1.7422,-6.2812 0.35938,2.5195 0.41797,4.5078 -1.7422,6.2812 z"
       id="path1082" />
    <path
       d="m 511.71,117.74 c 2.8164,1.1211 4.4805,2.7383 5.4102,5.1719 -2.4062,-0.80078 -4.1758,-2.3047 -5.4102,-5.1719 z"
       id="path1084" />
    <path
       d="m 135.73,343.66 c 2.293,2.1875 3.1875,4.0977 3.2578,7 -2.3594,-1.8555 -2.9766,-3.9297 -3.2578,-7 z"
       id="path1086" />
    <path
       d="m 163.23,242.69 c -0.67578,-4.7539 -0.57812,-9.4688 0.64453,-14.137 0.0586,4.7266 -0.75391,9.4102 -0.64453,14.137 z"
       id="path1088" />
    <path
       d="m 211.65,98.887 c -0.92188,2.293 -2.5898,3.8398 -5.1445,5.2461 0.91406,-3.0039 2.8164,-4.3242 5.1445,-5.2461 z"
       id="path1090" />
    <path
       d="m 202.83,112.58 c -1.3086,0.48047 -1.9492,2.1484 -3.8477,2.0352 0.33594,-2.3711 1.9023,-3.4453 3.7383,-4.3203 1.1875,0.97656 -0.14844,1.6328 0,2.3945 l 0.10938,-0.10938 z"
       id="path1092" />
    <path
       d="m 458.61,78.57 c 2.4922,0.21094 4.3828,1.4453 6.3242,3.4844 -2.8047,-0.49609 -5,-1.1875 -6.3242,-3.4844 z"
       id="path1094" />
    <path
       d="m 404.34,458.07 c -2.7891,1.6328 -5.8867,2.3242 -9.0234,2.8984 2.6016,-2.2695 5.8047,-2.6445 9.0703,-2.8398 0,0 -0.0469,-0.0586 -0.0469,-0.0586 z"
       id="path1096" />
    <path
       d="m 141.36,235.06 c -0.62109,-3.2188 -1.4922,-6.4336 -0.24609,-9.6289 0.30859,0 0.62109,0.0117 0.92969,0.0117 -0.23047,3.207 -0.46094,6.4062 -0.69141,9.6133 h 0.004 z"
       id="path1098" />
    <path
       d="m 273.99,45.898 c -2.1719,1.7539 -4.5312,3.1211 -7.8242,3.1211 2.3672,-2.2812 5.2344,-2.332 7.8242,-3.1211 z"
       id="path1100" />
    <path
       d="m 416.47,449.47 c 1.6172,-2.0469 3.4922,-3.6172 6.8281,-3.543 -2.0781,2.3203 -4.457,2.9492 -6.8984,3.4609 0,0 0.0703,0.0781 0.0703,0.0781 z"
       id="path1102" />
    <path
       d="m 479.04,452.16 c -0.97656,2.3047 -2.2227,3.3125 -4.8047,3.5039 0.78906,-2.5078 1.9648,-3.6406 4.8047,-3.5039 z"
       id="path1104" />
    <path
       d="m 483.83,95.688 c -2.4961,-0.16016 -4.0508,-1.6328 -5.5469,-3.7539 2.8242,0.19922 4.3086,1.8047 5.5469,3.7539 z"
       id="path1106" />
    <path
       d="m 154.33,167.58 c -0.0859,-3.0625 1.4219,-4.7773 3.293,-7.0039 -0.14844,3.0508 -1.3594,4.9102 -3.293,7.0039 z"
       id="path1108" />
    <path
       d="m 580.81,203.06 c 2.0508,1.5195 2.1367,3.293 1.8867,5.2344 -2.1719,-1.0039 -2.4922,-1.8359 -1.8867,-5.2344 z"
       id="path1110" />
    <path
       d="m 544.38,341.94 c -0.72656,-2.3438 0.76172,-4 1.4297,-6.0391 1.0156,2.9766 0.74219,4.1484 -1.4297,6.0391 z"
       id="path1112" />
    <path
       d="m 181.23,413.85 c 2.5898,1.3359 3.8867,3.0625 4.9297,5.1758 -2.5586,-0.66797 -3.5664,-1.6641 -4.9297,-5.1758 z"
       id="path1114" />
    <path
       d="m 189.85,473.55 c -2.4727,-0.23047 -4.1016,-1.7383 -5.9727,-4.1367 2.8398,0.91406 4.6445,2.125 5.9727,4.1367 z"
       id="path1116" />
    <path
       d="m 188.09,180.46 c 1.0859,-2.1719 2.0234,-4.4102 4.2227,-6.4805 -0.0391,3.5391 -2.8516,4.5586 -4.2227,6.4805 z"
       id="path1118" />
    <path
       d="m 178.91,170.84 c -0.23437,2.457 -1.1484,3.8555 -3.4297,5.3086 0.32422,-2.6289 0.72656,-4.3555 3.4297,-5.3086 z"
       id="path1120" />
    <path
       d="m 113.03,221.98 c -1.4297,-2.1133 -1.4336,-3.7773 0.17578,-5.6758 1.5078,2.0234 0.89844,3.6562 -0.17578,5.6758 z"
       id="path1122" />
    <path
       d="m 546.52,125.66 c 2.125,0.97656 3.4844,2.6211 4.793,5.2617 -2.8164,-1.3047 -3.9102,-3.1758 -4.793,-5.2617 z"
       id="path1124" />
    <path
       d="m 267.98,73.246 c 1.5703,-1.8633 3.7539,-2.2969 5.9727,-2.668 -1.5586,1.8906 -3.7656,2.2734 -5.9727,2.668 z"
       id="path1126" />
    <path
       d="m 336.02,490.14 c -3.1445,0.25 -6.3242,0.71875 -9.1836,-1.1445 3.125,-0.16016 6.0781,1.0508 9.1836,1.1445 z"
       id="path1128" />
    <path
       d="m 172.43,92.836 c 0.57031,-2.6562 1.6523,-3.7891 3.9258,-3.9727 -0.28125,2.3203 -1.6211,3.1836 -3.9258,3.9727 z"
       id="path1130" />
    <path
       d="m 161.63,98.715 c 0.0898,2.4531 -0.98437,3.4688 -3.0156,4.2461 -0.38281,-2.4844 0.98828,-3.3242 3.0156,-4.2461 z"
       id="path1132" />
    <path
       d="m 528.75,446.28 c 1.0859,-2.2852 2.875,-3.8984 4.9766,-5.2188 -1.1094,2.2344 -2.6797,4.0586 -4.9766,5.2188 z"
       id="path1134" />
    <path
       d="m 277.71,59.719 c -2.7383,1.8008 -5.7148,2.9648 -8.8555,3.7148 2.7148,-1.8242 5.6562,-3.0977 8.8555,-3.7148 z"
       id="path1136" />
    <path
       d="m 150.89,331.2 c -2.1211,-2.3047 -2.6641,-4.3438 -2.7422,-7.125 1.8125,2.1523 2.3242,4.2461 2.7422,7.125 z"
       id="path1138" />
    <path
       d="m 296.27,317.05 c -1.3477,-1.3203 -3.1328,-2.2695 -3.8477,-4.1211 -0.25,-0.65234 -2.293,-1.3047 -0.21875,-2.2188 -0.80078,-0.73828 -0.41797,-2.0781 -1.7188,-2.7031 -1.7656,-0.84766 -3.4414,-2 -4.5273,-3.7617 0.94922,0.16016 1.9023,0.46875 1.793,-1.1641 -0.0859,-1.3477 -0.13672,-2.6289 -1.2617,-3.5781 0.17578,-1.875 1.6641,-2.1094 1.8906,-0.50781 0.28516,3.1445 2.5391,4.8047 4.6172,6.6953 0.78125,0.70703 2.6172,1.6758 0.51562,3.1328 -0.17578,0.12109 0.11328,1.4336 0.53125,1.793 1.9961,1.7031 1.9297,4.7617 4.3047,6.1133 -0.46875,0.41016 -0.81641,0.71875 -1.1719,1.0273 -0.30469,-0.23437 -0.60547,-0.46875 -0.90234,-0.70312 z"
       id="path1140" />
    <path
       d="m 401.74,329.23 c 1.6172,-2.1953 3.2305,-4.3867 4.8477,-6.582 2.2617,-0.73047 2.8555,-3.1875 4.6211,-4.4336 0.35547,0.9375 0.13281,1.7305 -0.60156,2.3984 -2.0117,2.9297 -4.9609,5.2578 -5.75,8.9727 -1.1992,1.6445 -2.9023,2.9102 -3.707,4.8555 -1.4219,-0.70312 -0.76172,-1.7891 -0.0625,-2.2305 1.3828,-0.875 0.57031,-1.9727 0.65234,-2.9844 z"
       id="path1142" />
    <path
       d="m 294.59,227.1 c 1.9766,-2.6523 2.9844,-6.0469 6.3711,-8.4414 -1.1094,2.457 -1.9102,3.5898 -1.7812,6.0391 -2,0.18359 -2.2734,2.7891 -4.2344,3.0234 -0.12109,-0.20703 -0.23438,-0.41797 -0.35547,-0.62109 z"
       id="path1144" />
    <path
       d="m 401.3,220.1 c 0.98828,-0.88672 -1.6328,-1.9648 0.14844,-2.8125 1.543,0.13281 2.8281,0.85547 4.0508,1.7305 0.14844,1.7656 1.2305,3.1016 2.0117,4.7539 -1.0859,-3.0586 -4.3477,-2.0898 -6.2188,-3.6758 z"
       id="path1146" />
    <path
       d="m 298.43,211.2 c -0.95313,2.3945 -3.5469,3.8398 -3.8281,6.6211 -3.1133,-0.71875 -0.69531,-2.2852 -0.53906,-3.5078 l -0.0898,0.0586 c 1.6523,-0.94141 2.0625,-3.2344 4.0898,-3.7695 0.125,0.19922 0.24609,0.39453 0.37109,0.59375 z"
       id="path1148" />
    <path
       d="m 349.53,281.41 c -15.012,-0.47266 -14.152,-21.703 0.38672,-21.973 14.691,0.50781 14.812,22 -0.38672,21.973 z"
       id="path1150" />
    <path
       d="m 322.55,336.79 c -3.75,-0.75391 -5.7773,-4.1836 -9.0273,-5.5156 0.30859,-1.7695 1.7383,-0.32422 2.4453,-1.2734 -1.6758,-0.80469 -3.2695,-1.5703 -5.0273,-2.418 2.0781,-1.5273 -0.39453,-2.1992 -0.51953,-3.3477 4.8008,0.29688 7.8398,4.2188 10.223,7.3945 4.5938,-0.46875 7.7812,2.6445 11.566,3.9219 l -0.14844,-0.0117 0.0781,0.0273 c -3.3828,-0.56641 -6.7656,-1.125 -10.086,-1.6797 -0.37109,1.3984 0.39453,2.0625 0.49219,2.8984 z"
       id="path1152" />
    <path
       d="m 336.49,342.57 c -5.4531,1.8633 -8.8672,-2.5391 -13.152,-4.2617 3.3594,0.69141 5.6016,-2.668 8.8281,-2.4414 0,-0.0898 -0.0117,-0.1875 -0.0156,-0.28125 -0.0469,-0.0234 -0.1875,-0.0625 -0.23828,-0.0742 0.65625,1.8633 2.8047,1.1445 4.0117,2.1523 -1.4961,2.1328 -3.875,0 -5.6445,1.4062 1.4531,2.457 4.75,1.4219 6.2188,3.5039 z"
       id="path1154" />
    <path
       d="m 296.27,317.05 c 0.30469,0.23438 0.60547,0.46875 0.90234,0.70312 5.1328,-0.25 8.5273,5.8984 12.777,8.5938 -1.4688,0.83984 -2.332,-0.33594 -2.8789,-0.71484 -3.4102,-2.3789 -7.8359,-2.9102 -10.793,-6.0898 -0.92969,-1 -1.1719,-1.6562 -0.004,-2.4961 z"
       id="path1156" />
    <path
       d="m 403.23,312.2 c 3.8984,-6.2734 5.6797,-10.531 9.1328,-17.113 1.9961,5.4453 -1.8477,8.5078 -3.7383,11.91 -1.0234,1.8477 -2.1719,4.2578 -5.3945,5.1992 z"
       id="path1158" />
    <path
       d="m 404.95,229.25 c 1.5078,0.97266 2.7617,2.4297 4.0977,0.21875 1.8555,1.0859 2.2305,2.875 2.6797,4.7656 0.44531,1.8633 1.9531,3.4453 1.5664,5.5781 -3.9727,-2.5469 -5.2188,-7.2383 -8.3438,-10.559 z"
       id="path1160" />
    <path
       d="m 381.77,209.06 c 2.4531,1.3477 4.8867,2.5391 7.8789,1.8516 2.7148,-0.62109 3.1758,-0.29297 5.418,2.6523 -1.7188,0.32422 -3.2695,-1.3047 -4.9844,-0.29297 0.34766,0.73828 0.69141,1.457 1.0273,2.1719 -0.90234,-0.0703 -2.7539,0.62109 -3.1016,-0.23828 -1.0781,-5.0703 -5.875,-3.9023 -9.1875,-5.6641 0.86328,-1.4062 2.1602,1.1367 2.9492,-0.47266 z"
       id="path1162" />
    <path
       d="m 389.81,215.5 c 3.2969,-0.88672 4.6953,2.543 7.5586,2.8672 0.0742,2.4961 2.6914,2.9648 4.0586,4.9258 -4.3477,0.42188 -6.6523,-3.3359 -9.9414,-5.4219 -0.75391,-0.61719 -1.9883,-0.97266 -1.668,-2.3789 z"
       id="path1164" />
    <path
       d="m 299.18,224.7 c 0,-1.1211 0.0273,-2.2383 0.51953,-3.2812 1.0742,-1.2461 2.5469,0.125 4.0508,-0.9375 -0.83594,3.0039 -3.0859,4.1484 -3.0781,7.4922 0.0391,1.6758 -1.5898,3.1602 -3.6914,3.6406 -0.52734,-1.9648 1.293,-3.0352 1.7148,-4.5898 0.21094,-0.76562 1.5391,-1.293 0.48438,-2.3242 z"
       id="path1166" />
    <path
       d="m 331.91,335.51 c 0.0742,0.0273 0.23438,0.0586 0.3125,0.0508 -0.52734,-1.4453 -1.9844,-1.9492 -3.1211,-2.8633 2.6445,-1.2734 8.5039,-0.0586 10.852,2.4453 -2.8516,0.51953 -5.5703,-0.84766 -8.0469,0.36719 z"
       id="path1168" />
    <path
       d="m 305.45,318.12 c 0.96094,-0.0703 1.5156,0.46094 2.3047,0.14453 0.53906,-0.21875 1.3867,0.35547 2.5039,0.21094 -1.8047,-1.9883 -3.6133,-3.9766 -5.418,-5.9609 0.0898,-0.10156 0.18359,-0.20703 0.27344,-0.30859 1.6914,1.2461 3.3203,2.582 5.0859,3.707 1.7148,1.0898 -0.0508,2.9844 1.1328,4.1211 -0.55859,0.34766 -1.6133,-0.0703 -1.6758,1.0625 -1.8398,-0.25 -2.8359,-1.6406 -4.2188,-2.9766 z"
       id="path1170" />
    <path
       d="m 384.41,327.26 c 1.5391,-4 5.2109,-1.3594 7.7617,-2.4453 -1.8398,3.3125 -4.1523,4.0117 -7.7617,2.4453 z"
       id="path1172" />
    <path
       d="m 311.76,217.88 c -0.96094,4.6562 -6.9375,4.8242 -7.8359,9.5547 -0.34766,-3.3203 4.8672,-9.3672 7.8359,-9.5547 z"
       id="path1174" />
    <path
       d="m 287.85,255.6 c -0.73047,-3.8906 -0.22266,-7.5547 1.7891,-10.953 0.99609,3.8984 -1.1602,7.3242 -1.7891,10.953 z"
       id="path1176" />
    <path
       d="m 421.98,271.47 c -0.21094,-0.32422 -0.38281,-0.58984 -0.66797,-1.0273 -0.17188,0.71875 -0.30859,1.3047 -0.44531,1.8789 -0.14844,0.004 -0.29688,0.0117 -0.44531,0.0156 -0.1875,-3.582 -0.37891,-7.1641 -0.58203,-11.074 1.6289,3.0391 2.4922,7.3047 2.1445,10.207 z"
       id="path1178" />
    <path
       d="m 414.64,283.87 c -0.50781,-2.7266 -1.7773,-5.1133 0.45312,-7.4531 1.5273,2.5156 1.6055,4.8516 -0.45312,7.4531 z"
       id="path1180" />
    <path
       d="m 325.58,210.01 c -1.7812,1.8984 -3.2734,3.1641 -5.2188,4.1328 -0.28125,-1.2695 1.1367,-1.6016 0.97656,-2.5664 -0.34766,-0.0469 -0.70313,-0.0898 -1.1484,-0.15234 0.70703,-1.4453 2.3828,-1.5898 3.2305,-2.9414 0.67969,0.62109 0.0781,2.3828 2.1602,1.5273 z"
       id="path1182" />
    <path
       d="m 418.51,268.95 c -0.3125,2.332 0.98438,6.5547 -0.73047,11.051 -0.97656,-4.707 1.2383,-8.8125 0.73047,-11.051 z"
       id="path1184" />
    <path
       d="m 410.49,240.91 c 1.1328,1.7383 2.8906,3.1523 2.9375,5.2812 -3.457,-0.27344 -3.0625,-2.8555 -2.9375,-5.2812 z"
       id="path1186" />
    <path
       d="m 290.12,260.42 c 1.9609,3.1602 -0.25781,5.7812 -1.125,8.6133 0.37891,-2.8672 0.75,-5.7422 1.125,-8.6133 z"
       id="path1188" />
    <path
       d="m 354.36,203.3 c -0.29688,-0.87891 -1.7422,-0.19531 -1.9492,-1.4688 1.668,-0.67969 3.0508,0.33594 4.6211,0.61328 -0.76953,2.6055 -2.9727,1.8125 -4.8555,2.6875 0.43359,-1.5664 1.7422,-0.78906 2.1836,-1.8281 z"
       id="path1190" />
    <path
       d="m 313.64,320.52 c 2.2852,0.37109 3.9023,1.7188 6.1445,3.5078 -3.0039,-0.55469 -5,-1.3359 -6.1445,-3.5078 z"
       id="path1192" />
    <path
       d="m 353.95,338.73 c -3.1484,-0.34375 -6.3047,-0.69141 -9.4531,-1.0352 l 0.0703,-0.76172 c 3.1484,0.3125 6.3047,0.63281 9.4531,0.94922 -0.0234,0.28125 -0.0469,0.56641 -0.0703,0.84766 z"
       id="path1194" />
    <path
       d="m 372.06,210.07 c -3.0898,0.22266 -4.7461,-0.35156 -4.9648,-1.7148 1.6641,0.34766 3.5469,-0.48047 4.9648,1.7148 z"
       id="path1196" />
    <path
       d="m 408.17,251.43 c -1.3438,-2.418 -1.8164,-5.0391 -1.8672,-7.7656 1.207,2.4453 2.0508,4.9844 1.8672,7.7656 z"
       id="path1198" />
    <path
       d="m 362.15,340.11 c 2.1523,-1.3359 4.5469,-1.2852 7.3477,-1.25 -2.4688,1.7383 -4.8867,1.5781 -7.3477,1.25 z"
       id="path1200" />
    <path
       d="m 496.31,366.83 c -1.9961,3.9961 -3.9883,7.9883 -5.9766,11.984 0.75,-4.6016 3.5273,-8.2109 5.3477,-12.293 l 0.63281,0.30859 z"
       id="path1202" />
  </g>
</svg>
