<?xml version="1.0" encoding="UTF-8" standalone="no"?>
<svg
   height="100"
   version="1.1"
   viewBox="0 0 100 100"
   id="svg2319"
   sodipodi:docname="time-machine-template.svg"
   inkscape:version="1.2.2 (b0a8486541, 2022-12-01)"
   xmlns:inkscape="http://www.inkscape.org/namespaces/inkscape"
   xmlns:sodipodi="http://sodipodi.sourceforge.net/DTD/sodipodi-0.dtd"
   xmlns="http://www.w3.org/2000/svg"
   xmlns:svg="http://www.w3.org/2000/svg">
  <sodipodi:namedview
     id="namedview2321"
     pagecolor="#ffffff"
     bordercolor="#000000"
     borderopacity="0.25"
     inkscape:showpageshadow="2"
     inkscape:pageopacity="0.0"
     inkscape:pagecheckerboard="0"
     inkscape:deskcolor="#d1d1d1"
     inkscape:document-units="pt"
     showgrid="false"
     inkscape:zoom="0.96857143"
     inkscape:cx="85.176991"
     inkscape:cy="203.39233"
     inkscape:window-width="1896"
     inkscape:window-height="1012"
     inkscape:window-x="0"
     inkscape:window-y="0"
     inkscape:window-maximized="1"
     inkscape:current-layer="g2317" />
  <defs
     id="defs2271">
    <symbol
       id="d"
       overflow="visible">
      <path
         d="m29.312-1.75c-1.5117 0.78125-3.0898 1.3711-4.7344 1.7656-1.6367 0.40625-3.3398 0.60938-5.1094 0.60938-5.3125 0-9.5273-1.4844-12.641-4.4531-3.1055-2.9688-4.6562-7-4.6562-12.094s1.5508-9.125 4.6562-12.094c3.1133-2.9688 7.3281-4.4531 12.641-4.4531 1.7695 0 3.4727 0.19922 5.1094 0.59375 1.6445 0.39844 3.2227 0.99219 4.7344 1.7812v6.5938c-1.5312-1.0391-3.0391-1.8008-4.5156-2.2812-1.4805-0.48828-3.0391-0.73438-4.6719-0.73438-2.9375 0-5.2461 0.94531-6.9219 2.8281-1.6797 1.875-2.5156 4.4648-2.5156 7.7656 0 3.293 0.83594 5.8828 2.5156 7.7656 1.6758 1.875 3.9844 2.8125 6.9219 2.8125 1.6328 0 3.1914-0.23828 4.6719-0.71875 1.4766-0.48828 2.9844-1.2539 4.5156-2.2969z"
         id="path2223" />
    </symbol>
    <symbol
       id="k"
       overflow="visible">
      <path
         d="m21.453-17.406c-0.67969-0.3125-1.3516-0.53906-2.0156-0.6875-0.65625-0.15625-1.3203-0.23438-1.9844-0.23438-1.9688 0-3.4844 0.63281-4.5469 1.8906-1.0547 1.2617-1.5781 3.0703-1.5781 5.4219v11.016h-7.6562v-23.922h7.6562v3.9219c0.97656-1.5625 2.1016-2.7031 3.375-3.4219 1.2812-0.71875 2.8125-1.0781 4.5938-1.0781 0.25 0 0.52344 0.011719 0.82812 0.03125 0.30078 0.023438 0.73438 0.070312 1.2969 0.14062z"
         id="path2226" />
    </symbol>
    <symbol
       id="a"
       overflow="visible">
      <path
         d="m27.562-12.031v2.1875h-17.891c0.1875 1.793 0.83203 3.1367 1.9375 4.0312 1.1133 0.89844 2.6719 1.3438 4.6719 1.3438 1.6016 0 3.25-0.23438 4.9375-0.70312 1.6875-0.47656 3.4219-1.2031 5.2031-2.1719v5.8906c-1.8047 0.6875-3.6094 1.2031-5.4219 1.5469-1.8125 0.35156-3.6211 0.53125-5.4219 0.53125-4.3359 0-7.7031-1.0977-10.109-3.2969-2.3984-2.207-3.5938-5.2969-3.5938-9.2656 0-3.9062 1.1758-6.9727 3.5312-9.2031 2.3633-2.2383 5.6094-3.3594 9.7344-3.3594 3.7578 0 6.7695 1.1367 9.0312 3.4062 2.2578 2.2617 3.3906 5.2812 3.3906 9.0625zm-7.8594-2.5312c0-1.457-0.42969-2.6289-1.2812-3.5156-0.84375-0.89453-1.9492-1.3438-3.3125-1.3438-1.4922 0-2.6992 0.41797-3.625 1.25-0.91797 0.83594-1.4922 2.0391-1.7188 3.6094z"
         id="path2229" />
    </symbol>
    <symbol
       id="j"
       overflow="visible">
      <path
         d="m14.391-10.766c-1.5938 0-2.793 0.27344-3.5938 0.8125-0.80469 0.54297-1.2031 1.3398-1.2031 2.3906 0 0.96875 0.32031 1.7305 0.96875 2.2812 0.64453 0.54297 1.5469 0.8125 2.7031 0.8125 1.4375 0 2.6445-0.51562 3.625-1.5469 0.98828-1.0312 1.4844-2.3203 1.4844-3.875v-0.875zm11.688-2.8906v13.656h-7.7031v-3.5469c-1.0312 1.4492-2.1875 2.5078-3.4688 3.1719s-2.8398 1-4.6719 1c-2.4805 0-4.4961-0.72266-6.0469-2.1719-1.543-1.4453-2.3125-3.3203-2.3125-5.625 0-2.8125 0.96094-4.8672 2.8906-6.1719 1.9375-1.3125 4.9688-1.9688 9.0938-1.9688h4.5156v-0.60938c0-1.207-0.48047-2.0938-1.4375-2.6562-0.94922-0.5625-2.4375-0.84375-4.4688-0.84375-1.6367 0-3.1562 0.16797-4.5625 0.5-1.4062 0.32422-2.7188 0.8125-3.9375 1.4688v-5.8281c1.6445-0.40625 3.2891-0.70703 4.9375-0.90625 1.6562-0.20703 3.3047-0.3125 4.9531-0.3125 4.3203 0 7.4375 0.85547 9.3438 2.5625 1.9141 1.6992 2.875 4.4609 2.875 8.2812z"
         id="path2232" />
    </symbol>
    <symbol
       id="i"
       overflow="visible">
      <path
         d="m12.031-30.719v6.7969h7.875v5.4688h-7.875v10.141c0 1.1172 0.21875 1.8711 0.65625 2.2656 0.4375 0.38672 1.3125 0.57812 2.625 0.57812h3.9375v5.4688h-6.5625c-3.0234 0-5.1641-0.62891-6.4219-1.8906-1.2617-1.2578-1.8906-3.3984-1.8906-6.4219v-10.141h-3.7969v-5.4688h3.7969v-6.7969z"
         id="path2235" />
    </symbol>
    <symbol
       id="h"
       overflow="visible">
      <path
         d="m19.953-20.422v-12.812h7.6875v33.234h-7.6875v-3.4531c-1.0547 1.4062-2.2148 2.4375-3.4844 3.0938-1.2734 0.65625-2.7422 0.98438-4.4062 0.98438-2.9492 0-5.3711-1.1719-7.2656-3.5156-1.8867-2.3438-2.8281-5.3594-2.8281-9.0469s0.94141-6.7031 2.8281-9.0469c1.8945-2.3438 4.3164-3.5156 7.2656-3.5156 1.6562 0 3.1172 0.33594 4.3906 1 1.2812 0.65625 2.4453 1.6836 3.5 3.0781zm-5.0469 15.484c1.6445 0 2.8945-0.59766 3.75-1.7969 0.86328-1.1953 1.2969-2.9297 1.2969-5.2031 0-2.2812-0.43359-4.0195-1.2969-5.2188-0.85547-1.1953-2.1055-1.7969-3.75-1.7969-1.625 0-2.8711 0.60156-3.7344 1.7969-0.85547 1.1992-1.2812 2.9375-1.2812 5.2188 0 2.2734 0.42578 4.0078 1.2812 5.2031 0.86328 1.1992 2.1094 1.7969 3.7344 1.7969z"
         id="path2238" />
    </symbol>
    <symbol
       id="g"
       overflow="visible">
      <path
         d="m16.406-4.9375c1.6328 0 2.8828-0.59766 3.75-1.7969 0.86328-1.1953 1.2969-2.9297 1.2969-5.2031 0-2.2812-0.43359-4.0195-1.2969-5.2188-0.86719-1.1953-2.1172-1.7969-3.75-1.7969-1.6367 0-2.8906 0.60547-3.7656 1.8125-0.875 1.1992-1.3125 2.9336-1.3125 5.2031 0 2.2617 0.4375 3.9961 1.3125 5.2031 0.875 1.1992 2.1289 1.7969 3.7656 1.7969zm-5.0781-15.484c1.0508-1.3945 2.2188-2.4219 3.5-3.0781 1.2812-0.66406 2.7539-1 4.4219-1 2.9453 0 5.3672 1.1719 7.2656 3.5156 1.8945 2.3438 2.8438 5.3594 2.8438 9.0469s-0.94922 6.7031-2.8438 9.0469c-1.8984 2.3438-4.3203 3.5156-7.2656 3.5156-1.668 0-3.1406-0.33594-4.4219-1s-2.4492-1.6914-3.5-3.0781v3.4531h-7.6562v-33.234h7.6562z"
         id="path2241" />
    </symbol>
    <symbol
       id="f"
       overflow="visible">
      <path
         d="m0.53125-23.922h7.6562l6.4219 16.234 5.4688-16.234h7.6562l-10.062 26.188c-1.0117 2.6641-2.1953 4.5234-3.5469 5.5781-1.3438 1.0625-3.1211 1.5938-5.3281 1.5938h-4.4219v-5.0156h2.3906c1.3008 0 2.2422-0.21094 2.8281-0.625 0.59375-0.40625 1.0547-1.1484 1.3906-2.2188l0.20312-0.65625z"
         id="path2244" />
    </symbol>
    <symbol
       id="e"
       overflow="visible">
      <path
         d="m0.21875-31.891h8.2656l8.4531 23.531 8.4375-23.531h8.2656l-11.812 31.891h-9.7969z"
         id="path2247" />
    </symbol>
    <symbol
       id="p"
       overflow="visible">
      <path
         d="m4.0156-31.891h8.2188v31.891h-8.2188z"
         id="path2250" />
    </symbol>
    <symbol
       id="c"
       overflow="visible">
      <path
         d="m4.0156-31.891h9.1875l11.594 21.875v-21.875h7.7969v31.891h-9.1875l-11.594-21.875v21.875h-7.7969z"
         id="path2253" />
    </symbol>
    <symbol
       id="o"
       overflow="visible">
      <path
         d="m2.4531-31.891h26.812v4.9688l-17.109 20.703h17.594v6.2188h-27.781v-4.9844l17.109-20.688h-16.625z"
         id="path2256" />
    </symbol>
    <symbol
       id="b"
       overflow="visible">
      <path
         d="m4.0156-31.891h22.203v6.2188h-13.984v5.9375h13.141v6.2188h-13.141v7.2969h14.453v6.2188h-22.672z"
         id="path2259" />
    </symbol>
    <symbol
       id="n"
       overflow="visible">
      <path
         d="m26.219-30.891v6.75c-1.7617-0.78125-3.4766-1.3672-5.1406-1.7656-1.668-0.40625-3.2422-0.60938-4.7188-0.60938-1.9609 0-3.4141 0.27344-4.3594 0.8125-0.9375 0.54297-1.4062 1.3867-1.4062 2.5312 0 0.85547 0.31641 1.5234 0.95312 2 0.63281 0.46875 1.7852 0.875 3.4531 1.2188l3.5 0.70312c3.5391 0.71875 6.0625 1.8047 7.5625 3.25 1.5 1.4492 2.25 3.5117 2.25 6.1875 0 3.5234-1.0469 6.1406-3.1406 7.8594-2.0859 1.7188-5.2734 2.5781-9.5625 2.5781-2.0234 0-4.0547-0.19531-6.0938-0.57812-2.0312-0.38281-4.0625-0.95703-6.0938-1.7188v-6.9375c2.0312 1.0859 3.9922 1.9023 5.8906 2.4531 1.9062 0.54297 3.7422 0.8125 5.5156 0.8125 1.7891 0 3.1602-0.29688 4.1094-0.89062 0.95703-0.60156 1.4375-1.457 1.4375-2.5625 0-1-0.32422-1.7695-0.96875-2.3125-0.64844-0.53906-1.9375-1.0234-3.875-1.4531l-3.1875-0.70312c-3.1875-0.6875-5.5234-1.7734-7-3.2656-1.4688-1.5-2.2031-3.5156-2.2031-6.0469 0-3.1758 1.0234-5.6172 3.0781-7.3281 2.0508-1.707 5-2.5625 8.8438-2.5625 1.75 0 3.5508 0.13281 5.4062 0.39062 1.8516 0.26172 3.7695 0.65625 5.75 1.1875z"
         id="path2262" />
    </symbol>
    <symbol
       id="m"
       overflow="visible">
      <path
         d="m0.21875-31.891h29.391v6.2188h-10.578v25.672h-8.2188v-25.672h-10.594z"
         id="path2265" />
    </symbol>
    <symbol
       id="l"
       overflow="visible">
      <path
         d="m4.0156-31.891h8.2188v19.109c0 2.6367 0.42969 4.5234 1.2969 5.6562 0.86328 1.1367 2.2695 1.7031 4.2188 1.7031 1.9688 0 3.3789-0.56641 4.2344-1.7031 0.86328-1.1328 1.2969-3.0195 1.2969-5.6562v-19.109h8.2344v19.109c0 4.5234-1.1367 7.8867-3.4062 10.094-2.2617 2.2109-5.7148 3.3125-10.359 3.3125-4.625 0-8.0742-1.1016-10.344-3.3125-2.2617-2.207-3.3906-5.5703-3.3906-10.094z"
         id="path2268" />
    </symbol>
  </defs>
  <g
     id="g2317">
    <path
       d="m 39.54507,77.937161 1.46692,-2.759439 h 7e-4 C 34.5947,71.660789 30.41223,65.114419 29.916877,57.81252 h 6.020493 v -3.124973 h -6.04835 c 0.56571,-10.748296 8.5344,-19.403398 18.54808,-20.22839 v 6.16548 h 3.12498 v -6.16548 c 10.01386,0.825189 17.98201,9.479558 18.54808,20.22839 h -6.04835 v 3.124973 h 6.01835 C 69.587,65.114419 65.40448,71.660789 58.98649,75.177722 l 1.46692,2.759439 h 7e-4 c 3.93908,-2.159623 7.2153,-5.352273 9.47671,-9.23331 2.26142,-3.881751 3.42355,-8.30564 3.36069,-12.797743 10e-4,-13.596486 -10.44706,-24.655137 -23.29269,-24.655137 -12.84562,0 -23.294473,11.059544 -23.294473,24.651566 -0.06417,4.493531 1.097224,8.91867 3.359263,12.801314 2.26213,3.882465 5.53924,7.075115 9.47957,9.234739 z"
       id="path2273"
       style="stroke-width:0.17857" />
    <path
       d="m 98.43751,59.374827 c 0.41434,0 0.81194,-0.16462 1.1049,-0.457585 C 99.83538,58.624277 100,58.226677 100,57.812341 v -7.81243 C 100,36.738958 94.73218,24.021571 85.3551,14.644869 75.97874,5.26781 63.26062,0 50,0 36.73938,0 24.021614,5.26781 14.644895,14.644869 5.26782,24.021214 0,36.739315 0,49.999911 v 7.81243 c 0,0.414336 0.16462,0.811939 0.457586,1.104901 0.292966,0.292961 0.690567,0.457585 1.104903,0.457585 H 5.026393 C 5.43864,70.69794 9.790644,81.522844 17.330948,89.979911 L 0.946422,97.001277 C 0.264927,97.294238 -0.116624,98.025268 0.031946,98.7521 0.18122,99.478237 0.820869,100 1.562346,100 H 98.43665 c 0.74148,0 1.38114,-0.521763 1.5304,-1.2479 0.14858,-0.726832 -0.23298,-1.457862 -0.91447,-1.750823 L 82.66805,89.979911 C 90.20853,81.523022 94.56047,70.69794 94.97261,59.374827 Z M 3.125692,49.999911 c 0,-12.432211 4.938536,-24.35514 13.729009,-33.146133 C 25.64571,8.0633208 37.56884,3.124793 50.00089,3.124793 c 12.43206,0 24.35519,4.9385278 33.14619,13.728985 8.79048,8.790993 13.72901,20.714101 13.72901,33.146133 v 6.249944 H 95.00111 C 94.56654,30.325086 74.55482,9.3752733 50.00143,9.3752733 25.448033,9.3752733 5.435675,30.325086 5.00175,56.249855 H 3.126763 Z M 9.17547,96.874492 43.75022,82.056053 V 93.74952 c 0,0.414336 0.16462,0.811939 0.45759,1.104901 0.29296,0.292962 0.69057,0.457585 1.1049,0.457585 h 9.37494 c 0.41433,0 0.81194,-0.16462 1.1049,-0.457585 0.29296,-0.292965 0.45758,-0.690565 0.45758,-1.104901 V 82.056053 L 90.82489,96.874492 Z M 20.570389,54.687369 H 15.658281 C 16.420686,36.135749 30.7021,21.184097 48.4384,20.34839 v 4.735672 C 33.3903,25.92459 21.320741,38.735547 20.572532,54.687369 Z M 51.56302,20.34839 c 17.73559,0.835653 32.01763,15.781109 32.78013,34.338979 H 79.43033 C 78.68047,38.736083 66.61792,25.925126 51.56445,25.084062 Z m -1.56248,7.77618 c 14.5465,0 26.38016,12.617031 26.38016,28.124749 0.0753,5.048169 -1.20256,10.024375 -3.70175,14.411122 -2.49856,4.386746 -6.1271,8.024571 -10.50779,10.534191 l -5.91995,-2.537656 v -3.657824 c 0.81472,0.0028 1.49482,-0.620816 1.56248,-1.432737 l 1.23466,-14.804511 c 0.12834,-1.476683 -0.19113,-2.957474 -0.91727,-4.249426 -0.72613,-1.291846 -1.82552,-2.334622 -3.15354,-2.992474 l -1.2235,-0.612441 v -7.14e-4 c 0.61593,-0.972366 0.94028,-2.100338 0.93471,-3.251221 0.0942,-1.344845 -0.34528,-2.672297 -1.22279,-3.695503 -0.87682,-1.023294 -2.12195,-1.660146 -3.46462,-1.773145 -1.34276,0.113001 -2.58784,0.749851 -3.46462,1.773145 -0.87751,1.023295 -1.31695,2.350694 -1.22279,3.695503 -0.005,1.150936 0.32087,2.279623 0.93749,3.251221 l -1.2221,0.612441 v 7.14e-4 c -1.32811,0.657084 -2.42748,1.699896 -3.15426,2.991759 -0.72614,1.292542 -1.04632,2.773368 -0.91726,4.250141 l 1.23115,14.804511 c 0.0677,0.811939 0.74776,1.43554 1.56249,1.432737 v 3.657824 l -5.91996,2.537656 C 33.45098,78.684833 29.822251,75.047187 27.323698,70.660441 24.82443,66.273694 23.546582,61.29731 23.621938,56.249319 23.621938,40.741601 35.45507,28.12457 50.00211,28.12457 Z M 48.43805,92.186498 H 46.87556 V 74.999152 h 1.56249 z m 1.56249,-42.187123 c -0.83146,0 -1.56249,-1.09374 -1.56249,-2.343729 0,-1.249989 0.73103,-2.343729 1.56249,-2.343729 0.83145,0 1.56248,1.09374 1.56248,2.343729 0,1.249989 -0.73103,2.343729 -1.56248,2.343729 z m -0.95912,3.00783 c 0.62987,0.156249 1.28835,0.156249 1.9182,0 l 2.61444,1.307881 c 0.768,0.380158 1.40346,0.983527 1.82338,1.730592 0.41993,0.747065 0.60546,1.60295 0.53154,2.456764 L 54.81291,71.874287 H 45.18834 L 44.07297,58.502442 h -7e-4 c -0.0732,-0.853778 0.11161,-1.71036 0.53223,-2.457478 0.42062,-0.747065 1.05608,-1.349738 1.8241,-1.729895 z m 2.52159,21.992661 H 53.1255 V 92.187213 H 51.56301 Z M 79.61102,88.67028 65.69094,82.702833 c 4.09033,-2.774082 7.46781,-6.473871 9.85904,-10.798654 2.39123,-4.324782 3.72908,-9.153132 3.90336,-14.091659 h 6.48424 c 0.41434,0 0.81194,-0.16462 1.10491,-0.457586 0.29296,-0.292965 0.45758,-0.690565 0.45758,-1.104901 0,-21.539093 -16.82327,-39.062151 -37.49973,-39.062151 -20.67646,0 -37.499733,17.523594 -37.499733,39.062151 0,0.414336 0.16462,0.81194 0.457586,1.104901 0.292966,0.292962 0.690567,0.457586 1.104903,0.457586 h 6.484239 c 0.174385,4.938527 1.512275,9.766877 3.903365,14.091659 2.39109,4.324783 5.76871,8.024572 9.85904,10.798654 L 20.389658,88.67028 C 12.401501,80.117142 8.002068,68.824028 8.099031,57.120561 c 0,-24.603351 18.796295,-44.62103 41.901489,-44.62103 23.10519,0 41.90148,20.017679 41.90148,44.62103 0.097,11.702575 -4.30246,22.996224 -12.29062,31.549719 z"
       id="path2275"
       style="stroke-width:0.17857" />
  </g>
</svg>
