<?xml version="1.0" encoding="UTF-8" standalone="no"?>
<svg
   height="100"
   version="1.1"
   viewBox="0 0 100 100"
   id="svg793"
   sodipodi:docname="woman-template.svg"
   inkscape:version="1.2.2 (b0a8486541, 2022-12-01)"
   xmlns:inkscape="http://www.inkscape.org/namespaces/inkscape"
   xmlns:sodipodi="http://sodipodi.sourceforge.net/DTD/sodipodi-0.dtd"
   xmlns="http://www.w3.org/2000/svg"
   xmlns:svg="http://www.w3.org/2000/svg">
  <sodipodi:namedview
     id="namedview795"
     pagecolor="#ffffff"
     bordercolor="#000000"
     borderopacity="0.25"
     inkscape:showpageshadow="2"
     inkscape:pageopacity="0.0"
     inkscape:pagecheckerboard="0"
     inkscape:deskcolor="#d1d1d1"
     inkscape:document-units="pt"
     showgrid="false"
     inkscape:zoom="2.3145515"
     inkscape:cx="278.6717"
     inkscape:cy="4.3204915"
     inkscape:window-width="1920"
     inkscape:window-height="1080"
     inkscape:window-x="0"
     inkscape:window-y="0"
     inkscape:window-maximized="1"
     inkscape:current-layer="svg793" />
  <defs
     id="defs715">
    <symbol
       id="t"
       overflow="visible">
      <path
         d="m3.6562-0.21875c-0.1875 0.09375-0.38672 0.16797-0.59375 0.21875-0.19922 0.050781-0.40625 0.078125-0.625 0.078125-0.66797 0-1.1992-0.17969-1.5938-0.54688-0.38672-0.375-0.57812-0.87891-0.57812-1.5156 0-0.64453 0.19141-1.1484 0.57812-1.5156 0.39453-0.375 0.92578-0.5625 1.5938-0.5625 0.21875 0 0.42578 0.027344 0.625 0.078125 0.20703 0.054687 0.40625 0.125 0.59375 0.21875v0.82812c-0.1875-0.125-0.375-0.21875-0.5625-0.28125-0.17969-0.0625-0.37109-0.09375-0.57812-0.09375-0.36719 0-0.65625 0.12109-0.875 0.35938-0.21094 0.23047-0.3125 0.55469-0.3125 0.96875 0 0.40625 0.10156 0.73047 0.3125 0.96875 0.21875 0.23047 0.50781 0.34375 0.875 0.34375 0.20703 0 0.39844-0.023437 0.57812-0.078125 0.1875-0.0625 0.375-0.16016 0.5625-0.29688z"
         id="path655" />
    </symbol>
    <symbol
       id="d"
       overflow="visible">
      <path
         d="m2.6875-2.1719c-0.085938-0.039063-0.16797-0.070313-0.25-0.09375-0.085938-0.019531-0.16797-0.03125-0.25-0.03125-0.25 0-0.44531 0.085937-0.57812 0.25-0.125 0.15625-0.1875 0.38281-0.1875 0.67188v1.375h-0.96875v-2.9844h0.96875v0.48438c0.11328-0.19531 0.25-0.33594 0.40625-0.42188 0.16406-0.09375 0.35938-0.14062 0.57812-0.14062h0.10938c0.039063 0 0.09375 0.007812 0.15625 0.015625z"
         id="path658" />
    </symbol>
    <symbol
       id="a"
       overflow="visible">
      <path
         d="m3.4375-1.5v0.26562h-2.2344c0.03125 0.23047 0.11328 0.40234 0.25 0.51562 0.13281 0.10547 0.32812 0.15625 0.57812 0.15625 0.20703 0 0.41406-0.023438 0.625-0.078125 0.20703-0.0625 0.42188-0.15625 0.64062-0.28125v0.73438c-0.21875 0.09375-0.44531 0.16406-0.67188 0.20312-0.23047 0.039062-0.45312 0.0625-0.67188 0.0625-0.54297 0-0.96484-0.13281-1.2656-0.40625-0.30469-0.28125-0.45312-0.67188-0.45312-1.1719 0-0.47656 0.14453-0.85938 0.4375-1.1406 0.30078-0.28125 0.70703-0.42188 1.2188-0.42188 0.46875 0 0.84375 0.14062 1.125 0.42188s0.42188 0.66406 0.42188 1.1406zm-0.96875-0.32812c0-0.17578-0.058594-0.31641-0.17188-0.42188-0.10547-0.11328-0.24219-0.17188-0.40625-0.17188-0.1875 0-0.33984 0.054687-0.45312 0.15625-0.11719 0.10547-0.1875 0.25-0.21875 0.4375z"
         id="path661" />
    </symbol>
    <symbol
       id="l"
       overflow="visible">
      <path
         d="m1.7969-1.3438c-0.19922 0-0.35156 0.039062-0.45312 0.10938-0.09375 0.0625-0.14062 0.16406-0.14062 0.29688 0 0.11719 0.035156 0.21094 0.10938 0.28125 0.082031 0.0625 0.19531 0.09375 0.34375 0.09375 0.17578 0 0.32812-0.0625 0.45312-0.1875s0.1875-0.28516 0.1875-0.48438v-0.10938zm1.4688-0.35938v1.7031h-0.96875v-0.4375c-0.125 0.17969-0.27344 0.30859-0.4375 0.39062-0.15625 0.082031-0.35156 0.125-0.57812 0.125-0.3125 0-0.57031-0.085938-0.76562-0.26562-0.1875-0.1875-0.28125-0.42188-0.28125-0.70312 0-0.35156 0.11719-0.61328 0.35938-0.78125 0.23828-0.16406 0.61719-0.25 1.1406-0.25h0.5625v-0.0625c0-0.15625-0.0625-0.26562-0.1875-0.32812-0.11719-0.070312-0.29688-0.10938-0.54688-0.10938-0.21094 0-0.40234 0.023437-0.57812 0.0625-0.17969 0.042969-0.33984 0.10156-0.48438 0.17188v-0.71875c0.19531-0.050781 0.39844-0.085938 0.60938-0.10938 0.20703-0.03125 0.41406-0.046875 0.625-0.046875 0.53906 0 0.92969 0.10938 1.1719 0.32812 0.23828 0.21094 0.35938 0.55469 0.35938 1.0312z"
         id="path664" />
    </symbol>
    <symbol
       id="c"
       overflow="visible">
      <path
         d="m1.5-3.8438v0.85938h0.98438v0.67188h-0.98438v1.2812c0 0.13672 0.023438 0.23047 0.078125 0.28125 0.0625 0.042969 0.17578 0.0625 0.34375 0.0625h0.48438v0.6875h-0.8125c-0.38672 0-0.65625-0.078125-0.8125-0.23438s-0.23438-0.42188-0.23438-0.79688v-1.2812h-0.46875v-0.67188h0.46875v-0.85938z"
         id="path667" />
    </symbol>
    <symbol
       id="f"
       overflow="visible">
      <path
         d="m2.5-2.5469v-1.6094h0.95312v4.1562h-0.95312v-0.4375c-0.13672 0.17969-0.28125 0.30859-0.4375 0.39062-0.15625 0.082031-0.33984 0.125-0.54688 0.125-0.375 0-0.68359-0.14453-0.92188-0.4375-0.23047-0.28906-0.34375-0.67188-0.34375-1.1406 0-0.45703 0.11328-0.83203 0.34375-1.125 0.23828-0.28906 0.54688-0.4375 0.92188-0.4375 0.19531 0 0.375 0.042969 0.53125 0.125 0.16406 0.085938 0.31641 0.21484 0.45312 0.39062zm-0.64062 1.9375c0.20703 0 0.36328-0.070313 0.46875-0.21875 0.11328-0.15625 0.17188-0.37891 0.17188-0.67188 0-0.28125-0.058594-0.49219-0.17188-0.64062-0.10547-0.15625-0.26172-0.23438-0.46875-0.23438-0.19922 0-0.35547 0.078125-0.46875 0.23438-0.10547 0.14844-0.15625 0.35938-0.15625 0.64062 0 0.29297 0.050781 0.51562 0.15625 0.67188 0.11328 0.14844 0.26953 0.21875 0.46875 0.21875z"
         id="path670" />
    </symbol>
    <symbol
       id="k"
       overflow="visible">
      <path
         d="m2.0469-0.60938c0.20703 0 0.36328-0.070313 0.46875-0.21875 0.11328-0.15625 0.17188-0.37891 0.17188-0.67188 0-0.28125-0.058594-0.49219-0.17188-0.64062-0.10547-0.15625-0.26172-0.23438-0.46875-0.23438-0.19922 0-0.35547 0.078125-0.46875 0.23438-0.10547 0.14844-0.15625 0.35938-0.15625 0.64062 0 0.29297 0.050781 0.51562 0.15625 0.67188 0.11328 0.14844 0.26953 0.21875 0.46875 0.21875zm-0.625-1.9375c0.125-0.17578 0.26562-0.30469 0.42188-0.39062 0.16406-0.082031 0.35156-0.125 0.5625-0.125 0.36328 0 0.66406 0.14844 0.90625 0.4375 0.23828 0.29297 0.35938 0.66797 0.35938 1.125 0 0.46875-0.12109 0.85156-0.35938 1.1406-0.24219 0.29297-0.54297 0.4375-0.90625 0.4375-0.21094 0-0.39844-0.042969-0.5625-0.125-0.15625-0.082031-0.29688-0.21094-0.42188-0.39062v0.4375h-0.96875v-4.1562h0.96875z"
         id="path673" />
    </symbol>
    <symbol
       id="j"
       overflow="visible">
      <path
         d="m0.0625-2.9844h0.95312l0.8125 2.0156 0.6875-2.0156h0.95312l-1.2656 3.2656c-0.125 0.33203-0.27344 0.56641-0.4375 0.70312-0.16797 0.13281-0.39062 0.20312-0.67188 0.20312h-0.54688v-0.64062h0.29688c0.16406 0 0.28516-0.027344 0.35938-0.078125 0.070313-0.054688 0.12891-0.14062 0.17188-0.26562l0.03125-0.09375z"
         id="path676" />
    </symbol>
    <symbol
       id="e"
       overflow="visible">
      <path
         d="m0.45312-2.9844h0.96875v2.9844h-0.96875zm0-1.1719h0.96875v0.78125h-0.96875z"
         id="path679" />
    </symbol>
    <symbol
       id="i"
       overflow="visible">
      <path
         d="m2.875-2.8906v0.76562c-0.125-0.082031-0.25781-0.14453-0.39062-0.1875-0.13672-0.039062-0.27344-0.0625-0.40625-0.0625-0.27344 0-0.48047 0.078125-0.625 0.23438-0.14844 0.15625-0.21875 0.37109-0.21875 0.64062 0 0.28125 0.070313 0.5 0.21875 0.65625 0.14453 0.15625 0.35156 0.23438 0.625 0.23438 0.14453 0 0.28516-0.019531 0.42188-0.0625 0.13281-0.039063 0.25781-0.10938 0.375-0.20312v0.78125c-0.14844 0.0625-0.29688 0.10156-0.45312 0.125-0.15625 0.03125-0.3125 0.046875-0.46875 0.046875-0.54297 0-0.96484-0.13281-1.2656-0.40625-0.30469-0.28125-0.45312-0.67188-0.45312-1.1719 0-0.48828 0.14844-0.86719 0.45312-1.1406 0.30078-0.28125 0.72266-0.42188 1.2656-0.42188 0.15625 0 0.3125 0.015625 0.46875 0.046875 0.15625 0.023437 0.30469 0.0625 0.45312 0.125z"
         id="path682" />
    </symbol>
    <symbol
       id="b"
       overflow="visible">
      <path
         d="m1.875-2.375c-0.21094 0-0.37109 0.078125-0.48438 0.23438-0.10547 0.14844-0.15625 0.35938-0.15625 0.64062 0 0.29297 0.050781 0.51562 0.15625 0.67188 0.11328 0.14844 0.27344 0.21875 0.48438 0.21875 0.20703 0 0.36719-0.070313 0.48438-0.21875 0.11328-0.15625 0.17188-0.37891 0.17188-0.67188 0-0.28125-0.058594-0.49219-0.17188-0.64062-0.11719-0.15625-0.27734-0.23438-0.48438-0.23438zm0-0.6875c0.51953 0 0.92188 0.14062 1.2031 0.42188 0.28906 0.27344 0.4375 0.65234 0.4375 1.1406 0 0.5-0.14844 0.89062-0.4375 1.1719-0.28125 0.27344-0.68359 0.40625-1.2031 0.40625-0.51172 0-0.91406-0.13281-1.2031-0.40625-0.29297-0.28125-0.4375-0.67188-0.4375-1.1719 0-0.48828 0.14453-0.86719 0.4375-1.1406 0.28906-0.28125 0.69141-0.42188 1.2031-0.42188z"
         id="path685" />
    </symbol>
    <symbol
       id="h"
       overflow="visible">
      <path
         d="m3.4688-1.8281v1.8281h-0.96875v-1.3906c0-0.25781-0.007812-0.4375-0.015625-0.53125-0.011719-0.10156-0.03125-0.17578-0.0625-0.21875-0.03125-0.0625-0.085937-0.10938-0.15625-0.14062-0.0625-0.039062-0.13281-0.0625-0.20312-0.0625-0.21094 0-0.37109 0.078125-0.48438 0.23438-0.10547 0.15625-0.15625 0.37109-0.15625 0.64062v1.4688h-0.96875v-2.9844h0.96875v0.4375c0.13281-0.17578 0.28516-0.30469 0.45312-0.39062 0.16406-0.082031 0.34375-0.125 0.53125-0.125 0.34375 0 0.60156 0.10938 0.78125 0.32812 0.1875 0.21094 0.28125 0.51172 0.28125 0.90625z"
         id="path688" />
    </symbol>
    <symbol
       id="g"
       overflow="visible">
      <path
         d="m2.4219-4.1562v0.625h-0.51562c-0.13672 0-0.23438 0.027344-0.29688 0.078125-0.054687 0.054687-0.078125 0.13672-0.078125 0.25v0.21875h0.82812v0.67188h-0.82812v2.3125h-0.95312v-2.3125h-0.46875v-0.67188h0.46875v-0.21875c0-0.32031 0.085937-0.5625 0.26562-0.71875 0.1875-0.15625 0.47266-0.23438 0.85938-0.23438z"
         id="path691" />
    </symbol>
    <symbol
       id="s"
       overflow="visible">
      <path
         d="m0.45312-4.1562h0.96875v4.1562h-0.96875z"
         id="path694" />
    </symbol>
    <symbol
       id="r"
       overflow="visible">
      <path
         d="m3.2344-2.5c0.11328-0.17578 0.25391-0.3125 0.42188-0.40625 0.16406-0.10156 0.35156-0.15625 0.5625-0.15625 0.33203 0 0.58594 0.10938 0.76562 0.32812 0.1875 0.21094 0.28125 0.51172 0.28125 0.90625v1.8281h-0.96875v-1.5625c0.007813-0.019531 0.015625-0.039062 0.015625-0.0625v-0.10938c0-0.21875-0.03125-0.375-0.09375-0.46875s-0.16406-0.14062-0.29688-0.14062c-0.1875 0-0.33594 0.078125-0.4375 0.23438-0.09375 0.14844-0.14062 0.35938-0.14062 0.64062v1.4688h-0.96875v-1.5625c0-0.33203-0.03125-0.54688-0.09375-0.64062-0.054688-0.09375-0.15234-0.14062-0.29688-0.14062-0.17969 0-0.32031 0.078125-0.42188 0.23438-0.09375 0.14844-0.14062 0.35938-0.14062 0.64062v1.4688h-0.96875v-2.9844h0.96875v0.4375c0.11328-0.17578 0.24219-0.30469 0.39062-0.39062 0.15625-0.082031 0.32812-0.125 0.51562-0.125 0.20703 0 0.39062 0.054688 0.54688 0.15625 0.15625 0.09375 0.27344 0.23047 0.35938 0.40625z"
         id="path697" />
    </symbol>
    <symbol
       id="q"
       overflow="visible">
      <path
         d="m3.4688-1.8281v1.8281h-0.96875v-1.3906c0-0.25781-0.007812-0.4375-0.015625-0.53125-0.011719-0.10156-0.03125-0.17578-0.0625-0.21875-0.03125-0.0625-0.085937-0.10938-0.15625-0.14062-0.0625-0.039062-0.13281-0.0625-0.20312-0.0625-0.21094 0-0.37109 0.078125-0.48438 0.23438-0.10547 0.15625-0.15625 0.37109-0.15625 0.64062v1.4688h-0.96875v-4.1562h0.96875v1.6094c0.13281-0.17578 0.28516-0.30469 0.45312-0.39062 0.16406-0.082031 0.34375-0.125 0.53125-0.125 0.34375 0 0.60156 0.10938 0.78125 0.32812 0.1875 0.21094 0.28125 0.51172 0.28125 0.90625z"
         id="path700" />
    </symbol>
    <symbol
       id="p"
       overflow="visible">
      <path
         d="m0.5-3.9844h1.1562l1.4375 2.7344v-2.7344h0.98438v3.9844h-1.1562l-1.4375-2.7344v2.7344h-0.98438z"
         id="path703" />
    </symbol>
    <symbol
       id="o"
       overflow="visible">
      <path
         d="m0.42188-1.1719v-1.8125h0.96875v0.29688 0.60938 0.48438c0 0.24219 0.003906 0.41797 0.015625 0.53125 0.007812 0.10547 0.03125 0.17969 0.0625 0.21875 0.039062 0.0625 0.09375 0.11719 0.15625 0.15625 0.0625 0.03125 0.13281 0.046875 0.21875 0.046875 0.19531 0 0.35156-0.078125 0.46875-0.23438 0.11328-0.15625 0.17188-0.36719 0.17188-0.64062v-1.4688h0.95312v2.9844h-0.95312v-0.4375c-0.14844 0.17969-0.30469 0.30859-0.46875 0.39062-0.15625 0.082031-0.33594 0.125-0.53125 0.125-0.34375 0-0.60938-0.10156-0.79688-0.3125-0.17969-0.21875-0.26562-0.53125-0.26562-0.9375z"
         id="path706" />
    </symbol>
    <symbol
       id="n"
       overflow="visible">
      <path
         d="m0.5-3.9844h1.7031c0.50781 0 0.89844 0.11719 1.1719 0.34375 0.26953 0.21875 0.40625 0.53906 0.40625 0.95312 0 0.41797-0.13672 0.74219-0.40625 0.96875-0.27344 0.21875-0.66406 0.32812-1.1719 0.32812h-0.67188v1.3906h-1.0312zm1.0312 0.75v1.1094h0.5625c0.19531 0 0.34766-0.046875 0.45312-0.14062 0.11328-0.10156 0.17188-0.24219 0.17188-0.42188 0-0.17578-0.058594-0.3125-0.17188-0.40625-0.10547-0.09375-0.25781-0.14062-0.45312-0.14062z"
         id="path709" />
    </symbol>
    <symbol
       id="m"
       overflow="visible">
      <path
         d="m0.45312-2.9844h0.96875v2.9375c0 0.39453-0.10156 0.69531-0.29688 0.90625-0.1875 0.21875-0.46484 0.32812-0.82812 0.32812h-0.48438v-0.64062h0.17188c0.17578 0 0.29688-0.042969 0.35938-0.125 0.070312-0.074219 0.10938-0.23047 0.10938-0.46875zm0-1.1719h0.96875v0.78125h-0.96875z"
         id="path712" />
    </symbol>
  </defs>
  <g
     id="g791"
     inkscape:label="g791"
     transform="matrix(0.18775087,0,0,0.18775304,-15.951349,-2.5694967)">
    <path
       d="m 478.59,340.29 16.711,-91.086 c 0.69922,-3.8047 -1.3008,-7.5234 -4.8672,-9.0352 l -9.5586,-4.0469 c -2.3086,-0.97266 -4.8906,-0.85156 -7.0859,0.33984 -0.55859,0.29687 -1.0703,0.65625 -1.5312,1.0625 h -34.156 c 6.4648,-11.188 11.023,-23.547 13.301,-36.598 l 11.496,-5.1094 c 9.3281,-4.1445 15.902,-13.027 17.148,-23.156 l 2.8203,-23.066 c 1.3008,-10.652 -5.9375,-20.477 -16.504,-22.367 -0.16406,-0.0312 -0.32813,-0.043 -0.49219,-0.0547 l -11.617,-0.57031 v -22.609 c 0,-0.63281 -0.0234,-1.2695 -0.043,-1.9023 0.043,-0.35156 0.043,-0.71094 -0.0234,-1.0703 -0.61328,-19.292997 -7.1875,-37.460997 -19.129,-52.694997 l -0.0117,-0.01172 c -17.414,-22.008 -43.5,-34.629 -71.562,-34.629 h -25.461 c -21.516,0 -42.262,6.4219 -60.016,18.57 -17.75,12.152 -31.25,29.172 -39.035,49.219 -14.875,38.323997 -18.125,79.811997 -9.375,119.969997 l 7.8633,36.082 h -9.9297 c -0.46094,-0.40625 -0.97266,-0.76562 -1.5312,-1.0625 -2.1992,-1.1914 -4.7891,-1.3125 -7.0859,-0.33984 l -9.5586,4.0469 c -3.5664,1.5078 -5.5664,5.2266 -4.8789,9.0352 l 16.734,91.23 c -20.508,16.504 -32.242,42.68 -29.27,70.305 l 8.9141,82.809 c 2.5703,23.941 21.023,42.852 44.867,45.992 34.211,4.5078 71.18,6.7578 107.59,6.7578 35.164,0 69.805,-2.1016 100.91,-6.3203 23.844,-3.2383 42.297,-22.148 44.855,-45.992 l 8.957,-83.246 c 2.9883,-27.711 -8.8242,-53.961 -29.449,-70.453 z m -25.66,-153.09 1.1914,-52.926 11.102,0.54688 c 6.4414,1.2812 10.84,7.3164 10.031,13.859 l -2.8203,23.066 c -0.91797,7.4805 -5.7656,14.031 -12.656,17.094 l -7.1875,3.1953 c 0.14062,-1.6094 0.26172,-3.2188 0.33984,-4.8359 z m 24.477,56.012 c 0.15234,-0.0859 0.31641,-0.0859 0.46875,-0.0234 l 9.5586,4.0469 c 0.24219,0.0977 0.37109,0.35156 0.32812,0.60156 l -19.422,105.89 c -0.0312,0.17578 -0.13281,0.30469 -0.27344,0.38281 -0.15234,0.0859 -0.31641,0.0859 -0.46875,0.0234 l -9.5586,-4.0469 c -0.24219,-0.0976 -0.37109,-0.35156 -0.32812,-0.60156 l 19.426,-105.9 c 0.0312,-0.16406 0.11719,-0.29688 0.26953,-0.37109 z m -72.875,59.074 h 32.746 c 2.1094,0 3.8281,1.7188 3.8281,3.8281 0,2.1093 -1.7188,3.8281 -3.8281,3.8281 h -32.746 z m 38.215,-15.488 h -38.215 v -7.6562 h 38.215 c 2.1094,0 3.8281,1.7188 3.8281,3.8281 0,2.1093 -1.7188,3.8281 -3.8281,3.8281 z m 5.4688,-30.812 c 2.1094,0 3.8281,1.7188 3.8281,3.8281 0,2.1093 -1.7188,3.8281 -3.8281,3.8281 h -30.953 c 2.625,-2.4297 5.1172,-4.9883 7.4922,-7.6562 z m -171.18,-89.598 V 97.993 c 0,-3.8164 1.8281,-7.207 5.0078,-9.3086 3.1836,-2.1016 7.0234,-2.4375 10.531,-0.94141 36.969,15.836 78.051,16.723 115.66,2.4922 9.7578,-3.6953 17.434,-11.418 21.066,-21.195 l 3.8164,-10.281 c 8.0391,12.227 12.59,26.172 13.332,40.883 l -18.789,11.781 c -1.793,1.125 -2.3281,3.4883 -1.2148,5.2734 0.72266,1.1602 1.9688,1.793 3.25,1.793 0.69922,0 1.3984,-0.1875 2.0352,-0.58984 l 14.852,-9.3086 v 9.4492 l -14.875,9.3281 c -1.793,1.125 -2.3281,3.4883 -1.2148,5.2734 0.72266,1.1602 1.9688,1.793 3.25,1.793 0.69922,0 1.3984,-0.1875 2.0352,-0.58984 l 10.805,-6.7812 v 1.8906 l -1.3125,57.938 c -2.1562,43.793 -31.805,81.727 -73.785,94.379 l -10.074,3.0391 c -7.6797,2.3086 -15.793,2.3203 -23.461,0 l -10.074,-3.0391 c -24.27,-7.3164 -44.91,-23.176 -58.273,-44.691 4.9375,-23.008 7.4297,-46.512 7.4297,-70.191 z m -12.172,89.598 h 9.7461 c 2.3828,2.6797 4.8906,5.2266 7.5039,7.6562 h -19.445 c 0.76172,-2.5352 1.4961,-5.0977 2.1953,-7.6562 z m 30.602,53.957 h -32.746 c -2.1094,0 -3.8281,-1.7188 -3.8281,-3.8281 0,-2.1093 1.7188,-3.8281 3.8281,-3.8281 h 32.746 z m 0,-23.145 h -38.215 c -2.1094,0 -3.8281,-1.7188 -3.8281,-3.8281 0,-2.1093 1.7188,-3.8281 3.8281,-3.8281 h 38.215 z m -43.641,-73.555 c 7.3047,-5.9492 12.949,-13.52 16.602,-21.961 -1.9375,25.582 -6.8594,50.836 -14.711,75.359 -0.17578,0.52344 -0.54688,0.77734 -1.082,0.75391 -0.54687,-0.0234 -0.89844,-0.31641 -1.0078,-0.85156 l -11.352,-52.117 c 3.5469,1.8125 8.0508,1.6602 11.551,-1.1836 z m -39.812,34.594 c -0.043,-0.25 0.0859,-0.50391 0.32812,-0.60156 l 9.5586,-4.0469 c 0.0781,-0.0312 0.14062,-0.043 0.21875,-0.043 0.0859,0 0.17578,0.0234 0.26172,0.0664 0.15234,0.0859 0.25,0.20703 0.27344,0.38281 l 19.426,105.9 c 0.043,0.25 -0.0859,0.50391 -0.32812,0.60156 l -9.5586,4.0469 c -0.15234,0.0664 -0.31641,0.0664 -0.46875,-0.0234 -0.15234,-0.0859 -0.25,-0.20703 -0.27344,-0.38281 z m 103.29,289.99 c -23.406,-1.0156 -46.57,-2.9648 -68.578,-5.8633 -20.32,-2.6797 -36.062,-18.801 -38.25,-39.223 l -8.9141,-82.809 c -2.5273,-23.484 6.7031,-45.828 23.254,-60.801 l 1.0938,5.9727 c 0.44922,2.4609 1.9688,4.5508 4.1797,5.7422 1.2148,0.65625 2.5469,0.98438 3.8945,0.98438 1.082,0 2.1641,-0.21875 3.2031,-0.65625 l 9.5586,-4.0469 c 3.5664,-1.5078 5.5664,-5.2266 4.8672,-9.0352 l -2.4727,-13.453 c 2.5156,-0.89844 5.0859,-1.6641 7.7422,-2.2734 5.7852,-1.3359 39.66,-6.1562 44.406,-6.1562 2.1094,0 3.8281,-1.7188 3.8281,-3.8281 v -20.758 l 10.094,5.1523 c 1.2891,0.65625 2.0898,1.957 2.0898,3.4141 z m 185.13,-127.89 -8.957,83.246 c -2.1875,20.332 -17.926,36.465 -38.281,39.223 -39.715,5.3828 -85.246,7.2852 -130.24,5.7188 v -197.7 c 8.8828,2.3398 17.84,3.5312 26.809,3.5312 4.125,0 8.2461,-0.25 12.359,-0.74219 2.1016,-0.25 3.5977,-2.1641 3.3359,-4.2656 -0.25,-2.1016 -2.1562,-3.5977 -4.2656,-3.3359 -12.73,1.543 -25.582,0.49219 -38.25,-3.1172 v -22.336 c 0,-4.3438 -2.4062,-8.2578 -6.2656,-10.227 l -13.574,-6.9141 v -14.012 c 7.0859,3.9922 14.645,7.2422 22.562,9.625 l 10.074,3.0391 c 4.5625,1.3789 9.2539,2.0547 13.945,2.0547 4.6911,0 9.3828,-0.6875 13.945,-2.0664 l 10.074,-3.0391 c 8.1914,-2.4727 15.945,-5.8516 23.176,-9.9844 v 14.371 l -13.574,6.9141 c -3.8711,1.9688 -6.2656,5.8945 -6.2656,10.238 v 213.38 c 0,2.1094 1.7188,3.8281 3.8281,3.8281 2.1094,0 3.8281,-1.7188 3.8281,-3.8281 v -213.37 c 0,-1.4453 0.79688,-2.7578 2.0898,-3.4141 l 10.094,-5.1406 v 20.715 c 0,2.1094 1.7188,3.8281 3.8281,3.8281 5.7188,0 37.121,4.5273 44.406,6.2109 2.582,0.60156 5.0977,1.3438 7.5469,2.2109 l -2.4844,13.52 c -0.69922,3.8047 1.3008,7.5234 4.8672,9.0352 l 9.5586,4.0469 c 1.0273,0.4375 2.1211,0.65625 3.2031,0.65625 1.3359,0 2.668,-0.32812 3.8945,-0.98438 2.1992,-1.1797 3.7188,-3.2812 4.1797,-5.7422 l 1.125,-6.1367 c 16.648,14.977 25.969,37.387 23.43,60.957 z"
       id="path717" />
  </g>
</svg>
